<svg xmlns="http://www.w3.org/2000/svg" width="305" height="251.8" viewBox="0 0 305 251.8">
    <defs>
        <clipPath id="prefix__clip-path">
            <path id="prefix__Path_1446" fill="#f1f5f2" d="M.5.479h305v251.8H.5z" data-name="Path 1446" transform="translate(121.5 3947.021)"/>
        </clipPath>
    </defs>
    <g id="prefix__logo_mask" clip-path="url(#prefix__clip-path)" transform="translate(-122 -3947.5)">
        <path id="prefix__Path_1445" fill="#3e5b6a" d="M5431 81.631a152.606 152.606 0 0 1 18.463-72.717l42.186 43.429A96.514 96.514 0 0 0 5626.086 168.3l-55.072-37.14a27.811 27.811 0 0 1-12.262-23.41 27.77 27.77 0 0 1-1.582-9.273v-37.1a27.822 27.822 0 1 1 55.645 0v30.856l54.793 36.957a96.677 96.677 0 0 0 9.678-71l43.082-44.357a152.359 152.359 0 0 1-6.164 146.789l3.25 2.192a27.817 27.817 0 1 1-31.105 46.125l-9.57-6.456a151.866 151.866 0 0 1-93.148 31.788c-84.162.004-152.631-68.478-152.631-152.64zm233.232-53.119a97.469 97.469 0 0 0-32.67-30.674l30.176-47.3a153.347 153.347 0 0 1 40.783 35.468l-38.279 42.5-.01.013zm-157.986-4.578l-37.961-42.157a153.125 153.125 0 0 1 42.631-34.311l30.275 47.46a97.274 97.274 0 0 0-34.934 29.008l-.012.013zm77.381-38.825a98.15 98.15 0 0 0-10.424.56l-29.646-51.326a153.016 153.016 0 0 1 86.414 1.844l-29.121 50.447-.008.013a97.35 97.35 0 0 0-17.213-1.539z" data-name="Path 1445" opacity="0.09" transform="translate(-5309.281 3997.725)"/>
    </g>
</svg>
