<svg xmlns="http://www.w3.org/2000/svg" width="480.369" height="597" viewBox="0 0 480.369 597">
    <defs>
        <clipPath id="prefix__clip-path">
            <path id="prefix__Path_1192" d="M834.874 509.847l21.987 1.051 6.391-31.005 7.761 28.9 23.245.526 4.646-37.346a21.6 21.6 0 0 0-4.646-16.256l-57.807 2.628z" class="prefix__cls-1" data-name="Path 1192" transform="translate(-834.874 -455.719)"/>
        </clipPath>
        <style>
            .prefix__cls-1{fill:#2bc783}.prefix__cls-4{fill:#fff}.prefix__cls-5{fill:#e6e6e6}.prefix__cls-6{fill:#fbbebe}.prefix__cls-7{fill:#2f2e41}.prefix__cls-8{fill:#355261}.prefix__cls-10{fill:#d8eedd}
        </style>
    </defs>
    <g id="prefix__mobile-illu" transform="translate(-25.631 30)">
        <ellipse id="prefix__Ellipse_264" cx="223.5" cy="12.5" fill="#f1f5f2" data-name="Ellipse 264" rx="223.5" ry="12.5" transform="translate(59 542)"/>
        <g id="prefix__Group_1115" data-name="Group 1115" transform="translate(25.631 -30)">
            <path id="prefix__Path_815" fill="#ebefec" d="M475.407 286.089v156.935H883.53V286.089A204.052 204.052 0 0 0 691.248 82.36q-5.837-.341-11.779-.333c-2.25 0-4.5.033-6.727.114a203.383 203.383 0 0 0-137.56 59.653c-1.1 1.1-2.185 2.218-3.274 3.339a205.563 205.563 0 0 0-15.7 18.514 203.141 203.141 0 0 0-40.801 122.442z" data-name="Path 815" transform="translate(-475.407 -82.024)"/>
            <path id="prefix__Path_816" d="M712.092 82.141v360.88H730.6V82.36q-5.844-.341-11.781-.337c-2.251 0-4.498.034-6.727.118z" class="prefix__cls-4" data-name="Path 816" transform="translate(-514.759 -82.023)"/>
            <path id="prefix__Path_817" d="M525.633 178.223h326.513a204.658 204.658 0 0 0-15.694-18.513H541.326a204.638 204.638 0 0 0-15.693 18.513z" class="prefix__cls-4" data-name="Path 817" transform="translate(-484.825 -96.599)"/>
            <path id="prefix__Rectangle_489" d="M0 0H144.644V226.362H0z" class="prefix__cls-4" data-name="Rectangle 489" transform="translate(31.066 134.638)"/>
            <path id="prefix__Rectangle_490" d="M0 0H21.879V21.879H0z" class="prefix__cls-5" data-name="Rectangle 490" transform="translate(128.61 176.007)"/>
            <path id="prefix__Rectangle_491" d="M0 0H21.879V21.879H0z" class="prefix__cls-5" data-name="Rectangle 491" transform="translate(93.36 176.007)"/>
            <path id="prefix__Rectangle_492" d="M0 0H21.879V21.879H0z" class="prefix__cls-5" data-name="Rectangle 492" transform="translate(58.11 176.007)"/>
            <path id="prefix__Rectangle_493" d="M0 0H21.879V21.879H0z" class="prefix__cls-5" data-name="Rectangle 493" transform="translate(128.002 225.842)"/>
            <path id="prefix__Rectangle_494" d="M0 0H21.879V21.879H0z" class="prefix__cls-5" data-name="Rectangle 494" transform="translate(92.752 225.842)"/>
            <path id="prefix__Rectangle_495" d="M0 0H21.879V21.879H0z" class="prefix__cls-5" data-name="Rectangle 495" transform="translate(57.503 225.842)"/>
            <path id="prefix__Rectangle_496" d="M0 0H21.879V21.879H0z" class="prefix__cls-5" data-name="Rectangle 496" transform="translate(127.395 275.679)"/>
            <path id="prefix__Rectangle_497" d="M0 0H21.879V21.879H0z" class="prefix__cls-5" data-name="Rectangle 497" transform="translate(92.144 275.679)"/>
            <path id="prefix__Rectangle_498" d="M0 0H21.879V21.879H0z" class="prefix__cls-5" data-name="Rectangle 498" transform="translate(56.896 275.679)"/>
            <path id="prefix__Rectangle_499" d="M0 0H21.879V21.879H0z" class="prefix__cls-5" data-name="Rectangle 499" transform="translate(126.787 325.514)"/>
            <path id="prefix__Rectangle_500" d="M0 0H21.879V21.879H0z" class="prefix__cls-5" data-name="Rectangle 500" transform="translate(91.537 325.514)"/>
            <path id="prefix__Rectangle_501" d="M0 0H21.879V21.879H0z" class="prefix__cls-5" data-name="Rectangle 501" transform="translate(56.287 325.514)"/>
            <path id="prefix__Rectangle_502" d="M0 0H21.879V21.879H0z" class="prefix__cls-5" data-name="Rectangle 502" transform="translate(126.787 325.514)"/>
            <path id="prefix__Rectangle_503" d="M0 0H21.879V21.879H0z" class="prefix__cls-5" data-name="Rectangle 503" transform="translate(91.537 325.514)"/>
            <path id="prefix__Rectangle_504" d="M0 0H21.879V21.879H0z" class="prefix__cls-5" data-name="Rectangle 504" transform="translate(56.287 325.514)"/>
            <circle id="prefix__Ellipse_215" cx="30.155" cy="30.155" r="30.155" class="prefix__cls-4" data-name="Ellipse 215" transform="translate(329.457 250.898)"/>
            <path id="prefix__Path_818" d="M353.667 425.909h2.941l-.918-49.8-.552-30.147h-.081l-.528 30.147-.292 17.149-.033 1.665z" class="prefix__cls-4" data-name="Path 818" transform="translate(4.39 -64.91)"/>
            <path id="prefix__Rectangle_505" d="M0 0H1.491V5.633H0z" class="prefix__cls-4" data-name="Rectangle 505" transform="rotate(117.766 80.583 273.034)"/>
            <circle id="prefix__Ellipse_216" cx="45.856" cy="45.856" r="45.856" class="prefix__cls-4" data-name="Ellipse 216" transform="translate(225.102 190.681)"/>
            <path id="prefix__Path_819" d="M461.837 415.628h4.59l-.951-51.675-.5-26.939-.845-45.851h-.13l-.8 45.843-.455 26.086-.049 2.535z" class="prefix__cls-4" data-name="Path 819" transform="translate(-193.304 -54.628)"/>
            <path id="prefix__Rectangle_506" d="M0 0H2.268V8.566H0z" class="prefix__cls-4" data-name="Rectangle 506" transform="rotate(117.766 42.195 236.499)"/>
            <path id="prefix__Path_820" d="M521.327 317.839l-7.746-6.2c6.018-.664 8.49 2.618 9.5 5.216 4.7-1.952 9.819.606 9.819.606l-15.5 5.627a11.729 11.729 0 0 1 3.924-5.253z" class="prefix__cls-4" data-name="Path 820" transform="translate(-155.789 -125.089)"/>
            <path id="prefix__Path_821" d="M621.8 255.689l-7.746-6.2c6.018-.664 8.49 2.618 9.5 5.216 4.7-1.952 9.819.606 9.819.606l-15.5 5.627a11.729 11.729 0 0 1 3.924-5.253z" class="prefix__cls-4" data-name="Path 821" transform="translate(-337.888 -113.428)"/>
            <path id="prefix__Path_822" d="M583.477 314.732l-7.747-6.2c6.018-.664 8.491 2.618 9.5 5.216 4.7-1.952 9.82.606 9.82.606l-15.5 5.627a11.73 11.73 0 0 1 3.924-5.253z" class="prefix__cls-4" data-name="Path 822" transform="translate(-268.429 -124.506)"/>
        </g>
        <g id="prefix__Group_1111" data-name="Group 1111" transform="translate(81.965 265.225)">
            <path id="prefix__Path_1077" d="M772.512 230.538l3.74 3.692-4.969 12.965-6.932-14.373L753 167.568l17.462-.487z" class="prefix__cls-6" data-name="Path 1077" transform="translate(-752.095 -89.687)"/>
            <path id="prefix__Path_1078" d="M675.543 472.271H685l7.357-83.557h-18.391z" class="prefix__cls-6" data-name="Path 1078" transform="translate(-626.67 -194.848)"/>
            <path id="prefix__Path_1079" d="M743.543 472.271H753l7.357-83.557h-18.391z" class="prefix__cls-6" data-name="Path 1079" transform="translate(-730.405 -194.848)"/>
            <path id="prefix__Path_1080" d="M915.164 719.41l13.81-.073a5.572 5.572 0 0 0 2.725-6.94 5.572 5.572 0 0 0-4.3-3.54l-2.609-.435-2.273-2.893a4.3 4.3 0 0 0-5.654-1.051c-2.181 1.384-5.2 1.845-8.934 1.536l-2.9 7.087c-.575 3.834 2.05 6.363 5.879 6.968a7.058 7.058 0 0 0 4.257-.659z" class="prefix__cls-7" data-name="Path 1080" transform="translate(-894.7 -431.087)"/>
            <path id="prefix__Path_1081" d="M847.164 719.295l13.81-.073a5.572 5.572 0 0 0 2.725-6.94 5.572 5.572 0 0 0-4.3-3.54l-2.609-.435-2.528-3.217a3.92 3.92 0 0 0-5.264-.815c-2.19 1.452-5.262 1.939-9.069 1.623l-2.9 7.087c-.575 3.834 2.05 6.363 5.879 6.968a7.058 7.058 0 0 0 4.256-.658z" class="prefix__cls-7" data-name="Path 1081" transform="translate(-790.965 -430.972)"/>
            <circle id="prefix__Ellipse_269" cx="14.189" cy="14.189" r="14.189" class="prefix__cls-6" data-name="Ellipse 269" transform="translate(32.056 4.68)"/>
            <path id="prefix__Path_1082" d="M879.03 252.791l23.123 1.577c-.082-7.483.245-14.26 2.1-18.393l-16.291-5.255c-.155 6.588-3.611 14.08-8.932 22.071z" class="prefix__cls-6" data-name="Path 1082" transform="translate(-853.28 -206.595)"/>
            <path id="prefix__Path_1083" d="M841.641 367.129l59.383-4.73c-7.923-26.413-5.444-61 2.628-86.929a14.962 14.962 0 0 0-9.611-13.973l-15.088-5.778-18.919 2.1-15.952 7.981a14.566 14.566 0 0 0-8.049 13.3c5.996 23.978 6.718 54.813 5.608 88.029z" class="prefix__cls-8" data-name="Path 1083" transform="translate(-830.08 -218.457)"/>
            <path id="prefix__Path_1084" d="M818.03 306.286l26.8-4.73-2.307-17.879a22.178 22.178 0 0 0-16.209-18.572l-5.132-1.387z" class="prefix__cls-8" data-name="Path 1084" transform="translate(-761.8 -222.253)"/>
            <path id="prefix__Path_1085" d="M650.323 233.878l-3.153 4.2 4.73 13.138 6.832-16.291 1.577-66.215-17.342 2.1z" class="prefix__cls-6" data-name="Path 1085" transform="translate(-578.328 -90.462)"/>
            <path id="prefix__Path_1086" d="M951.832 308.286l-26.8-4.73 2.307-17.878a22.178 22.178 0 0 1 16.209-18.572l5.132-1.387z" class="prefix__cls-8" data-name="Path 1086" transform="translate(-925.03 -223.202)"/>
            <path id="prefix__Path_1087" fill="#23a277" d="M834.874 509.847l21.987 1.051 6.391-31.005 7.761 28.9 23.245.526 4.646-37.346a21.6 21.6 0 0 0-4.646-16.256l-57.807 2.628z" data-name="Path 1087" transform="translate(-824.889 -313.354)"/>
            <ellipse id="prefix__Ellipse_270" cx="2.628" cy="3.153" class="prefix__cls-6" data-name="Ellipse 270" rx="2.628" ry="3.153" transform="translate(48.61 19.657)"/>
            <path id="prefix__Path_1088" d="M873.215 219.186l-10.61-2.009-6.312-10.783a14.336 14.336 0 0 1 1.678-16.79 14.336 14.336 0 0 1 12.721-4.644l13.751 1.964a9.08 9.08 0 0 1 7.7 10.336l-9.262 1.576z" class="prefix__cls-7" data-name="Path 1088" transform="translate(-828.283 -184.814)"/>
            <g id="prefix__Mask_Group_23" clip-path="url(#prefix__clip-path)" data-name="Mask Group 23" transform="translate(9.985 142.365)">
                <path id="prefix__Path_1191" d="M83.217 297.394L98 358.83s35.811 28.583 37.125-2.957a139.264 139.264 0 0 0-9.528-56.18H86.831z" class="prefix__cls-1" data-name="Path 1191" transform="translate(-61.261 -300.752)"/>
            </g>
        </g>
    </g>
</svg>
