<svg xmlns="http://www.w3.org/2000/svg" width="34" height="31.875" viewBox="0 0 34 31.875">
    <defs>
        <linearGradient id="prefix__linear-gradient" x1=".5" x2=".5" y2="1" gradientUnits="objectBoundingBox">
            <stop offset="0" stop-color="#fff"/>
            <stop offset="1" stop-color="#ebefec"/>
        </linearGradient>
    </defs>
    <path id="prefix__web-icon" fill="url(#prefix__linear-gradient)" fill-rule="evenodd" d="M51 67.3l2.061 2.061a1.738 1.738 0 0 0 2.461-2.461l-2.054-2.06 2.054-2.054s-7.777-3.322-8.1-3.443a1.5 1.5 0 0 0-.531-.1 1.48 1.48 0 0 0-1.487 1.473 1.433 1.433 0 0 0 .1.531c.12.3 3.442 8.111 3.442 8.111zm-19.051 6.819a2.833 2.833 0 0 0 2.833 2.833h28.334a2.832 2.832 0 0 0 2.833-2.833V47.91a2.833 2.833 0 0 0-2.833-2.833H34.782a2.833 2.833 0 0 0-2.833 2.833v26.209zm5.1-19.125h23.8a1.554 1.554 0 0 1 1.558 1.558v15.3a1.554 1.554 0 0 1-1.558 1.559h-23.8a1.554 1.554 0 0 1-1.559-1.559v-15.3a1.554 1.554 0 0 1 1.559-1.558zm-1.559-4.6a1.771 1.771 0 1 1 1.771 1.771 1.771 1.771 0 0 1-1.77-1.775zm6.375 0a1.771 1.771 0 1 1 1.771 1.771 1.771 1.771 0 0 1-1.77-1.775zm6.375 0a1.771 1.771 0 1 1 1.771 1.771 1.771 1.771 0 0 1-1.77-1.775z" transform="translate(-31.949 -45.077)"/>
</svg>
