<svg xmlns="http://www.w3.org/2000/svg" width="56" height="48" viewBox="0 0 56 48">
    <path id="prefix__gift" fill="#23a277" d="M58 16h-6.6a8 8 0 0 0-6.92-12h-1.27a8 8 0 0 0-6.66 3.56L32 14.39l-4.55-6.83A8 8 0 0 0 20.79 4h-1.27a8 8 0 0 0-6.92 12H6a2 2 0 0 0-2 2v11a2 2 0 0 0 2 2h2v19a2 2 0 0 0 2 2h44a2 2 0 0 0 2-2V31h2a2 2 0 0 0 2-2V18a2 2 0 0 0-2-2zM39.88 9.78A4 4 0 0 1 43.21 8h1.27a4 4 0 0 1 4 3.67 3.91 3.91 0 0 1-1 3 4 4 0 0 1-3 1.33h-8.74zm-23.3 4.93a3.91 3.91 0 0 1-1-3 4 4 0 0 1 4-3.67h1.27a4 4 0 0 1 3.33 1.78L28.26 16h-8.74a4 4 0 0 1-2.94-1.29zM8 20h22v7H8zm4 28V31h18v17zm40 0H34V31h18zm4-21H34v-7h22z" transform="translate(-4 -4)"/>
</svg>
