<svg xmlns="http://www.w3.org/2000/svg" width="40.999" height="47.999" viewBox="0 0 40.999 47.999">
    <path id="prefix__pass" fill="#23a277" d="M8644-34a5 5 0 0 1-5-5v-38a5 5 0 0 1 5-5h31a5 5 0 0 1 5 5v38a5 5 0 0 1-5 5zm-1-7a3 3 0 0 0 3 3h27a3 3 0 0 0 3-3v-27h-33zm0-34v3h33v-3a3 3 0 0 0-3-3h-27a3 3 0 0 0-3 3zm12 33a3 3 0 0 1-3-3v-10a3 3 0 0 1 3-3h10a3 3 0 0 1 3 3v10a3 3 0 0 1-3 3zm1-11v6a1 1 0 0 0 1 1h6a1 1 0 0 0 1-1v-6a1 1 0 0 0-1-1h-6a1 1 0 0 0-1 1z" transform="translate(-8639 81.999)"/>
</svg>
