<svg xmlns="http://www.w3.org/2000/svg" width="617.684" height="387.5" viewBox="0 0 617.684 387.5">
    <defs>
        <style>
            .prefix__cls-1{fill:#e6e6e6}.prefix__cls-2{fill:#ebefec}.prefix__cls-3{fill:#fff}.prefix__cls-4{fill:#f1f5f2}.prefix__cls-5{fill:#2bc783}.prefix__cls-6{fill:#a0616a}.prefix__cls-7{fill:#355261}.prefix__cls-8{fill:#2f2e41}.prefix__cls-9{opacity:.1}.prefix__cls-10{fill:#d0cde1}.prefix__cls-11{fill:#d8eedd}.prefix__cls-13{fill:#ffb8b8}
        </style>
    </defs>
    <g id="prefix__texting-illu" transform="translate(-634 -2469)">
        <g id="prefix__Group_1079" data-name="Group 1079" transform="translate(633.729 2469)">
            <g id="prefix__Group_1088" data-name="Group 1088" transform="translate(137.663)">
                <path id="prefix__Path_770" d="M327.356 126.923h-7.082c-.518 0-.708.191-.708.708v3.541c0 .518.191.708.708.708h1.416v4.957h4.957v-4.957h.708c.518 0 1.416-.191 1.416-.708v-3.541c.002-.517-.897-.708-1.415-.708z" class="prefix__cls-1" data-name="Path 770" transform="translate(-293.363 -126.923)"/>
                <path id="prefix__Path_771" d="M328.443 159.714a35.481 35.481 0 0 1-6.374-21.246c.008-.365.356-.628 0-.708v-1.416h-7.79v1.416a.671.671 0 0 0-.708.708c0 .019 0-.019 0 0a33.176 33.176 0 0 1-6.374 21.954c-.262.374-.014.96 0 1.416l.708 24.787a2.161 2.161 0 0 0 2.125 2.125h17a2.129 2.129 0 0 0 2.125-2.125v-24.078a5.4 5.4 0 0 0-.712-2.833z" class="prefix__cls-2" data-name="Path 771" transform="translate(-287.367 -131.386)"/>
                <path id="prefix__Path_772" d="M328.86 197.691h-14.872a2.343 2.343 0 0 0-1.416.708c-.287.334-.067.273 0 .708l2.128 14.873h12.748l2.833-14.872c.083-.441-.421-.363-.708-.708s-.264-.709-.713-.709z" class="prefix__cls-3" data-name="Path 772" transform="translate(-289.909 -160.865)"/>
                <path id="prefix__Path_773" d="M478.631 272.519h-7.082c-.518 0-.708.191-.708.708v3.541c0 .518.191.708.708.708h1.416v4.249h4.957v-4.249h.708c.518 0 1.416-.191 1.416-.708v-3.541c.002-.517-.897-.708-1.415-.708z" class="prefix__cls-1" data-name="Path 773" transform="translate(-444.638 -196.742)"/>
                <path id="prefix__Path_774" d="M479.718 305.31a37.632 37.632 0 0 1-6.374-21.954c.008-.365.356-.628 0-.708v-.708h-7.79v.708a.671.671 0 0 0-.708.708v.708a33.176 33.176 0 0 1-6.374 21.954c-.262.374-.014.96 0 1.416l.708 24.787a2.161 2.161 0 0 0 2.125 2.125h17a2.129 2.129 0 0 0 2.125-2.125v-24.786a3.217 3.217 0 0 0-.712-2.125z" class="prefix__cls-2" data-name="Path 774" transform="translate(-438.642 -201.205)"/>
                <path id="prefix__Path_775" d="M480.135 343.288h-14.872a2.343 2.343 0 0 0-1.416.708c-.287.334-.067.273 0 .708l2.125 14.872h12.748l2.833-14.872c.083-.441-.422-.363-.708-.708s-.261-.708-.71-.708z" class="prefix__cls-3" data-name="Path 775" transform="translate(-441.184 -230.684)"/>
                <path id="prefix__Path_776" d="M312.184 478.038h-2.833c-.246 0-.708-.246-.708 0v2.125c0 .246.463 0 .708 0v2.125h2.833v-2.125c.246 0 .708.246.708 0v-2.125c0-.246-.463 0-.708 0z" class="prefix__cls-1" data-name="Path 776" transform="translate(-288.105 -295.322)"/>
                <path id="prefix__Path_777" d="M312.959 493.562a18.342 18.342 0 0 1-2.833-10.623c0-.173-.539.038-.708 0v-.708h-3.541v.708c-.2 0 0-.2 0 0 0 .009 0-.009 0 0a16.175 16.175 0 0 1-2.833 10.623c-.124.177-.007.492 0 .708v12.04c.019.555.861.7 1.416.708h7.79c.562 0 .7-.146.708-.708l.708-11.331a3.378 3.378 0 0 0-.707-1.417z" class="prefix__cls-4" data-name="Path 777" transform="translate(-285.339 -297.39)"/>
                <path id="prefix__Rectangle_482" d="M0 0H7V4H0z" class="prefix__cls-3" data-name="Rectangle 482" transform="translate(19.609 200)"/>
                <path id="prefix__Path_778" d="M342.148 478.038h-2.833c-.246 0-.708-.245-.708 0v2.125c0 .246.463 0 .708 0v2.125h2.833v-2.125c.246 0 .708.246.708 0v-2.125c0-.246-.463 0-.708 0z" class="prefix__cls-1" data-name="Path 778" transform="translate(-302.489 -295.322)"/>
                <path id="prefix__Path_779" d="M342.923 493.562a18.342 18.342 0 0 1-2.833-10.623c0-.173-.539.038-.708 0v-.708h-3.541v.708c-.2 0 0-.2 0 0 0 .009 0-.009 0 0a16.175 16.175 0 0 1-2.833 10.623c-.124.177-.007.492 0 .708v12.04c.019.555.861.7 1.416.708h7.79c.562 0 .7-.146.708-.708l.708-11.331a3.378 3.378 0 0 0-.707-1.417z" class="prefix__cls-4" data-name="Path 779" transform="translate(-299.723 -297.39)"/>
                <path id="prefix__Rectangle_483" d="M0 0H7V4H0z" class="prefix__cls-3" data-name="Rectangle 483" transform="translate(34.609 200)"/>
                <path id="prefix__Path_780" d="M372.112 478.038h-2.833c-.246 0-.708-.245-.708 0v2.125c0 .246.463 0 .708 0v2.125h2.833v-2.125c.246 0 .708.246.708 0v-2.125c0-.246-.462 0-.708 0z" class="prefix__cls-1" data-name="Path 780" transform="translate(-316.872 -295.322)"/>
                <path id="prefix__Path_781" d="M372.888 493.562a18.342 18.342 0 0 1-2.833-10.623c0-.173.169.038 0 0v-.708h-3.541v.708h-.708c-.2 0 0-.2 0 0 0 .009 0-.009 0 0a16.175 16.175 0 0 1-2.833 10.623c-.124.177-.007.492 0 .708v12.04c.019.555.861.7 1.416.708h7.79c.562 0 .7-.146.708-.708l.708-11.331a3.379 3.379 0 0 0-.707-1.417z" class="prefix__cls-2" data-name="Path 781" transform="translate(-314.107 -297.39)"/>
                <path id="prefix__Rectangle_484" d="M0 0H7V4H0z" class="prefix__cls-3" data-name="Rectangle 484" transform="translate(50.609 200)"/>
                <path id="prefix__Path_782" d="M455.241 422.151h-7.082c-.518 0-.708.191-.708.708v2.833c0 .518.191 1.416.708 1.416h1.416v4.249h4.249v-4.249h1.416c.518 0 .708-.9.708-1.416v-2.832c.001-.518-.189-.709-.707-.709z" class="prefix__cls-1" data-name="Path 782" transform="translate(-354.676 -268.472)"/>
                <path id="prefix__Path_783" d="M456.327 454.651a37.631 37.631 0 0 1-6.374-21.954c.008-.365-.352-.628-.708-.708v-1.416h-7.082v1.416a.671.671 0 0 0-.708.708c0 .019 0-.019 0 0a33.175 33.175 0 0 1-6.374 21.954c-.262.374-.014.96 0 1.416l.708 25.5a2.161 2.161 0 0 0 2.125 2.125h17a2.129 2.129 0 0 0 2.125-2.125v-24.792a3.217 3.217 0 0 0-.712-2.124z" class="prefix__cls-2" data-name="Path 783" transform="translate(-348.681 -272.643)"/>
                <path id="prefix__Path_784" d="M455.8 491.92h-14.163a2.343 2.343 0 0 0-1.416.708c-.287.334-.775.981-.708 1.416l2.833 14.164h12.748l2.125-14.164c.083-.441.287-1.071 0-1.416a2.262 2.262 0 0 0-1.419-.708z" class="prefix__cls-3" data-name="Path 784" transform="translate(-350.987 -302.122)"/>
                <path id="prefix__Path_785" d="M431.5 192.418H389c2.946-15.929 2.268-35.262 0-55.948h42.5c-2.211 20.686-2.87 40.019 0 55.948z" class="prefix__cls-2" data-name="Path 785" transform="translate(-326.683 -131.513)"/>
                <circle id="prefix__Ellipse_204" cx="10.5" cy="10.5" r="10.5" class="prefix__cls-3" data-name="Ellipse 204" transform="translate(73.609 21)"/>
                <path id="prefix__Path_787" d="M476.963 199.232h-41.784c2.946-15.929 2.268-35.262 0-55.948h41.784c-2.208 20.685-2.863 40.016 0 55.948z" class="prefix__cls-1" data-name="Path 787" transform="translate(-348.779 -134.785)"/>
                <circle id="prefix__Ellipse_206" cx="10" cy="10" r="10" class="prefix__cls-3" data-name="Ellipse 206" transform="translate(97.609 25)"/>
                <path id="prefix__Path_788" d="M476.963 193.937h-41.784c2.946-15.929 2.268-35.262 0-55.948h41.784c-2.208 20.685-2.863 40.019 0 55.948z" class="prefix__cls-1" data-name="Path 788" transform="translate(-348.779 -132.323)"/>
                <circle id="prefix__Ellipse_207" cx="10" cy="10" r="10" class="prefix__cls-3" data-name="Ellipse 207" transform="translate(97.609 22)"/>
                <path id="prefix__Path_789" d="M476.963 199.232h-41.784c2.946-15.929 2.268-35.262 0-55.948h41.784c-2.208 20.685-2.863 40.016 0 55.948z" class="prefix__cls-2" data-name="Path 789" transform="translate(-348.779 -134.785)"/>
                <circle id="prefix__Ellipse_208" cx="10" cy="10" r="10" class="prefix__cls-3" data-name="Ellipse 208" transform="translate(97.609 25)"/>
                <path id="prefix__Rectangle_485" d="M0 0H138V15H0z" class="prefix__cls-2" data-name="Rectangle 485" transform="translate(-.391 58)"/>
                <path id="prefix__Rectangle_486" d="M0 0H138V16H0z" class="prefix__cls-2" data-name="Rectangle 486" transform="translate(-.391 133)"/>
                <path id="prefix__Rectangle_487" d="M0 0H138V16H0z" class="prefix__cls-4" data-name="Rectangle 487" transform="translate(-.391 209)"/>
            </g>
            <g id="prefix__Group_1087" data-name="Group 1087" transform="translate(.271)">
                <path id="prefix__Path_1007" d="M327.519 126.923h-7.082c-.518 0-.708.191-.708.708v3.541c0 .518.191.708.708.708h1.416v4.957h4.957v-4.957h.708c.518 0 1.416-.191 1.416-.708v-3.541c.001-.517-.898-.708-1.415-.708z" class="prefix__cls-1" data-name="Path 1007" transform="translate(-293.525 -126.923)"/>
                <path id="prefix__Path_1003" d="M328.605 159.714a35.481 35.481 0 0 1-6.374-21.246c.008-.365-.352-.628-.708-.708v-1.416h-7.082v1.416a.671.671 0 0 0-.708.708c0 .019 0-.019 0 0a33.176 33.176 0 0 1-6.374 21.954c-.262.374-.014.96 0 1.416l.708 24.787a2.161 2.161 0 0 0 2.125 2.125h17a2.129 2.129 0 0 0 2.125-2.125v-24.078a5.4 5.4 0 0 0-.712-2.833z" class="prefix__cls-2" data-name="Path 1003" transform="translate(-287.529 -131.386)"/>
                <path id="prefix__Path_1004" d="M328.314 197.691H314.15a2.343 2.343 0 0 0-1.416.708c-.287.334-.067.273 0 .708l2.125 14.872h12.748l2.833-14.872c.083-.441-.421-.363-.708-.708a2.262 2.262 0 0 0-1.418-.708z" class="prefix__cls-3" data-name="Path 1004" transform="translate(-290.071 -160.865)"/>
                <path id="prefix__Path_998" d="M478.669 272.519h-7.082c-.518 0-.708.191-.708.708v3.541c0 .518.191.708.708.708H473v4.249h4.957v-4.249h.708c.518 0 1.416-.191 1.416-.708v-3.541c.005-.517-.894-.708-1.412-.708z" class="prefix__cls-1" data-name="Path 998" transform="translate(-366.065 -196.742)"/>
                <path id="prefix__Path_1009" d="M478.582 272.519H471.5c-.518 0-.708.191-.708.708v3.541c0 .518.191.708.708.708h1.416v4.249h4.957v-4.249h.708c.518 0 1.416-.191 1.416-.708v-3.541c.003-.517-.897-.708-1.415-.708z" class="prefix__cls-1" data-name="Path 1009" transform="translate(-436.09 -196.742)"/>
                <path id="prefix__Path_991" d="M479.756 305.31a37.632 37.632 0 0 1-6.374-21.954c.008-.365.356-.628 0-.708v-.708h-7.79v.708a.671.671 0 0 0-.708.708v.708a33.176 33.176 0 0 1-6.374 21.954c-.262.374-.014.96 0 1.416l.708 24.787a2.161 2.161 0 0 0 2.125 2.125h17a2.129 2.129 0 0 0 2.125-2.125v-24.786a3.217 3.217 0 0 0-.712-2.125z" class="prefix__cls-2" data-name="Path 991" transform="translate(-360.069 -201.205)"/>
                <path id="prefix__Path_1008" d="M479.669 305.31a37.632 37.632 0 0 1-6.374-21.954c.008-.365.356-.628 0-.708v-.708H465.5v.708a.671.671 0 0 0-.708.708v.708a33.176 33.176 0 0 1-6.374 21.954c-.262.374-.014.96 0 1.416l.708 24.787a2.161 2.161 0 0 0 2.125 2.125h17a2.129 2.129 0 0 0 2.125-2.125v-24.786a3.217 3.217 0 0 0-.707-2.125z" class="prefix__cls-2" data-name="Path 1008" transform="translate(-430.094 -201.205)"/>
                <path id="prefix__Path_994" d="M480.173 343.288H465.3a2.343 2.343 0 0 0-1.416.708c-.287.334-.067.273 0 .708l2.125 14.872h12.748l2.833-14.872c.083-.441-.422-.363-.708-.708s-.26-.708-.709-.708z" class="prefix__cls-3" data-name="Path 994" transform="translate(-362.611 -230.684)"/>
                <path id="prefix__Path_1010" d="M480.086 343.288h-14.872a2.343 2.343 0 0 0-1.414.712c-.287.334-.067.273 0 .708l2.125 14.872h12.748l2.827-14.88c.083-.441-.422-.363-.708-.708s-.257-.704-.706-.704z" class="prefix__cls-3" data-name="Path 1010" transform="translate(-432.636 -230.684)"/>
                <path id="prefix__Path_1006" d="M312.3 478.038h-3.54c-.246 0 0-.246 0 0v2.125c0 .246-.246 0 0 0h.708v2.125h2.125v-2.125h.708c.246 0 .708.246.708 0v-2.125c.001-.246-.462 0-.709 0z" class="prefix__cls-1" data-name="Path 1006" transform="translate(-288.223 -295.322)"/>
                <path id="prefix__Path_1016" d="M312.273 478h-3.541c-.246 0 0 .463 0 .708v1.416c0 .245-.246 0 0 0h.708v2.125h2.125v-2.119h.708c.246 0 .708.245.708 0v-1.416a1.028 1.028 0 0 0-.708-.714z" class="prefix__cls-1" data-name="Path 1016" transform="translate(-221.623 -447.552)"/>
                <path id="prefix__Path_1005" d="M312.853 493.562a18.342 18.342 0 0 1-2.833-10.623c0-.173-.539.038-.708 0v-.708h-3.541v.708c-.2 0 0-.2 0 0 0 .009 0-.009 0 0a16.175 16.175 0 0 1-2.833 10.623c-.124.177-.715.492-.708.708l.708 12.039c.019.555.153.7.708.708h8.5c.562 0 .7-.146.708-.708v-11.33c.004-.427.239-1.063-.001-1.417z" class="prefix__cls-2" data-name="Path 1005" transform="translate(-285.233 -297.39)"/>
                <path id="prefix__Path_1015" d="M312.825 493.484a18.342 18.342 0 0 1-2.833-10.623c0-.173-.539.038-.708 0v-.708h-3.541v.708c-.2 0 0-.2 0 0v.708a14.287 14.287 0 0 1-2.833 9.915c-.124.177-.715.492-.708.708l.708 12.039c.019.555.153.7.708.708h8.5c.562 0 .7-.146.708-.708V494.9c.003-.426.238-1.062-.001-1.416z" class="prefix__cls-2" data-name="Path 1015" transform="translate(-218.634 -449.576)"/>
                <path id="prefix__Rectangle_657" d="M0 0H8V4H0z" class="prefix__cls-3" data-name="Rectangle 657" transform="translate(18 200)"/>
                <path id="prefix__Rectangle_658" d="M0 0H8V4H0z" class="prefix__cls-3" data-name="Rectangle 658" transform="translate(85 48)"/>
                <path id="prefix__Path_997" d="M342.266 478.038h-3.541c-.246 0 0-.245 0 0v2.125c0 .246-.246 0 0 0h.708v2.125h2.125v-2.125h.708c.246 0 .708.246.708 0v-2.125c0-.246-.463 0-.708 0z" class="prefix__cls-1" data-name="Path 997" transform="translate(-302.606 -295.322)"/>
                <path id="prefix__Path_1013" d="M342.237 478H338.7c-.245 0 0 .463 0 .708v1.416c0 .245-.246 0 0 0h.708v2.125h2.125v-2.119h.708c.246 0 .708.245.708 0v-1.416a1.028 1.028 0 0 0-.712-.714z" class="prefix__cls-1" data-name="Path 1013" transform="translate(-236.007 -447.552)"/>
                <path id="prefix__Path_996" d="M342.817 493.562a18.342 18.342 0 0 1-2.833-10.623c0-.173-.539.038-.708 0v-.708h-3.541v.708c-.2 0 0-.2 0 0 0 .009 0-.009 0 0a16.175 16.175 0 0 1-2.833 10.623c-.124.177-.715.492-.708.708l.708 12.039c.019.555.153.7.708.708h8.5c.562 0 .7-.146.708-.708v-11.33c.004-.427.239-1.063-.001-1.417z" class="prefix__cls-2" data-name="Path 996" transform="translate(-299.617 -297.39)"/>
                <path id="prefix__Path_1014" d="M342.789 493.484a18.342 18.342 0 0 1-2.833-10.623c0-.173-.539.038-.708 0v-.708h-3.541v.708c-.2 0 0-.2 0 0v.708a14.287 14.287 0 0 1-2.833 9.915c-.124.177-.715.492-.708.708l.708 12.039c.019.555.153.7.708.708h8.5c.562 0 .7-.146.708-.708V494.9c.003-.426.238-1.062-.001-1.416z" class="prefix__cls-2" data-name="Path 1014" transform="translate(-233.018 -449.576)"/>
                <path id="prefix__Rectangle_655" d="M0 0H7V4H0z" class="prefix__cls-3" data-name="Rectangle 655" transform="translate(35 200)"/>
                <path id="prefix__Rectangle_659" d="M0 0H7V4H0z" class="prefix__cls-3" data-name="Rectangle 659" transform="translate(101 48)"/>
                <path id="prefix__Path_995" d="M372.23 478.038h-3.541c-.246 0 0-.245 0 0v2.125c0 .246-.246 0 0 0h.708v2.125h2.125v-2.125h.708c.246 0 .708.246.708 0v-2.125c0-.246-.463 0-.708 0z" class="prefix__cls-1" data-name="Path 995" transform="translate(-316.99 -295.322)"/>
                <path id="prefix__Path_1012" d="M372.246 478h-2.833a1.028 1.028 0 0 0-.708.708v1.416c0 .245.463 0 .708 0v2.125h2.125v-2.119h.708c.246 0 .708.245.708 0v-1.416a1.027 1.027 0 0 0-.708-.714z" class="prefix__cls-1" data-name="Path 1012" transform="translate(-250.436 -447.552)"/>
                <path id="prefix__Path_992" d="M373.05 493.562a18.343 18.343 0 0 1-2.833-10.623c0-.173-.539.038-.708 0v-.708h-3.541v.708c-.2 0 0-.2 0 0 0 .009 0-.009 0 0a16.175 16.175 0 0 1-2.833 10.623c-.125.177-.007.492 0 .708v12.04c.019.555.861.7 1.416.708h7.79c.562 0 .7-.146.708-.708v-11.331c.006-.427.24-1.063.001-1.417z" class="prefix__cls-2" data-name="Path 992" transform="translate(-314.269 -297.39)"/>
                <path id="prefix__Path_1011" d="M373.022 493.484a18.342 18.342 0 0 1-2.833-10.623c0-.173-.539.038-.708 0v-.708h-3.541v.708c-.2 0 0-.2 0 0v.708a14.287 14.287 0 0 1-2.833 9.915c-.124.177-.007.492 0 .708v12.039c.019.555.861.7 1.416.708h7.79c.562 0 .7-.146.708-.708l.708-11.331a3.379 3.379 0 0 0-.707-1.416z" class="prefix__cls-2" data-name="Path 1011" transform="translate(-247.67 -449.576)"/>
                <path id="prefix__Rectangle_654" d="M0 0H7V4H0z" class="prefix__cls-3" data-name="Rectangle 654" transform="translate(50 200)"/>
                <path id="prefix__Rectangle_660" d="M0 0H7V4H0z" class="prefix__cls-3" data-name="Rectangle 660" transform="translate(117 48)"/>
                <path id="prefix__Path_990" d="M455.4 422.151h-7.082c-.518 0-.708.191-.708.708v2.833c0 .518.191 1.416.708 1.416h1.416v4.249h4.249v-4.249h1.417c.518 0 .708-.9.708-1.416v-2.832c.004-.518-.187-.709-.708-.709z" class="prefix__cls-1" data-name="Path 990" transform="translate(-354.839 -268.472)"/>
                <path id="prefix__Path_988" d="M456.247 454.651a37.631 37.631 0 0 1-6.374-21.954c.008-.365-.352-.628-.708-.708v-1.416h-7.082v1.416c-.423 0-1.417.285-1.416.708 0 .019 0-.019 0 0 .588 8.2-1.105 15.448-5.666 21.954a2.989 2.989 0 0 0-.708 1.416l1.416 25.5a2.161 2.161 0 0 0 2.125 2.125h17a2.129 2.129 0 0 0 2.125-2.125v-24.792a3.217 3.217 0 0 0-.712-2.124z" class="prefix__cls-4" data-name="Path 988" transform="translate(-348.601 -272.643)"/>
                <path id="prefix__Path_989" d="M455.964 491.92h-14.873c-.44 0-.422.374-.708.708s-.775.981-.708 1.416l2.125 14.164h12.748l2.833-14.164c.083-.441.287-1.071 0-1.416a2.262 2.262 0 0 0-1.417-.708z" class="prefix__cls-3" data-name="Path 989" transform="translate(-351.15 -302.122)"/>
                <path id="prefix__Rectangle_656" d="M0 0H138V15H0z" class="prefix__cls-2" data-name="Rectangle 656" transform="translate(0 58)"/>
                <path id="prefix__Rectangle_653" d="M0 0H138V16H0z" class="prefix__cls-4" data-name="Rectangle 653" transform="translate(0 133)"/>
                <path id="prefix__Rectangle_652" d="M0 0H138V16H0z" class="prefix__cls-2" data-name="Rectangle 652" transform="translate(0 209)"/>
            </g>
        </g>
        <g id="prefix__Group_1129" data-name="Group 1129" transform="translate(959.676 2473.698)">
            <g id="prefix__Group_1127" data-name="Group 1127" transform="translate(0 .302)">
                <path id="prefix__Rectangle_670" d="M0 0H120.125V120.125H0z" class="prefix__cls-2" data-name="Rectangle 670"/>
                <path id="prefix__Path_1181" d="M276.249 185.917v2.757a12.467 12.467 0 0 0 4.284-4.856c1.6-3.271 1.549-7.041 1.5-10.688-.058-4.335-.116-8.423 2.634-11.086 3.025-2.924 7.866-2.511 12.548-2.113.55.043 1.1.094 1.643.137 4.7.355 9.928-.832 12.468-4.038h-3.169c-2.323 1.563-5.876 2.113-9.14 1.867-.528-.036-1.071-.087-1.614-.13-4.928-.42-10.515-.9-14.241 2.714-3.43 3.314-3.365 8.076-3.3 12.678.051 3.394.094 6.9-1.281 9.7a9.925 9.925 0 0 1-2.332 3.058z" class="prefix__cls-3" data-name="Path 1181" transform="translate(-276.249 -156.03)"/>
                <path id="prefix__Path_1182" d="M203.126 204.985v3.227a13.727 13.727 0 0 1 1.766-1.9c3.734-3.293 9.1-4.016 14.278-4.725.673-.087 1.332-.181 1.99-.275 8.4-1.208 13.612-4.1 15.92-8.807 1.6-3.271 1.549-7.041 1.5-10.688-.058-4.335-.116-8.423 2.634-11.086 3.025-2.924 7.866-2.511 12.548-2.113.55.043 1.1.094 1.643.137 6.035.456 12.961-1.635 13.908-7.287a9.688 9.688 0 0 0-.876-5.435h-2.374a8.777 8.777 0 0 1 1.107 5.073c-.716 4.313-6.52 5.862-11.607 5.478-.528-.036-1.071-.087-1.614-.13-4.928-.42-10.515-.9-14.241 2.714-3.43 3.314-3.365 8.076-3.3 12.678.051 3.394.094 6.9-1.281 9.7-1.968 4.024-6.636 6.513-14.277 7.613-.651.094-1.31.188-1.968.275-5.5.745-11.195 1.52-15.428 5.246q-.165.142-.328.305z" class="prefix__cls-3" data-name="Path 1182" transform="translate(-203.126 -156.03)"/>
                <path id="prefix__Path_1183" d="M121.673 259.389v4.458a31.791 31.791 0 0 0 6.469-11.361c.355-1.013.695-2.048 1.035-3.083 1.874-5.666 3.814-11.52 8.43-15.262 4.935-3.995 12.005-4.877 18.844-5.731.876-.108 1.751-.217 2.62-.333 11.086-1.469 17.954-4.964 21-10.681 2.113-3.973 2.048-8.546 1.983-12.968-.08-5.254-.159-10.218 3.473-13.445 3.987-3.546 10.377-3.047 16.55-2.562.731.058 1.455.116 2.164.166 7.967.55 17.107-1.983 18.352-8.836.615-3.358-.955-6.332-2.468-9.212a23.445 23.445 0 0 1-2.113-4.834 10.555 10.555 0 0 1 2.634-9.675H217.1a12.749 12.749 0 0 0-1.874 10.3 26.122 26.122 0 0 0 2.323 5.362c1.382 2.62 2.677 5.094 2.222 7.627-.955 5.225-8.6 7.106-15.312 6.643-.7-.051-1.418-.109-2.135-.159-6.5-.514-13.865-1.085-18.786 3.293-4.523 4.016-4.436 9.791-4.349 15.37.058 4.118.123 8.365-1.686 11.774-2.6 4.87-8.763 7.895-18.844 9.234-.854.116-1.722.224-2.591.333-7.265.9-14.77 1.838-20.349 6.361-5.232 4.241-7.294 10.457-9.277 16.47-.34 1.028-.68 2.041-1.028 3.047a34.3 34.3 0 0 1-3.741 7.704z" class="prefix__cls-3" data-name="Path 1183" transform="translate(-121.673 -156.03)"/>
                <path id="prefix__Path_1184" d="M173.8 227.72c-3.3 3.995-10.3 5.471-16.571 5.037-.709-.051-1.433-.109-2.164-.166-6.173-.485-12.562-.984-16.55 2.562-3.633 3.227-3.553 8.192-3.473 13.445.065 4.421.13 8.995-1.983 12.968-3.047 5.717-9.914 9.212-21 10.681-.868.116-1.744.224-2.62.333-6.838.854-13.908 1.737-18.844 5.731-4.617 3.741-6.556 9.6-8.43 15.262-.34 1.035-.68 2.07-1.035 3.083-.326.933-.673 1.824-1.035 2.685H77c.543-1.18 1.006-2.359 1.4-3.488.347-1.006.687-2.019 1.028-3.047 1.983-6.013 4.045-12.23 9.277-16.47 5.579-4.523 13.083-5.456 20.349-6.361.868-.109 1.737-.217 2.591-.333 10.08-1.339 16.246-4.364 18.844-9.234 1.809-3.408 1.744-7.656 1.686-11.774-.087-5.579-.174-11.354 4.349-15.37 4.921-4.378 12.287-3.806 18.786-3.293.716.051 1.433.109 2.135.159 6.708.463 14.357-1.418 15.312-6.643.456-2.533-.839-5.008-2.222-7.627a26.122 26.122 0 0 1-2.323-5.362 13.154 13.154 0 0 1 5.588-14.018v3.546a10.587 10.587 0 0 0-2.8 9.849 23.447 23.447 0 0 0 2.113 4.834c.232.441.463.876.687 1.324z" class="prefix__cls-3" data-name="Path 1184" transform="translate(-53.677 -179.214)"/>
                <path id="prefix__Path_1185" d="M77 385.466h3c.159-.47.311-.948.47-1.426 1.874-5.666 3.814-11.52 8.43-15.262 4.935-3.995 12.005-4.877 18.844-5.731.876-.108 1.751-.217 2.62-.333 9.784-1.3 16.289-4.175 19.77-8.763v-7.2a13.657 13.657 0 0 1-1.339 4.125c-2.6 4.87-8.763 7.895-18.844 9.234-.854.116-1.722.224-2.591.333-7.265.9-14.77 1.838-20.349 6.361-5.232 4.241-7.294 10.457-9.277 16.47-.242.737-.481 1.469-.734 2.192z" class="prefix__cls-3" data-name="Path 1185" transform="translate(-10.012 -265.341)"/>
            </g>
            <g id="prefix__Group_1128" data-name="Group 1128" transform="translate(0 156.699)">
                <path id="prefix__Rectangle_671" d="M0 0H292.007V119.755H0z" class="prefix__cls-2" data-name="Rectangle 671"/>
                <circle id="prefix__Ellipse_296" cx="44.585" cy="44.585" r="44.585" class="prefix__cls-3" data-name="Ellipse 296" transform="translate(24.936 -17.622)"/>
                <circle id="prefix__Ellipse_324" cx="42.585" cy="42.585" r="42.585" class="prefix__cls-3" data-name="Ellipse 324" transform="translate(183.936 13.378)"/>
                <circle id="prefix__Ellipse_297" cx="16.593" cy="16.593" r="16.593" class="prefix__cls-3" data-name="Ellipse 297" transform="translate(198.429 64.928)"/>
                <path id="prefix__Path_1187" d="M682.22 388.611v19.623h23.742a16.594 16.594 0 0 0-23.742-19.623z" class="prefix__cls-3" data-name="Path 1187" transform="translate(-682.219 -288.478)"/>
                <ellipse id="prefix__Ellipse_298" cx="4.328" cy="4.329" class="prefix__cls-3" data-name="Ellipse 298" rx="4.328" ry="4.329" transform="translate(93.837 76.47)"/>
            </g>
            <g id="prefix__Group_1126" data-name="Group 1126" transform="translate(171.882 .302)">
                <path id="prefix__Rectangle_672" d="M0 0H120.125V120.125H0z" class="prefix__cls-2" data-name="Rectangle 672"/>
                <path id="prefix__Path_1188" d="M844.475 156.03v49.208h58.615v2.895h-61.51v-52.1z" class="prefix__cls-3" data-name="Path 1188" transform="translate(-782.965 -156.03)"/>
                <path id="prefix__Path_1189" d="M1006.62 367.9l-4.973-7.07v-5.03l8.51 12.1zm20.19-51.8l26.637 37.883-19.791 13.917h-5.029l20.79-14.618-23.309-33.15-24.461 17.2v-3.539z" class="prefix__cls-3" data-name="Path 1189" transform="translate(-1001.647 -247.774)"/>
                <path id="prefix__Path_1190" d="M939.642 304.86l15.349 15.349-15.349 15.349-15.349-15.348zm11.26 15.349l-11.26-11.26-11.26 11.26 11.26 11.26z" class="prefix__cls-3" data-name="Path 1190" transform="translate(-870.172 -241.331)"/>
            </g>
        </g>
        <g id="prefix__Group_1089" data-name="Group 1089" transform="translate(1035.122 2613.66)">
            <path id="prefix__Path_954" d="M105.245 584.457a86.469 86.469 0 0 0 54.8 80.093c1.243.5 2.085 1.251 3.372 1.686 1.438.493 2.747.432 4.215.843 1.02.284 2.333.594 3.372.843a85.934 85.934 0 0 0 47.213-1.686c1.2-.4 2.2-1.24 3.372-1.686 1.583-.609 3.522-.985 5.059-1.686.116-.046-.11.052 0 0 .6-.278 1.089-.547 1.686-.843.817-.394 1.727-1.261 2.529-1.686 1.844-.974 4.139-1.428 5.9-2.529.916-.568 1.64-1.075 2.529-1.686a85.795 85.795 0 0 0-30.351-155.128c-1.513-.313-3.514-.615-5.059-.843-.968-.151-1.549-.733-2.529-.843-.7-.081-1.816.058-2.529 0-1.907-.174-3.959.043-5.9 0-.267-.006-.571.006-.843 0-.151 0 .151-.006 0 0-.232-.006-.605 0-.843 0-.974 0-2.4-.035-3.372 0-2.133.07-3.814-.224-5.9 0-1.206.128-2.184.669-3.372.843-.133.023-.71-.023-.843 0-.394.064-.449-.07-.843 0-.835.133-1.7.675-2.529.843-.777.156-1.758-.174-2.529 0a84.316 84.316 0 0 0-8.431 2.529 87.447 87.447 0 0 0-45.527 36.253c-.3.47-.559.362-.843.843-.22.359.209 1.321 0 1.686-.075.122-.779-.122-.843 0-.046.07.041-.07 0 0-.383.667-.484 1.851-.843 2.529a83.155 83.155 0 0 0-10.118 39.625z" class="prefix__cls-5" data-name="Path 954" transform="translate(-105.366 -449.991)"/>
            <path id="prefix__Path_955" d="M362.481 587.1s-20.423-17.3-27.822-5.058 21.138 16.651 22.763 16.019 5.059-10.961 5.059-10.961z" class="prefix__cls-6" data-name="Path 955" transform="translate(-322.978 -482.986)"/>
            <path id="prefix__Path_956" d="M315.762 603.614s-23.8-7-27.822-10.117-7.618-5.375-8.431-5.059-5.9-1.686-5.9-1.686l-6.745 17.7s25.5 6.806 26.136 8.431 22.762-9.269 22.762-9.269z" class="prefix__cls-7" data-name="Path 956" transform="translate(-237.477 -486.852)"/>
            <path id="prefix__Path_957" d="M206.607 753.737a85.932 85.932 0 0 0 47.213-1.686l-.843-10.117-.843-9.274-14.334-21.92-5.059-7.588-19.389 6.748-1.686 12.646-3.372 19.391z" class="prefix__cls-8" data-name="Path 957" transform="translate(-140.968 -535.805)"/>
            <path id="prefix__Path_958" d="M186.488 754.127c1.258.5 2.085 1.251 3.372 1.686 1.438.493 2.747.432 4.215.843 1.02.284 2.333.594 3.372.843a85.932 85.932 0 0 0 47.213-1.686c1.2-.4 2.2-1.24 3.372-1.686a76.182 76.182 0 0 0 .843 10.96 127.679 127.679 0 0 0 4.215-12.646c.087-.278-.081-.565 0-.843.406-1.4.518-2.957.843-4.215.371-1.455 1.419-2.138 1.686-3.372a33.948 33.948 0 0 0 .843-8.431L245.5 711.973l-2.529.843h-.843l-5.9.843-8.431.843-12.646 1.686-12.646 10.117-10.96 9.274s-1.074 3.207-2.529 8.431c-.787 2.806-1.496 6.29-2.528 10.117z" class="prefix__cls-7" data-name="Path 958" transform="translate(-136.868 -539.567)"/>
            <circle id="prefix__Ellipse_246" cx="19.5" cy="19.5" r="19.5" class="prefix__cls-6" data-name="Ellipse 246" transform="translate(54.878 13.339)"/>
            <path id="prefix__Path_959" d="M249.237 473.148l10.96 21.92-29.508 20.232s3.162-24.2-3.372-30.351 21.92-11.801 21.92-11.801z" class="prefix__cls-6" data-name="Path 959" transform="translate(-158.306 -439.008)"/>
            <path id="prefix__Path_960" d="M182.976 529.4s13.958-28.665 25.293-28.665 41.34 20.09 40.468 24.449a28.028 28.028 0 0 0-.843 7.588c0 2.616 6.075 2.472.843 4.215s-6.745 3.372-6.745 3.372l5.059 111.287s-19.16 7.674-26.136 5.059-14.332-20.234-14.332-20.234 1.917 23.635-5.059 22.763-33.695-2.414-34.567-5.9 5.9-80.936 5.9-80.936z" class="prefix__cls-4" data-name="Path 960" transform="translate(-114.808 -450.579)"/>
            <path id="prefix__Path_961" d="M168.369 790.465c.893 7.728 3.038 15.2 10.117 16.862 12.024 2.829 8.07-21.762 5.9-31.194-.51-2.2-.843-3.372-.843-3.372h-9.274l-5.9.843a27.37 27.37 0 0 1 0 4.215c-.052.725-.814.828-.843 1.686a76.194 76.194 0 0 0 .843 10.96z" class="prefix__cls-6" data-name="Path 961" transform="translate(-51.302 -564.945)"/>
            <path id="prefix__Path_962" d="M186.474 537.033l25.293 64.918s3.488 6.572 0 11.8 1.8 36.865-1.686 43.84-3.372 19.391-3.372 19.391l-20.234 1.686-4.215-76.721-22.763-48.9s1.691-20.374 26.977-16.014z" class="prefix__cls-7" data-name="Path 962" transform="translate(-72.779 -465.797)"/>
            <path id="prefix__Path_963" d="M180.665 534.306s15.846 4.54 21.077 20.234z" class="prefix__cls-9" data-name="Path 963" transform="translate(-73.714 -464.757)"/>
            <path id="prefix__Path_965" d="M100.652 530.131l20.234 30.351 6.745 69.976z" class="prefix__cls-9" data-name="Path 965" transform="translate(-13.935 -424.329)"/>
            <path id="prefix__Path_966" d="M0 45.575a2.681 2.681 0 0 0 2.681-2.681V2.681A2.681 2.681 0 0 0 0 0z" class="prefix__cls-10" data-name="Path 966" transform="rotate(-35.508 133.334 33.278)"/>
            <path id="prefix__Path_967" d="M0 49.788h1.66a2.17 2.17 0 0 0 2.17-2.17V1.832A1.832 1.832 0 0 0 2 0H0v49.788z" class="prefix__cls-8" data-name="Path 967" transform="rotate(-35.508 131.384 38.518)"/>
            <g id="prefix__Group_1098" data-name="Group 1098" transform="translate(52.993 33.294)">
                <path id="prefix__Path_590" d="M275.233 233.992l-6.745 5.9c-6.185-3.112-11.8-11.674-13.489-18.548l7.588-3.372c.513 7.011 6.166 11.728 12.646 16.02z" class="prefix__cls-11" data-name="Path 590" transform="translate(-254.999 -217.971)"/>
                <path id="prefix__Path_591" d="M279.476 221.345c-.024 0 .024 0 0 0l-13.489-1.686c-.273-.039-.882-.57-.843-.843s.57-.882.843-.843l13.489 2.529c.259.037.861-.261.843 0s-.581.843-.843.843z" class="prefix__cls-11" data-name="Path 591" transform="translate(-258.399 -217.971)"/>
                <path id="prefix__Path_592" d="M283.706 237.34c-.177 0-.754.153-.843 0a1.374 1.374 0 0 1 0-.843l5.059-7.588c.135-.24.6-.978.843-.843s.135.6 0 .843l-5.059 8.431c-.088.16.18 0 0 0z" class="prefix__cls-11" data-name="Path 592" transform="translate(-264.315 -221.32)"/>
            </g>
            <path id="prefix__Path_964" d="M267.386 456.177c-1.951-.116-3.964.586-5.9.843-6.932.92-13.645-4.137-15.176-10.96a7.994 7.994 0 0 0-.843-2.529c-1.067-1.742-3.9-2.087-5.9-1.686s-3.862 1.579-5.9 1.686a8.464 8.464 0 0 1-7.588-4.215c-1.679-2.67-1.913-6.128-1.686-9.274l.843 1.686a7.944 7.944 0 0 0 .843-4.215c1.627-.433 3.84-.318 5.059.843 1.331.142-.146-2.47.843-3.372.414-.378 1.126-.005 1.686 0 2.832.027 5.356-2.472 7.588-4.215a32.178 32.178 0 0 1 13.489-5.9 16.2 16.2 0 0 1 9.274.843 20.445 20.445 0 0 1 6.745 4.215c4.749 4.566 8.985 9.734 10.96 16.019a27.942 27.942 0 0 1 0 16.019c-.8 2.687-3.233 11.589-6.745 11.8-4.417.269-2.099-7.265-7.592-7.588z" class="prefix__cls-8" data-name="Path 964" transform="translate(-179.827 -414.45)"/>
            <g id="prefix__Group_1148" data-name="Group 1148" transform="translate(-29.423 18.56)">
                <circle id="prefix__Ellipse_253" cx="24.5" cy="24.5" r="24.5" class="prefix__cls-11" data-name="Ellipse 253" transform="translate(.302 -.22)"/>
                <path id="prefix__Path_1027" d="M-4583.171 2737.107l11 15v-18z" class="prefix__cls-11" data-name="Path 1027" transform="translate(4609.473 -2691.328)"/>
                <g id="prefix__Group_1092" data-name="Group 1092" transform="translate(13.433 21.981)">
                    <circle id="prefix__Ellipse_254" cx="2.5" cy="2.5" r="2.5" class="prefix__cls-5" data-name="Ellipse 254" transform="translate(16.869 -.201)"/>
                    <circle id="prefix__Ellipse_255" cx="2.5" cy="2.5" r="2.5" class="prefix__cls-5" data-name="Ellipse 255" transform="translate(8.869 -.201)"/>
                    <circle id="prefix__Ellipse_256" cx="2.5" cy="2.5" r="2.5" class="prefix__cls-5" data-name="Ellipse 256" transform="translate(-.131 -.201)"/>
                </g>
            </g>
        </g>
        <g id="prefix__Group_1130" data-name="Group 1130" transform="translate(670 2629.257)">
            <path id="prefix__Path_1017" d="M798.23 237.564a82.377 82.377 0 0 0 81.687 82.5c45.274.36 82.627-36.416 83.3-81.687s-35.613-82.309-80.878-83.3c-.256-.006-.547.006-.809 0-.367-.006-.436 0-.809 0-.934 0-2.306-.033-3.235 0-2.047.067-3.659-.215-5.661 0-1.157.122-2.1.642-3.235.809-.128.022-.681-.022-.809 0a79.85 79.85 0 0 0-13.749 3.235c-33.347 11.365-55.8 43.207-55.802 78.443z" class="prefix__cls-7" data-name="Path 1017" transform="translate(-798.23 -105.948)"/>
            <ellipse id="prefix__Ellipse_251" cx=".551" cy="1.47" fill="#3f3d56" data-name="Ellipse 251" rx=".551" ry="1.47" transform="rotate(-122.344 110.287 28.052)"/>
            <path id="prefix__Path_1018" d="M0 43.72a2.572 2.572 0 0 0 2.572-2.572V2.572A2.572 2.572 0 0 0 0 0z" class="prefix__cls-10" data-name="Path 1018" transform="rotate(-122.344 97.866 46.706)"/>
            <path id="prefix__Path_1019" d="M0 47.762h1.917A1.757 1.757 0 0 0 3.674 46V2.081A2.081 2.081 0 0 0 1.593 0H0z" class="prefix__cls-8" data-name="Path 1019" transform="rotate(-122.344 98.596 48.424)"/>
            <path id="prefix__Rectangle_661" d="M0 0H0.735V2.939H0z" class="prefix__cls-10" data-name="Rectangle 661" transform="rotate(-122.344 108.78 28.18)"/>
            <path id="prefix__Rectangle_662" d="M0 0H0.735V2.939H0z" class="prefix__cls-10" data-name="Rectangle 662" transform="rotate(-122.344 107.668 30.201)"/>
            <circle id="prefix__Ellipse_252" cx="23" cy="23" r="23" class="prefix__cls-13" data-name="Ellipse 252" transform="translate(70 13.743)"/>
            <path id="prefix__Path_1020" d="M956.292 154.758s-11.722 17.561-8.9 22.646 12.132 18.6 12.132 18.6-39.054-28.562-33.969-34.777c0 0 11.567-9.961 12.132-16.176z" class="prefix__cls-13" data-name="Path 1020" transform="translate(-864.9 -101.593)"/>
            <path id="prefix__Path_1021" d="M884.857 397.161a82.692 82.692 0 0 0 56.615-4.044l-1.618-47.717v-8.088s-.67.006-.809 0c-.378-.028-1.175.072-2.426 0-1.452-.083-3.387.095-5.661 0-.539-.022-1.045.028-1.618 0-11.98-.445-30.685-1.183-33.16 2.426v2.426l-.809 3.235-.809 7.279s-11.88 22.96-9.705 44.483z" class="prefix__cls-4" data-name="Path 1021" transform="translate(-825.007 -184.667)"/>
            <path id="prefix__Path_1022" d="M883.846 202.049l20.219 43.674 8.088 19.411 3.235 7.279 46.912-.813-4.853-32.351c6.78-17.515-9.705-24.263-9.705-24.263L934.8 200.431v2.426s-13.478-16.032-19.411-25.072-13.749-5.661-13.749-5.661c-14.127-1.413-17.794 29.925-17.794 29.925z" class="prefix__cls-5" data-name="Path 1022" transform="translate(-845.025 -113.298)"/>
            <path id="prefix__Path_1023" d="M964.871 260.2l8.088 19.411c2.791-5.221 4.853-11.066 4.853-14.558 0-9.605-8.9-4.044-8.9-4.044s7.279-43.093 7.279-55.806c.003-8.446-6.591 28.872-11.32 54.997z" data-name="Path 1023" opacity="0.2" transform="translate(-905.83 -127.773)"/>
            <path id="prefix__Path_1024" d="M861.245 310.265l42.056-.809s31.21 2.937 26.69 15.367-29.116 0-29.116 0L851.54 332.1z" class="prefix__cls-13" data-name="Path 1024" transform="translate(-794.925 -174.605)"/>
            <path id="prefix__Path_1025" d="M992.493 176.863s14.558 1.037 14.558 13.749-12.94 58.232-12.94 58.232 9.705-5.561 9.705 4.044-16.1 38.056-17.793 19.411c0 0-24.058 11.8-22.646-10.514s16.176-69.555 16.176-69.555 1.637-16.214 12.94-15.367z" class="prefix__cls-5" data-name="Path 1025" transform="translate(-934.261 -115.611)"/>
            <path id="prefix__Path_1026" d="M929.043 100.711c1.622-1.57 1.119-3.821 2.426-5.661 2.053-2.89 6.2-2.925 9.705-2.426a30.351 30.351 0 0 1 7.279 1.618 7.372 7.372 0 0 1 4.044 4.853c.275 1.138 1-2.287 1.618-6.47a20.181 20.181 0 0 0-11.323-21.028 40.884 40.884 0 0 0-12.94-4.044c-4.388-.479-8.69-.337-12.132 2.426-1.573 1.263-3.166 2.937-4.853 4.044-2.963 1.945-6.994 2.016-10.514 2.426a28.858 28.858 0 0 0-11.323 4.044c-3.437 2.062-6.323 5-7.279 8.9-1.115 4.541 1.2 10.161 5.661 12.132.78.328 1.071.972 1.618 1.618 3.666 4.482-2.377 6.613-3.235 10.514-.716 3.255 2.451 6.383 5.661 7.279a13.332 13.332 0 0 0 15.367-7.279 27.563 27.563 0 0 0 1.618-8.088c.343-3.165 8.839-9.164 3.235-4.853a7.967 7.967 0 0 0-2.426 3.235c-1.7 4.081 2.146 5.983 4.044 8.9a11.011 11.011 0 0 1 0 11.323c4.919-2.57 7.576-9.349 5.661-14.558-.509-1.385-1.964-2.643-2.426-4.044-.721-2.186.009-6.523 3.235-5.661 2.303.606 4.864 3.137 7.279.8z" class="prefix__cls-8" data-name="Path 1026" transform="translate(-836.842 -66.957)"/>
            <g id="prefix__Group_1097" data-name="Group 1097" transform="rotate(18.01 -62.75 288.307)">
                <path id="prefix__Path_590-2" d="M0 20.222l7.608 7.238c7.836-3.943 15.4-14.568 17.54-23.276L15.166 0C14.514 8.881 8.21 14.786 0 20.222z" class="prefix__cls-11" data-name="Path 590" transform="translate(5.862)"/>
                <path id="prefix__Path_591-2" d="M.631 3.792a.636.636 0 0 0 .09-.006l17.694-2.528a.632.632 0 0 0-.178-1.252L.543 2.534a.632.632 0 0 0 .088 1.258z" class="prefix__cls-11" data-name="Path 591" transform="translate(3.334)"/>
                <path id="prefix__Path_592-2" d="M6.494 11.7a.631.631 0 0 0 .55-.942L1.182.322a.632.632 0 1 0-1.1.62l5.862 10.436a.631.631 0 0 0 .55.322z" class="prefix__cls-11" data-name="Path 592" transform="translate(0 8.521)"/>
            </g>
            <g id="prefix__Group_1147" data-name="Group 1147" transform="translate(136.43 52.905)">
                <circle id="prefix__Ellipse_253-2" cx="24.5" cy="24.5" r="24.5" class="prefix__cls-11" data-name="Ellipse 253" transform="translate(-.43 -.163)"/>
                <path id="prefix__Path_1027-2" d="M-4571.441 2736.165l-11 16v-18z" class="prefix__cls-11" data-name="Path 1027" transform="translate(4594.011 -2691.328)"/>
                <g id="prefix__Group_1092-2" data-name="Group 1092" transform="translate(13.433 21.981)">
                    <circle id="prefix__Ellipse_254-2" cx="2.5" cy="2.5" r="2.5" class="prefix__cls-5" data-name="Ellipse 254" transform="translate(.137 -.143)"/>
                    <circle id="prefix__Ellipse_255-2" cx="2.5" cy="2.5" r="2.5" class="prefix__cls-5" data-name="Ellipse 255" transform="translate(8.137 -.143)"/>
                    <circle id="prefix__Ellipse_256-2" cx="2.5" cy="2.5" r="2.5" class="prefix__cls-5" data-name="Ellipse 256" transform="translate(17.137 -.143)"/>
                </g>
            </g>
        </g>
        <path id="prefix__Line_13" fill="none" stroke="#ebefec" stroke-width="2px" d="M0 0L0 387" data-name="Line 13" transform="translate(934.5 2469.5)"/>
    </g>
</svg>
