<svg xmlns="http://www.w3.org/2000/svg" width="20" height="20" viewBox="0 0 20 20">
    <defs>
        <style>
            .prefix__cls-1{fill:#1898db}
        </style>
    </defs>
    <g id="prefix__info_icon" transform="translate(-282 -384)">
        <g id="prefix__icon" transform="translate(281.5 384.499)">
            <path id="prefix__Path_305" d="M12.254 15.519a2.915 2.915 0 0 1-.779.14.543.543 0 0 1-.3-.059c-.126-.088-.36-.252.041-1.05l.75-1.5a2.729 2.729 0 0 0 .184-2.419 1.985 1.985 0 0 0-1.45-1.058 3.582 3.582 0 0 0-.714-.073 3.813 3.813 0 0 0-2.36.845.375.375 0 0 0 .37.636 2.9 2.9 0 0 1 .779-.14.541.541 0 0 1 .3.059c.127.089.362.255-.038 1.052l-.75 1.5a2.727 2.727 0 0 0-.184 2.419 1.984 1.984 0 0 0 1.441 1.062 3.653 3.653 0 0 0 .716.073 3.818 3.818 0 0 0 2.361-.845.375.375 0 0 0-.368-.637z" class="prefix__cls-1" data-name="Path 305" transform="translate(0 -1.499)"/>
            <circle id="prefix__Ellipse_48" cx="2" cy="2" r="2" class="prefix__cls-1" data-name="Ellipse 48" transform="translate(9.5 3.501)"/>
        </g>
        <g id="prefix__Ellipse_49" fill="none" stroke="#a5a5a5" data-name="Ellipse 49" transform="translate(282 384)">
            <circle cx="10" cy="10" r="10" stroke="none"/>
            <circle cx="10" cy="10" r="9.5"/>
        </g>
    </g>
</svg>
