<?xml version="1.0" encoding="utf-8"?>
<!-- Generator: Adobe Illustrator 16.0.0, SVG Export Plug-In . SVG Version: 6.00 Build 0)  -->
<!DOCTYPE svg PUBLIC "-//W3C//DTD SVG 1.1//EN" "http://www.w3.org/Graphics/SVG/1.1/DTD/svg11.dtd">
<svg version="1.1" id="Layer_1" xmlns="http://www.w3.org/2000/svg" xmlns:xlink="http://www.w3.org/1999/xlink" x="0px" y="0px"
	 width="110px" height="110px" viewBox="0 0 110 110" enable-background="new 0 0 110 110" xml:space="preserve">
<g>
	<circle fill="#25B7D3" cx="55" cy="55" r="55"/>
</g>
<g>
	<g>
		<path fill="#6FDAF1" d="M39,67c0,2.209,1.791,4,4,4h24l12,12V71h4c2.209,0,4-1.791,4-4V35c0-2.209-1.791-4-4-4H43
			c-2.209,0-4,1.791-4,4V67z"/>
	</g>
	<g>
		<path fill="#F0F1F1" d="M71,59c0,2.209-1.791,4-4,4H43L31,75V63h-4c-2.209,0-4-1.791-4-4V27c0-2.209,1.791-4,4-4h40
			c2.209,0,4,1.791,4,4V59z"/>
	</g>
	<g>
		<path fill="#FFFFFF" d="M70.336,24.798C69.619,23.716,68.395,23,67,23H27c-2.209,0-4,1.791-4,4v32c0,2.209,1.791,4,4,4h4v1.134
			L70.336,24.798z"/>
	</g>
	<g>
		<circle fill="#21B2D1" cx="35" cy="43" r="4"/>
	</g>
	<g>
		<circle fill="#21B2D1" cx="47" cy="43" r="4"/>
	</g>
	<g>
		<circle fill="#21B2D1" cx="59" cy="43" r="4"/>
	</g>
</g>
</svg>
