<?xml version="1.0" encoding="utf-8"?>
<!-- Generator: Adobe Illustrator 16.0.0, SVG Export Plug-In . SVG Version: 6.00 Build 0)  -->
<!DOCTYPE svg PUBLIC "-//W3C//DTD SVG 1.1//EN" "http://www.w3.org/Graphics/SVG/1.1/DTD/svg11.dtd">
<svg version="1.1" id="Layer_1" xmlns="http://www.w3.org/2000/svg" xmlns:xlink="http://www.w3.org/1999/xlink" x="0px" y="0px"
	 width="42px" height="42px" viewBox="0 0 42 42" enable-background="new 0 0 42 42" xml:space="preserve">
<ellipse fill="#24B36D" cx="21.051" cy="21.042" rx="20.949" ry="21.042"/>
<circle fill="#FFFFFF" cx="12.75" cy="20.751" r="0.833"/>
<circle fill="#FFFFFF" cx="15.75" cy="20.751" r="0.833"/>
<circle fill="#FFFFFF" cx="27.75" cy="20.751" r="0.833"/>
<circle fill="#FFFFFF" cx="30.75" cy="20.751" r="0.833"/>
<path fill="#FFFFFF" d="M37.016,18.083c0-0.059-0.024-0.108-0.034-0.164c0-0.004-0.001-0.007-0.002-0.01
	c-0.039-0.212-0.124-0.407-0.273-0.55L28.805,6.496c-0.057-0.078-0.127-0.144-0.202-0.201c-0.018-0.014-0.036-0.024-0.056-0.036
	c-0.099-0.066-0.206-0.12-0.322-0.147c0,0-0.001-0.001-0.002-0.001c-0.003-0.001-0.005,0-0.008,0
	c-0.072-0.017-0.145-0.026-0.219-0.026H13.995c-0.074,0-0.147,0.01-0.219,0.026c-0.003,0-0.006-0.001-0.008,0
	c-0.001,0-0.002,0.001-0.002,0.001c-0.116,0.027-0.224,0.081-0.323,0.147c-0.019,0.013-0.037,0.022-0.056,0.036
	c-0.074,0.059-0.144,0.123-0.201,0.201l-8,11c-0.017,0.023-0.025,0.052-0.041,0.076c-0.016,0.026-0.037,0.048-0.05,0.075
	c-0.008,0.016-0.009,0.032-0.016,0.049c-0.019,0.045-0.031,0.09-0.044,0.137c-0.011,0.043-0.022,0.084-0.028,0.127
	c-0.006,0.048-0.005,0.095-0.004,0.142c0.001,0.045,0.001,0.088,0.008,0.131c0.007,0.046,0.021,0.09,0.033,0.135
	c0.014,0.044,0.026,0.088,0.045,0.13c0.006,0.014,0.008,0.028,0.015,0.041c0.016,0.031,0.04,0.055,0.059,0.083
	c0.018,0.027,0.027,0.058,0.048,0.083l15,19c0.016,0.02,0.041,0.027,0.057,0.047c0.041,0.045,0.079,0.092,0.127,0.129
	c0.026,0.02,0.057,0.029,0.083,0.045c0.009,0.006,0.018,0.01,0.026,0.016c0.034,0.02,0.064,0.039,0.1,0.055
	c0.04,0.018,0.08,0.031,0.123,0.043c0.015,0.006,0.026,0.016,0.042,0.02c0.074,0.018,0.148,0.025,0.222,0.025
	c0.001,0,0.003,0.002,0.004,0.002h0.001l0,0c0,0,0,0,0.001,0l0,0c0.002,0,0.003-0.002,0.004-0.002c0.074,0,0.148-0.008,0.223-0.025
	c0.016-0.004,0.026-0.014,0.042-0.02c0.043-0.012,0.083-0.025,0.122-0.043c0.036-0.016,0.066-0.035,0.1-0.055
	c0.009-0.006,0.018-0.01,0.027-0.016c0.026-0.016,0.057-0.025,0.082-0.045c0.049-0.037,0.086-0.084,0.127-0.129
	c0.017-0.02,0.042-0.027,0.058-0.047l14.918-18.896C36.893,18.625,37.016,18.371,37.016,18.083z M17.355,17.083l-2.1-9h11.479
	l-2.1,9H17.355z M24.169,19.083l-3.174,13.6l-3.173-13.6H24.169z M28.473,9.44l5.559,7.644h-7.342L28.473,9.44z M13.519,9.44
	l1.783,7.644H7.96L13.519,9.44z M15.769,19.083l3.234,13.862L8.06,19.083H15.769z M22.987,32.945l3.235-13.862h7.709L22.987,32.945z
	"/>
</svg>
