<?xml version="1.0" encoding="utf-8"?>
<!-- Generator: Adobe Illustrator 16.0.0, SVG Export Plug-In . SVG Version: 6.00 Build 0)  -->
<!DOCTYPE svg PUBLIC "-//W3C//DTD SVG 1.1//EN" "http://www.w3.org/Graphics/SVG/1.1/DTD/svg11.dtd">
<svg version="1.1" id="Layer_1" xmlns="http://www.w3.org/2000/svg" xmlns:xlink="http://www.w3.org/1999/xlink" x="0px" y="0px"
	 width="32.026px" height="32.989px" viewBox="0 0 32.026 32.989" enable-background="new 0 0 32.026 32.989" xml:space="preserve">
<path fill="#24B36D" d="M31.96,12.169c-0.139-0.403-0.52-0.675-0.946-0.675H20.4L16.962,1.177c-0.136-0.408-0.518-0.684-0.948-0.684
	s-0.813,0.275-0.948,0.684l-3.438,10.317H1.014c-0.427,0-0.808,0.271-0.946,0.675c-0.139,0.404-0.005,0.852,0.332,1.114l8.442,6.567
	L5.065,31.178c-0.137,0.408,0.005,0.859,0.351,1.117c0.344,0.258,0.817,0.266,1.171,0.018l9.427-6.598l9.427,6.598
	c0.172,0.121,0.373,0.182,0.573,0.182c0.211,0,0.421-0.066,0.598-0.199c0.346-0.258,0.487-0.709,0.351-1.117L23.186,19.85
	l8.442-6.567C31.965,13.021,32.099,12.573,31.96,12.169z M3.928,13.494h7.032l-1.447,4.342L3.928,13.494z M16.587,23.674
	c-0.172-0.121-0.373-0.18-0.573-0.18s-0.401,0.059-0.573,0.18L7.919,28.94l8.095-24.284l8.095,24.284L16.587,23.674z M22.515,17.836
	l-1.447-4.342H28.1L22.515,17.836z"/>
</svg>
