<?xml version="1.0" encoding="utf-8"?>
<!-- Generator: Adobe Illustrator 16.0.0, SVG Export Plug-In . SVG Version: 6.00 Build 0)  -->
<!DOCTYPE svg PUBLIC "-//W3C//DTD SVG 1.1//EN" "http://www.w3.org/Graphics/SVG/1.1/DTD/svg11.dtd">
<svg version="1.1" id="Layer_1" xmlns="http://www.w3.org/2000/svg" xmlns:xlink="http://www.w3.org/1999/xlink" x="0px" y="0px"
	 width="32.026px" height="32.989px" viewBox="0 0 32.026 32.989" enable-background="new 0 0 32.026 32.989" xml:space="preserve">
<g>
	<g>
		<path fill="#24B36D" d="M31.86,2.052c0.305-0.461,0.178-1.082-0.282-1.386c-0.462-0.305-1.081-0.178-1.386,0.283l-3.699,5.598
			C26.34,6.523,26.186,6.5,26.025,6.5c-1.654,0-3,1.346-3,3c0,0.318,0.063,0.619,0.155,0.907l-3.572,4.555
			c-0.461-0.288-1-0.462-1.582-0.462c-1.613,0-2.924,1.282-2.988,2.881L9.387,20.67c-0.549-0.707-1.397-1.17-2.36-1.17
			c-1.654,0-3,1.346-3,3c0,0.65,0.214,1.25,0.566,1.74L0.19,30.952c-0.303,0.462-0.175,1.082,0.287,1.385
			C0.646,32.448,0.837,32.5,1.025,32.5c0.326,0,0.646-0.158,0.837-0.451l4.375-6.668C6.49,25.452,6.752,25.5,7.026,25.5
			c1.613,0,2.924-1.283,2.988-2.881l5.651-3.289c0.549,0.706,1.397,1.17,2.36,1.17c1.654,0,3-1.346,3-3
			c0-0.318-0.063-0.619-0.155-0.906l3.572-4.555c0.461,0.287,1,0.461,1.582,0.461c1.654,0,3-1.346,3-3
			c0-0.767-0.298-1.459-0.772-1.99L31.86,2.052z M7.026,23.5c-0.552,0-1-0.449-1-1s0.448-1,1-1s1,0.449,1,1S7.578,23.5,7.026,23.5z
			 M18.026,18.5c-0.552,0-1-0.449-1-1s0.448-1,1-1s1,0.449,1,1S18.578,18.5,18.026,18.5z M26.025,10.5c-0.552,0-1-0.449-1-1
			c0-0.552,0.448-1,1-1s1,0.448,1,1C27.025,10.052,26.577,10.5,26.025,10.5z M6.026,30.5c-0.553,0-1,0.447-1,1s0.447,1,1,1
			s1-0.447,1-1S6.579,30.5,6.026,30.5z M11.026,30.5c-0.553,0-1,0.447-1,1s0.447,1,1,1s1-0.447,1-1S11.579,30.5,11.026,30.5z
			 M16.026,30.5c-0.553,0-1,0.447-1,1s0.447,1,1,1s1-0.447,1-1S16.579,30.5,16.026,30.5z M21.026,30.5c-0.553,0-1,0.447-1,1
			s0.447,1,1,1s1-0.447,1-1S21.579,30.5,21.026,30.5z M26.026,30.5c-0.553,0-1,0.447-1,1s0.447,1,1,1s1-0.447,1-1
			S26.579,30.5,26.026,30.5z M31.026,30.5c-0.553,0-1,0.447-1,1s0.447,1,1,1s1-0.447,1-1S31.579,30.5,31.026,30.5z M1.026,27.5
			c0.553,0,1-0.447,1-1s-0.447-1-1-1s-1,0.447-1,1S0.474,27.5,1.026,27.5z M1.026,22.5c0.553,0,1-0.447,1-1s-0.447-1-1-1
			s-1,0.447-1,1S0.474,22.5,1.026,22.5z M1.026,17.5c0.553,0,1-0.447,1-1s-0.447-1-1-1s-1,0.447-1,1S0.474,17.5,1.026,17.5z
			 M1.026,12.5c0.553,0,1-0.448,1-1c0-0.553-0.447-1-1-1s-1,0.447-1,1C0.026,12.052,0.474,12.5,1.026,12.5z M1.026,7.5
			c0.553,0,1-0.447,1-1c0-0.552-0.447-1-1-1s-1,0.448-1,1C0.026,7.053,0.474,7.5,1.026,7.5z M1.026,2.5c0.553,0,1-0.448,1-1
			c0-0.552-0.447-1-1-1s-1,0.448-1,1C0.026,2.053,0.474,2.5,1.026,2.5z"/>
	</g>
</g>
</svg>
