<?xml version="1.0" encoding="utf-8"?>
<!-- Generator: Adobe Illustrator 16.0.0, SVG Export Plug-In . SVG Version: 6.00 Build 0)  -->
<!DOCTYPE svg PUBLIC "-//W3C//DTD SVG 1.1//EN" "http://www.w3.org/Graphics/SVG/1.1/DTD/svg11.dtd">
<svg version="1.1" id="Layer_1" xmlns="http://www.w3.org/2000/svg" xmlns:xlink="http://www.w3.org/1999/xlink" x="0px" y="0px"
	 width="42px" height="42px" viewBox="0 0 42 42" enable-background="new 0 0 42 42" xml:space="preserve">
<ellipse fill="#24B36D" cx="21.051" cy="21.042" rx="20.949" ry="21.042"/>
<g>
	<g>
		<path fill="#FFFFFF" d="M20.967,4.749c-8.822,0-16,7.178-16,16c0,8.823,7.178,16.001,16,16.001c8.823,0,16-7.178,16-16.001
			C36.968,11.927,29.79,4.749,20.967,4.749z M20.967,34.75c-7.72,0-14-6.281-14-14.001s6.28-14,14-14c7.719,0,14,6.28,14,14
			S28.687,34.75,20.967,34.75z M23.581,22.192c0.238-0.432,0.387-0.918,0.387-1.443c0-1.303-0.84-2.402-2-2.816V9.749
			c0-0.552-0.447-1-1-1s-1,0.448-1,1v8.184c-1.161,0.414-2,1.514-2,2.816c0,1.655,1.346,3.001,3,3.001
			c0.396,0,0.774-0.082,1.122-0.223l4.172,4.172c0.195,0.195,0.451,0.293,0.707,0.293s0.512-0.098,0.707-0.293
			c0.391-0.391,0.391-1.023,0-1.414L23.581,22.192z M20.967,21.749c-0.552,0-1-0.449-1-1s0.448-1,1-1s1,0.449,1,1
			S21.519,21.749,20.967,21.749z"/>
	</g>
</g>
</svg>
