<svg xmlns="http://www.w3.org/2000/svg" width="23" height="23" viewBox="0 0 23 23">
    <g id="prefix__iconfinder__message_2560342" transform="translate(-.5 -.5)">
        <path id="prefix__Path_303" d="M19.7.5H4.3A3.8 3.8 0 0 0 .5 4.3v15.4a3.8 3.8 0 0 0 3.8 3.8h15.4a3.8 3.8 0 0 0 3.8-3.8V4.3A3.8 3.8 0 0 0 19.7.5zM12 17a4.484 4.484 0 0 1-1.1-.1 4.6 4.6 0 0 1-3 1.2 1.949 1.949 0 0 1-.8-.1l-.6-.3-.1-.1a.758.758 0 0 1-.2-.4c0-.2.1-.3.3-.4a2.345 2.345 0 0 0 1.1-1.1A5.181 5.181 0 0 1 5 11.4c0-3.1 3.1-5.6 7-5.6s7 2.5 7 5.6-3.1 5.6-7 5.6z" data-name="Path 303" style="fill:#2bb277"/>
    </g>
</svg>
