<svg xmlns="http://www.w3.org/2000/svg" width="59.672" height="59.669" viewBox="0 0 59.672 59.669">
    <g id="logo-icon" transform="translate(0 -.002)">
        <path id="Path_1448" fill="#6a6f7d" d="M7074 503.507a29.785 29.785 0 0 1 3.612-14.217l8.244 8.487a18.866 18.866 0 0 0 26.28 22.669l-10.765-7.259a11.258 11.258 0 0 1-2.706-6.392v-7.245a5.436 5.436 0 1 1 10.872 0v6.027l10.711 7.225a18.744 18.744 0 0 0 2.453-9.294 18.944 18.944 0 0 0-.559-4.585l8.419-8.668a29.779 29.779 0 0 1-1.206 28.691l.641.43a5.437 5.437 0 0 1-6.086 9.011l-1.869-1.26a29.822 29.822 0 0 1-48.041-23.62zm45.587-10.385a19.016 19.016 0 0 0-6.385-6l5.9-9.244a29.972 29.972 0 0 1 7.97 6.932l-7.482 8.309zm-30.88-.9l-7.415-8.238a29.9 29.9 0 0 1 8.33-6.709l5.917 9.276a19.074 19.074 0 0 0-6.827 5.671zm15.13-7.588a19.552 19.552 0 0 0-2.042.11L7096 474.715a29.869 29.869 0 0 1 16.887.362l-5.691 9.858a18.833 18.833 0 0 0-3.361-.297z" data-name="Path 1448" transform="translate(-7073.999 -473.669)"/>
    </g>
</svg>
