<svg xmlns="http://www.w3.org/2000/svg" width="48" height="48" viewBox="0 0 48 48">
    <g id="prefix__clock" transform="translate(-954 -373)">
        <g id="prefix__Path_1350" fill="none" stroke="none" data-name="Path 1350">
            <path d="M24 0A24 24 0 1 1 0 24 24 24 0 0 1 24 0z" transform="translate(954 373)"/>
            <path fill="#23a277" d="M24 4C18.658 4 13.635 6.08 9.858 9.858 6.08 13.635 4 18.658 4 24c0 5.342 2.08 10.365 5.858 14.142C13.635 41.92 18.658 44 24 44c5.342 0 10.365-2.08 14.142-5.858C41.92 34.365 44 29.342 44 24c0-5.342-2.08-10.365-5.858-14.142C34.365 6.08 29.342 4 24 4m0-4c13.255 0 24 10.745 24 24S37.255 48 24 48 0 37.255 0 24 10.745 0 24 0z" transform="translate(954 373)"/>
        </g>
        <path id="prefix__Union_3" fill="#23a277" d="M8642-63h-1a2 2 0 0 1-2-2v-15a2 2 0 0 1 2-2 2 2 0 0 1 2 2v13h10a2 2 0 0 1 2 2 2 2 0 0 1-2 2z" data-name="Union 3" transform="translate(-7663 463)"/>
    </g>
</svg>
