<svg xmlns="http://www.w3.org/2000/svg" width="22" height="22" viewBox="0 0 22 22">
    <defs>
        <style>
            .prefix__cls-2{fill:none}
        </style>
    </defs>
    <g id="prefix__COVID" opacity="0.13">
        <path id="prefix__Path_1452" d="M21.375 36a1.375 1.375 0 1 0 1.375 1.375A1.375 1.375 0 0 0 21.375 36zm0 2.063a.688.688 0 1 1 .688-.687.688.688 0 0 1-.688.687z" class="prefix__cls-2" data-name="Path 1452" transform="translate(-13.125 -23.625)"/>
        <path id="prefix__Path_1453" d="M27.375 26a1.375 1.375 0 1 0 1.375 1.375A1.375 1.375 0 0 0 27.375 26zm0 2.063a.688.688 0 1 1 .688-.687.688.688 0 0 1-.688.687z" class="prefix__cls-2" data-name="Path 1453" transform="translate(-17.063 -17.063)"/>
        <path id="prefix__Path_1454" d="M20 21.031A1.031 1.031 0 1 0 21.031 20 1.031 1.031 0 0 0 20 21.031zm1.375 0a.344.344 0 1 1-.344-.344.344.344 0 0 1 .344.344z" class="prefix__cls-2" data-name="Path 1454" transform="translate(-13.125 -13.125)"/>
        <path id="prefix__Path_1455" d="M38.375 21.75a1.351 1.351 0 0 0 1.353-1.6L38.6 19.022a1.392 1.392 0 0 0-.225-.022 1.375 1.375 0 0 0 0 2.75zm0-2.062a.688.688 0 1 1-.687.688.687.687 0 0 1 .687-.688z" class="prefix__cls-2" data-name="Path 1455" transform="translate(-24.281 -12.469)"/>
        <path id="prefix__Path_1456" d="M37.438 35.719a1.719 1.719 0 1 0-1.719 1.719 1.719 1.719 0 0 0 1.719-1.719zm-1.719 1.031a1.031 1.031 0 1 1 1.031-1.031 1.031 1.031 0 0 1-1.031 1.031z" class="prefix__cls-2" data-name="Path 1456" transform="translate(-22.313 -22.313)"/>
        <path id="prefix__Path_1457" d="M28.358 3.162a6.474 6.474 0 0 1 .688-.062c.11 0 .22-.007.33-.007s.22 0 .33.007a6.474 6.474 0 0 1 .688.062c-.014-.275-.018-.564-.01-.853a1.356 1.356 0 0 0 .367-.935 1.375 1.375 0 0 0-2.75 0 1.356 1.356 0 0 0 .368.935c.007.291.003.579-.011.853z" data-name="Path 1457" transform="translate(-18.375)"/>
        <path id="prefix__Path_1458" d="M30.394 54.8a6.474 6.474 0 0 1-.687.062c-.11 0-.22.007-.33.007s-.22 0-.33-.007a6.474 6.474 0 0 1-.687-.062c.014.275.018.564.011.853a1.356 1.356 0 0 0-.369.935 1.375 1.375 0 0 0 2.75 0 1.356 1.356 0 0 0-.368-.935c-.008-.289-.005-.578.01-.853z" data-name="Path 1458" transform="translate(-18.375 -35.962)"/>
        <path id="prefix__Path_1459" d="M56.587 28a1.356 1.356 0 0 0-.935.368c-.289.007-.578 0-.853-.01a6.291 6.291 0 0 1 .062.687c0 .11.007.22.007.33s0 .22-.007.327a6.353 6.353 0 0 1-.062.691c.275-.014.564-.017.853-.01a1.356 1.356 0 0 0 .935.368 1.375 1.375 0 0 0 0-2.75z" data-name="Path 1459" transform="translate(-35.962 -18.375)"/>
        <path id="prefix__Path_1460" d="M2.311 30.382c.289-.007.574 0 .853.01A6.291 6.291 0 0 1 3.1 29.7c0-.11-.008-.22-.008-.33s0-.22.007-.33a6.291 6.291 0 0 1 .062-.688c-.278.014-.564.017-.853.01A1.356 1.356 0 0 0 1.375 28a1.375 1.375 0 1 0 0 2.75 1.356 1.356 0 0 0 .936-.368z" data-name="Path 1460" transform="translate(0 -18.375)"/>
        <circle id="prefix__Ellipse_342" cx=".5" cy=".5" r=".5" data-name="Ellipse 342" transform="translate(8 13)"/>
        <circle id="prefix__Ellipse_343" data-name="Ellipse 343" transform="translate(8 8)"/>
        <circle id="prefix__Ellipse_344" cx="1" cy="1" r="1" data-name="Ellipse 344" transform="translate(9 9)"/>
        <circle id="prefix__Ellipse_345" data-name="Ellipse 345" transform="translate(14 8)"/>
        <circle id="prefix__Ellipse_346" cx=".5" cy=".5" r=".5" data-name="Ellipse 346" transform="translate(13 13)"/>
        <path id="prefix__Path_1461" d="M21.188 19.125a1.985 1.985 0 0 0-.5.062 4.765 4.765 0 0 1-.612-.622c-.048-.062-.1-.12-.141-.182-.075-.1-.142-.2-.206-.3a7.539 7.539 0 0 0 0-8.909c.063-.1.13-.2.206-.3.045-.062.093-.12.141-.182a4.765 4.765 0 0 1 .612-.622 1.985 1.985 0 0 0 .5.062 2.063 2.063 0 1 0-2.063-2.062 1.98 1.98 0 0 0 .062.5 4.789 4.789 0 0 1-.622.612c-.062.048-.12.1-.182.141-.1.075-.2.142-.3.206a7.54 7.54 0 0 0-8.909 0c-.1-.063-.2-.13-.3-.206-.062-.045-.12-.093-.182-.141a4.746 4.746 0 0 1-.622-.612 1.98 1.98 0 0 0 .062-.5 2.063 2.063 0 1 0-2.07 2.055 1.982 1.982 0 0 0 .5-.062 4.744 4.744 0 0 1 .612.622c.048.062.1.12.141.182.075.1.142.2.206.3a7.54 7.54 0 0 0 0 8.909c-.063.1-.13.2-.206.3-.045.062-.093.12-.141.182a4.744 4.744 0 0 1-.612.622 1.982 1.982 0 0 0-.5-.062 2.063 2.063 0 1 0 2.063 2.063 1.98 1.98 0 0 0-.062-.5 4.746 4.746 0 0 1 .622-.612c.062-.048.12-.1.182-.141.1-.075.2-.142.3-.206a7.54 7.54 0 0 0 8.909 0c.1.063.2.13.3.206.062.045.12.093.182.141a4.789 4.789 0 0 1 .622.612 1.98 1.98 0 0 0-.062.5 2.063 2.063 0 1 0 2.063-2.063zm-4.469-9.969a1.392 1.392 0 0 1 .222.022l1.131 1.131a1.373 1.373 0 1 1-1.353-1.153zm-5.156 1.375A1.031 1.031 0 1 1 10.531 9.5a1.031 1.031 0 0 1 1.031 1.031zm-.687 7.219a1.375 1.375 0 1 1 1.375-1.375 1.375 1.375 0 0 1-1.376 1.375zm2.063-3.437a1.375 1.375 0 1 1 1.375-1.375 1.375 1.375 0 0 1-1.377 1.374zm1.375 1.719a1.719 1.719 0 1 1 1.719 1.719 1.719 1.719 0 0 1-1.721-1.72z" data-name="Path 1461" transform="translate(-2.625 -2.625)"/>
    </g>
</svg>
