<svg xmlns="http://www.w3.org/2000/svg" width="34" height="34" viewBox="0 0 34 34">
    <defs>
        <linearGradient id="prefix__linear-gradient" x1=".5" x2=".5" y2="1" gradientUnits="objectBoundingBox">
            <stop offset="0" stop-color="#fff"/>
            <stop offset="1" stop-color="#ebefec"/>
        </linearGradient>
    </defs>
    <path id="prefix__distancing-icon" fill="url(#prefix__linear-gradient)" fill-rule="evenodd" d="M33.266 53.779l-1.317 10.265a1.9 1.9 0 0 0 1.9 1.905l10.264-1.318a1.461 1.461 0 0 0 .843-.425 1.514 1.514 0 0 0 0-2.147l-1.714-1.714 3.811-3.8a1.612 1.612 0 0 0 0-2.281l-3.417-3.424a1.612 1.612 0 0 0-2.281 0l-3.8 3.8-1.714-1.707a1.514 1.514 0 0 0-2.147 0 1.464 1.464 0 0 0-.428.846zm31.365 0a1.459 1.459 0 0 0-.425-.842 1.514 1.514 0 0 0-2.147 0l-1.714 1.707-3.8-3.8a1.612 1.612 0 0 0-2.281 0l-3.424 3.418a1.611 1.611 0 0 0 0 2.281l3.811 3.8-1.714 1.717a1.514 1.514 0 0 0 0 2.147 1.459 1.459 0 0 0 .842.425l10.265 1.318a1.9 1.9 0 0 0 1.905-1.905zm-31.365-9.66a1.464 1.464 0 0 0 .425.843 1.514 1.514 0 0 0 2.147 0l1.714-1.707 3.8 3.8a1.613 1.613 0 0 0 2.281 0l3.421-3.421a1.612 1.612 0 0 0 0-2.281l-3.811-3.8 1.714-1.714a1.514 1.514 0 0 0 0-2.147 1.46 1.46 0 0 0-.843-.425l-10.26-1.318a1.9 1.9 0 0 0-1.9 1.9zm31.365 0l1.317-10.265a1.9 1.9 0 0 0-1.905-1.9l-10.264 1.313a1.459 1.459 0 0 0-.842.425 1.514 1.514 0 0 0 0 2.147l1.714 1.714-3.811 3.8a1.611 1.611 0 0 0 0 2.281l3.421 3.421a1.612 1.612 0 0 0 2.281 0l3.8-3.8 1.714 1.707a1.514 1.514 0 0 0 2.147 0 1.458 1.458 0 0 0 .428-.843z" transform="translate(-31.949 -31.949)"/>
</svg>
