<svg xmlns="http://www.w3.org/2000/svg" width="166.68" height="52" viewBox="0 0 166.68 52">
    <g id="prefix__logo" transform="translate(-270 -19)">
        <path id="prefix__Path_1447" fill="#3e5b6a" d="M-41.4-3.784a16.333 16.333 0 0 0 2.024-.132l-.268 4.092q-1.32.132-2.42.132-4.532 0-6.688-2.09t-2.156-6.226v-9.372h-4.136v-4.136h4.136v-6.424h5.5v6.424h5.676v4.136h-5.676v9.28q0 4.316 4.008 4.316zM-36.168 0v-21.516h5.5V0zm-.308-31.5h6.076v5.412h-6.072zM.572-22.044a6.677 6.677 0 0 1 5.456 2.178q1.8 2.178 1.8 6.666V0h-5.5v-12.98a6.066 6.066 0 0 0-.828-3.586 3.127 3.127 0 0 0-2.684-1.122 4.2 4.2 0 0 0-3.432 1.5 6.4 6.4 0 0 0-1.232 4.18V0h-5.5v-12.98a6.2 6.2 0 0 0-.814-3.586 3.117 3.117 0 0 0-2.706-1.122 4.152 4.152 0 0 0-3.388 1.5 6.4 6.4 0 0 0-1.232 4.18V0h-5.5v-21.516h5.368v3.036a6.431 6.431 0 0 1 2.684-2.662 8.29 8.29 0 0 1 3.916-.9q4.884 0 6.468 4.048a7.349 7.349 0 0 1 2.9-2.97 8.38 8.38 0 0 1 4.224-1.08zM32.3-9.768H17.644a6.69 6.69 0 0 0 1.8 4.444 6.171 6.171 0 0 0 4.4 1.452A10.375 10.375 0 0 0 30.36-6.16l1.584 3.784A11.549 11.549 0 0 1 28.182-.4a14.449 14.449 0 0 1-4.554.748A11.409 11.409 0 0 1 15.29-2.64a10.924 10.924 0 0 1-3.058-8.184 12.556 12.556 0 0 1 1.32-5.852 9.6 9.6 0 0 1 3.718-3.96 10.53 10.53 0 0 1 5.43-1.408 8.966 8.966 0 0 1 7.018 2.86q2.574 2.86 2.574 7.876zm-9.46-8.4a4.667 4.667 0 0 0-3.542 1.408 6.847 6.847 0 0 0-1.65 4.048h9.944a6.274 6.274 0 0 0-1.32-4.07 4.353 4.353 0 0 0-3.436-1.39zM44.7.352a18.61 18.61 0 0 1-5.258-.7 11.9 11.9 0 0 1-4.07-2.024L36.916-6.2a13 13 0 0 0 7.876 2.5 5.5 5.5 0 0 0 2.882-.616 1.958 1.958 0 0 0 .99-1.76 1.781 1.781 0 0 0-.682-1.5 7.021 7.021 0 0 0-2.442-.968l-3.52-.792a8.655 8.655 0 0 1-4.444-2.156 5.326 5.326 0 0 1-1.452-3.872 5.729 5.729 0 0 1 1.122-3.5 7.246 7.246 0 0 1 3.124-2.354 11.973 11.973 0 0 1 4.642-.836 14.024 14.024 0 0 1 4.422.7A12.269 12.269 0 0 1 53.2-19.36l-1.54 3.74a11.364 11.364 0 0 0-6.688-2.42 5.127 5.127 0 0 0-2.816.66 2.088 2.088 0 0 0-1.012 1.848 1.865 1.865 0 0 0 .638 1.452 4.524 4.524 0 0 0 2.046.88l3.652.836a9.293 9.293 0 0 1 4.708 2.222 5.428 5.428 0 0 1 1.5 3.982 5.576 5.576 0 0 1-2.42 4.752A10.93 10.93 0 0 1 44.7.352z" data-name="Path 1447" transform="translate(383 60.504)"/>
        <g id="prefix__Group_1" data-name="Group 1" transform="translate(270 19.329)">
            <circle id="prefix__Ellipse_21_copy" cx="26" cy="26" r="26" fill="#2bc783" data-name="Ellipse 21 copy" transform="translate(0 -.329)"/>
            <path id="prefix__Path_1448" fill="#fff" d="M7074 490.13a16.439 16.439 0 0 1 1.992-7.842l4.548 4.682a10.408 10.408 0 0 0 14.5 12.505l-5.938-4a6.2 6.2 0 0 1-1.493-3.526v-4a3 3 0 1 1 6 0v3.325l5.908 3.985a10.343 10.343 0 0 0 1.353-5.127 10.459 10.459 0 0 0-.309-2.529l4.645-4.782a16.431 16.431 0 0 1-.664 15.828l.352.237a3 3 0 1 1-3.357 4.971l-1.031-.7a16.451 16.451 0 0 1-26.5-13.03zm25.148-5.729a10.5 10.5 0 0 0-3.522-3.309l3.255-5.1a16.534 16.534 0 0 1 4.4 3.824l-4.127 4.584zm-17.035-.494l-4.091-4.545a16.486 16.486 0 0 1 4.6-3.7l3.264 5.117a10.517 10.517 0 0 0-3.767 3.128zm8.346-4.186a10.771 10.771 0 0 0-1.125.061l-3.194-5.535a16.477 16.477 0 0 1 9.315.2l-3.139 5.438a10.4 10.4 0 0 0-1.858-.164z" data-name="Path 1448" transform="translate(-7064.604 -464.275)"/>
        </g>
    </g>
</svg>
