<svg xmlns="http://www.w3.org/2000/svg" width="34.233" height="34.233" viewBox="0 0 34.233 34.233">
    <defs>
        <linearGradient id="prefix__linear-gradient" x1=".5" x2=".5" y2="1" gradientUnits="objectBoundingBox">
            <stop offset="0" stop-color="#2bc792"/>
            <stop offset="1" stop-color="#20928a"/>
        </linearGradient>
        <style>
            .prefix__cls-1{fill:url(#prefix__linear-gradient)}
        </style>
    </defs>
    <g id="prefix__number-icon" transform="translate(-2 -2)">
        <path id="prefix__Path_1440" d="M14.837 7a12.837 12.837 0 1 0 0 25.675 12.837 12.837 0 1 0 0-25.675zM18.6 26.17c-.856 1.027-2.054 1.369-3.937 1.369a6.328 6.328 0 0 1-3.594-1.027 3.015 3.015 0 0 1-1.369-3.08l2.91-.171a2.092 2.092 0 0 0 .513 1.54 2.092 2.092 0 0 0 1.54.513 1.668 1.668 0 0 0 1.54-.685 3.65 3.65 0 0 0 .513-2.054 3.65 3.65 0 0 0-.513-2.054 1.8 1.8 0 0 0-1.54-.856 3.225 3.225 0 0 0-1.369.342 1.709 1.709 0 0 0-.685.856l-2.567-.171.856-8.558h8.387v2.4h-5.82l-.342 3.594 1.027-.513a3.337 3.337 0 0 1 1.369-.171 3.644 3.644 0 0 1 3.252 1.369 6.575 6.575 0 0 1 1.2 3.766A5.524 5.524 0 0 1 18.6 26.17z" class="prefix__cls-1" data-name="Path 1440" transform="translate(0 3.558)"/>
        <g id="prefix__Group_1159" data-name="Group 1159" transform="translate(17.062 2)">
            <path id="prefix__Path_1442" d="M19.7 2a9.836 9.836 0 0 0-8.9 5.306 15.132 15.132 0 0 1 6.675 2.567V8.847l4.45-1.712v7.018a16.606 16.606 0 0 1 2.739 7.189A10.321 10.321 0 0 0 19.7 2z" class="prefix__cls-1" data-name="Path 1442" transform="translate(-10.8 -2)"/>
        </g>
    </g>
</svg>
