<svg xmlns="http://www.w3.org/2000/svg" width="130.349" height="173.095" viewBox="0 0 130.349 173.095">
    <defs>
        <style>
            .prefix__cls-1{fill:#ffb8b8}.prefix__cls-2{fill:#f1f5f2}.prefix__cls-3{fill:#2f2e41}
        </style>
    </defs>
    <g id="prefix__support-illu" transform="translate(-582.254 -4547.094)">
        <circle id="prefix__Ellipse_266" cx="18.722" cy="18.722" r="18.722" class="prefix__cls-1" data-name="Ellipse 266" transform="translate(628.558 4558.518)"/>
        <path id="prefix__Path_1066" d="M844.213 301.692s3.527 26.59-1.9 29.575 32.288 3.256 32.288 3.256-8.411-23.063-4.613-30.118z" class="prefix__cls-1" data-name="Path 1066" transform="translate(-210.906 4284.909)"/>
        <path id="prefix__Path_1067" d="M863.892 363.546l-3.137 14.283-6.632 30.218-.2 1.655-2.289 19.158-1.523 12.727-1.021 8.549c-6.207 3.19-10.706 5.392-10.706 5.392s-.387-1.94-1.011-4.422c-4.356 1.306-12.417 3.473-19.247 3.905 2.487 2.773 3.63 5.377 2.08 7.3-4.679 5.795-24-6.345-30.755-10.871a18.29 18.29 0 0 0-.178 3.274l-5.171-3.977.512-9.15.863-15.482 1.084-19.415a20.4 20.4 0 0 1-.858-2.554c-1.584-5.632-3.506-16.877-4.98-26.307-1.186-7.589-2.078-14-2.266-15.367l-.038-.27 28.624-12.648c2.034 4.718 11.533 6.136 11.533 6.136a31.858 31.858 0 0 0 14.038-4.692z" class="prefix__cls-2" data-name="Path 1067" transform="translate(-172.657 4256.02)"/>
        <path id="prefix__Path_1068" d="M882.946 590.021s-1.212.415-3.182 1c-4.356 1.306-12.417 3.473-19.247 3.905-5.881.377-10.851-.529-11.76-4.366a4.055 4.055 0 0 1 1.367-4.122c3.595-3.333 12.984-4.527 20.431-4.937 2.1-.115 4.048-.168 5.667-.188 2.75-.036 4.552.02 4.552.02l.043.168z" class="prefix__cls-1" data-name="Path 1068" transform="translate(-215.044 4116.102)"/>
        <path id="prefix__Path_1069" d="M836.33 214.436l-3.5-1.4s7.319-8.058 17.5-7.357l-2.864-3.153s7-2.8 13.366 4.555c3.346 3.868 7.217 8.414 9.63 13.535h3.749l-1.565 3.445 5.476 3.445-5.621-.619a19.252 19.252 0 0 1 .153 5.714 7.394 7.394 0 0 1-2.708 4.837s-4.341-8.986-4.341-10.387v3.5s-3.5-3.153-3.5-5.255l-1.905 2.454-.955-3.854-11.774 3.854 1.909-3.153-7.319 1.051 2.864-3.854s-8.274 4.555-8.592 8.408a18.5 18.5 0 0 1-2.74 7.506s-6.493-18.017 2.737-23.272z" class="prefix__cls-3" data-name="Path 1069" transform="translate(-204.624 4345.094)"/>
        <path id="prefix__Path_1070" d="M966.912 450.54c-1.907 2.067-6.632 5.181-12.36 8.552-2.131 1.253-4.4 2.543-6.714 3.827-5.522 3.063-11.3 6.1-16.075 8.549-6.207 3.19-10.706 5.392-10.706 5.392s-.387-1.94-1.011-4.422c-.835-3.322-2.093-7.617-3.4-9.519-.046-.066-.092-.127-.138-.188-.382-.5-.766-.794-1.146-.794l18.948-11.744 8.188-5.077-5.9-14.082-7.4-17.664 4.466-14.209 4.489-14.283h8.412s2.785 6.08 6.347 14.558c.532 1.268 1.082 2.589 1.642 3.954 7.326 17.821 16.46 42.71 12.358 47.15z" class="prefix__cls-2" data-name="Path 1070" transform="translate(-255.328 4234.688)"/>
        <path id="prefix__Path_1071" d="M833.439 598.558c-4.679 5.795-24-6.344-30.755-10.871-1.471-.985-2.347-1.609-2.347-1.609l6.182-8.244 1.958-2.61s1.752.929 4.341 2.442c.094.056.188.112.285.168 2.233 1.311 5.036 3.025 7.864 4.937a59.347 59.347 0 0 1 10.393 8.488c2.487 2.772 3.63 5.377 2.079 7.299z" class="prefix__cls-1" data-name="Path 1071" transform="translate(-185.887 4119.772)"/>
        <path id="prefix__Path_1072" d="M763.767 461.1a12.166 12.166 0 0 0-2.062.168c-5.853 1.006-7.579 6.3-8.071 9.853a18.279 18.279 0 0 0-.178 3.274l-5.171-3.977-1.884-1.449a34.336 34.336 0 0 1-12.078-7.7 60.711 60.711 0 0 1-8.134-9.647 85.06 85.06 0 0 1-6.293-10.795 7.939 7.939 0 0 1-.11-6.734l6.4-14.27 9.359-20.856q.1-.745.227-1.456c1.856-10.642 6.828-15.367 6.828-15.367h3.8l2.541 15.367L752.1 416.6l-2.212 7.215-5.112 16.663 4.886 5.306z" class="prefix__cls-2" data-name="Path 1072" transform="translate(-136.837 4236.34)"/>
        <path id="prefix__Path_1073" fill="#2bc783" d="M829.607 455.033l3.247 3.789c1.207-.23 2.466-.5 3.764-.8l-.933-2.985 2.281 2.661c13.747-3.381 30.787-9.955 30.787-9.955s-18.4 1.349-32.132-1.652a13.07 13.07 0 0 0-14.824 7.384c-1.45 3.312-1.222 6.182 3.919 6.182a33.959 33.959 0 0 0 5.182-.487z" data-name="Path 1073" transform="translate(-198.378 4197.922)"/>
        <path id="prefix__Path_1074" d="M845.871 619.743v1.545a3.4 3.4 0 0 1-.232 1.24 3.488 3.488 0 0 1-.247.509 3.421 3.421 0 0 1-2.941 1.67H728.762a3.421 3.421 0 0 1-2.941-1.67 3.474 3.474 0 0 1-.247-.509 3.4 3.4 0 0 1-.232-1.24v-1.545a3.418 3.418 0 0 1 3.419-3.419h6.553v-.724a.142.142 0 0 1 .143-.143h3.419a.142.142 0 0 1 .143.143v.721h2.136v-.721a.142.142 0 0 1 .143-.143h3.419a.142.142 0 0 1 .143.143v.721H747v-.721a.142.142 0 0 1 .143-.143h3.419a.142.142 0 0 1 .143.143v.721h2.136v-.721a.142.142 0 0 1 .143-.143h3.416a.142.142 0 0 1 .143.143v.721h2.136v-.721a.142.142 0 0 1 .143-.143h3.419a.142.142 0 0 1 .143.143v.721h2.139v-.721a.142.142 0 0 1 .143-.143h3.419a.142.142 0 0 1 .143.143v.721h2.136v-.721a.142.142 0 0 1 .143-.143h26.783a.142.142 0 0 1 .143.143v.721h2.139v-.721a.142.142 0 0 1 .143-.143h3.419a.144.144 0 0 1 .142.143v.721h2.136v-.721a.142.142 0 0 1 .143-.143h3.419a.142.142 0 0 1 .143.143v.721h2.136v-.721a.142.142 0 0 1 .143-.143h3.419a.142.142 0 0 1 .143.143v.721h2.139v-.721a.142.142 0 0 1 .143-.143h3.419a.142.142 0 0 1 .14.143v.721h2.139v-.721a.142.142 0 0 1 .143-.143h3.419a.142.142 0 0 1 .143.143v.721h2.136v-.721a.142.142 0 0 1 .143-.143h3.419a.142.142 0 0 1 .143.143v.721h9.972a3.418 3.418 0 0 1 3.415 3.422z" class="prefix__cls-3" data-name="Path 1074" transform="translate(-140.611 4095.481)"/>
        <path id="prefix__Path_1075" d="M843.37 460.706h-42.376v-.873h-19.215v.873h-42.55a2.866 2.866 0 0 0-2.866 2.866V521.6a2.866 2.866 0 0 0 2.866 2.866h104.14a2.866 2.866 0 0 0 2.866-2.866v-58.027a2.866 2.866 0 0 0-2.865-2.867z" class="prefix__cls-3" data-name="Path 1075" transform="translate(-147.265 4189.436)"/>
        <circle id="prefix__Ellipse_267" cx="6.365" cy="6.365" r="6.365" fill="none" stroke="#d0cde1" stroke-miterlimit="10" stroke-width="2px" data-name="Ellipse 267" transform="translate(637.753 4664.036)"/>
        <circle id="prefix__Ellipse_268" cx="6.365" cy="6.365" r="6.365" fill="#d0cde1" data-name="Ellipse 268" transform="translate(635.717 4666.327)"/>
    </g>
</svg>
