<svg xmlns="http://www.w3.org/2000/svg" width="54" height="48.001" viewBox="0 0 54 48.001">
    <path id="prefix__chat" fill="#23a277" d="M53 21h-5v-4a6 6 0 0 0-6-6H11a6 6 0 0 0-6 6v33a2 2 0 0 0 1.19 1.83A2.1 2.1 0 0 0 7 52a2 2 0 0 0 1.35-.52L18 42.7V46a6 6 0 0 0 6 6h21.42l10.51 6.69A2 2 0 0 0 57 59a1.94 1.94 0 0 0 1-.25A2 2 0 0 0 59 57V27a6 6 0 0 0-6-6zM9 45.48V17a2 2 0 0 1 2-2h31a2 2 0 0 1 2 2v19a2 2 0 0 1-2 2H18a2 2 0 0 0-1.35.52zm46 7.88l-7.93-5A2 2 0 0 0 46 48H24a2 2 0 0 1-2-2v-4h20a6 6 0 0 0 6-6V25h5a2 2 0 0 1 2 2z" transform="translate(-5 -11)"/>
</svg>
