<svg xmlns="http://www.w3.org/2000/svg" width="640.972" height="301.5" viewBox="0 0 640.972 301.5">
    <defs>
        <linearGradient id="linear-gradient" x1=".5" x2=".5" y1="1" gradientUnits="objectBoundingBox">
            <stop offset="0" stop-color="gray" stop-opacity=".251"/>
            <stop offset=".54" stop-color="gray" stop-opacity=".122"/>
            <stop offset="1" stop-color="gray" stop-opacity=".102"/>
        </linearGradient>
        <style>
            .cls-1{fill:#ebefec}.cls-2{fill:#e6e6e6}.cls-3{fill:#dedede}.cls-5,.cls-9{opacity:.1}.cls-6{fill:#2bc783}.cls-7{fill:#fff}.cls-15,.cls-8,.cls-9{fill:#3e5b6a}.cls-8{opacity:.06}.cls-10{fill:#23a277}.cls-12{fill:#2f2e41}.cls-13{fill:#a0616a}.cls-14{fill:#fbbebe}.cls-16{fill:#d8eedd}.cls-17{fill:#3f3d56}
        </style>
    </defs>
    <g id="truck-illu" transform="translate(114.514 .01)">
        <ellipse id="Ellipse_357" cx="257.913" cy="13.636" class="cls-1" data-name="Ellipse 357" rx="257.913" ry="13.636" transform="translate(-5.553 261.273)"/>
        <path id="Path_1467" d="M561.457 342.234l-30.77-2.275H126.14V280.7h435.317z" class="cls-2" data-name="Path 1467" transform="translate(-65.762 -100.273)"/>
        <path id="Path_1468" d="M201.233 229.233H174.66v-15.646a10.927 10.927 0 0 1 10.927-10.927h4.718a10.927 10.927 0 0 1 10.927 10.927z" class="cls-3" data-name="Path 1468" transform="translate(-145.046 -200.382)"/>
        <path id="Path_1469" d="M645 373.428v90.408l-29.706-.386c0-.643.045-1.286.045-1.89a58.562 58.562 0 0 0-117.124 0v.379l-29.648-.386H314.9a58.428 58.428 0 0 0-.36-6.428c-.109-1.028-.245-2.038-.418-3.04a57.409 57.409 0 0 0-1.763-7.624c-.309-1.028-.644-2.038-1.017-3.04a58.835 58.835 0 0 0-3.424-7.6c-.553-1.035-1.145-2.044-1.763-3.04a58.609 58.609 0 0 0-5.605-7.6q-1.371-1.575-2.838-3.04a58.61 58.61 0 0 0-82.753 0q-1.474 1.472-2.838 3.04a58.609 58.609 0 0 0-5.605 7.6c-.644 1-1.21 2.006-1.763 3.04a58.839 58.839 0 0 0-3.424 7.6c-.367 1-.708 2.012-1.017 3.04a57.417 57.417 0 0 0-1.763 7.6c-.174 1-.309 2.012-.418 3.04a58.436 58.436 0 0 0-.36 6.428H139.21V261.75h413.017l40.973 89.238 50.923 22.061z" class="cls-1" data-name="Path 1469" transform="translate(-132.972 -221.489)"/>
        <path id="Path_1470" fill="#f5f5f5" d="M51.935 33.09H439.28a16.07 16.07 0 0 1 16.07 16.07v2.925H42.82V42.2a9.108 9.108 0 0 1 9.115-9.11z" data-name="Path 1470" transform="translate(-36 -11.824)"/>
        <path id="Path_1471" d="M584.427 220.376H490.22v-3.548a17.728 17.728 0 0 1 17.728-17.728h54.444z" class="cls-3" data-name="Path 1471" transform="translate(-257.767 -199.11)"/>
        <path id="Path_1472" d="M529.5 261.855h-44.06V62.05h86.6v138.264z" class="cls-3" data-name="Path 1472" transform="translate(-194.108 -22.168)"/>
        <rect id="Rectangle_764" width="28.868" height="42.546" class="cls-5" data-name="Rectangle 764" rx="13.83" transform="translate(496.073 208.916)"/>
        <rect id="Rectangle_765" width="28.868" height="42.546" class="cls-3" data-name="Rectangle 765" rx="13.83" transform="translate(497.59 209.674)"/>
        <path id="Path_1564" d="M0 0h173.971v94.2H0z" class="cls-6" data-name="Path 1564" transform="translate(61.515 60.772)"/>
        <path id="Rectangle_767" d="M0 0H91.925V81.287H0z" class="cls-7" data-name="Rectangle 767" transform="translate(143.947 68.749)"/>
        <path id="Path_1473" d="M256.15 180.78l66.092-49 9.121 2.282-75.213 54.316z" class="cls-8" data-name="Path 1473" transform="translate(-112.203 -47.077)"/>
        <rect id="Rectangle_768" width="63.816" height="88.126" class="cls-7" data-name="Rectangle 768" rx="16" transform="translate(303.866 54.698)"/>
        <path id="Rectangle_769" d="M0 0H8.356V18.236H0z" class="cls-3" data-name="Rectangle 769" transform="translate(355.527 150.416)"/>
        <path id="Path_1475" d="M740.78 301.73v62.929a3.548 3.548 0 0 0 3.548 3.548h38.728a3.548 3.548 0 0 0 3.021-5.406l-38.728-62.929a3.548 3.548 0 0 0-6.569 1.858z" class="cls-7" data-name="Path 1475" transform="translate(-347.27 -234.504)"/>
        <path id="Path_1476" d="M525.451 85.1l-20.511 18.23v9.5l29.247-27.73z" class="cls-9" data-name="Path 1476" transform="translate(-201.074 -30.402)"/>
        <path id="Path_1477" d="M504.94 123.835v11.024L553.561 85.1h-9.5z" class="cls-8" data-name="Path 1477" transform="translate(-201.074 -30.402)"/>
        <path id="Path_1478" d="M657.256 117.6L644.4 135.444v6.846l17.066-17.85z" class="cls-9" data-name="Path 1478" transform="translate(-250.89 -42.011)"/>
        <path id="Path_1479" d="M667.315 145.36L644.4 164.933v5.509l28.051-18.236z" class="cls-9" data-name="Path 1479" transform="translate(-250.89 -51.928)"/>
        <circle id="Ellipse_348" cx="41.023" cy="41.023" r="41.023" class="cls-3" data-name="Ellipse 348" transform="translate(82.792 199.043)"/>
        <circle id="Ellipse_349" cx="22.793" cy="22.793" r="22.793" class="cls-7" data-name="Ellipse 349" transform="translate(101.021 217.272)"/>
        <circle id="Ellipse_350" cx="6.081" cy="6.081" r="6.081" class="cls-3" data-name="Ellipse 350" transform="translate(117.355 233.605)"/>
        <path id="Path_1801" d="M41.023 0A41.023 41.023 0 1 1 0 41.023 41.023 41.023 0 0 1 41.023 0z" class="cls-3" data-name="Path 1801" transform="translate(382.878 199.043)"/>
        <circle id="Ellipse_352" cx="22.793" cy="22.793" r="22.793" class="cls-7" data-name="Ellipse 352" transform="translate(401.108 217.272)"/>
        <circle id="Ellipse_353" cx="6.081" cy="6.081" r="6.081" class="cls-3" data-name="Ellipse 353" transform="translate(418.199 233.605)"/>
        <path id="Rectangle_770" d="M0 0H285V3H0z" class="cls-9" data-name="Rectangle 770" transform="translate(6.486 177.49)"/>
        <path id="Path_1480" d="M748 279.42H617.375l1.519-2.278v-.759H748" class="cls-9" data-name="Path 1480" transform="translate(-241.287 -98.682)"/>
        <path id="Path_1481" d="M748.843 259.334H619.737V256.3h129.106" class="cls-9" data-name="Path 1481" transform="translate(-242.131 -91.507)"/>
        <path id="Path_1482" d="M748.843 239.248H619.737v-3.038h128.347" class="cls-9" data-name="Path 1482" transform="translate(-242.131 -84.331)"/>
        <path id="Path_1483" d="M229.237 491.63a58.262 58.262 0 0 0-5.213 3.04H138.61v-3.04z" class="cls-5" data-name="Path 1483" transform="translate(-132.169 -303.605)"/>
        <path id="Path_1484" d="M503.281 492.035v3.038H368.1a59.97 59.97 0 0 0-5.316-3.038z" class="cls-9" data-name="Path 1484" transform="translate(-212.251 -303.702)"/>
        <path id="Path_1485" d="M214.286 508.577c-.981.981-1.37 1.992-2.278 3.038h-73.666v-3.038z" class="cls-5" data-name="Path 1485" transform="translate(-132.104 -309.612)"/>
        <path id="Path_1486" d="M511.336 508.577v3.038H388.305c-.913-1.05-2.061-2.061-3.038-3.038z" class="cls-9" data-name="Path 1486" transform="translate(-220.306 -309.612)"/>
        <path id="Path_1487" d="M205.932 525.117c-.643 1-.966 2-1.519 3.038h-66.071v-3.038z" class="cls-5" data-name="Path 1487" transform="translate(-132.104 -315.52)"/>
        <path id="Path_1488" d="M516 525.117v3.038H400.561c-.553-1.035-1.661-2.041-2.278-3.038z" class="cls-9" data-name="Path 1488" transform="translate(-224.967 -315.52)"/>
        <path id="Path_1489" d="M225.942 541.66c-.366 1-.451 2.009-.759 3.038h-15.949v-3.038z" class="cls-5" data-name="Path 1489" transform="translate(-157.43 -321.43)"/>
        <path id="Path_1490" d="M518.919 541.66v3.04H408.04c-.309-1.029-1.146-2.035-1.519-3.038z" class="cls-9" data-name="Path 1490" transform="translate(-227.889 -321.43)"/>
        <path id="Path_1491" d="M223.664 558.2c-.174 1-.65 2.009-.759 3.038h-13.67V558.2z" class="cls-5" data-name="Path 1491" transform="translate(-157.43 -327.34)"/>
        <path id="Path_1492" d="M520.537 558.2v3.038H411.176c-.109-1.029.174-2.035 0-3.038z" class="cls-9" data-name="Path 1492" transform="translate(-229.507 -327.34)"/>
        <path id="Path_1493" d="M481.187 411.686h-4.557v-10.927l1.928-3.8a.424.424 0 0 1 .759 0l1.928 3.8z" class="cls-10" data-name="Path 1493" transform="translate(-252.913 -269.704)"/>
        <path id="Rectangle_771" d="M0 0H4.557V0.456H0z" class="cls-5" data-name="Rectangle 771" transform="translate(223.717 131.068)"/>
        <path id="Path_1494" d="M491.827 411.686h-4.557v-10.927l1.928-3.8a.424.424 0 0 1 .759 0l1.928 3.8z" class="cls-10" data-name="Path 1494" transform="translate(-256.714 -269.704)"/>
        <path id="Rectangle_772" d="M0 0H4.557V0.456H0z" class="cls-5" data-name="Rectangle 772" transform="translate(230.556 131.068)"/>
        <path id="Path_1495" fill="url(#linear-gradient)" d="M296.067 377.7a1.924 1.924 0 0 0-.1-.289c.264-2.725 1.035-11.75-.077-13.91-.868-1.684-3.214-1.671-5.984-1.093 0-.289.039-.578.039-.874v-9.224a10.561 10.561 0 0 0-10.715-10.394h-1.73a10.561 10.561 0 0 0-10.715 10.394v9.224a6.826 6.826 0 0 0 .032.81c-3 .206-5.849 2.083-5.187 8.826v7.669h.6a6.917 6.917 0 0 0 .643.386l1.414 13.029h4.613l-.058.643h18.062c1.478.109 2.95.186 4.1.18a8.523 8.523 0 0 0 2.218-.18c1.98-.643 1.98-4.5 1.98-4.5l.643-9.6a1.286 1.286 0 0 0 .222-1.097zm-26.059 2.353h.064v.122l-.064-.051zm17.31 1.607l.328 4.847h-.328zm-18.416 4.2l1.106-5.644h.071l-.533 5.714z" data-name="Path 1495" transform="translate(-176.077 -250.126)"/>
        <rect id="Rectangle_773" width="22.241" height="29.703" class="cls-12" data-name="Rectangle 773" rx="11.12" transform="translate(91.167 91.954)"/>
        <path id="Path_1496" d="M273.5 374.686s-12.091-5.785-10.825 7.508v7.572h8.225l-1.286 13.916h17.709v-13.917s6.955.643 8.221-.643c0 0 1.286-12.02 0-14.546s-5.727-1.183-10.156.077-11.888.033-11.888.033z" class="cls-1" data-name="Path 1496" transform="translate(-176.454 -261.282)"/>
        <path id="Path_1497" d="M264.49 399l1.395 13.293H279.8s5.7-3.793 2.533-5.059-5.059-.643-5.059-.643l-6.955-.643 1.319-6.948z" class="cls-13" data-name="Path 1497" transform="translate(-177.134 -270.516)"/>
        <path id="Path_1498" d="M303.515 398l-.643 10.13s0 3.792-1.928 4.429-12.02-.643-12.02-.643-3.792 0-3.163-3.163 3.792-3.792 5.059-3.792a7.707 7.707 0 0 1 3.163 1.286h1.928l-.495-7.6z" class="cls-5" data-name="Path 1498" transform="translate(-184.707 -270.159)"/>
        <path id="Path_1499" d="M304.015 398l-.643 10.13s0 3.792-1.928 4.429-12.02-.643-12.02-.643-3.793 0-3.163-3.163 3.792-3.792 5.059-3.792a7.707 7.707 0 0 1 3.163 1.286h1.928l-.5-7.6z" class="cls-13" data-name="Path 1499" transform="translate(-184.886 -270.159)"/>
        <path id="Path_1500" d="M263 398.371s2.571 2.571 7.906 1.684c.572-.09-6.948-2.796-7.906-1.684z" class="cls-5" data-name="Path 1500" transform="translate(-176.602 -270.196)"/>
        <path id="Path_1501" d="M300.08 399.556s9.848-.161 9.057-3.336-8.421-1.427-8.421-1.427z" class="cls-5" data-name="Path 1501" transform="translate(-189.848 -268.842)"/>
        <path id="Path_1502" d="M263 397.946s3.175 3.175 9.687 1.286-8.729-2.398-9.687-1.286z" class="cls-1" data-name="Path 1502" transform="translate(-176.602 -269.932)"/>
        <path id="Path_1503" d="M299.83 399.316s9.848-.161 9.057-3.336-8.421-1.427-8.421-1.427z" class="cls-1" data-name="Path 1503" transform="translate(-189.758 -268.756)"/>
        <path id="Path_1504" d="M278.47 361.16s1.928 6.955.643 8.858 3.985 5.83 6.267 5.785c1.356 0 6.158-3.381 5.753-5.785-.328-1.973-3.163-7.591-2.533-10.118z" class="cls-13" data-name="Path 1504" transform="translate(-182.128 -256.549)"/>
        <path id="Path_1505" d="M284.469 370.045a8.819 8.819 0 0 0 5.785-2.173c-.906-2.481-2.134-5.727-1.7-7.482l-10.117 1.286a30.882 30.882 0 0 1 1.067 6.884 8.812 8.812 0 0 0 4.962 1.485z" class="cls-5" data-name="Path 1505" transform="translate(-182.118 -256.724)"/>
        <circle id="Ellipse_354" cx="8.858" cy="8.858" r="8.858" class="cls-13" data-name="Ellipse 354" transform="translate(93.494 95.29)"/>
        <path id="Path_1506" d="M277.037 359.747c-.219-.836-.559-1.633-.733-2.475a6.82 6.82 0 0 1 4.178-7.559 2.739 2.739 0 0 1 1.369-.2c1.877.3 2.153 3.214 3.934 3.9.354.135.739.161 1.1.283a3.445 3.445 0 0 1 1.928 2.269 8.055 8.055 0 0 1 .411 3.336c-.1 1.073-.4 2.121-.489 3.214a3.934 3.934 0 0 0 .836 3.021 5.143 5.143 0 0 0 1.286.9c.328.18.739.36 1.048.154a.886.886 0 0 0 .3-.424 7.794 7.794 0 0 0 .129-3.638 36.809 36.809 0 0 1 .058-5.631 10.477 10.477 0 0 0-.36-4.5 9.834 9.834 0 0 0-1.646-2.571 11.5 11.5 0 0 0-2-2.057 8.3 8.3 0 0 0-4.859-1.453 24.322 24.322 0 0 0-5.1.643 3.919 3.919 0 0 0-4.056 3.362l-.508 1.851a24.6 24.6 0 0 0-1.125 6.042c0 1.5.231 4.737 1.928 5.387 2.197.858 2.734-2.414 2.371-3.854z" class="cls-5" data-name="Path 1506" transform="translate(-180.078 -251.698)"/>
        <path id="Path_1507" d="M277.037 359.257c-.219-.836-.559-1.633-.733-2.475a6.82 6.82 0 0 1 4.178-7.559 2.738 2.738 0 0 1 1.369-.2c1.877.3 2.153 3.214 3.934 3.9.354.135.739.161 1.1.283a3.445 3.445 0 0 1 1.928 2.269 8.055 8.055 0 0 1 .411 3.336c-.1 1.073-.4 2.121-.489 3.214a3.934 3.934 0 0 0 .836 3.021 5.143 5.143 0 0 0 1.286.9c.328.18.739.36 1.048.154a.887.887 0 0 0 .3-.424 7.794 7.794 0 0 0 .129-3.638 36.809 36.809 0 0 1 .058-5.631 10.477 10.477 0 0 0-.36-4.5 9.834 9.834 0 0 0-1.646-2.571 11.506 11.506 0 0 0-2-2.057 8.3 8.3 0 0 0-4.859-1.453 24.326 24.326 0 0 0-5.1.643 3.919 3.919 0 0 0-4.056 3.362l-.508 1.851a24.6 24.6 0 0 0-1.125 6.042c0 1.5.231 4.737 1.928 5.387 2.197.825 2.734-2.389 2.371-3.854z" class="cls-12" data-name="Path 1507" transform="translate(-180.078 -251.522)"/>
        <path id="Rectangle_774" d="M0 0H186.891V13.672H0z" class="cls-3" data-name="Rectangle 774" transform="translate(56.2 154.979)"/>
        <path id="Rectangle_775" d="M0 0H213.477V18.236H0z" class="cls-3" data-name="Rectangle 775" transform="translate(42.527 141.301)"/>
        <path id="Rectangle_776" d="M0 0H186.891V2.282H0z" class="cls-9" data-name="Rectangle 776" transform="translate(56.2 159.537)"/>
        <path id="Union_5" d="M191.652 36.465h-.306c-17.909 13.876-25.73 2.3-27.044 0h-.308c-17.909 13.876-25.73 2.3-27.043 0h-.307c-17.909 13.876-25.73 2.3-27.044 0h-.306c-17.909 13.876-25.73 2.3-27.044 0h-.3c-17.909 13.876-25.73 2.3-27.044 0H54.6c-17.908 13.876-25.729 2.3-27.043 0h-.308C7.477 51.783 0 36.086 0 36.086h.553L17.092 0h196.765l17.471 36.465h-6.084l6.463.379c-4.723 9.452-11.248 1.51-12.644-.379h-.363c-6.484 5.024-11.645 6.712-15.654 6.712a13.2 13.2 0 0 1-11.394-6.712z" class="cls-3" data-name="Union 5" transform="translate(33.792 52.42)"/>
        <ellipse id="Ellipse_322" cx="32" cy="6.5" class="cls-1" data-name="Ellipse 322" rx="32" ry="6.5" transform="translate(-114.514 288.49)"/>
        <g id="Group_1166" data-name="Group 1166" transform="translate(-106.53 133.091)">
            <path id="Path_1543" d="M162.887 652.173s1.984 5.952 4.532 7.085 6.516 2.266 4.532 3.681-7.979-.851-12.766-.851c-.851 0-5.665-.569-5.665-.569s0-7.649 1.133-9.043 8.234-.303 8.234-.303z" class="cls-12" data-name="Path 1543" transform="translate(-124.243 -500.454)"/>
            <path id="Path_1544" d="M109.558 652.53s-1.133 6.8-3.4 7.649-2.835 4.532.851 4.532 5.665-.851 6.8-2.548l2.266-.569s1.415-6.516 0-8.218z" class="cls-12" data-name="Path 1544" transform="translate(-101.229 -500.811)"/>
            <path id="Path_1545" d="M177.466 429.2a81.466 81.466 0 0 1 6.8 5.1c1.415 1.42 2.266 2.548 3.681.851s7.931-10.766 9.043-13.6 8.782-8.511 14.165-5.665-11.048 9.633-11.048 9.633l-9.325 18.415s-.282 1.984-5.1 0-16.149-7.075-16.149-7.075z" class="cls-14" data-name="Path 1545" transform="translate(-131.737 -389.68)"/>
            <path id="Path_1547" d="M143.6 511.275s2.548 17.554 1.415 20.969l-2.548 18.415s.282 30.884 1.415 34.283-10.2 3.681-10.2 3.681 1.415-8.782 0-11.048-1.133-25.219-1.133-25.219l-3.415-23.8-7.085 28.331-1.957 31.735s-7.649-.282-8.218-2.548-1.415-32.017 0-34.852 0-23.8 0-23.8 1.126-16.147 4.526-18.131 27.2 1.984 27.2 1.984z" class="cls-6" data-name="Path 1547" transform="translate(-104.384 -433.504)"/>
            <path id="Path_1548" d="M132.833 400.06s-.569 13.6-5.383 11.048l4.255 12.766 9.633-.569 5.662-7.649-4.255-2.548s-3.117 1.133-.851-9.351z" class="cls-14" data-name="Path 1548" transform="translate(-112.041 -382.636)"/>
            <path id="Path_1550" d="M130.929 419.546s4.814 3.968 8.511 4.255c2.761.213 7.6 5.367 9.841 7.931a4.256 4.256 0 0 0 1.489 1.138s-5.665 7.931-6.516 7.931l-1.7-1.133-1.415 15.585v9.347l1.133 6.8s-17.851.282-19.548-1.133-11.335 1.133-11.335 1.133 2.835-18.415.851-20.681-5.383-18.133-5.383-18.133-2.266-6.516 0-8.511c0 0 6.548-1.84 9.734-4.133a6.431 6.431 0 0 1 3.75-1.25h.207a5.57 5.57 0 0 0 4.442 5.1c4.247.845 6.939-.682 5.939-4.246z" class="cls-15" data-name="Path 1550" transform="translate(-101.929 -391.357)"/>
            <path id="Path_1551" d="M108.463 445.074s-8.511-1.133-9.351-1.133 2.835-13.883 4.814-15.3 4.532 5.1 4.532 5.1z" class="cls-15" data-name="Path 1551" transform="translate(-98.719 -395.921)"/>
            <path id="Path_1556" d="M100.295 452.629s-2.835 13.6-1.415 17.554c0 0-.282 2.835 1.415 4.255 0 0 9.351 12.468 9.351 13.6s2.835 6.516 7.649 1.984c0 0 2.266-3.117-2.835-5.665s-9.351-15.586-9.351-15.586 4.255-10.484 2.548-13.883-7.362-2.259-7.362-2.259z" class="cls-14" data-name="Path 1556" transform="translate(-98.481 -407.157)"/>
            <path id="Path_1558" d="M13.054 256.016L2.57 253.463l.856-4.676 4.527-.707 5.952 1.984z" class="cls-15" data-name="Path 1558" transform="translate(-2.321 -205.587)"/>
            <circle id="Ellipse_355" cx="8.782" cy="8.782" r="8.782" class="cls-14" data-name="Ellipse 355" transform="translate(18.526 8.072)"/>
            <path id="Path_1561" d="M149.165 379.159a3.032 3.032 0 0 1 .207-.941c.122-.261.319-.489.426-.755a2.628 2.628 0 0 0-.3-2.053 28.149 28.149 0 0 0-3.037-5.67 1.867 1.867 0 0 0-.686-.633 2.494 2.494 0 0 0-.989-.112c-1.559 0-3-.755-4.473-1.25s-3.192-.729-4.495.16-1.75 2.66-3.128 3.367c-.372.191-.787.287-1.154.495a4.474 4.474 0 0 0-1.245 1.218 7.085 7.085 0 0 0-2.059 5.862c0 1.6.165 3.372 1.431 4.3a3.006 3.006 0 0 1 .734.771 2.362 2.362 0 0 1 .351 1.309c.064.878.4 1.75.468 2.628a1.787 1.787 0 0 0 .25.952.617.617 0 0 0 .878.144l.888-3.654a4.985 4.985 0 0 1 .824-2.032c.66-.809 1.835-1.213 2.186-2.2.25-.707.032-1.622.585-2.128a1.8 1.8 0 0 1 .814-.351 19.272 19.272 0 0 1 7.771-.239 2.223 2.223 0 0 1 .793.25 2.383 2.383 0 0 1 .84 1.319c.186.532.872 3.505 1.6 3.3.323-.116.52-3.579.52-4.057z" class="cls-12" data-name="Path 1561" transform="translate(-112.382 -367.304)"/>
            <path id="Rectangle_777" d="M0 0H10.202V3.968H0z" class="cls-6" data-name="Rectangle 777" transform="rotate(160.92 3.804 43.419)"/>
            <path id="Path_1341" d="M600.5 269.05a.219.219 0 0 0 .137-.39l-4.378-3.5a.219.219 0 1 0-.274.342l4.378 3.5a.219.219 0 0 0 .137.048z" class="cls-16" data-name="Path 1341" transform="translate(-576.014 -250.23)"/>
            <path id="Path_1342" d="M565.339 278.907c.1.118.193.236.293.346a8.585 8.585 0 0 0 11.921-5.936l-4.148-.763-8.066.763c1.848 2.249 1.624 3.029 0 5.59z" class="cls-16" data-name="Path 1342" transform="translate(-541.181 -254.833)"/>
            <g id="Group_1142" data-name="Group 1142" transform="translate(69.649 18.82)">
                <path id="Path_1289" d="M364.6 330.474a.529.529 0 0 0-.011.745l3.346 3.463a.528.528 0 0 0 .753.007l10.212-10.167a.528.528 0 0 0-.084-.817l-4.016-2.615a.525.525 0 0 0-.657.065z" class="cls-17" data-name="Path 1289" transform="translate(-364.417 -321.004)"/>
                <path id="Path_1290" d="M378.859 335.737a.534.534 0 0 1-.07.086L368.6 346.182a.528.528 0 0 1-.753-.007l-3.418-3.608a.529.529 0 0 1-.062-.079.474.474 0 0 0 .111.607l3.346 3.464a.528.528 0 0 0 .753.007l10.212-10.166a.529.529 0 0 0 .07-.662z" class="cls-6" data-name="Path 1290" transform="translate(-364.304 -332.881)"/>
                <path id="Path_1291" d="M380.237 326.168l-.416-.265a.4.4 0 0 1-.57.52l-2.689-1.849a.4.4 0 0 1 .1-.7l-.214-.136a.144.144 0 0 0-.18.02l-9.046 8.89a.144.144 0 0 0 0 .206l3.285 3.2a.144.144 0 0 0 .2 0l9.545-9.657a.144.144 0 0 0-.024-.224z" class="cls-7" data-name="Path 1291" transform="translate(-366.627 -323.187)"/>
                <path id="Path_1292" d="M210.391 145.536l2.775 2.617 6.6-6.521-3.35-2.18z" class="cls-2" data-name="Path 1292" transform="translate(-207.222 -138.042)"/>
                <path id="Path_1293" d="M427.576 344.745a.1.1 0 0 0 .136 0l.577-.577a.1.1 0 0 0 0-.136.1.1 0 0 0-.136 0l-.577.577a.1.1 0 0 0 0 .136z" class="cls-17" data-name="Path 1293" transform="translate(-415.288 -339.546)"/>
                <path id="Path_1294" d="M422.56 349.757a.1.1 0 0 0 .136 0l.577-.577a.1.1 0 1 0-.136-.136l-.577.577a.1.1 0 0 0 0 .136z" class="cls-17" data-name="Path 1294" transform="translate(-411.244 -343.585)"/>
                <circle id="Ellipse_320" cx=".648" cy=".648" r=".648" class="cls-6" data-name="Ellipse 320" transform="translate(2.585 9.092)"/>
            </g>
        </g>
        <rect id="Rectangle_762" width="53.178" height="36.465" class="cls-5" data-name="Rectangle 762" rx="11" transform="translate(-1.536 210.433)"/>
        <rect id="Rectangle_763" width="53.178" height="36.465" class="cls-3" data-name="Rectangle 763" rx="11" transform="translate(-2.294 211.956)"/>
    </g>
</svg>
