<svg xmlns="http://www.w3.org/2000/svg" width="1040.282" height="637.258" viewBox="0 0 1040.282 637.258">
    <defs>
        <linearGradient id="prefix__linear-gradient" x1=".5" x2=".5" y2="1" gradientUnits="objectBoundingBox">
            <stop offset="0" stop-color="#2bc792"/>
            <stop offset="1" stop-color="#20928a"/>
        </linearGradient>
        <filter id="prefix__Rectangle_425" width="714" height="390" x="174.748" y="70" filterUnits="userSpaceOnUse">
            <feOffset dy="3"/>
            <feGaussianBlur result="blur" stdDeviation="3"/>
            <feFlood flood-opacity=".161"/>
            <feComposite in2="blur" operator="in"/>
            <feComposite in="SourceGraphic"/>
        </filter>
        <style>
            .prefix__cls-1{fill:#f1f5f2}.prefix__cls-4{fill:#fff;opacity:.15}.prefix__cls-5{fill:#d8eedd}.prefix__cls-6{opacity:.1}.prefix__cls-7{fill:#2f2e41}.prefix__cls-8{fill:#fbbebe}.prefix__cls-9{fill:#23a277}.prefix__cls-10{fill:#3e5b6a}.prefix__cls-11{fill:#2bc783}
        </style>
    </defs>
    <g id="prefix__video-illu" transform="translate(-173 -1859)">
        <ellipse id="prefix__Ellipse_127" cx="515.924" cy="31.608" class="prefix__cls-1" data-name="Ellipse 127" rx="515.924" ry="31.608" transform="translate(181.435 2433.042)"/>
        <path id="prefix__Rectangle_463" fill="#355261" d="M0 0H767V602H0z" data-name="Rectangle 463" transform="translate(320.748 1859)"/>
        <g id="prefix__guestext3" filter="url(#prefix__Rectangle_425)" transform="translate(173 1859)">
            <path id="prefix__Rectangle_425-2" fill="url(#prefix__linear-gradient)" d="M0 0H696V372H0z" data-name="Rectangle 425" transform="translate(183.75 76)"/>
        </g>
        <path id="prefix__Path_476" d="M604.448 629.949H415.293a2.3 2.3 0 1 1 0-4.591h189.155a2.3 2.3 0 1 1 0 4.591z" class="prefix__cls-4" data-name="Path 476" transform="translate(4.554 1697.146)"/>
        <path id="prefix__Path_477" d="M603.548 679.48H414.392a2.3 2.3 0 1 1 0-4.591h189.156a2.3 2.3 0 1 1 0 4.591z" class="prefix__cls-4" data-name="Path 477" transform="translate(4.536 1698.117)"/>
        <path id="prefix__Path_478" d="M604 704.246H414.842a2.3 2.3 0 0 1 0-4.591H604a2.3 2.3 0 0 1 0 4.591z" class="prefix__cls-4" data-name="Path 478" transform="translate(4.544 1698.603)"/>
        <path id="prefix__Path_479" d="M680.652 679.93h-54.175a2.3 2.3 0 0 1 0-4.591h54.176a2.3 2.3 0 0 1 0 4.591z" class="prefix__cls-4" data-name="Path 479" transform="translate(8.695 1698.126)"/>
        <path id="prefix__Path_480" d="M680.652 704.246h-54.175a2.3 2.3 0 0 1 0-4.591h54.176a2.3 2.3 0 1 1 0 4.591z" class="prefix__cls-4" data-name="Path 480" transform="translate(8.695 1698.603)"/>
        <path id="prefix__Path_481" d="M769.809 679.93h-54.176a2.3 2.3 0 1 1 0-4.591h54.176a2.3 2.3 0 0 1 0 4.591z" class="prefix__cls-4" data-name="Path 481" transform="translate(10.443 1698.126)"/>
        <path id="prefix__Path_482" d="M809.612 654.714H512.1a2.3 2.3 0 0 1 0-4.591h297.512a2.3 2.3 0 1 1 0 4.591z" class="prefix__cls-4" data-name="Path 482" transform="translate(6.452 1697.632)"/>
        <path id="prefix__Path_483" d="M469.018 654.714h-54.176a2.3 2.3 0 0 1 0-4.591h54.176a2.3 2.3 0 0 1 0 4.591z" class="prefix__cls-4" data-name="Path 483" transform="translate(4.544 1697.632)"/>
        <circle id="prefix__Ellipse_131" cx="9.177" cy="9.177" r="9.177" class="prefix__cls-5" data-name="Ellipse 131" transform="translate(332.338 1865.118)"/>
        <circle id="prefix__Ellipse_132" cx="9.177" cy="9.177" r="9.177" class="prefix__cls-5" data-name="Ellipse 132" transform="translate(356.809 1865.118)"/>
        <circle id="prefix__Ellipse_133" cx="9.177" cy="9.177" r="9.177" class="prefix__cls-5" data-name="Ellipse 133" transform="translate(381.279 1865.118)"/>
        <path id="prefix__Rectangle_464" d="M0 0H767V1H0z" class="prefix__cls-6" data-name="Rectangle 464" transform="translate(320.748 1890)"/>
        <g id="prefix__Group_1072" data-name="Group 1072" transform="translate(105.748 2190.341)">
            <path id="prefix__Path_490" d="M147.381 771.138a25.107 25.107 0 0 1-4.761 2.039c-2.957.808-6.117.511-9.1 1.2-1.223.282-2.554.873-2.942 2.066a4.339 4.339 0 0 0 .322 2.691c3.3 9.675 5.289 19.949 10.552 28.713a43.455 43.455 0 0 0 8.146 9.889 7.766 7.766 0 0 0 4.154 2.3 4.219 4.219 0 0 0 4.291-5.928c-.472-1.048-1.349-1.861-1.915-2.862a10.92 10.92 0 0 1-1.059-4.07c-.52-4.138-1.021-8.463.413-12.38.962-2.627 2.726-4.866 4.2-7.246s2.691-5.107 2.364-7.885a13.7 13.7 0 0 0-2.125-5.271c-.979-1.643-2.914-6.059-4.88-6.608-2.051-.565-5.88 2.439-7.66 3.352z" class="prefix__cls-7" data-name="Path 490" transform="translate(-63.21 -527.701)"/>
            <path id="prefix__Path_491" d="M249.119 822.739a8.161 8.161 0 0 1-.386 2.763c-.616 1.626-2.143 2.74-2.932 4.289-1.1 2.154-.6 4.759.127 7.064a7.239 7.239 0 0 0 2.278 3.844 7.506 7.506 0 0 0 3.466 1.11c10.5 1.453 21.166.619 31.762.924 1.931.055 3.976.123 5.662-.821s2.728-3.316 1.581-4.872c-1.03-1.4-3.065-1.383-4.8-1.466a19.742 19.742 0 0 1-12.177-5.014 8.8 8.8 0 0 1-1.7-1.966 12.081 12.081 0 0 1-.893-2.048 91.3 91.3 0 0 0-5.288-11.713 6.2 6.2 0 0 0-2.274-2.722 6.007 6.007 0 0 0-2.468-.539c-2.641-.171-9.479-1.07-11.522.984-1.891 1.898-.394 7.773-.436 10.183z" class="prefix__cls-7" data-name="Path 491" transform="translate(-111.135 -545.881)"/>
            <circle id="prefix__Ellipse_134" cx="16.868" cy="16.868" r="16.868" class="prefix__cls-8" data-name="Ellipse 134" transform="translate(137.367 8.624)"/>
            <path id="prefix__Path_492" d="M249.99 417.53a12.679 12.679 0 0 1-5.181 6.654l23.33 4.759a24.714 24.714 0 0 1-.327-10.4 6 6 0 0 0 .14-2.567c-.439-1.693-2.344-2.507-4.049-2.9-4.258-.971-8.023-1.491-11.98-3.372-1.21 2.073-1.041 5.439-1.933 7.826z" class="prefix__cls-8" data-name="Path 492" transform="translate(-110.988 -378.11)"/>
            <path id="prefix__Path_493" d="M229.307 422.562a18.244 18.244 0 0 1 15.9.415 35.993 35.993 0 0 1 7.9 6.3c2.243 2.164 4.635 4.641 4.795 7.754a21.726 21.726 0 0 1-.631 4.473 15 15 0 0 0 8.022 15.41c1.853 3.087 2.236 6.828 2.264 10.429.108 13.643-4.2 27.455-1.124 40.749.721 3.121 1.841 6.144 2.464 9.286.807 4.07.767 8.255 1.19 12.382a55.459 55.459 0 0 0 2.977 13.1 5.44 5.44 0 0 1-5.031 2.1 14.213 14.213 0 0 1-5.38-1.825c-8.222-4.208-15.753-9.756-24.269-13.331-5.634-2.366-11.636-3.839-17.1-6.572s-10.549-7.069-12.22-12.946a30.3 30.3 0 0 1-.807-7.861c-.166-11.127-.32-22.376 2.1-33.238 2.136-9.579 6.253-18.742 7.152-28.515.292-3.181.3-6.586 2.076-9.241 2.515-3.75 7.937-4.721 9.722-8.869z" class="prefix__cls-9" data-name="Path 493" transform="translate(-95.681 -382.804)"/>
            <path id="prefix__Path_495" d="M244.7 697.953a50.342 50.342 0 0 1 .841 9.332c-.208 4.363-1.781 8.566-2.072 12.924-.217 3.255.285 6.545-.167 9.775-.289 2.069-.964 4.063-1.382 6.109a25.263 25.263 0 0 0 4.059 19.366 3.171 3.171 0 0 0 1.178 1.142 3.328 3.328 0 0 0 1.46.193 104.775 104.775 0 0 0 14.653-1.332 1.406 1.406 0 0 0 .941-.415 1.319 1.319 0 0 0 .2-.555c.9-4.62-1.151-9.253-1.672-13.93-.556-4.995.642-10 1.832-14.883a66.086 66.086 0 0 1 2.019-7.119c.575-1.57 1.269-3.1 1.768-4.694a35.781 35.781 0 0 0 1.282-7.686q.519-6.156.55-12.341a51.791 51.791 0 0 0-.969-11.649c-1.093-4.854-3.332-9.362-5.551-13.815a8.748 8.748 0 0 0-3.27 1.554 73 73 0 0 1-8.936 4.937c-2.076.964-6.126 1.649-7.443 3.659-1.3 1.982-.461 6.026-.362 8.212q.256 5.628 1.041 11.216z" class="prefix__cls-10" data-name="Path 495" transform="translate(-109.579 -486.191)"/>
            <path id="prefix__Path_496" d="M244.7 697.953a50.342 50.342 0 0 1 .841 9.332c-.208 4.363-1.781 8.566-2.072 12.924-.217 3.255.285 6.545-.167 9.775-.289 2.069-.964 4.063-1.382 6.109a25.263 25.263 0 0 0 4.059 19.366 3.171 3.171 0 0 0 1.178 1.142 3.328 3.328 0 0 0 1.46.193 104.775 104.775 0 0 0 14.653-1.332 1.406 1.406 0 0 0 .941-.415 1.319 1.319 0 0 0 .2-.555c.9-4.62-1.151-9.253-1.672-13.93-.556-4.995.642-10 1.832-14.883a66.086 66.086 0 0 1 2.019-7.119c.575-1.57 1.269-3.1 1.768-4.694a35.781 35.781 0 0 0 1.282-7.686q.519-6.156.55-12.341a51.791 51.791 0 0 0-.969-11.649c-1.093-4.854-3.332-9.362-5.551-13.815a8.748 8.748 0 0 0-3.27 1.554 73 73 0 0 1-8.936 4.937c-2.076.964-6.126 1.649-7.443 3.659-1.3 1.982-.461 6.026-.362 8.212q.256 5.628 1.041 11.216z" class="prefix__cls-6" data-name="Path 496" transform="translate(-109.579 -486.191)"/>
            <path id="prefix__Path_497" d="M191.967 605.518c-2.24 6.031 1.053 12.548 3.913 18.31 7.048 14.2 11.942 29.345 16.81 44.429a5.448 5.448 0 0 1 .322 3.478 4.556 4.556 0 0 1-1.643 1.948c-3.356 2.549-7.63 3.457-11.629 4.791a52.5 52.5 0 0 0-11.028 5.17c-2.9 1.8-5.611 3.868-8.32 5.937l-8.623 6.586a5.766 5.766 0 0 0-1.441 1.4c-.832 1.3-.491 3.008-.077 4.5a76.512 76.512 0 0 0 4.222 11.522 4.023 4.023 0 0 0 1.531 2.006c1.346.723 2.992-.236 4.02-1.366s1.917-2.538 3.366-3.023 3.04.1 4.551-.11c2.444-.343 4.067-2.595 5.829-4.323 7.2-7.062 19.217-6.55 27.136-12.794a34.493 34.493 0 0 1 3.627-2.834c1.339-.791 2.857-1.226 4.246-1.925 4.225-2.127 6.88-6.525 8.3-11.036s1.828-9.273 2.851-13.891a60.4 60.4 0 0 0 1.459-7.183 38.479 38.479 0 0 0-.147-6.792l-2.857-35.346c-.233-2.878-.466-5.759-.917-8.611-8.486.3-16.966.645-25.457.745-6.752.075-13.633.547-20.044-1.588z" class="prefix__cls-10" data-name="Path 497" transform="translate(-79.654 -459.927)"/>
            <path id="prefix__Path_498" d="M201.918 609.771c1.151 1.851 3.953 1.813 5.882.8s3.428-2.72 5.362-3.727c2.6-1.352 5.674-1.3 8.6-1.219 4.636.131 9.329.27 13.79 1.541 4.614 1.314 9.1 3.844 13.875 3.339a2.854 2.854 0 0 0 2.19-1.028 3.228 3.228 0 0 0 .361-1.651l.156-4.168a3.763 3.763 0 0 0-.332-2.111 3.539 3.539 0 0 0-1.581-1.211c-6.79-3.287-14.533-3.9-22.073-4.157q-5.749-.2-11.5-.162c-3.255.02-7.162-.451-10.327.419-4.247 1.164-6.558 9.87-4.403 13.335z" class="prefix__cls-11" data-name="Path 498" transform="translate(-92.724 -455.911)"/>
            <path id="prefix__Path_499" d="M243.875 427.841c-8.9-.079-16.959-5.951-25.855-6.094a6.7 6.7 0 0 0-3.139.542 11.689 11.689 0 0 0-3 2.852c-2.63 2.848-6.439 4.369-9.142 7.15-2.534 2.607-3.943 6.491-2.943 9.986s4.776 6.176 8.313 5.336a21.424 21.424 0 0 1 8.347-11.341 42.43 42.43 0 0 1 6.523-3.424c4-1.812 8.469-3.658 12.643-2.3a17.839 17.839 0 0 1 4.313 2.352l6.959 4.675c-.806-3.2-1.535-6.788-3.019-9.734z" class="prefix__cls-11" data-name="Path 499" transform="translate(-92.046 -383.134)"/>
            <path id="prefix__Path_500" d="M203.667 449.715c-1.181 1.474.52 3.609.26 5.48-.173 1.243-1.2 2.192-1.622 3.373-.441 1.223-.207 2.577-.375 3.866a16.584 16.584 0 0 1-.742 2.753 49.472 49.472 0 0 0-1.564 8.165l-1.557 11.629a44.06 44.06 0 0 0-.493 5.285 15.781 15.781 0 0 1-.263 3.951 29.179 29.179 0 0 1-1.622 3.6 4.213 4.213 0 0 0-.058 3.8 6.639 6.639 0 0 0-1.39 8.287 4.6 4.6 0 0 1 .716 1.319 3.388 3.388 0 0 1-.315 1.945l-1.575 4.2c-.4 1.074-.53 2.709.59 2.954a9.9 9.9 0 0 0-2.126 3.357 4 4 0 0 0 .566 3.787 4.825 4.825 0 0 1 .986 1.2 3.186 3.186 0 0 1-.114 1.888 6.931 6.931 0 0 0 .858 5.434 4.874 4.874 0 0 0 4.9 2.1c3.15-.71 5.98-1.832 9.156-1.249a163.576 163.576 0 0 1 20.321 4.629c7.559 2.413 14.878 5.952 22.778 6.7a2.211 2.211 0 0 0 1.523-.237 2.288 2.288 0 0 0 .7-1.448l2.442-11.448a117.821 117.821 0 0 0 2.244-12.824c.278-2.783.357-5.583.436-8.379l.629-22.257a22.238 22.238 0 0 0-1.281-9.675l-3.62-11.555c-2.066-6.594-6.8-12.442-8.491-19.142-1.068-4.241-1.857-8.792-4.72-12.1-4.082-4.713-11.145-5.446-17.327-4.635a20.7 20.7 0 0 0-8.017 2.432c-2.793 1.675-4.851 4.313-6.842 6.891-1.641 2.121-3.312 3.829-4.991 5.924z" class="prefix__cls-11" data-name="Path 500" transform="translate(-88.625 -388.33)"/>
            <path id="prefix__Path_501" d="M236.933 562.961c.509 2.2 1.579 4.221 2.234 6.379 1.1 3.615 1 7.507 2.1 11.122.46 1.517 1.125 2.974 1.455 4.525.769 3.616-.354 7.356-1.749 10.779s-3.093 6.8-3.546 10.467c-.319 2.584.139 5.5 2.131 7.178 2.068 1.741 5.072 1.623 7.765 1.391a8.157 8.157 0 0 0 2.818-.587c2.06-.974 2.927-3.411 3.408-5.638 1.613-7.463 1.152-15.2.684-22.819l-1.226-19.93a46.648 46.648 0 0 0-1.671-11.437c-.43-1.34-1.18-4.048-2.4-4.9s-4.675-.885-6.176-.956c-7.047-.335-6.968 9.497-5.827 14.426z" class="prefix__cls-8" data-name="Path 501" transform="translate(-107.456 -436.113)"/>
            <path id="prefix__Path_502" d="M240.632 446.619a4.848 4.848 0 0 0-4.641.41 14.3 14.3 0 0 0-3.477 3.375c-3.108 3.794-6.4 8.147-5.937 13.03a33.048 33.048 0 0 0 1.349 5.34c2.084 7.789-.22 16.027.044 24.086a75.415 75.415 0 0 0 2.175 13.785c.206.928.536 2 1.434 2.315a3.114 3.114 0 0 0 2.071-.321 16.517 16.517 0 0 1 15.115 1.905c1.668-.89 1.043-3.7.669-5.557-1.111-5.506.4-11.186 2.229-16.5s4.023-10.613 4.327-16.222c.344-6.355-1.763-12.558-3.842-18.573a5.972 5.972 0 0 0-5.031-4.981 34.7 34.7 0 0 1-6.485-2.092z" class="prefix__cls-1" data-name="Path 502" transform="translate(-103.352 -393.357)"/>
            <g id="prefix__Group_1096" data-name="Group 1096" transform="translate(148.434 22.103)">
                <path id="prefix__Path_590" d="M255 234.211l5.943 5.654c6.121-3.08 12.032-11.379 13.7-18.181l-7.8-3.268c-.507 6.937-5.431 11.55-11.843 15.795z" class="prefix__cls-5" data-name="Path 590" transform="translate(-250.42 -218.416)"/>
                <path id="prefix__Path_591" d="M265.8 221.378a.5.5 0 0 0 .07 0l13.821-1.974a.494.494 0 0 0-.139-.978l-13.821 1.974a.494.494 0 0 0 .068.982z" class="prefix__cls-5" data-name="Path 591" transform="translate(-262.703 -218.416)"/>
                <path id="prefix__Path_592" d="M288.31 237.63a.493.493 0 0 0 .43-.736l-4.579-8.152a.493.493 0 1 0-.86.484l4.579 8.152a.493.493 0 0 0 .43.252z" class="prefix__cls-5" data-name="Path 592" transform="translate(-283.237 -221.834)"/>
            </g>
            <path id="prefix__Path_494" d="M250.252 381.162c.994-1.3 2.911-1.473 4.5-1.09s3.052 1.2 4.656 1.513a2.722 2.722 0 0 0 2.179-.306 3.17 3.17 0 0 0 .94-2.078 39.682 39.682 0 0 0 .391-10.118 3 3 0 0 1 .092-1.419c.4-.957 1.608-1.184 2.6-1.491a7.752 7.752 0 0 0 5.247-7.937 3.156 3.156 0 0 0-.964-2.178 3.967 3.967 0 0 0-2.524-.6q-6.8-.055-13.6 0a9.879 9.879 0 0 0-4.9.892 23.788 23.788 0 0 0-2.841 2.394c-2.519 2.032-5.925 2.446-8.989 3.488a8.911 8.911 0 0 0-3.94 2.349 4.15 4.15 0 0 0-.869 4.3 15.277 15.277 0 0 0 1.1 1.691c1.807 2.89.6 6.638.874 10.036.337 4.243 6.616 11.126 10.874 12.13 6.87 1.629 2.898-8.79 5.174-11.576z" class="prefix__cls-7" data-name="Path 494" transform="translate(-105.611 -355.432)"/>
        </g>
        <path id="prefix__Path_753" d="M921.051 543.28c13.25 18.73 16.75 125.33 17.53 159.5.02.77.04 1.5.05 2.19h33.54c.41-.73.79-1.45 1.15-2.19 19.88-39.24 8.85-86.29 8.27-88.67 1.51 7.48-5.32 29.16-13.04 50.16-4.71-64.57-44.98-117.73-47.5-120.99z" class="prefix__cls-9" data-name="Path 753" transform="translate(188.223 1763.99)"/>
        <text id="prefix__HOW_QTIMES_WORKS_" fill="#fff" data-name="HOW QTIMES WORKS?" font-family="NunitoSans-Bold, Nunito Sans" font-size="60px" font-weight="700" transform="translate(406 2034)">
            <tspan x="0" y="0">HOW QTIMES</tspan><tspan x="0" y="75">WORKS?</tspan>
        </text>
        <text id="prefix__Learn_about_Account_Set-Up_Preferences_Messages_Reservations_Mobile_Web_App_and_Vouchers" fill="#fff" data-name="Learn about Account Set-Up, Preferences, Messages, Reservations, Mobile Web App and Vouchers" font-family="NunitoSans-Regular, Nunito Sans" font-size="22px" opacity="0.8" transform="translate(406 2184)">
            <tspan x="0" y="0">Learn about Account Set-Up, Preferences, </tspan><tspan x="0" y="32">Messages, Reservations, Mobile Web App </tspan><tspan x="0" y="64">and Vouchers</tspan>
        </text>
        <path id="prefix__Path_1176" fill="#fff" d="M5431 81.631a152.606 152.606 0 0 1 18.463-72.717l42.186 43.429A96.514 96.514 0 0 0 5626.086 168.3l-55.072-37.14a27.811 27.811 0 0 1-12.262-23.41 27.77 27.77 0 0 1-1.582-9.273v-37.1a27.822 27.822 0 1 1 55.645 0v30.856l54.793 36.957a96.677 96.677 0 0 0 9.678-71l43.082-44.357a152.36 152.36 0 0 1-6.164 146.789l3.25 2.192a27.817 27.817 0 1 1-31.105 46.125l-9.57-6.456a151.866 151.866 0 0 1-93.148 31.788c-84.162.004-152.631-68.478-152.631-152.64zm233.232-53.119a97.469 97.469 0 0 0-32.67-30.674l30.176-47.3a153.347 153.347 0 0 1 40.783 35.468l-38.279 42.5-.01.013zm-157.986-4.578l-37.961-42.157a153.124 153.124 0 0 1 42.631-34.311l30.275 47.46a97.274 97.274 0 0 0-34.934 29.008l-.012.013zm77.381-38.825a98.15 98.15 0 0 0-10.424.56l-29.646-51.326a153.016 153.016 0 0 1 86.414 1.844l-29.121 50.447-.008.013a97.35 97.35 0 0 0-17.213-1.539z" data-name="Path 1176" opacity="0.09" transform="translate(-4715.604 2043.725)"/>
    </g>
</svg>
