<svg xmlns="http://www.w3.org/2000/svg" width="289" height="302.703" viewBox="0 0 289 302.703">
    <defs>
        <style>
            .prefix__cls-2{fill:#fff}
        </style>
    </defs>
    <g id="prefix__big-icon1" opacity="0.5" transform="translate(-3 -1)">
        <path id="prefix__Path_18" d="M128.815 1h-12.457A113.213 113.213 0 0 0 3 114.358V303.7h125.815v-37.368h114.6v-69.759H292l-48.582-83.461C242.489 51.183 190.958 1 128.815 1zm102.146 183.116v69.759h-114.6v37.371H15.457V114.358a100.872 100.872 0 0 1 100.9-100.9h12.457c55.749 0 102.147 45.152 102.147 100.9v2.491l38.616 67.267z" class="prefix__cls-2" data-name="Path 18"/>
        <path id="prefix__Path_19" d="M96.079 4.708a88.444 88.444 0 1 0 88.444 88.444A88.523 88.523 0 0 0 96.079 4.708zm62.284 44.845H134.7V28.376a76.327 76.327 0 0 1 23.664 21.177zM122.239 165.4V99.381h7.474c2.616 7.337 9.212 13.7 17.44 13.7 10.452 0 18.685-9.479 18.685-19.931a18.518 18.518 0 0 0-18.685-18.685 18.314 18.314 0 0 0-17.44 12.457h-19.931v80.97a89.008 89.008 0 0 1-13.7 1.246v-56.055H76.148c-2.616-7.337-9.212-13.7-17.44-13.7-10.452 0-18.685 9.479-18.685 19.931A18.518 18.518 0 0 0 58.709 138a18.314 18.314 0 0 0 17.44-12.457h7.474v42.353c-35.805-6.041-62.284-37.243-62.284-74.741a74.781 74.781 0 0 1 18.684-49.83v31.142h26.16a18.314 18.314 0 0 0 17.44 12.457 18.685 18.685 0 0 0 0-37.371 18.314 18.314 0 0 0-17.44 12.457H52.48v-29.9c12.468-9 27.081-14.948 43.6-14.948 8.872 0 18.241 2.171 26.159 4.983V62.01h43.6c4.436 9.631 6.228 19.856 6.228 31.142-.001 32.943-20.425 61.805-49.828 72.248zm18.685-72.25a6.228 6.228 0 1 1 6.228 6.228 6.168 6.168 0 0 1-6.228-6.226zm-75.987 26.162a6.228 6.228 0 1 1-6.228-6.228 6.168 6.168 0 0 1 6.228 6.228zm12.457-51.073a6.228 6.228 0 1 1 6.228 6.228 6.168 6.168 0 0 1-6.228-6.228z" class="prefix__cls-2" data-name="Path 19" transform="translate(26.507 21.205)"/>
    </g>
</svg>
