<svg xmlns="http://www.w3.org/2000/svg" id="prefix__illu2" width="548.485" height="371.37" viewBox="0 0 548.485 371.37">
    <defs>
        <style>
            .prefix__cls-1{fill:#ebefec}.prefix__cls-3{fill:#2bc783}.prefix__cls-4{fill:#2f2e41}.prefix__cls-5{fill:#9f616a}.prefix__cls-6{fill:#3e5b6a}.prefix__cls-8{fill:none;stroke:#3f3d56;stroke-miterlimit:10;stroke-width:2px}.prefix__cls-9{fill:#3f3d56}.prefix__cls-10{fill:#fbbebe}
        </style>
    </defs>
    <circle id="prefix__Ellipse_326" cx="6.939" cy="6.939" r="6.939" class="prefix__cls-1" data-name="Ellipse 326" transform="translate(344.915 16.329)"/>
    <circle id="prefix__Ellipse_327" cx="6.939" cy="6.939" r="6.939" class="prefix__cls-1" data-name="Ellipse 327" transform="translate(304 284.864)"/>
    <circle id="prefix__Ellipse_328" cx="6.939" cy="6.939" r="6.939" class="prefix__cls-1" data-name="Ellipse 328" transform="translate(131.404 83.11)"/>
    <ellipse id="prefix__Ellipse_329" cx="74" cy="11" fill="#f1f1f1" data-name="Ellipse 329" rx="74" ry="11" transform="translate(0 349)"/>
    <path id="prefix__Path_1351" d="M367.138 623.542l18.536-5.807a67.94 67.94 0 0 0-6.924-22.1l-18.536 5.807a41.673 41.673 0 0 1 6.924 22.1z" class="prefix__cls-3" data-name="Path 1351" transform="translate(-254.298 -341.85)"/>
    <circle id="prefix__Ellipse_330" cx="17.307" cy="17.307" r="17.307" class="prefix__cls-4" data-name="Ellipse 330" transform="translate(50.979 107.956)"/>
    <path id="prefix__Path_1352" d="M101.792 725.381L98.5 739.49h7.995l3.292-15.99z" class="prefix__cls-5" data-name="Path 1352" transform="translate(-52.177 -383.246)"/>
    <path id="prefix__Path_1353" d="M187.5 727.5v13.168l7.995.941V727.5z" class="prefix__cls-5" data-name="Path 1353" transform="translate(-99.321 -385.365)"/>
    <path id="prefix__Path_1354" d="M235.5 464.972s.941 20.222 1.881 21.633 9.406 21.633 9.406 21.633l4.233-13.168s-6.584-10.817-5.643-16.93a70.275 70.275 0 0 0 .348-13.637z" class="prefix__cls-5" data-name="Path 1354" transform="translate(-188.236 -272.388)"/>
    <circle id="prefix__Ellipse_331" cx="13.168" cy="13.168" r="13.168" class="prefix__cls-5" data-name="Ellipse 331" transform="translate(60.902 117.337)"/>
    <path id="prefix__Path_1355" d="M265.945 336.5s.47 18.812-2.822 21.633 18.812.47 18.812.47-4.7-13.168-.941-15.99-15.049-6.113-15.049-6.113z" class="prefix__cls-5" data-name="Path 1355" transform="translate(-202.691 -204.584)"/>
    <path id="prefix__Path_1356" d="M267.821 376.169s-2.822-5.173-6.584-4.7-15.99 1.411-16.46 2.351-1.881 4.233-2.822 5.173-7.995 2.351-8.465 7.995 16.93 39.975 16.93 39.975-2.351 7.995-1.881 9.876-2.351 7.525-1.881 9.876-7.054 16.46-3.292 34.8v29.628s-12.7 51.261-8.935 55.024 16.46 1.411 18.812 0 12.228-72.424 12.228-72.424l4.7-23.985.47 52.672s-.941 44.207 2.351 45.618 15.99 1.881 16.93-.941c.734-2.2 4.328-60.756 5.874-86.423a95.9 95.9 0 0 0-2.071-26.419c-1.957-8.878-4.8-19.309-8.036-23.542-6.114-7.995-9.876-33.391-9.876-33.391l7.995-14.579s-4.7-4.7-7.525-4.7-8.462-1.884-8.462-1.884z" class="prefix__cls-6" data-name="Path 1356" transform="translate(-187.166 -223.09)"/>
    <path id="prefix__Path_1357" d="M235.7 397.5l-2.48 1.688s-1.753 30.292-.342 32.173 11.22.963 11.959-.694S235.7 397.5 235.7 397.5z" class="prefix__cls-6" data-name="Path 1357" transform="translate(-186.558 -236.896)"/>
    <path id="prefix__Path_1358" d="M321.5 453.031s.47 19.752 3.292 25.4 13.168 29.158 13.168 29.158-.6 25.881 4.638 19.524 1.946-21.406 1.946-21.406l-8.935-34.8s-4.7-15.52-4.233-20.222-9.876 2.346-9.876 2.346z" class="prefix__cls-5" data-name="Path 1358" transform="translate(-233.791 -264.209)"/>
    <path id="prefix__Path_1359" d="M326.552 795.248s.47-.376 1.881 1.035 5.173 3.292 4.7 8.465-3.292 6.114-3.292 6.114v-1.411h-1.411v2.349s-2.351 7.525-13.168 2.822a24.393 24.393 0 0 1 0-6.114c.47-2.351.47-13.638 1.881-13.168s5.173.941 6.114 2.822 3.765 1.224 3.295-2.914z" class="prefix__cls-4" data-name="Path 1359" transform="translate(-230.377 -447.563)"/>
    <path id="prefix__Path_1360" d="M229.039 796.248s-.47-.376-1.881 1.035-5.173 3.292-4.7 8.465 3.292 6.114 3.292 6.114v-1.411h1.411v2.349s2.351 7.525 13.168 2.822a24.392 24.392 0 0 0 0-6.114c-.47-2.351-.47-13.638-1.881-13.168s-5.173.941-6.114 2.822-3.766 1.224-3.295-2.914z" class="prefix__cls-4" data-name="Path 1360" transform="translate(-181.304 -448.093)"/>
    <path id="prefix__Path_1361" d="M321.455 392.5l6.584 1.411s0 10.346 1.881 14.579 5.173 14.109 3.762 14.579-14.579 7.054-15.52 3.292-3.291-33.861 3.293-33.861z" class="prefix__cls-6" data-name="Path 1361" transform="translate(-231.395 -234.248)"/>
    <circle id="prefix__Ellipse_332" cx="17.307" cy="17.307" r="17.307" class="prefix__cls-4" data-name="Ellipse 332" transform="translate(32.231 85.169)"/>
    <path id="prefix__Path_1362" d="M199.858 286.143a17.308 17.308 0 0 0 26.726-9.087 17.308 17.308 0 1 1-33.761-7.1 17.3 17.3 0 0 0 7.035 16.187z" class="prefix__cls-4" data-name="Path 1362" transform="translate(-165.248 -169.336)"/>
    <circle id="prefix__Ellipse_333" cx="12.692" cy="12.692" r="12.692" class="prefix__cls-4" data-name="Ellipse 333" transform="translate(50.98 115.456)"/>
    <ellipse id="prefix__Ellipse_334" cx="11.249" cy="8.798" class="prefix__cls-4" data-name="Ellipse 334" rx="11.249" ry="8.798" transform="translate(63.094 114.59)"/>
    <ellipse id="prefix__Ellipse_335" cx="2.135" cy="3.777" fill="#a0616a" data-name="Ellipse 335" rx="2.135" ry="3.777" transform="translate(75.209 128.626)"/>
    <path id="prefix__Rectangle_715" d="M0 0H251.134V201.754H0z" class="prefix__cls-1" data-name="Rectangle 715" transform="rotate(16.73 60.857 654.36)"/>
    <path id="prefix__Line_17" d="M0 0L56.971 23.028" class="prefix__cls-8" data-name="Line 17" transform="translate(287.424 66.731)"/>
    <path id="prefix__Path_1363" d="M611.547 143.927l.853-.4-1.967-4.2 4.333-1.654-.337-.879-5.277 2.016z" class="prefix__cls-9" data-name="Path 1363" transform="translate(-322.675 -72.462)"/>
    <path id="prefix__Path_1364" d="M722.717 187.925l-.337-.879 4.333-1.654-1.966-4.2.853-.4 2.394 5.117z" class="prefix__cls-9" data-name="Path 1364" transform="translate(-382.652 -95.768)"/>
    <circle id="prefix__Ellipse_336" cx="5.173" cy="5.173" r="5.173" class="prefix__cls-9" data-name="Ellipse 336" transform="translate(310.737 73.071)"/>
    <path id="prefix__Line_18" d="M0 31.957L52.486 0" class="prefix__cls-8" data-name="Line 18" transform="translate(283.083 194.418)"/>
    <path id="prefix__Path_1365" d="M605.615 477.49l.189-.922-4.544-.93 1.259-4.464-.906-.255-1.533 5.437z" class="prefix__cls-9" data-name="Path 1365" transform="translate(-317.87 -249.451)"/>
    <path id="prefix__Path_1366" d="M707.41 416.432l-.906-.255 1.26-4.463-4.544-.931.19-.922 5.534 1.139z" class="prefix__cls-9" data-name="Path 1366" transform="translate(-372.503 -217.108)"/>
    <circle id="prefix__Ellipse_337" cx="5.173" cy="5.173" r="5.173" class="prefix__cls-9" data-name="Ellipse 337" transform="translate(304.153 205.222)"/>
    <path id="prefix__Line_19" d="M0 0L0.018 61.449" class="prefix__cls-8" data-name="Line 19" transform="translate(217.14 125.118)"/>
    <path id="prefix__Path_1367" d="M453.538 268.013l.689.641 3.156-3.4 3.159 3.4.689-.642-3.848-4.136z" class="prefix__cls-9" data-name="Path 1367" transform="translate(-240.244 -139.777)"/>
    <path id="prefix__Path_1368" d="M453.573 389.357l.689-.642 3.158 3.4 3.157-3.4.689.641-3.846 4.138z" class="prefix__cls-9" data-name="Path 1368" transform="translate(-240.262 -205.905)"/>
    <circle id="prefix__Ellipse_338" cx="5.173" cy="5.173" r="5.173" class="prefix__cls-9" data-name="Ellipse 338" transform="translate(211.976 150.669)"/>
    <path id="prefix__Rectangle_716" d="M0 0H85V106H0z" class="prefix__cls-6" data-name="Rectangle 716" transform="translate(174)"/>
    <path id="prefix__Rectangle_717" d="M0 0H85V106H0z" class="prefix__cls-6" data-name="Rectangle 717" transform="translate(352 101)"/>
    <path id="prefix__Rectangle_718" d="M0 0H61V2H0z" class="prefix__cls-3" data-name="Rectangle 718" transform="translate(364 124)"/>
    <path id="prefix__Rectangle_719" d="M0 0H61V3H0z" class="prefix__cls-3" data-name="Rectangle 719" transform="translate(364 134)"/>
    <path id="prefix__Rectangle_720" d="M0 0H61V3H0z" class="prefix__cls-3" data-name="Rectangle 720" transform="translate(364 143)"/>
    <path id="prefix__Rectangle_721" d="M0 0H61V3H0z" class="prefix__cls-3" data-name="Rectangle 721" transform="translate(364 153)"/>
    <path id="prefix__Rectangle_722" d="M0 0H61V3H0z" class="prefix__cls-3" data-name="Rectangle 722" transform="translate(364 163)"/>
    <path id="prefix__Rectangle_730" d="M0 0H61V3H0z" class="prefix__cls-3" data-name="Rectangle 730" transform="translate(186 23)"/>
    <path id="prefix__Rectangle_723" d="M0 0H32V11H0z" class="prefix__cls-3" data-name="Rectangle 723" transform="translate(379 174)"/>
    <path id="prefix__Rectangle_729" d="M0 0H32V11H0z" class="prefix__cls-3" data-name="Rectangle 729" transform="translate(201 34)"/>
    <path id="prefix__Rectangle_724" d="M0 0H85V106H0z" class="prefix__cls-6" data-name="Rectangle 724" transform="translate(181 210)"/>
    <path id="prefix__Rectangle_726" d="M0 0H61.138V2.822H0z" class="prefix__cls-3" data-name="Rectangle 726" transform="translate(193.429 279.261)"/>
    <path id="prefix__Rectangle_727" d="M0 0H61.138V2.822H0z" class="prefix__cls-3" data-name="Rectangle 727" transform="translate(193.429 289.137)"/>
    <path id="prefix__Rectangle_728" d="M0 0H61.138V2.822H0z" class="prefix__cls-3" data-name="Rectangle 728" transform="translate(193.429 299.013)"/>
    <g id="prefix__iconfinder_b-37_4229853" transform="translate(196.5 209.4)">
        <path id="prefix__Path_1423" d="M20.748 32.84a1 1 0 0 0 .282-.724l-.02-.784v-.02a38.016 38.016 0 0 0-.322-4.365 3.388 3.388 0 0 0-1.85-2.474 32.489 32.489 0 0 0-3.319-1.348 6.129 6.129 0 0 0 .422-.8 2.9 2.9 0 0 0 1.388-1.428 3.032 3.032 0 0 0 .362-1.448 3.134 3.134 0 0 0-.161-.965 2.087 2.087 0 0 0-.342-.744 5.571 5.571 0 0 0-1.146-3.9 5.9 5.9 0 0 0-4.586-2.24h-.422a5.942 5.942 0 0 0-4.546 2.233 5.6 5.6 0 0 0-1.106 3.882 2.5 2.5 0 0 0-.342.744 3.134 3.134 0 0 0-.161.965 3.069 3.069 0 0 0 .321 1.388A2.907 2.907 0 0 0 6.609 22.3a5.076 5.076 0 0 0 .422.8c-1.126.4-2.454.925-3.319 1.348a3.438 3.438 0 0 0-1.85 2.474 39.855 39.855 0 0 0-.342 4.385l-.02.793a1.018 1.018 0 0 0 .282.724.956.956 0 0 0 .724.3h17.478a.909.909 0 0 0 .764-.284zM3.592 31.11a34.442 34.442 0 0 1 .3-3.822 1.424 1.424 0 0 1 .744-1.006c1.167-.583 3.419-1.388 4.344-1.71a1.022 1.022 0 0 0 .684-.965v-.181a1.007 1.007 0 0 0-.342-.764 2.928 2.928 0 0 1-.885-1.428 1.032 1.032 0 0 0-.7-.7 1.087 1.087 0 0 1-.684-.624 1.173 1.173 0 0 1-.121-.523 1.022 1.022 0 0 1 .06-.342.181.181 0 0 0 .02-.1.342.342 0 0 1 .121-.2 1.032 1.032 0 0 0 .322-.945 3.485 3.485 0 0 1 .682-2.8 3.889 3.889 0 0 1 2.957-1.468h.362a3.844 3.844 0 0 1 3 1.468 3.562 3.562 0 0 1 .684 2.8 1.049 1.049 0 0 0 .322.945.417.417 0 0 1 .121.2.286.286 0 0 0 .04.121.911.911 0 0 1 .06.322 1.166 1.166 0 0 1-.161.583 1 1 0 0 1-.644.563 1.032 1.032 0 0 0-.7.7 2.909 2.909 0 0 1-.905 1.428 1.007 1.007 0 0 0-.342.764v.181a1.042 1.042 0 0 0 .684.965 43.855 43.855 0 0 1 4.344 1.71 1.424 1.424 0 0 1 .744 1.006A31.677 31.677 0 0 1 19 31.11z" class="prefix__cls-3" data-name="Path 1423"/>
        <path id="prefix__Path_1424" d="M176.57 31.331a39.179 39.179 0 0 0-.342-4.385 3.388 3.388 0 0 0-1.85-2.474 32.488 32.488 0 0 0-3.319-1.348 6.13 6.13 0 0 0 .422-.8 2.9 2.9 0 0 0 1.388-1.428 3.032 3.032 0 0 0 .362-1.448 3.135 3.135 0 0 0-.161-.965 2.087 2.087 0 0 0-.342-.744 5.571 5.571 0 0 0-1.146-3.9A5.9 5.9 0 0 0 167 11.6h-.422a5.942 5.942 0 0 0-4.546 2.233 5.594 5.594 0 0 0-1.146 3.922 2.292 2.292 0 0 0-.342.744 3.134 3.134 0 0 0-.161.965 3.069 3.069 0 0 0 .322 1.388 2.907 2.907 0 0 0 1.408 1.488 5.077 5.077 0 0 0 .422.8c-1.126.4-2.454.925-3.319 1.348a3.438 3.438 0 0 0-1.85 2.474 39.855 39.855 0 0 0-.342 4.385l-.02.784a1.018 1.018 0 0 0 .282.724.956.956 0 0 0 .724.3h17.479a.987.987 0 0 0 .724-.3 1 1 0 0 0 .282-.724zm-17.458-.221a34.806 34.806 0 0 1 .3-3.822 1.424 1.424 0 0 1 .744-1.006c1.167-.583 3.419-1.388 4.344-1.71a1.022 1.022 0 0 0 .684-.965v-.181a1.007 1.007 0 0 0-.342-.764 2.789 2.789 0 0 1-.885-1.428 1.032 1.032 0 0 0-.7-.7 1.087 1.087 0 0 1-.684-.624 1.174 1.174 0 0 1-.121-.523 1.021 1.021 0 0 1 .06-.342c.02-.04.02-.06.04-.1a.417.417 0 0 1 .121-.2 1.032 1.032 0 0 0 .322-.945 3.485 3.485 0 0 1 .684-2.8 3.889 3.889 0 0 1 2.957-1.468H167A3.844 3.844 0 0 1 170 15a3.562 3.562 0 0 1 .684 2.8 1.049 1.049 0 0 0 .322.945.417.417 0 0 1 .121.2.286.286 0 0 0 .04.121.911.911 0 0 1 .06.322 1.166 1.166 0 0 1-.161.583 1 1 0 0 1-.644.563 1.032 1.032 0 0 0-.7.7 2.909 2.909 0 0 1-.905 1.428 1.007 1.007 0 0 0-.342.764v.181a1.042 1.042 0 0 0 .684.965 43.855 43.855 0 0 1 4.344 1.71 1.424 1.424 0 0 1 .744 1.006 31.675 31.675 0 0 1 .3 3.822z" class="prefix__cls-3" data-name="Path 1424" transform="translate(-124.224)"/>
        <path id="prefix__Path_1425" d="M98.428 152.767a3.438 3.438 0 0 0-1.85-2.474c-.865-.422-2.192-.945-3.319-1.348a6.129 6.129 0 0 0 .422-.8 2.984 2.984 0 0 0 1.388-1.428 3.032 3.032 0 0 0 .362-1.448 3.262 3.262 0 0 0-.161-.986 2 2 0 0 0-.342-.724 5.651 5.651 0 0 0-1.146-3.922A5.9 5.9 0 0 0 89.2 137.4h-.422a5.942 5.942 0 0 0-4.546 2.233 5.594 5.594 0 0 0-1.146 3.922 2.292 2.292 0 0 0-.342.744 3.237 3.237 0 0 0-.161.965 3.069 3.069 0 0 0 .322 1.388 2.907 2.907 0 0 0 1.408 1.488 5.076 5.076 0 0 0 .422.8c-1.126.4-2.454.925-3.319 1.348a3.489 3.489 0 0 0-1.85 2.474 39.511 39.511 0 0 0-.342 4.385l-.02.784a1.018 1.018 0 0 0 .282.724.956.956 0 0 0 .724.3h17.474a.988.988 0 0 0 .724-.3 1 1 0 0 0 .282-.724l-.02-.8a21.934 21.934 0 0 0-.242-4.364zm-17.116 4.183a34.442 34.442 0 0 1 .3-3.822 1.424 1.424 0 0 1 .744-1.006c1.167-.583 3.419-1.388 4.344-1.71a1.022 1.022 0 0 0 .684-.965v-.181a1.007 1.007 0 0 0-.342-.764 2.789 2.789 0 0 1-.885-1.428 1.032 1.032 0 0 0-.7-.7 1.087 1.087 0 0 1-.684-.624 1.174 1.174 0 0 1-.121-.523 1.022 1.022 0 0 1 .06-.342.181.181 0 0 0 .02-.1.342.342 0 0 1 .121-.2 1.032 1.032 0 0 0 .322-.945 3.485 3.485 0 0 1 .684-2.8 3.889 3.889 0 0 1 2.957-1.468h.362a3.844 3.844 0 0 1 3 1.468 3.485 3.485 0 0 1 .684 2.8 1.049 1.049 0 0 0 .322.945.417.417 0 0 1 .121.2.286.286 0 0 0 .04.121.911.911 0 0 1 .06.322 1.166 1.166 0 0 1-.161.583 1 1 0 0 1-.644.563 1.032 1.032 0 0 0-.7.7 2.909 2.909 0 0 1-.905 1.428 1.007 1.007 0 0 0-.342.764v.181a1.042 1.042 0 0 0 .684.965c.905.322 3.178 1.126 4.344 1.71a1.372 1.372 0 0 1 .744 1.006 31.678 31.678 0 0 1 .3 3.822z" class="prefix__cls-3" data-name="Path 1425" transform="translate(-62.072 -100.497)"/>
        <path id="prefix__Path_1426" d="M186.335 131.576a1.012 1.012 0 0 0-1.106.905 16.234 16.234 0 0 1-5.652 10.8 1.018 1.018 0 0 0-.121 1.428.991.991 0 0 0 .764.362 1.039 1.039 0 0 0 .664-.241 18.172 18.172 0 0 0 6.356-12.148 1.017 1.017 0 0 0-.905-1.106z" class="prefix__cls-3" data-name="Path 1426" transform="translate(-141.973 -95.84)"/>
        <path id="prefix__Path_1427" d="M38.988 132.481a1.012 1.012 0 0 0-1.106-.905 1 1 0 0 0-.905 1.106 18.212 18.212 0 0 0 6.356 12.148 1.008 1.008 0 0 0 1.428-.121 1.018 1.018 0 0 0-.121-1.428 16.234 16.234 0 0 1-5.652-10.8z" class="prefix__cls-3" data-name="Path 1427" transform="translate(-28.336 -95.84)"/>
        <path id="prefix__Path_1428" d="M95.547 39.5a1.022 1.022 0 0 0 .342-.06 16.384 16.384 0 0 1 10.741 0 1.011 1.011 0 1 0 .664-1.911 18.319 18.319 0 0 0-12.088 0 1.018 1.018 0 0 0-.624 1.287 1.054 1.054 0 0 0 .965.684z" class="prefix__cls-3" data-name="Path 1428" transform="translate(-74.316 -19.892)"/>
    </g>
    <path id="prefix__iconfinder_miscellaneous-36_809442" d="M21.064 8.836l-7.285-1.054L10.532 1.2 7.285 7.782 0 8.836l5.266 5.09-1.229 7.285 6.495-3.423 6.495 3.423-1.227-7.285zm-10.532 6.933l-4.213 2.194.79-4.652-3.423-3.334 4.739-.7 2.106-4.3 2.106 4.3 4.739.7-3.423 3.335.79 4.739z" class="prefix__cls-3" transform="translate(181 53.8)"/>
    <path id="prefix__iconfinder_miscellaneous-36_809442-2" d="M21.064 8.836l-7.285-1.054L10.532 1.2 7.285 7.782 0 8.836l5.266 5.09-1.229 7.285 6.495-3.423 6.495 3.423-1.227-7.285zm-10.532 6.933l-4.213 2.194.79-4.652-3.423-3.334 4.739-.7 2.106-4.3 2.106 4.3 4.739.7-3.423 3.335.79 4.739z" class="prefix__cls-3" data-name="iconfinder_miscellaneous-36_809442" transform="translate(206 53.8)"/>
    <path id="prefix__iconfinder_miscellaneous-36_809442-3" d="M21.064 8.836l-7.285-1.054L10.532 1.2 7.285 7.782 0 8.836l5.266 5.09-1.229 7.285 6.495-3.423 6.495 3.423-1.227-7.285zm-10.532 6.933l-4.213 2.194.79-4.652-3.423-3.334 4.739-.7 2.106-4.3 2.106 4.3 4.739.7-3.423 3.335.79 4.739z" class="prefix__cls-3" data-name="iconfinder_miscellaneous-36_809442" transform="translate(231 53.8)"/>
    <g id="prefix__Group_1156" data-name="Group 1156" transform="translate(10246 -1611.644)">
        <path id="prefix__Path_1406" d="M220.5 302.025s2.147 11.379.644 12.238a26.107 26.107 0 0 0-3.435 2.576l3.865 5.367 9.232 1.932 8.8-8.158v-8.159s-2.576-4.079-2.147-6.656-16.959.86-16.959.86z" class="prefix__cls-10" data-name="Path 1406" transform="translate(-9973.905 1417.505)"/>
        <path id="prefix__Path_1407" d="M220.5 302.025s2.147 11.379.644 12.238a26.107 26.107 0 0 0-3.435 2.576l3.865 5.367 9.232 1.932 8.8-8.158v-8.159s-2.576-4.079-2.147-6.656-16.959.86-16.959.86z" data-name="Path 1407" opacity="0.1" transform="translate(-9973.905 1417.505)"/>
        <path id="prefix__Path_1408" d="M183.463 344.183l-1.288.644s-2.791 1.073-4.079 10.305-4.294 31.346-3.435 31.99.429 4.938.429 4.938l6.441-33.707z" class="prefix__cls-1" data-name="Path 1408" transform="translate(-9951.685 1394.885)"/>
        <path id="prefix__Path_1409" d="M214.528 234.135c-.2.41-.265.888-.449 1.306-.837 1.9-3.219 1.472-4.937 2.189a4.77 4.77 0 0 0-2.655 4.077c-.048.765.064 1.537 0 2.3-.127 1.409-.854 2.65-1.112 4.035-.628 3.363.838 8.675 2.493 6.86.522-.572 1.175-.952 1.739-1.467 1.464-1.338 2.21-3.466 3.4-5.136a1.8 1.8 0 0 1 .6-.6c.869-.432 1.643.724 2.33 1.482a3.648 3.648 0 0 0 5.473-.1 3.212 3.212 0 0 1 .771-.788 1.644 1.644 0 0 1 1.072-.105 7.035 7.035 0 0 1 4.29 2.554 12.975 12.975 0 0 0 1.741 2.073 1.72 1.72 0 0 0 2.31.077c1.246.881 1.711 2.752 1.715 4.455s-.346 3.4-.261 5.1.753 3.536 2.108 4.16a6.058 6.058 0 0 1 2.243-3.924c.923-.687 2.045-1.027 2.825-1.924 1.563-1.8 1.068-4.781 1.128-7.342.074-3.159 1.169-6.179 1.362-9.33a5.935 5.935 0 0 0-3.229-6.533l-7.369-4.728a3.145 3.145 0 0 0-1.093-.518c-1.085-.195-2.022.823-3.051 1.271a6.178 6.178 0 0 1-2.678.325c-2.861-.077-3.666.478-5.589-1.386a1.356 1.356 0 0 0-1.161-.388c-1.152.175-3.387.692-4.016 2.005z" class="prefix__cls-4" data-name="Path 1409" transform="translate(-9967.482 1452.535)"/>
        <path id="prefix__Path_1410" d="M88.187 716.92l4.508 9.876-8.8 3.006-4.508-2.361 1.074-10.52z" class="prefix__cls-10" data-name="Path 1410" transform="translate(-9837.086 1229.114)"/>
        <path id="prefix__Path_1411" d="M194.416 784.333s-7.085-4.294-8.373-2.791-11.594 12.452-11.594 12.452-15.887 8.588-3.65 9.876 32.2-7.514 32.2-7.514 1.073-11.594.215-11.808-4.509 1.932-6.226 1.288a7.7 7.7 0 0 1-2.576-1.5z" class="prefix__cls-4" data-name="Path 1411" transform="translate(-9947.395 1170.074)"/>
        <path id="prefix__Path_1412" d="M109.1 735.627v8.8l-11.593-2.576 2.576-9.017z" class="prefix__cls-10" data-name="Path 1412" transform="translate(-9846.409 1220.927)"/>
        <path id="prefix__Path_1413" d="M228.638 797.91s11.808-1.932 12.882 3.865 3.865 14.385 1.074 16.532-17.176 4.938-17.39 1.288 1.5-10.735 1.5-10.735 1.073-5.582.429-7.085 1.505-3.865 1.505-3.865z" class="prefix__cls-4" data-name="Path 1413" transform="translate(-9977.751 1161.649)"/>
        <path id="prefix__Path_1414" d="M178.562 499.65s-9.693 61.458-1.749 91.515 13.526 47.877 13.526 47.877 13.741-3.865 13.741-6.441-5.367-40.792-6.656-44.442-3.435-4.938-1.5-7.944 5.153-22.328 5.153-22.328 7.085 31.99 7.514 32.849-4.509 50.024-4.509 50.024 14.172 10.285 15.029 2.576c.215-1.932 9.661-70.42 9.661-71.279s3.865-66.556-2.362-69.776-47.848-2.631-47.848-2.631z" class="prefix__cls-6" data-name="Path 1414" transform="translate(-9951.261 1314.935)"/>
        <circle id="prefix__Ellipse_339" cx="14.599" cy="14.599" r="14.599" class="prefix__cls-10" data-name="Ellipse 339" transform="translate(-9759.634 1694.625)"/>
        <path id="prefix__Path_1415" d="M207.684 327.107v-1.5l-4.294-7.085s-4.294.429-4.938 2.362-7.944 17.39-7.944 17.39l-7.729 69.347s21.255 5.153 24.475 1.5 15.458-83.087 15.458-83.087l1.717-9.661s-2.949-4.294-3.622-3.65-11.837 13.1-11.837 13.1l-.215 1.932z" class="prefix__cls-6" data-name="Path 1415" transform="translate(-9955.939 1411.102)"/>
        <path id="prefix__Path_1416" d="M193.571 321.649s-3.972-.966-5.26 1.4-1.288 3.22-2.576 4.079-8.8 4.723-9.232 6.226-9.661 48.951-9.661 48.951-4.509 14.17-2.362 23.831.644 11.594 5.153 12.452 5.153.859 5.153-.429 5.8-44.871 9.876-47.877 3.006-35.854 3.006-35.854 5.8-7.085 5.8-8.158.962-4.702.103-4.621z" class="prefix__cls-1" data-name="Path 1416" transform="translate(-9946.228 1406.577)"/>
        <path id="prefix__Path_1417" d="M231.512 327.291c.6.1 8.8-10.52 9.447-10.091s3.865 6.012 4.294 6.012 18.678 4.509 20.181 12.882-10.52 35-10.52 35-5.153 15.243-4.079 21.9a44.836 44.836 0 0 1-.429 15.243c-.429 1.718-1.932 3.65-1.5 4.509s-9.447-1.073-13.526 1.288-22.328 4.079-21.255 1.5 1.718-12.667 4.723-23.4 10.735-36.069 9.447-37.786 1.928-27.272 3.217-27.057z" class="prefix__cls-1" data-name="Path 1417" transform="translate(-9972.037 1408.771)"/>
        <path id="prefix__Path_1418" d="M297.967 350.814l2.791 2.576s3.22 5.582 2.791 8.158 9.017 41.436 5.153 42.724-13.1 7.729-14.17 9.447-3.65 4.723-5.367 5.582-3.435 2.362-4.509 1.5-3.435-18.464-1.718-19.108 3.435-2.576 5.153-2.576 2.791-1.718 2.791-3.22-1.288-10.52-1.288-10.52l-2.794-21.252z" class="prefix__cls-1" data-name="Path 1418" transform="translate(-10007.147 1391.474)"/>
        <path id="prefix__Path_1419" d="M220.974 239.056c-.174.31-.235.672-.4.987-.74 1.433-2.846 1.113-4.365 1.655a3.636 3.636 0 0 0-2.348 3.082c-.043.578.056 1.162 0 1.738a29.4 29.4 0 0 1-.984 3.05c-.556 2.542.741 6.558 2.2 5.186.462-.433 1.039-.719 1.538-1.109 1.295-1.012 1.954-2.62 3.006-3.882a1.5 1.5 0 0 1 .534-.453c.768-.326 1.453.547 2.06 1.12a3.6 3.6 0 0 0 4.839-.079 2.664 2.664 0 0 1 .682-.6 1.682 1.682 0 0 1 .947-.079 6.491 6.491 0 0 1 3.793 1.931 10.375 10.375 0 0 0 1.54 1.567 1.717 1.717 0 0 0 2.043.058 3.85 3.85 0 0 1 1.516 3.368c0 1.288-.306 2.567-.23 3.853a3.483 3.483 0 0 0 1.864 3.145 4.487 4.487 0 0 1 1.983-2.967 13.939 13.939 0 0 0 2.5-1.454c1.382-1.357.944-3.614 1-5.55.065-2.388 1.033-4.671 1.2-7.053a4.944 4.944 0 0 0-.791-3.41 6.374 6.374 0 0 0-2.064-1.529l-6.516-3.574a3.01 3.01 0 0 0-.966-.392c-.959-.147-1.788.622-2.7.961a6.332 6.332 0 0 1-2.368.245c-2.53-.059-3.241.361-4.942-1.048a1.329 1.329 0 0 0-1.027-.293c-1.012.144-2.988.534-3.544 1.526z" class="prefix__cls-4" data-name="Path 1419" transform="translate(-9971.353 1449.75)"/>
    </g>
</svg>
