<?xml version="1.0" encoding="utf-8"?>
<!-- Generator: Adobe Illustrator 16.0.0, SVG Export Plug-In . SVG Version: 6.00 Build 0)  -->
<!DOCTYPE svg PUBLIC "-//W3C//DTD SVG 1.1//EN" "http://www.w3.org/Graphics/SVG/1.1/DTD/svg11.dtd">
<svg version="1.1" id="Layer_1" xmlns="http://www.w3.org/2000/svg" xmlns:xlink="http://www.w3.org/1999/xlink" x="0px" y="0px"
	 width="32.026px" height="32.989px" viewBox="0 0 32.026 32.989" enable-background="new 0 0 32.026 32.989" xml:space="preserve">
<g>
	<g>
		<path fill="#24B36D" d="M14.523,22.988c4.135,0,7.5-4.094,7.5-9.125c0-5.032-3.365-9.125-7.5-9.125
			c-2.047,0-3.957,0.979-5.379,2.755c-1.369,1.712-2.123,3.974-2.121,6.37C7.023,18.894,10.387,22.988,14.523,22.988z M14.523,6.738
			c3.031,0,5.5,3.196,5.5,7.125c0,3.93-2.469,7.125-5.5,7.125c-3.033,0-5.5-3.196-5.502-7.125
			C9.021,9.934,11.488,6.738,14.523,6.738z M20.822,21.989c-0.553,0-1,0.447-1,0.999c0,0.553,0.447,1.001,1,1.001
			c3.418,0,6.201,2.78,6.201,6.2c0,0.44-0.359,0.799-0.801,0.799h-23.4c-0.441,0-0.799-0.358-0.799-0.799
			c0-3.42,2.781-6.2,6.199-6.2c0.553,0,1-0.448,1-1.001c0-0.552-0.447-0.999-1-0.999c-4.521,0-8.199,3.679-8.199,8.2
			c0,1.543,1.256,2.799,2.799,2.799l20.25,0.002l3.15-0.002c1.543,0,2.801-1.256,2.801-2.799
			C29.023,25.667,25.344,21.989,20.822,21.989z M15.254,3.626c0.717-0.423,1.48-0.638,2.27-0.638c3.031,0,5.5,3.196,5.5,7.125
			c0,0.704-0.078,1.396-0.234,2.056c-0.125,0.538,0.209,1.076,0.746,1.202c0.076,0.019,0.152,0.026,0.229,0.026
			c0.455,0,0.865-0.311,0.973-0.771c0.189-0.811,0.287-1.655,0.287-2.513c0-5.032-3.365-9.125-7.5-9.125
			c-1.137,0-2.273,0.317-3.287,0.917c-0.475,0.281-0.633,0.895-0.352,1.37S14.781,3.908,15.254,3.626z M24.023,17.988
			c-0.553,0-1,0.448-1,1c0,0.553,0.447,1,1,1c3.418,0,6,2.849,6,6.268c0,0.115-0.023,0.225-0.068,0.326
			c-0.225,0.505,0.002,1.096,0.508,1.32c0.131,0.059,0.27,0.086,0.404,0.086c0.385,0,0.75-0.221,0.916-0.594
			c0.158-0.359,0.24-0.742,0.24-1.139C32.023,21.734,28.545,17.988,24.023,17.988z"/>
	</g>
</g>
</svg>
