<?xml version="1.0" encoding="utf-8"?>
<!-- Generator: Adobe Illustrator 16.0.0, SVG Export Plug-In . SVG Version: 6.00 Build 0)  -->
<!DOCTYPE svg PUBLIC "-//W3C//DTD SVG 1.1//EN" "http://www.w3.org/Graphics/SVG/1.1/DTD/svg11.dtd">
<svg version="1.1" id="Layer_1" xmlns="http://www.w3.org/2000/svg" xmlns:xlink="http://www.w3.org/1999/xlink" x="0px" y="0px"
	 width="110px" height="110px" viewBox="0 0 110 110" enable-background="new 0 0 110 110" xml:space="preserve">
<g>
	<circle fill="#32BEA6" cx="55.032" cy="55" r="55"/>
</g>
<g>
	<g>
		<g>
			<path fill="#692E19" d="M55,24c-4.596,0-8.126,0.638-10.853,1.614c-2.768,0.991-4.702,2.331-6.048,3.723
				C35.005,32.542,35,36,35,36l2,38h12V39.173c3.438,1.309,7.875,2.027,12,2.415V74h12l2-38C75,36,75,24,55,24z"/>
		</g>
	</g>
	<g>
		<g>
			<path fill="#84462D" d="M55,24c-4.596,0-8.126,0.638-10.853,1.614c-2.768,0.991-4.702,2.331-6.048,3.723
				C35.005,32.542,35,36,35,36l2,38h12V39.173c1.791,0.682,3.854,1.2,6,1.598V24z"/>
		</g>
	</g>
	<g>
		<g>
			<g>
				<path fill="#3E3E3F" d="M55,70l-7-1l-16.241,3.872c-2.371,0.712-4.279,2.48-5.168,4.791L23,87h32V70z"/>
			</g>
		</g>
	</g>
	<g>
		<g>
			<g>
				<path fill="#3E3E3F" d="M55,70l7-1l16.241,3.872c2.371,0.712,4.279,2.48,5.168,4.791L87,87H55V70z"/>
			</g>
		</g>
	</g>
	<g>
		<g>
			<path fill="#FBC8C8" d="M45,61.433V75l8,12h2V69C51.717,67.905,47.842,65.829,45,61.433z"/>
		</g>
	</g>
	<g>
		<g>
			<path fill="#F7B4B4" d="M55,69v18h2l8-12V61.433C62.159,65.829,58.284,67.905,55,69z"/>
		</g>
	</g>
	<g>
		<g>
			<path fill="#FBC8C8" d="M70,45c-0.277,0-0.633,0-1,0c0-0.007,0-0.014,0-0.021c-0.002-1.006-0.018-1.998-0.061-2.968
				c-8.075-0.134-25.426-1.291-25.91-8.7c-1.771,3.1-2.021,7.258-2.029,11.668c0,0.007,0,0.014,0,0.021c-0.367,0-0.723,0-1,0
				c-1,0-2,1.111-2,2.222c0,3.091,0.864,7.13,4.178,7.703C44.619,64.027,50.396,67.465,55,69
				c4.604-1.535,10.381-4.973,12.822-14.075C71.136,54.353,72,50.313,72,47.222C72,46.111,71,45,70,45z"/>
		</g>
	</g>
	<g>
		<g>
			<path fill="#FBD7D7" d="M43.029,33.311c-1.771,3.1-2.021,7.258-2.029,11.668c0,0.007,0,0.014,0,0.021c-0.367,0-0.723,0-1,0
				c-1,0-2,1.111-2,2.222c0,3.091,0.864,7.13,4.178,7.703C44.619,64.027,50.396,67.465,55,69V40.774
				C48.781,39.624,43.299,37.434,43.029,33.311z"/>
		</g>
	</g>
	<g>
		<g>
			<g>
				<path fill="#F79392" d="M50,58h10c0,0,0,3-5,3S50,58,50,58z"/>
			</g>
		</g>
	</g>
	<g>
		<g>
			<g>
				<polygon fill="#FFFFFF" points="44.989,64 47,75 55,87 53,87 40,79 44,74 35,72 				"/>
			</g>
		</g>
	</g>
	<g>
		<g>
			<g>
				<polygon fill="#FFFFFF" points="65.011,64 63,75 55,87 57,87 70,79 66,74 75,72 				"/>
			</g>
		</g>
	</g>
	<g>
		<g>
			<g>
				<path fill="#3E3E3F" d="M52,47c0-1.104-0.896-2-2-2c-0.002,0-0.004,0-0.006,0c0,0.021,0.006,0.041,0.006,0.062
					c0,1.103-0.893,1.996-1.994,2C48.04,48.137,48.916,49,50,49C51.104,49,52,48.104,52,47z"/>
			</g>
		</g>
	</g>
	<g>
		<g>
			<g>
				<path fill="#3E3E3F" d="M61.994,47c0-1.104-0.896-2-2-2c-0.002,0-0.004,0-0.007,0c0.001,0.021,0.007,0.041,0.007,0.062
					c0,1.103-0.893,1.996-1.994,2C58.033,48.137,58.91,49,59.994,49C61.098,49,61.994,48.104,61.994,47z"/>
			</g>
		</g>
	</g>
	<g>
		<g>
			<g>
				<circle fill="#FBE158" cx="70.347" cy="56.371" r="1.629"/>
			</g>
		</g>
	</g>
	<g>
		<g>
			<g>
				<circle fill="#FBE158" cx="39.371" cy="56.371" r="1.629"/>
			</g>
		</g>
	</g>
</g>
</svg>
