<?xml version="1.0" encoding="utf-8"?>
<!-- Generator: Adobe Illustrator 16.0.0, SVG Export Plug-In . SVG Version: 6.00 Build 0)  -->
<!DOCTYPE svg PUBLIC "-//W3C//DTD SVG 1.1//EN" "http://www.w3.org/Graphics/SVG/1.1/DTD/svg11.dtd">
<svg version="1.1" id="Layer_1" xmlns="http://www.w3.org/2000/svg" xmlns:xlink="http://www.w3.org/1999/xlink" x="0px" y="0px"
	 width="110px" height="110px" viewBox="0 0 110 110" enable-background="new 0 0 110 110" xml:space="preserve">
<g>
	<circle fill="#32BEA6" cx="55.032" cy="55" r="55"/>
</g>
<g>
	<g>
		<path fill="#FFFFFF" d="M73.027,81c0,3.313-2.688,6-6,6h-24c-3.314,0-6-2.687-6-6V29c0-3.313,2.686-6,6-6h24c3.313,0,6,2.687,6,6
			V81z"/>
	</g>
	<g>
		<rect x="39.027" y="35" fill="#3E3E3F" width="32" height="40"/>
	</g>
	<g>
		<circle fill="#CFD3D4" cx="48.027" cy="30" r="1"/>
	</g>
	<g>
		<path fill="#CFD3D4" d="M63.027,30c0,0.552-0.447,1-1,1h-10c-0.553,0-1-0.448-1-1s0.447-1,1-1h10
			C62.58,29,63.027,29.448,63.027,30z"/>
	</g>
	<g>
		<circle fill="#CFD3D4" cx="55.027" cy="81" r="4"/>
	</g>
	<g>
		<rect x="53.027" y="79" fill="#FFFFFF" width="4" height="4"/>
	</g>
	<polygon fill="#5B5C5F" points="43,40 43,44 43,45 43,51 67,51 67,45 67,44 67,40 	"/>
	<rect x="43" y="54" fill="#5B5C5F" width="16" height="3"/>
	<rect x="43" y="60" fill="#5B5C5F" width="21" height="3"/>
	<rect x="43" y="66" fill="#5B5C5F" width="21" height="3"/>
</g>
</svg>
