<?xml version="1.0" encoding="utf-8"?>
<!-- Generator: Adobe Illustrator 16.0.0, SVG Export Plug-In . SVG Version: 6.00 Build 0)  -->
<!DOCTYPE svg PUBLIC "-//W3C//DTD SVG 1.1//EN" "http://www.w3.org/Graphics/SVG/1.1/DTD/svg11.dtd">
<svg version="1.1" id="Layer_1" xmlns="http://www.w3.org/2000/svg" xmlns:xlink="http://www.w3.org/1999/xlink" x="0px" y="0px"
	 width="32.026px" height="32.989px" viewBox="0 0 32.026 32.989" enable-background="new 0 0 32.026 32.989" xml:space="preserve">
<path fill="#24B36D" d="M20.92,20.972l-2.749-3.032c0.525,0.183,1.072,0.293,1.625,0.293c1.301,0,2.609-0.508,3.622-1.529l7.13-8.49
	c0.946-0.952,1.468-2.217,1.468-3.563c0-1.347-0.521-2.612-1.468-3.564c-0.006-0.006-0.014-0.007-0.02-0.013
	s-0.008-0.014-0.014-0.019c-0.047-0.042-0.103-0.061-0.153-0.092c-0.056-0.036-0.107-0.079-0.168-0.103
	c-0.063-0.023-0.127-0.027-0.192-0.038c-0.063-0.01-0.122-0.028-0.184-0.026c-0.067,0.001-0.131,0.022-0.197,0.038
	c-0.059,0.014-0.119,0.018-0.177,0.043c-0.063,0.027-0.116,0.075-0.175,0.117c-0.045,0.032-0.097,0.051-0.138,0.092
	c-0.006,0.006-0.007,0.014-0.013,0.019c-0.006,0.007-0.014,0.009-0.02,0.016l-13.09,14.435L2.918,1.121
	c-0.006-0.007-0.014-0.009-0.02-0.016C2.893,1.1,2.892,1.092,2.886,1.086C2.843,1.043,2.787,1.023,2.739,0.989
	C2.684,0.95,2.635,0.905,2.574,0.878c-0.063-0.027-0.13-0.034-0.196-0.047c-0.06-0.013-0.116-0.034-0.177-0.035
	C2.135,0.794,2.07,0.814,2.005,0.826C1.943,0.836,1.883,0.838,1.824,0.861C1.763,0.884,1.71,0.928,1.652,0.965
	c-0.05,0.031-0.104,0.049-0.15,0.09C1.497,1.06,1.494,1.068,1.489,1.074C1.482,1.08,1.475,1.081,1.469,1.086
	C0.523,2.039,0.001,3.304,0.001,4.651c0,1.346,0.522,2.61,1.411,3.5l7.243,8.615c0.977,0.982,2.259,1.474,3.542,1.474
	c0.559,0,1.113-0.11,1.646-0.298l-2.747,3.03c-2.859-1.63-6.547-1.178-8.918,1.209c-2.796,2.81-2.916,7.323-0.274,10.276
	c0.011,0.012,0.027,0.016,0.038,0.027c0.013,0.014,0.018,0.03,0.031,0.043c0.057,0.052,0.124,0.08,0.188,0.115
	c0.038,0.022,0.07,0.053,0.109,0.068c0.122,0.051,0.25,0.079,0.379,0.079c0.127,0,0.254-0.028,0.375-0.077
	c0.041-0.018,0.074-0.048,0.113-0.07c0.062-0.035,0.127-0.062,0.182-0.111c0.013-0.012,0.018-0.028,0.03-0.041
	c0.012-0.012,0.028-0.016,0.04-0.028l12.619-13.915l12.618,13.915c0.012,0.013,0.028,0.017,0.04,0.028
	c0.013,0.013,0.018,0.029,0.03,0.041c0.056,0.051,0.121,0.078,0.184,0.113c0.038,0.021,0.071,0.051,0.112,0.068
	c0.12,0.049,0.247,0.077,0.374,0.077c0.13,0,0.257-0.028,0.379-0.079c0.039-0.016,0.071-0.046,0.109-0.068
	c0.063-0.035,0.131-0.063,0.188-0.115c0.014-0.013,0.019-0.029,0.031-0.043c0.011-0.012,0.027-0.016,0.038-0.027
	c2.642-2.953,2.521-7.467-0.274-10.275C27.468,19.794,23.779,19.342,20.92,20.972z M29.074,6.85l-7.13,8.49
	c-0.95,0.955-2.375,1.122-3.509,0.53L29.738,3.407c0.174,0.387,0.273,0.807,0.273,1.244C30.012,5.458,29.698,6.217,29.074,6.85z
	 M10.129,15.403L2.886,6.787C2.318,6.217,2.005,5.458,2.005,4.651c0-0.438,0.1-0.857,0.273-1.244l11.304,12.465
	C12.45,16.466,11.032,16.307,10.129,15.403z M3.596,23.607c1.622-1.633,4.081-2.02,6.1-1.09L2.736,30.19
	C1.53,28.096,1.826,25.385,3.596,23.607z M29.28,30.19l-6.959-7.673c2.019-0.93,4.479-0.543,6.1,1.091
	C30.19,25.385,30.486,28.096,29.28,30.19z"/>
</svg>
