<?xml version="1.0" encoding="utf-8"?>
<!-- Generator: Adobe Illustrator 16.0.0, SVG Export Plug-In . SVG Version: 6.00 Build 0)  -->
<!DOCTYPE svg PUBLIC "-//W3C//DTD SVG 1.1//EN" "http://www.w3.org/Graphics/SVG/1.1/DTD/svg11.dtd">
<svg version="1.1" id="Layer_1" xmlns="http://www.w3.org/2000/svg" xmlns:xlink="http://www.w3.org/1999/xlink" x="0px" y="0px"
	 width="42px" height="42px" viewBox="0 0 42 42" enable-background="new 0 0 42 42" xml:space="preserve">
<ellipse fill="#24B36D" cx="21.051" cy="21.042" rx="20.949" ry="21.042"/>
<g>
	<g>
		<path fill="#FFFFFF" d="M24.373,19.443c-0.089-0.545-0.597-0.919-1.148-0.824c-0.545,0.089-0.914,0.604-0.824,1.148
			c0.066,0.404,0.1,0.817,0.1,1.229c0,4.136-3.364,7.5-7.5,7.5s-7.5-3.364-7.5-7.5s3.364-7.5,7.5-7.5
			c1.178,0,2.307,0.266,3.354,0.789c0.496,0.246,1.095,0.047,1.342-0.447c0.247-0.494,0.047-1.095-0.447-1.342
			c-1.327-0.663-2.756-1-4.248-1c-5.238,0-9.5,4.262-9.5,9.5s4.262,9.5,9.5,9.5s9.5-4.262,9.5-9.5
			C24.5,20.478,24.457,19.955,24.373,19.443z M28,11.496c-5.238,0-9.5,4.262-9.5,9.5c0,0.514,0.041,1.026,0.123,1.525
			c0.088,0.546,0.6,0.918,1.147,0.827c0.545-0.089,0.915-0.603,0.826-1.147c-0.064-0.394-0.096-0.799-0.096-1.205
			c0-4.136,3.364-7.5,7.5-7.5s7.5,3.364,7.5,7.5s-3.364,7.5-7.5,7.5c-1.18,0-2.307-0.266-3.354-0.789
			c-0.494-0.244-1.094-0.047-1.342,0.447c-0.247,0.493-0.047,1.095,0.447,1.342c1.326,0.663,2.756,1,4.248,1
			c5.238,0,9.5-4.262,9.5-9.5S33.238,11.496,28,11.496z"/>
	</g>
</g>
</svg>
