<?xml version="1.0" encoding="utf-8"?>
<!-- Generator: Adobe Illustrator 16.0.0, SVG Export Plug-In . SVG Version: 6.00 Build 0)  -->
<!DOCTYPE svg PUBLIC "-//W3C//DTD SVG 1.1//EN" "http://www.w3.org/Graphics/SVG/1.1/DTD/svg11.dtd">
<svg version="1.1" id="Layer_1" xmlns="http://www.w3.org/2000/svg" xmlns:xlink="http://www.w3.org/1999/xlink" x="0px" y="0px"
	 width="110px" height="110px" viewBox="0 0 110 110" enable-background="new 0 0 110 110" xml:space="preserve">
<g id="Artboard">
</g>
<g id="Multicolor">
	<circle fill="#32BEA6" cx="55" cy="55" r="55"/>
	<g>
		<g>
			<path fill="#E2E4E5" d="M80.32,34.674c-2.006-2.006-5.008-1.918-6.891-0.034l6.855,6.857
				C82.255,39.528,82.146,36.502,80.32,34.674z"/>
		</g>
		<g>
			<path fill="#FFFFFF" d="M73.428,34.64l3.493,3.493l3.425-3.425C78.471,32.742,75.366,32.676,73.428,34.64z"/>
		</g>
		<path fill="#CFD3D4" d="M76.852,41.502l1.719-1.719l-3.428-3.428l-1.64,1.639C74.718,39.064,75.838,40.238,76.852,41.502z"/>
		<path fill="#CFD3D4" d="M55,31c1.357,0,2.693,0.102,4,0.289V28h-8v3.289C52.307,31.102,53.642,31,55,31z"/>
		<g>
			<circle fill="#FFFFFF" cx="55" cy="59" r="28"/>
		</g>
		<g>
			<circle fill="#9CE5F4" cx="55" cy="59.2" r="23"/>
		</g>
		<g>
			<path fill="#C9F2F8" d="M32,59.2c0,12.702,10.297,23,23,23v-46C42.297,36.2,32,46.498,32,59.2z"/>
		</g>
		<g>
			<path fill="#E2E4E5" d="M63,29H47v-2.104C47,25.366,48.241,24,49.771,24h10.458C61.759,24,63,25.366,63,26.896V29z"/>
		</g>
		<g>
			<path fill="#FFFFFF" d="M55,24h-5.229C48.24,24,47,25.366,47,26.896V29h8V24z"/>
		</g>
		<g>
			<g>
				<path fill="#334743" d="M42.228,66.175V53.118H40.45V50.53c0.182-0.111,0.426-0.239,0.732-0.386
					c0.306-0.147,0.543-0.265,0.713-0.356c0.17-0.091,0.358-0.241,0.566-0.449s0.384-0.459,0.527-0.752h2.598v17.588H42.228z"/>
				<path fill="#334743" d="M47.56,60.6h3.379c-0.006,0.318-0.006,0.588,0,0.805c0.006,0.219,0.02,0.457,0.039,0.714
					s0.054,0.467,0.103,0.63s0.114,0.316,0.195,0.464s0.186,0.254,0.313,0.322c0.127,0.067,0.275,0.103,0.444,0.103
					c0.215,0,0.407-0.041,0.576-0.127c0.169-0.085,0.306-0.199,0.41-0.347s0.194-0.315,0.269-0.509
					c0.075-0.192,0.128-0.396,0.161-0.614c0.033-0.218,0.06-0.438,0.083-0.664c0.023-0.226,0.031-0.44,0.024-0.649
					c-0.007-0.207-0.006-0.402,0-0.586c0-0.123,0-0.211,0-0.264c0-0.195-0.003-0.366-0.01-0.513
					c-0.007-0.147-0.023-0.329-0.049-0.548c-0.026-0.217-0.068-0.406-0.127-0.565s-0.135-0.313-0.229-0.464
					c-0.094-0.15-0.218-0.266-0.371-0.348c-0.153-0.08-0.331-0.121-0.532-0.121c-0.319,0-0.601,0.139-0.845,0.414
					c-0.244,0.276-0.438,0.595-0.581,0.953h-2.881V48.587H56.3v3.34h-5.205v3.174c0.625-0.384,1.195-0.576,1.709-0.576
					c0.625,0,1.18,0.101,1.665,0.303c0.485,0.202,0.875,0.469,1.172,0.801s0.541,0.735,0.732,1.211
					c0.191,0.477,0.322,0.962,0.396,1.46c0.07,0.498,0.106,1.04,0.106,1.626c0,0.579-0.026,1.118-0.078,1.616
					c-0.053,0.498-0.141,1.006-0.264,1.522c-0.124,0.519-0.302,0.978-0.532,1.377c-0.23,0.4-0.514,0.761-0.85,1.08
					c-0.336,0.318-0.753,0.563-1.255,0.736c-0.502,0.174-1.071,0.26-1.709,0.26c-0.723,0-1.357-0.104-1.904-0.313
					c-0.547-0.209-0.991-0.488-1.333-0.84c-0.342-0.353-0.619-0.786-0.83-1.304c-0.211-0.519-0.358-1.054-0.439-1.606
					C47.601,61.9,47.56,61.282,47.56,60.6z"/>
				<path fill="#334743" d="M58.438,66.175V53.431h3.291v0.908c0.307-0.358,0.67-0.648,1.095-0.869
					c0.423-0.221,0.858-0.332,1.309-0.332c0.423,0,0.813,0.137,1.173,0.41c0.356,0.273,0.627,0.615,0.811,1.025
					c0.318-0.43,0.711-0.776,1.177-1.04c0.466-0.264,0.959-0.396,1.479-0.396c0.449,0,0.853,0.143,1.211,0.43
					c0.357,0.287,0.627,0.64,0.806,1.06s0.269,0.848,0.269,1.284v10.264h-3.291v-9.608c0-0.117-0.002-0.213-0.01-0.289
					c-0.007-0.074-0.021-0.17-0.049-0.287s-0.075-0.207-0.146-0.27c-0.07-0.062-0.162-0.093-0.272-0.093
					c-0.233,0-0.534,0.241-0.897,0.724v9.823H63.1v-9.629c0-0.612-0.15-0.918-0.449-0.918c-0.248,0-0.558,0.244-0.928,0.731v9.814
					L58.438,66.175L58.438,66.175z"/>
			</g>
		</g>
	</g>
</g>
</svg>
