<svg xmlns="http://www.w3.org/2000/svg" width="495.8" height="431" viewBox="0 0 495.8 431">
    <defs>
        <clipPath id="prefix__clip-path">
            <path id="prefix__Path_594" fill="#e6952b" d="M495.8 0H0v431h495.8z" data-name="Path 594"/>
        </clipPath>
    </defs>
    <g id="prefix__asset3" clip-path="url(#prefix__clip-path)">
        <g id="prefix__photo-1586999768265-24af89630739" fill="none" stroke="none" stroke-dasharray="9">
            <path d="M250.5 501C112.153 501 0 388.847 0 250.5S112.153 0 250.5 0 501 112.153 501 250.5 388.847 501 250.5 501z" transform="translate(-183.2 -248)"/>
            <path fill="rgba(255,255,255,0.09)" d="M250.5 501H249.884l-.185-.001h-.02l-.187-.001H249.28l-.092-.001h-.009l-.196-.001h-.005c-2.505-.015-4.995-.067-7.481-.155l.07-1.999c2.959.105 5.964.158 8.932.158v2zm-17.987-.636c-.676-.048-1.352-.098-2.026-.152-.009 0-.014 0-.022-.002l-.056-.004-.035-.003-.07-.005-.055-.005c-.012 0-.024-.002-.035-.003-.017 0-.047-.003-.064-.005l-.021-.001-.087-.007-.022-.002-.076-.006-.014-.001-.19-.016h-.006c-1.124-.093-2.242-.192-3.362-.299h-.005l-.19-.019-.014-.001-.08-.008-.014-.001-.088-.009-.025-.002-.06-.006-.036-.003-.07-.007-.045-.005-.043-.004-.053-.005-.026-.003-.188-.018-.008-.001c-.627-.062-1.254-.127-1.88-.194l.213-1.989c2.944.315 5.936.581 8.894.791l-.141 1.995zm-17.895-1.915c-1.99-.285-3.972-.594-5.947-.926h-.007l-.184-.032-.016-.003-.074-.012-.019-.003-.084-.015-.027-.004-.058-.01-.035-.006-.049-.008-.065-.012-.045-.007-.047-.008-.032-.006c-.733-.125-1.465-.254-2.195-.386l.355-1.968c2.914.526 5.879 1.006 8.813 1.427l-.284 1.98zm-17.71-3.195c-1.102-.24-2.2-.487-3.297-.742-.008-.002.004 0-.004 0l-.2-.047-.005-.002-.27-.063h-.004c-1.55-.364-3.096-.742-4.636-1.134h-.003l-.06-.016-.02-.005-.119-.03-.004-.001-.047-.013-.037-.009-.04-.01-.012-.003.497-1.938c2.869.735 5.792 1.428 8.687 2.059l-.426 1.954zm-17.434-4.466c-1.988-.587-3.971-1.199-5.939-1.834l-.007-.002-.076-.024-.017-.006-.081-.026-.02-.006-.06-.02-.034-.011-.046-.015-.036-.012-.068-.022-.048-.015-.031-.01-.05-.016-.019-.007-.183-.06h-.005c-.622-.204-1.243-.41-1.864-.617l.635-1.896c2.81.94 5.674 1.843 8.515 2.681l-.566 1.918zm-17.064-5.715c-2.814-1.057-5.601-2.163-8.366-3.317l.77-1.846c2.734 1.142 5.527 2.249 8.3 3.29l-.704 1.873zm-16.607-6.935c-.83-.382-1.659-.77-2.485-1.161l-.003-.002-.176-.083-.018-.009-.049-.023-.028-.013-.043-.02-.055-.027-.048-.023-.041-.02-.032-.015-.054-.025-.021-.01-.075-.036-.022-.01-.056-.028-.025-.012-.157-.074-.011-.006-.072-.034-.01-.005-.167-.08h-.001l-.084-.041-.002-.001-.17-.082c-.742-.358-1.479-.717-2.216-1.081l-.005-.003-.165-.081-.011-.006-.066-.033-.02-.01-.06-.029-.02-.01-.071-.035-.034-.017-.038-.02-.043-.02c-.007-.004-.017-.01-.025-.013l-.162-.08-.014-.007c-.417-.208-.834-.417-1.25-.627l.902-1.785c2.645 1.336 5.35 2.642 8.04 3.88l-.837 1.817zm-16.062-8.114l-.428-.237-.007-.003-.056-.032-.008-.004-.114-.063-.004-.002-.05-.028-.021-.012-.046-.025c-.007-.004-.022-.013-.03-.016l-.067-.038-.04-.022-.033-.019-.041-.023-.032-.017-.067-.038-.017-.01-.059-.032-.028-.016-.05-.028-.023-.013-.072-.04-.016-.009-.061-.034-.02-.011-.063-.035-.012-.007-.079-.044h-.001l-.074-.042-.017-.01-.072-.04-.002-.001-.161-.09-.006-.004-.242-.136-.005-.003-.242-.137-.004-.002-.163-.092-.076-.044-.011-.006-.16-.09-.001-.001-.08-.046h-.002l-.162-.093-.003-.002-.076-.043-.007-.004-.159-.09-.007-.005-.076-.043-.003-.002-.16-.092c-.003 0-.005-.002-.007-.003l-.073-.042-.008-.005-.157-.09-.01-.005-.073-.042-.005-.003-.157-.09-.01-.007-.07-.04-.01-.005-.155-.09-.012-.007-.234-.135-.01-.006-.075-.043-.003-.002-.158-.092-.008-.004-.24-.14-.004-.002c-.081-.047-.16-.092-.24-.14l-.004-.002c-.858-.5-1.713-1.006-2.564-1.515l1.028-1.716c2.542 1.523 5.146 3.02 7.74 4.45l-.965 1.752zm-15.438-9.25c-2.518-1.634-5.006-3.312-7.46-5.034l1.148-1.637c2.426 1.701 4.916 3.382 7.4 4.994l-1.088 1.678zm-14.735-10.332l-.106-.08-.012-.01-.214-.162-.008-.005-.219-.166-.003-.003-.892-.682-.221-.17-.006-.004-.215-.166-.01-.007-.21-.162c-.006-.005-.01-.009-.017-.013l-.1-.077-.002-.002-.101-.079-.022-.016-.088-.07-.014-.01-.096-.075-.028-.02-.076-.06-.025-.02-.088-.068-.039-.03-.061-.048-.048-.037-.072-.056-.046-.036-.047-.037-.082-.064-.042-.033-.057-.044-.031-.025-.119-.093-.012-.01-.066-.05-.017-.014-.208-.163-.008-.007c-1.128-.886-2.24-1.776-3.353-2.681l1.263-1.551c2.298 1.87 4.662 3.724 7.024 5.51l-1.206 1.596zm-13.958-11.36c-2.256-1.974-4.482-3.993-6.666-6.046l1.37-1.457c2.159 2.03 4.384 4.047 6.613 5.998l-1.317 1.505zM72.5 426.755c-.362-.365-.722-.73-1.08-1.098l-.009-.008-.094-.096-.002-.003-.088-.09-.016-.016-.088-.09-.013-.013-.075-.077-.024-.025-.081-.084-.026-.026-.06-.061-.033-.035-.073-.075-.036-.037-.05-.051-.04-.042-.048-.05-.066-.068-.038-.039-.047-.049-.03-.03-.089-.092-.025-.027-.054-.055-.017-.018-.107-.11-.014-.016-.186-.193-.007-.007c-1.215-1.264-2.413-2.537-3.602-3.826l1.47-1.356c2.009 2.179 4.084 4.35 6.169 6.456l-1.421 1.407zM60.3 413.523l-.125-.144-.024-.029-.099-.115-.01-.012-.047-.056-.029-.033-.07-.083-.039-.044-.042-.05-.035-.041-.042-.049-.064-.076-.039-.045-.04-.048-.038-.044-.068-.08-.033-.039-.048-.057-.03-.036-.073-.085-.026-.031-.057-.067-.025-.03-.077-.09-.017-.02-.067-.08-.018-.022-.08-.095-.014-.016-.071-.084-.016-.019-.083-.098-.008-.01-.08-.096-.007-.007c-.06-.07-.118-.141-.177-.212l-.002-.002c-1.325-1.58-2.631-3.176-3.918-4.789l1.564-1.247c1.847 2.316 3.762 4.63 5.691 6.88l-1.518 1.301zm-11.223-14.068c-.752-1.016-1.497-2.038-2.235-3.066l-.002-.003-.16-.222-.005-.008-.155-.217-.013-.017-.032-.045-.012-.017-.063-.089-.01-.014-.032-.044-.015-.021-.032-.046-.007-.01-.076-.106-.035-.049-.013-.018-.032-.046-.011-.016-.062-.086-.012-.017-.03-.044-.017-.022-.03-.044-.013-.018-.056-.078-.018-.026-.028-.04-.02-.027-.028-.04-.015-.021-.055-.078-.017-.024-.029-.041-.016-.024-.032-.044-.006-.01-.066-.093-.011-.016-.033-.047-.013-.017-.109-.156-.007-.009-.035-.05-.008-.012-.108-.154-.012-.016-.032-.046-.013-.02-.105-.149-.011-.016-.033-.047-.01-.015c-.039-.054-.076-.109-.114-.163l-.002-.002-.038-.055-.004-.006-.117-.167-.002-.003-.038-.055-.004-.005c-.294-.423-.586-.846-.877-1.27l1.648-1.132c1.677 2.442 3.422 4.887 5.185 7.268l-1.607 1.19zm-10.187-14.836c-1.606-2.528-3.171-5.094-4.688-7.683l1.726-1.01c1.497 2.555 3.062 5.12 4.65 7.621l-1.688 1.072zm-9.096-15.528l-.146-.27v-.001l-.041-.077-.006-.01-.041-.078-.007-.012-.032-.06-.018-.034-.019-.035-.021-.04-.01-.018-.051-.095-.01-.017-.028-.055-.004-.007c-.505-.946-1.003-1.895-1.496-2.848l-.01-.02-.026-.048-.012-.025-.041-.079-.016-.03-.021-.041-.02-.038-.016-.033-.034-.064-.013-.026-.03-.058-.012-.023-.03-.058-.01-.019-.08-.157-.006-.012-.126-.246v-.001c-.573-1.119-1.135-2.237-1.69-3.365l1.793-.884c1.31 2.657 2.686 5.327 4.09 7.936l-1.76.948zM21.84 352.95c-.353-.787-.703-1.576-1.048-2.367l-.006-.014-.022-.051-.01-.023-.041-.094-.01-.022-.015-.036-.018-.04-.016-.038-.02-.045-.013-.031-.032-.072-.011-.027-.024-.054-.01-.025-.03-.07-.004-.008-.037-.084-.002-.006-.033-.075-.006-.014-.072-.167-.002-.006-.036-.083v-.002c-.689-1.597-1.363-3.209-2.018-4.823l1.853-.752c1.114 2.744 2.294 5.507 3.507 8.21l-1.824.819zm-6.77-16.675c-.4-1.099-.793-2.201-1.179-3.307l-.09-.261-.004-.01-.066-.192-.002-.003-.02-.058-.006-.018-.06-.174-.008-.022-.016-.05-.011-.03-.024-.07-.015-.044-.015-.043-.012-.035-.015-.044-.014-.039-.02-.06-.017-.05-.013-.038-.015-.043-.012-.036-.02-.057-.013-.04-.021-.06-.01-.027-.019-.057-.009-.026-.027-.08-.004-.013-.024-.07-.008-.023-.024-.071-.003-.01-.03-.086-.002-.008-.028-.08c0-.004-.002-.006-.003-.01-.357-1.053-.706-2.106-1.049-3.165l1.903-.617c.913 2.818 1.89 5.659 2.904 8.443l-1.879.684zm-5.545-17.12l-.127-.448-.052-.184-.002-.005-.025-.089v-.002l-.05-.179-.004-.011-.05-.18-.001-.005-.023-.081-.004-.013-.048-.175-.005-.015-.02-.076-.004-.012-.024-.086-.003-.012-.02-.075c-.003-.006-.004-.012-.006-.019l-.022-.079-.002-.006-.023-.086-.005-.017-.02-.07-.005-.02-.047-.172-.004-.014-.021-.078-.004-.011-.023-.087-.003-.01-.021-.077-.005-.017-.023-.083v-.003l-.024-.088-.004-.013-.02-.076-.004-.014-.048-.174-.004-.016-.022-.08-.001-.006-.025-.09-.002-.009-.022-.08L8.65 316l-.049-.182v-.001l-.025-.09v-.004l-.05-.184v-.003c-.454-1.69-.888-3.38-1.306-5.083l1.942-.477c.707 2.878 1.476 5.782 2.286 8.63l-1.923.548zm-4.293-17.477c-.24-1.153-.47-2.304-.693-3.464l-.003-.013-.015-.079-.003-.013-.016-.086-.005-.022-.011-.062-.007-.033-.012-.063-.005-.028-.014-.07-.007-.042-.008-.04-.009-.045-.006-.03-.017-.092-.005-.028-.01-.054-.004-.02-.036-.19-.001-.006c-.274-1.45-.535-2.905-.783-4.364l1.972-.336c.497 2.922 1.054 5.874 1.656 8.774l-1.958.406zm-3.02-17.74c-.138-1.035-.268-2.061-.394-3.1v-.003l-.023-.193v-.004l-.012-.093v-.004l-.012-.095v-.008l-.01-.082-.002-.018-.01-.087-.001-.004-.01-.086-.004-.028-.007-.062-.003-.027-.01-.08-.004-.036-.006-.05-.004-.04-.007-.056-.007-.057-.005-.045-.005-.047-.005-.04-.007-.067-.006-.05-.006-.05-.004-.031-.006-.052-.002-.022-.012-.108-.003-.02-.006-.057-.002-.02-.022-.187-.002-.019-.022-.199v-.002l-.008-.068v-.006l-.024-.206c-.126-1.142-.245-2.287-.357-3.434l1.99-.193c.287 2.951.631 5.936 1.023 8.871l-1.983.265zM.473 266.025l-.001-.022-.002-.028-.005-.082v-.005l-.006-.09v-.02l-.006-.084v-.006c-.05-.832-.095-1.662-.137-2.496v-.003l-.01-.196v-.006l-.005-.094v-.004l-.01-.192v-.012l-.004-.095v-.004l-.005-.085v-.025c-.002-.017-.003-.055-.004-.072l-.001-.02-.004-.082-.001-.035-.003-.053-.002-.039-.003-.076-.002-.04-.002-.044-.002-.047-.002-.035-.004-.098-.001-.02-.003-.062v-.012l-.009-.199v-.008c-.065-1.498-.117-2.999-.156-4.504l2-.05c.076 2.965.206 5.968.387 8.923l-1.997.122zm1.539-17.98l-2-.019c.005-.556.013-1.113.022-1.668v-.007l.001-.093v-.022l.002-.066v-.034l.001-.057.001-.068.001-.037.001-.054v-.024c.042-2.296.114-4.584.217-6.864l1.998.09c-.133 2.955-.215 5.958-.244 8.924zm.804-17.835l-1.993-.161c.146-1.804.31-3.603.494-5.396l.001-.007.02-.197.002-.015.02-.198.001-.007.007-.063.001-.014.013-.126v-.005l.007-.055.003-.03.005-.052.002-.02.011-.102.003-.03.006-.053.003-.032.008-.076.005-.045.005-.046.004-.04.005-.045.008-.073.005-.043.005-.043.004-.041.006-.057.005-.048.007-.06.004-.036.006-.053.003-.033.009-.08.003-.031.007-.06.003-.029.01-.083.001-.018.008-.07.003-.028.009-.075.001-.012.01-.089.002-.02.009-.077.001-.012.01-.093.001-.007.01-.085.002-.016.021-.187v-.005l.011-.094v-.002l.023-.195v-.001l.052-.446 1.986.233c-.343 2.94-.639 5.929-.878 8.884zm2.074-17.731l-1.977-.304.001-.006.006-.038.007-.047.006-.04.008-.046.01-.073.007-.038.007-.048.005-.032.027-.171.004-.03.01-.056v-.01l.02-.126.001-.007.01-.06.003-.02.03-.196.001-.001c.414-2.622.869-5.23 1.363-7.825l1.965.375c-.555 2.909-1.064 5.869-1.514 8.799zm3.343-17.536l-1.95-.445c.126-.549.253-1.097.382-1.644l.003-.012.042-.18.007-.03.012-.048.01-.043.013-.057.013-.055.009-.034.014-.06.005-.02.02-.088.002-.007.02-.082.003-.013c.509-2.133 1.045-4.253 1.608-6.364l1.932.515c-.763 2.862-1.485 5.778-2.145 8.667zm4.602-17.248l-1.913-.586c.116-.379.233-.757.351-1.135l.006-.02.017-.053.012-.04.019-.06.017-.055.008-.027.021-.066.005-.015.056-.18v-.001c.519-1.653 1.051-3.292 1.603-4.93l.006-.016.022-.067.007-.02.026-.078.012-.036.014-.041.016-.047.008-.023c.186-.55.373-1.099.563-1.647l1.89.654c-.969 2.8-1.9 5.656-2.766 8.489zm5.837-16.87l-1.865-.723c.678-1.75 1.375-3.492 2.09-5.224l.002-.002c.035-.086.07-.172.107-.258v-.001l.106-.256.003-.007.105-.251.004-.01.079-.189.026-.062.004-.01.078-.186.001-.003.026-.062.003-.006.078-.186.003-.007.026-.061.08-.193.003-.004.107-.255.002-.004.08-.19.001-.002c.01-.02.018-.042.027-.063.003-.007-.001.004.002-.003l.079-.185c.003-.008 0-.003.004-.01l.025-.06.003-.006.078-.183.004-.01.107-.249.004-.011.053-.123 1.838.789c-1.169 2.722-2.303 5.503-3.373 8.265zm7.042-16.405l-1.808-.855.115-.242.011-.024.023-.048.015-.032.027-.055.026-.056.011-.024.03-.063.007-.014c.911-1.916 1.844-3.813 2.802-5.702l.003-.005.036-.07.011-.022.026-.051.015-.03.034-.067.02-.038.016-.033.024-.046.009-.018c.242-.476.486-.95.732-1.425l1.776.92c-1.362 2.63-2.695 5.323-3.96 8zm8.207-15.854l-1.742-.983c.22-.387.439-.775.66-1.161v-.002l.034-.058.004-.008.098-.17.008-.014.029-.05.012-.02.05-.09.011-.019.027-.045.014-.025.025-.044.016-.029.042-.071.019-.034.02-.036.022-.037.02-.034.032-.056.017-.029.031-.055.017-.03.029-.048.013-.023.042-.073.006-.011.037-.063.013-.023.032-.055.01-.02c.017-.026.028-.047.044-.074l.003-.004.04-.07.011-.019.038-.065.005-.009.046-.078.002-.004.042-.074.007-.011.043-.074.001-.002.048-.081.044-.076.007-.013.138-.237.002-.002.14-.24.004-.006.094-.16.047-.081.001-.002.142-.24.003-.006.093-.158.004-.006.043-.073.005-.008c.032-.054.06-.1.091-.155l.007-.011.04-.068.007-.01.09-.152.01-.017.037-.064.007-.011.09-.15.011-.02.032-.054.014-.024.042-.07.008-.014.035-.058.016-.027.03-.049.014-.025c.016-.027.025-.04.04-.068l.018-.03.025-.04.021-.036.02-.033.09-.15.009-.016.03-.05.009-.015.102-.17.002-.002c.373-.622.75-1.243 1.129-1.862l1.705 1.045c-1.548 2.527-3.07 5.116-4.526 7.695zm9.326-15.223l-1.667-1.105c1.615-2.436 3.264-4.83 4.961-7.205l.006-.009.051-.071v-.001l.054-.074.006-.009.03-.041 1.626 1.164c-1.725 2.41-3.43 4.883-5.067 7.351zM53.64 98.827l-1.583-1.222c.934-1.21 1.87-2.402 2.826-3.594l.01-.013.055-.068.003-.004.098-.122.028-.035.043-.053.043-.054.053-.065.044-.056.03-.038.072-.088.02-.024.06-.075.022-.028.077-.095.01-.012.072-.09.014-.017.17-.21.003-.004c.62-.763 1.243-1.524 1.871-2.28l1.539 1.277c-1.893 2.28-3.77 4.625-5.58 6.97zm11.405-13.736l-1.492-1.332.091-.101.008-.009.083-.093.008-.01.088-.097.01-.012.08-.088.01-.013.087-.096.012-.013.078-.087.013-.014.084-.094.015-.017.073-.081.016-.018.084-.092.016-.019.073-.08.016-.018.084-.093.015-.017.072-.08c.006-.005.013-.014.018-.02l.083-.09.017-.02.07-.078.02-.02.082-.091.017-.02.07-.077.02-.02.082-.092.017-.018.071-.078.019-.02.083-.092.016-.018.07-.077.02-.022.083-.09.017-.019.071-.077.02-.022.082-.09.017-.019.07-.077.02-.02.083-.092.016-.017.074-.08.016-.018.087-.094.01-.011.078-.085.016-.017.086-.093.011-.013.079-.085.014-.015.088-.095.008-.01.081-.087.013-.014.09-.096.005-.007.085-.091.01-.012.091-.097.005-.005.086-.093.01-.01.092-.1.092-.099.006-.006.186-.2.006-.005.187-.2.004-.005.188-.201.004-.005.19-.201.002-.003.19-.203.003-.001.191-.204h.001l.193-.204v-.001l.387-.407v-.001l.387-.406c.006-.006-.004.004.001-.002l.193-.2c.005-.006-.003.002.002-.004l.19-.198.004-.004 1.443 1.385c-2.05 2.138-4.09 4.343-6.063 6.553zm12.357-12.887l-1.394-1.434.035-.034.01-.01.114-.11.017-.017.056-.054.028-.027.085-.082.037-.036.047-.046.047-.045.05-.048.065-.063.035-.034.062-.06.026-.025.08-.077.031-.03.074-.07.015-.015.088-.084.022-.022.088-.085h.002l.094-.091.015-.015.191-.182.01-.01.195-.186.006-.005.2-.191c.611-.582 1.225-1.16 1.841-1.735l.003-.003.202-.188.005-.005.198-.184.013-.012.09-.083.007-.007.095-.088.017-.016.084-.078.012-.01.09-.084.026-.023.07-.065.024-.023.084-.078.034-.03.057-.053.035-.032.077-.071.043-.04.046-.042.056-.052.06-.054.052-.049.03-.027.185-.17.014-.013c.398-.364.792-.722 1.193-1.085l1.341 1.484c-2.198 1.987-4.39 4.04-6.515 6.104zm13.244-11.972l-1.287-1.53c2.295-1.93 4.625-3.82 6.99-5.669l1.232 1.576c-2.334 1.824-4.667 3.716-6.935 5.623zm14.066-10.995l-1.175-1.62c2.095-1.52 4.215-3.008 6.359-4.465l.002-.001.153-.104.008-.006.06-.04.023-.016.05-.034.021-.014.063-.043.04-.026.025-.017.046-.031.01-.007.517-.35 1.116 1.66c-2.458 1.653-4.92 3.373-7.318 5.114zm14.816-9.961l-1.056-1.699c1.63-1.013 3.274-2.008 4.93-2.985h.001l.239-.141.006-.004.238-.14.003-.001.238-.14.007-.004.177-.104h.001l.06-.035.003-.002c.607-.354 1.215-.706 1.825-1.055l.994 1.735c-2.57 1.472-5.15 3.011-7.666 4.575zm15.492-8.871l-.93-1.77.01-.006.015-.008.059-.03.026-.014.052-.028.03-.016.062-.032.04-.021.028-.015.048-.025.012-.006c2.527-1.323 5.08-2.605 7.657-3.843l.866 1.803c-2.669 1.282-5.352 2.632-7.975 4.01zm16.091-7.733l-.8-1.833.44-.192.021-.009.05-.021.025-.011.084-.037.031-.013.04-.018.04-.017.035-.015.073-.032.02-.008.059-.026.027-.011.062-.027.015-.007.08-.034.013-.006.068-.03.02-.007.068-.03.012-.005.08-.035.014-.006.068-.029.018-.008c.059-.025.105-.044.163-.07l.013-.005.072-.03.012-.006.166-.071.011-.005.073-.03.012-.006.166-.07.012-.006.08-.034h.002l.085-.037c.003 0 .005-.002.008-.003l.073-.031.017-.007.073-.031.009-.004.08-.034.02-.008.056-.024.03-.013.064-.027.013-.006.077-.032.026-.01.054-.024.026-.01c.022-.01.044-.02.066-.028l.028-.012.062-.027.026-.01.053-.023.03-.012.071-.03.03-.013.047-.02.039-.016.037-.015.04-.017.067-.028.038-.016.04-.017.04-.016.033-.014.1-.042.008-.003.047-.02.03-.012.048-.02.02-.008.17-.071.019-.008.247-.103.006-.002.257-.107c.736-.304 1.474-.604 2.213-.901l.004-.001.186-.075.01-.004.054-.022.026-.01.048-.02.067-.026.036-.014.044-.018.033-.013.051-.02.029-.012.077-.03.017-.008.064-.025.021-.009.674-.266.734 1.86c-2.755 1.087-5.528 2.239-8.243 3.425zm16.607-6.55l-.667-1.886c.838-.296 1.677-.588 2.519-.875h.003l.261-.09.008-.002.259-.088.008-.003.183-.062.018-.006.055-.019.017-.005.176-.06.022-.007.053-.018.018-.006.096-.032.029-.01.048-.016.026-.008.052-.018.01-.003.105-.035.027-.01.05-.016.027-.009.162-.054.034-.012.044-.014.034-.011.086-.03.025-.007.049-.017.028-.009.052-.017.012-.004.103-.034.025-.009.05-.016.03-.01.048-.016.007-.002.111-.037.024-.008.05-.016.028-.01.101-.032.015-.005.05-.017.026-.008.051-.017.025-.008.095-.031.022-.008.052-.017.024-.008.053-.017.01-.003.114-.037.016-.005.056-.019.017-.005.184-.06.009-.003.258-.084.012-.004.259-.083.008-.003c.668-.215 1.338-.428 2.009-.638l.597 1.909c-2.826.884-5.676 1.833-8.468 2.82zm17.036-5.332l-.528-1.93c2.071-.566 4.153-1.107 6.245-1.621l.021-.006.057-.013.013-.004.099-.024.035-.009.042-.01.047-.011.035-.01.076-.018.03-.007.06-.015.023-.005.177-.043.005-.001c.589-.143 1.165-.28 1.756-.42l.457 1.947c-2.883.678-5.794 1.418-8.65 2.2zm17.378-4.086l-.387-1.962c1.182-.233 2.356-.456 3.543-.673h.005l.09-.017h.005l.092-.017.011-.003.077-.013.02-.004.082-.015.011-.002.078-.014.032-.006.057-.01.029-.005.078-.014.038-.007.045-.008.044-.008.035-.006.093-.017.023-.004.053-.01c.008 0 .02-.003.027-.004l.182-.033.016-.002.063-.012h.005c1.337-.237 2.678-.463 4.023-.678l.316 1.975c-2.925.468-5.881.996-8.786 1.569zm17.629-2.822l-.245-1.985.157-.019h.003l.089-.011.01-.002.184-.022.018-.002.088-.01.001-.001.09-.01c.007-.002.015-.003.022-.003l.07-.009.022-.003.087-.01.013-.002.075-.009.025-.003.076-.009.013-.001.085-.01.027-.004.064-.007.026-.003.081-.01.033-.004.053-.006.04-.004.05-.006.06-.007.049-.006.042-.005.046-.005.042-.005.07-.008.051-.006.031-.004.051-.006.03-.003.094-.011.028-.003.055-.007.022-.002.12-.014h.005l.058-.007.022-.002.193-.022.008-.001.066-.008h.006l.204-.023h.001c1.184-.133 2.37-.257 3.559-.372l.01-.001.063-.007h.01l.126-.013h.009l.055-.006.03-.003.173-.016.033-.003.049-.005.045-.004.06-.006.056-.005.037-.004.06-.005.024-.003.085-.008.023-.002.072-.007.02-.001.187-.018h.005c.437-.04.862-.079 1.3-.117l.173 1.992c-2.952.258-5.938.572-8.875.934zm17.785-1.55l-.103-1.998c.604-.03 1.208-.06 1.813-.086h.015l.176-.009.042-.001.042-.002.057-.003.042-.001.072-.003.025-.002.078-.003h.01l.095-.004h.01l.09-.004h.006c1.94-.08 3.879-.138 5.83-.174h.005l.098-.001h.002l.088-.002h.022l.177-.003.034-.001.06-.001h.03l.073-.002.032 2c-2.965.047-5.966.148-8.921.3zm26.78.046c-2.955-.162-5.957-.273-8.923-.33l.039-2c.908.017 1.825.04 2.73.067h.002l.193.006h.013l.184.006.025.001.079.003h.01l.089.003h.025l.069.003h.025l.084.004h.028l.062.003h.03l.078.003.029.001.067.002.033.002.06.002h.029l.081.004h.034l.057.003h.034l.08.004.033.001.055.002.037.001.076.003.027.001.067.003H260l.06.003.03.001.078.003.039.002.052.002.036.001.08.003.03.001.061.003h.03l.084.004h.02c.017.002.054.003.07.004h.03l.075.004h.013l.088.004.025.001.07.003h.022l.09.005h.012l.08.003.02.001.092.004.09.004h.02l.187.009h.01l.09.004h.006l.097.005h.004l.095.004h.004c.852.038 1.696.08 2.545.127l-.11 1.997zm17.78 1.613c-2.937-.373-5.922-.698-8.875-.965l.18-1.992c2.022.183 4.041.39 6.048.622h.004l.192.023h.008l.083.01.017.002.176.02.03.004.06.007.029.004.08.009.035.004.048.006.042.005.038.004.09.01.024.004.06.007.01.001c.625.075 1.25.152 1.872.23l-.251 1.985zm17.617 2.883c-2.903-.583-5.857-1.121-8.781-1.6l.323-1.974c.613.1 1.22.202 1.832.307l.019.003.077.014.012.002.082.014.035.006.052.009.035.006.066.011.05.009.041.007.05.008.03.006.176.03.022.004.06.01c2.08.364 4.151.753 6.213 1.167l-.394 1.961zm17.363 4.147c-2.853-.792-5.761-1.542-8.642-2.23l.464-1.945c1.653.394 3.304.807 4.943 1.234l.006.001.273.072.01.002.177.047.014.003.074.02.017.004.086.023.008.002.073.02.03.007.062.017.02.005.081.021.028.008.055.014.033.01.056.014.047.013.054.014.043.011.036.01.045.012.03.008.093.025.023.006.056.015.017.004.188.05.007.002c.677.182 1.353.367 2.028.554l-.535 1.927zm17.018 5.392c-2.79-.996-5.635-1.955-8.459-2.85l.604-1.906c.603.191 1.205.384 1.805.58l.011.003.178.058.024.008.048.015.039.013.036.012.075.024.03.01.053.018.03.01.063.02.018.006.082.027.016.005.073.024.013.005.175.057.007.002c1.93.637 3.841 1.294 5.752 1.976l-.673 1.883zm16.583 6.61c-2.71-1.196-5.48-2.358-8.23-3.455l.74-1.858c2.469.984 4.914 2.005 7.344 3.064l.015.007.06.026c.01.005.02.01.03.013l.046.02.085.037.011.005.055.024.016.007.635.28-.807 1.83zm16.064 7.789c-2.618-1.388-5.297-2.747-7.961-4.04l.872-1.8c2.52 1.223 5.012 2.483 7.485 3.787l.003.001.075.04.011.006.156.082.018.01.06.031.02.012.069.035.028.015.049.026.033.018.019.01-.937 1.767zm15.46 8.925c-2.51-1.572-5.085-3.12-7.65-4.601l1-1.733c.569.329 1.136.659 1.701.991l.005.003.175.103.005.003.056.033.01.006.172.102.004.002.058.034.005.003.177.105h.002l.058.035.005.003c1.632.967 3.251 1.951 4.859 2.953.006.005-.002 0 .005.004l.053.033.014.009.084.052.028.018.031.019.042.026.028.018.06.037.01.006.065.041-1.061 1.695zm14.782 10.013c-2.392-1.749-4.849-3.478-7.301-5.139l1.122-1.656.053.036.003.002.072.05.014.009.059.04.017.011.069.047.002.002.07.047.023.015.05.035.02.013.064.044.012.008.064.044.023.015.048.033.025.017.06.04.019.014.057.039.027.018.045.031.024.017.055.037.034.023.047.033.029.02.04.027.03.02.06.042.025.017.047.032.032.022.04.028.028.019.052.036.04.027.041.028.032.022.036.025.034.023.047.033.045.03.037.026.034.024.036.025.032.022.035.024.067.046.025.018.042.028.024.017.042.03.012.007.095.066.013.01c.017.01.033.022.05.034l.013.01c.052.035.104.07.155.107l.014.01.048.033.014.01.158.11.01.006.05.036.013.008.164.114c.006.005-.005-.003 0 .001 1.5 1.047 2.987 2.109 4.462 3.187l-1.18 1.615zm14.027 11.044c-2.261-1.915-4.588-3.815-6.915-5.648l1.237-1.57c2.358 1.856 4.682 3.754 6.97 5.692l-1.292 1.526zm13.203 12.019c-2.119-2.072-4.304-4.133-6.495-6.127l1.347-1.48c1.713 1.56 3.395 3.134 5.064 4.74l.016.015.108.104.021.02.053.052.034.032.074.071.047.046c.011.01.03.03.042.04l.053.052.04.039.073.07.03.028.075.074.012.011.092.09.014.013.698.68-1.398 1.43zm12.31 12.93c-1.964-2.218-3.996-4.43-6.04-6.575l1.45-1.38.016.018.065.069.043.044.043.046.039.041.073.077.032.033.058.062.026.027.082.087.018.02c.025.025.05.05.074.077l.017.018.087.092.01.011.083.088.01.01.092.098.004.004.092.098.003.003c.45.477.897.956 1.342 1.437h.001l.19.205.002.002.184.2.01.01.09.098.003.004.086.093.012.013.089.097.006.007.079.085.02.022.082.09.017.017.068.075.025.027.079.086.024.027.058.063.031.034.075.081.032.035.049.054.037.041.068.074.04.044.041.046.043.046.045.05.064.07.035.04.048.052.021.023.095.105.02.022.178.196.007.008c.577.638 1.154 1.282 1.725 1.926l-1.497 1.327zm11.358 13.775c-1.801-2.351-3.67-4.703-5.555-6.99l1.543-1.271.534.65.003.004.172.21.01.013.079.096.006.007.083.102.01.013c.026.03.051.062.076.093l.01.012.079.097.018.022.066.081.016.02.076.094.022.027.06.073.021.027.072.088.029.036.05.062.029.035.068.085.03.038.048.06.03.037.068.083.033.041.044.055.034.042.064.08.039.048.035.043.04.05.052.065.052.066.03.036c.048.06.1.124.148.186l.025.031c.05.061.105.13.153.192l.021.026.159.198.014.018.163.206.01.013.167.21.007.008.169.214.006.007c.797 1.008 1.588 2.024 2.37 3.045l-1.588 1.216zm10.342 14.552c-1.628-2.474-3.324-4.953-5.04-7.368l1.63-1.159.176.249.007.01.047.065.005.008.052.073.006.009.043.06.016.023c.009.013.02.03.03.042l.022.03.04.058.025.036.024.034.027.038.02.027.028.04.003.005.068.097.014.02.033.047.008.011c.524.744 1.043 1.49 1.558 2.24l.005.008.116.168.001.002.035.05.01.016.035.05.072.105.009.014.03.044.017.025.029.041.017.025.049.072.02.029.025.037.022.033.024.035.042.061.016.023.032.048.018.026.034.05.014.02.047.07.01.013c.012.02.026.04.039.059l.012.017.042.062.006.01.101.149.006.008c.639.943 1.268 1.884 1.894 2.836l-1.67 1.1zm9.273 15.256c-1.446-2.584-2.96-5.179-4.5-7.711l1.71-1.039.163.27.004.006.094.155.007.011.037.062.013.021.035.059.01.015.04.067.02.033.024.04.02.034.02.032.047.078.013.021.026.044.015.025.029.048.005.008.103.173.002.002c1.264 2.106 2.498 4.233 3.701 6.379l.006.01.028.05.016.028.023.04.034.063-1.745.976zm8.151 15.883c-1.256-2.682-2.58-5.379-3.933-8.015l1.78-.913c.297.58.593 1.16.886 1.743l.008.016.026.05.01.02.042.086.015.029.017.035.022.043.016.032.026.051.012.024.035.07.013.027.028.056.01.02.08.159.004.007.037.075.004.01c.607 1.216 1.202 2.434 1.79 3.662l.001.002.077.162.011.022.026.055.013.026.034.072.015.03c.006.015.012.027.019.04l.021.046.012.024c.22.461.437.923.654 1.386l-1.811.848zm6.984 16.43c-1.06-2.767-2.185-5.552-3.344-8.28l1.84-.782c.376.883.747 1.769 1.112 2.657l.076.184.006.016.022.054.009.02.02.051.027.066.016.038.018.043.014.036.018.043.014.034.03.072.01.028.023.055.01.026.065.159.008.018.028.07.005.012.068.167.005.012.03.076.004.008.07.173.001.004.106.263.106.263.002.005.07.173.002.006.033.083.002.003.069.174.002.006.033.082.002.004.035.088.031.08c.003.006.006.012.008.02l.028.07.004.01.033.08.007.02.025.062.01.025.024.06.008.02.029.075.013.033.017.044.016.04.015.038.033.082.008.02.02.05.01.028.02.05.006.014.043.11c.003.008 0 .003.004.01l.023.058.004.012c.257.653.51 1.307.762 1.963l-1.868.715zm5.778 16.89c-.857-2.836-1.778-5.695-2.737-8.499l1.893-.647c.253.741.502 1.48.75 2.226l.003.011.028.085.029.086.006.018.02.064.01.025.021.066.01.032c.006.015.016.046.02.061l.012.036.014.041.014.042.012.038.027.08.008.025.018.056.005.014.06.186.003.008c.582 1.78 1.145 3.57 1.688 5.368l-1.914.578zm4.54 17.265c-.65-2.892-1.36-5.81-2.114-8.675l1.934-.51c.761 2.895 1.472 5.813 2.132 8.746l-1.952.439zm3.282 17.548c-.44-2.932-.939-5.895-1.483-8.806l1.966-.368c.103.55.204 1.1.303 1.651l.002.01.035.2.001.004.011.062.003.015.033.182c0 .008.003.02.004.028l.01.051.006.037.013.075.008.04.008.047.007.04.007.04.013.076.006.034.01.053.006.035.011.065.004.023.014.078.005.026.012.07.003.017.016.09v.003l.015.087.003.015c.01.064.02.12.032.184v.005c.32 1.842.615 3.678.894 5.534l-1.978.297zm2.011 17.738c-.228-2.957-.513-5.948-.847-8.89l1.988-.225c.233 2.057.44 4.107.623 6.178l.001.016.008.084v.008l.008.09.002.022.006.066.003.03.007.08.002.033.005.052.003.04.004.047.008.088.002.021.005.06c0 .009 0 .01.002.018l.016.2v.001c.052.609.101 1.217.148 1.827l-1.994.154zm.743 17.838c-.018-2.966-.09-5.97-.213-8.927l1.998-.083.025.606v.002l.007.192v.016l.008.184v.021l.004.08v.011l.003.09.001.024.003.066v.03l.004.082v.03l.003.056.001.038.002.06.002.05.002.055.001.043.002.045.002.055.002.06.001.046.002.041.001.047.002.04.003.083v.03l.002.053.001.03.003.098.001.025.002.058v.019l.007.189v.019l.006.189v.018l.006.191v.017l.003.062v.013l.005.192.001.022.005.186v.022l.003.059v.006c0 .042.002.083.003.125v.016l.002.061v.015l.004.116v.016l.001.058.001.025.003.11v.017l.002.051v.034l.002.05v.047l.002.068.001.046.002.043v.052l.002.055.001.057.001.038.002.057v.031l.002.081v.033l.002.063v.025l.003.088v.018l.002.076v.02l.004.188v.011c.024 1.185.04 2.367.047 3.556l-2 .012zm1.477 17.984l-1.996-.13c.19-2.953.331-5.954.417-8.92l2 .058c-.014.453-.028.912-.044 1.364v.012l-.003.085v.013l-.004.09v.021l-.003.068v.028l-.004.083-.001.034-.002.052-.002.042-.001.05-.003.06-.001.05-.002.048c0 .017 0 .02-.002.037l-.006.177-.001.022-.008.192v.014c0 .022-.002.043-.003.065v.003l-.008.204v.012l-.009.203v.002c-.026.632-.054 1.262-.084 1.893v.008l-.01.203v.006l-.011.207v.001l-.014.272-.001.018-.01.192v.015l-.004.061v.015l-.007.112v.022l-.004.056-.001.026-.01.18-.001.028-.003.054-.001.021-.006.1-.002.032-.002.05-.002.038-.005.074-.002.047-.003.043-.002.043-.003.051c0 .017-.003.05-.004.066l-.002.046-.002.04-.003.048-.002.038-.005.079-.002.04-.003.044c0 .017-.002.034-.003.05 0 .02-.002.04-.003.059l-.003.053-.003.043-.002.045-.003.04-.004.076-.003.043-.002.044-.003.043-.004.061c0 .018-.002.036-.003.053 0 .017-.002.03-.003.046l-.002.044-.003.045-.004.067-.003.048-.003.048-.002.034-.01.17-.003.035c0 .018-.002.035-.003.053l-.001.017-.007.111-.001.02-.004.059-.001.017-.013.193v.011l-.004.064zm-1.802 17.905l-1.981-.271c.401-2.934.756-5.917 1.052-8.868l1.99.2c-.213 2.123-.452 4.232-.718 6.338l-.001.004-.023.184-.003.023-.01.074c0 .005 0 .01-.002.015l-.01.087-.004.024-.008.06-.004.035-.007.054-.008.067-.005.038-.007.05-.003.025-.025.19v.005c-.073.556-.147 1.111-.223 1.666zm-3.082 17.73l-1.957-.413c.612-2.898 1.18-5.848 1.688-8.769l1.97.343-.014.08-.002.014-.013.072-.004.026-.013.075-.004.02-.012.07-.007.04-.008.047-.007.037-.013.076-.008.041-.007.04-.008.047-.006.034-.015.084-.006.035-.008.048-.006.033-.01.05c0 .009-.002.014-.003.022l-.018.101-.005.026-.01.056-.004.02-.032.18-.004.026-.01.055-.003.015-.02.115-.003.015-.01.056-.005.025-.032.179-.005.023-.01.054c0 .008-.004.023-.005.03l-.015.085-.007.037-.008.045-.008.04-.007.042-.012.065-.01.05-.007.044-.008.04-.01.05-.008.049-.011.06-.007.038-.009.048-.007.039-.015.077-.004.023-.011.062-.006.031-.013.07-.003.015-.016.086-.004.02-.013.073-.003.015-.034.182-.002.011-.017.089v.001c-.34 1.802-.699 3.598-1.076 5.385zM491.234 320l-1.922-.554c.82-2.847 1.6-5.748 2.317-8.624l1.94.484c-.135.541-.268 1.067-.406 1.606l-.002.01-.045.175-.006.02-.018.072-.004.015-.022.087-.002.008-.02.077-.006.022-.018.07-.004.016-.022.083-.006.022-.016.063-.007.028-.018.07-.004.013-.02.078-.01.036-.012.05-.009.032-.02.078-.007.024-.015.06-.009.032-.013.052-.009.033-.02.075-.009.034-.012.05-.01.035-.014.055-.012.044-.015.059-.01.037-.013.048-.009.033-.02.077-.007.027-.015.057-.01.034-.013.052-.008.03-.02.077-.009.031-.014.054-.009.033-.016.06-.008.03-.018.068-.01.035-.013.05-.009.034-.02.077-.006.022-.017.063-.008.027-.017.065-.005.02-.023.082-.005.02-.017.065-.007.025-.02.077c-.002.002-.002.004-.003.007l-.022.083-.007.024-.018.07-.004.013-.024.088v.003c-.01.03-.015.052-.024.083l-.004.016-.023.084v.002l-.025.092v.002c-.01.03-.017.058-.025.09l-.001.004c-.306 1.119-.617 2.226-.937 3.339zm-5.607 17.1l-1.876-.691c1.024-2.78 2.012-5.618 2.934-8.433l1.9.623c-.765 2.336-1.56 4.644-2.392 6.95 0 .001 0 .003-.002.005l-.03.086-.001.002-.03.082-.009.024-.02.054-.012.036-.013.034-.06.168-.004.01-.385 1.05zm-6.828 16.65l-1.821-.825c1.222-2.699 2.412-5.457 3.536-8.198l1.85.76c-.166.404-.325.79-.493 1.194l-.006.015-.03.072-.005.011-.033.08-.009.02-.024.058-.013.03-.023.055-.009.022-.03.072-.016.04-.016.036-.017.042-.015.035-.032.076-.012.03-.02.046-.012.03-.02.046-.013.033-.036.084-.008.02-.022.052-.01.023-.073.174-.005.01-.024.058-.005.011-.077.182-.003.009-.025.058-.005.013-.075.176-.007.015-.023.055-.006.015-.045.105-.007.015-.02.05-.01.023-.023.052-.007.016-.041.097-.01.023-.02.048-.012.026-.02.048-.01.024-.036.083-.015.034-.018.043-.013.032-.02.043c-.005.015-.011.029-.018.043l-.026.063-.016.037-.019.042-.015.037-.016.036-.031.072-.011.026-.024.055-.012.027-.025.059-.009.02-.033.076-.008.02-.027.062-.01.022-.068.158-.008.019-.03.068-.005.013-.073.166c0 .003-.002.005-.003.008l-.034.078-.003.007-.075.171v.003c-.455 1.04-.919 2.083-1.387 3.116zm-8.012 16.115l-1.757-.954c1.414-2.605 2.8-5.27 4.118-7.922l1.791.89c-.373.75-.745 1.489-1.125 2.235l-.005.009-.04.08-.001.001-.04.077-.01.02-.028.055-.013.027-.03.056-.024.048-.019.037-.022.044-.015.028-.022.045-.011.02-.048.093-.01.02-.026.05-.008.016c-.651 1.268-1.313 2.53-1.986 3.785l-.002.005-.03.054-.008.016-.082.153-.018.033-.02.038-.022.04-.017.032-.037.07-.013.023-.029.053-.013.025-.033.06-.007.014-.043.079-.002.004-.042.078-.002.005-.249.458zm-9.15 15.496l-1.685-1.078c1.597-2.496 3.171-5.055 4.677-7.605l1.722 1.017-.001.002c-.01.019-.022.037-.033.055l-.004.008-.103.174-.003.005-.034.057-.002.004-.104.175-.004.007-.034.057-.002.003-.25.42v.002c-1.226 2.053-2.48 4.087-3.761 6.102l-.003.004-.035.057-.004.006c-.02.03-.04.06-.058.09l-.017.026-.023.036-.023.038-.02.03-.038.06-.006.009-.047.073-.008.013-.043.068-.004.006-.05.079zm-10.24 14.8l-1.602-1.196c1.772-2.375 3.525-4.815 5.21-7.25l1.645 1.138c-.587.848-1.18 1.692-1.776 2.533-.005.007.003-.004-.002.002l-.113.16-.013.018-.03.04-.021.032-.034.047-.035.05-.02.028-.03.04-.019.028-.04.056-.008.01-.05.072-.008.01-.046.065-.006.008c-.803 1.124-1.61 2.232-2.431 3.342l-.007.01-.046.06-.009.013c-.018.025-.03.042-.05.067l-.017.024-.03.04-.027.036-.02.026c-.12.164-.242.327-.364.49zm-11.27 14.03l-1.514-1.308c1.937-2.242 3.86-4.55 5.715-6.86l1.56 1.253-.122.152-.017.02-.163.203-.01.013-.171.211-.003.003-.175.216-.002.004c-.355.438-.709.871-1.067 1.307l-.003.004-.175.213-.005.005-.17.207-.013.015-.167.203-.012.014-.166.2-.016.02-.161.194-.02.024-.158.19-.024.03-.05.058-.01.012-.093.113-.03.036-.044.052-.044.053-.06.071-.035.042-.042.05-.057.069c-.01.012-.033.04-.044.051l-.04.048-.038.046-.066.079-.033.039-.045.054-.036.042-.068.081-.031.037-.048.057-.033.038-.071.085-.025.03-.055.065-.03.035-.073.086-.022.026-.057.068-.029.034-.073.087-.022.026-.058.068-.03.034-.072.087-.022.025-.059.069-.027.032-.074.088-.022.025-.059.069-.028.033-.075.088-.018.022-.062.072-.027.032-.076.088-.018.021-.062.072-.028.033-.074.087-.023.026-.056.066-.031.036-.067.078-.032.037-.052.06-.034.04-.059.069-.042.048-.046.055-.038.044-.046.053-.06.07-.037.042-.024.027zm-12.245 13.188l-1.416-1.412c2.092-2.098 4.175-4.263 6.19-6.434l1.466 1.361-.023.024-.045.049-.053.057-.052.056-.045.048-.035.038-.097.104-.011.012-.056.06-.018.02-.178.19-.008.008c-.77.824-1.54 1.636-2.32 2.448l-.003.003-.19.199-.007.006-.183.19-.02.021-.174.18-.023.024-.169.174-.032.033-.059.061-.056.058-.047.048-.036.038-.045.046-.07.071-.04.042-.047.048-.037.038-.074.076-.036.037-.052.053-.033.034-.077.079-.032.032-.057.06-.03.03-.08.08-.027.029-.064.065-.023.024-.084.085-.022.022-.071.073-.02.02-.085.087-.02.02-.076.077-.014.014-.09.092-.012.012-.084.085-.01.01-.092.094-.01.01-.085.086-.011.01c-.03.032-.062.063-.093.094l-.008.008-.088.089-.008.009-.094.094-.008.008-.089.09-.007.007-.094.095-.007.007-.088.088-.01.01-.094.094-.002.002zm-13.154 12.282l-1.312-1.51c2.236-1.943 4.468-3.953 6.634-5.976l1.365 1.462c-.513.479-1.027.955-1.543 1.429l-.01.01-.193.176-.02.017-.092.085-.001.002-.093.084-.023.021-.083.076-.014.013-.085.078-.027.024-.08.072-.018.017-.082.075-.03.027-.074.068-.024.022-.079.071-.032.03-.07.062-.032.03-.074.067-.034.03-.066.06-.035.032-.073.067-.034.03-.067.06-.035.032-.073.066-.034.03-.068.062-.028.025-.08.072-.032.029-.071.064-.022.02-.087.078-.027.024-.08.07-.013.013-.09.082-.024.02-.087.078-.007.007-.095.085-.018.016-.195.174-.011.01-.202.18-.005.003c-.734.654-1.473 1.304-2.215 1.949zm-13.998 11.31l-1.2-1.599c2.369-1.778 4.738-3.624 7.043-5.486l1.257 1.555c-2.333 1.886-4.698 3.728-7.1 5.53zm-14.77 10.282l-1.084-1.682c2.49-1.604 4.986-3.275 7.419-4.968l1.142 1.641c-2.46 1.713-4.953 3.383-7.478 5.009zm-15.47 9.194l-.96-1.754c2.599-1.421 5.208-2.91 7.755-4.423l1.022 1.719c-2.133 1.268-4.286 2.505-6.459 3.71l-.004.003-.059.032-.004.002-.166.093-.027.014-.043.024-.035.02-.047.025-.054.03-.033.018-.043.024-.032.018-.048.027-.035.018-.06.033-.024.014-.055.03-.02.012-.154.084-.012.006-.073.04-.005.003-.325.178zm-16.092 8.058l-.83-1.819c2.694-1.23 5.403-2.526 8.053-3.853l.895 1.789c-1.47.736-2.954 1.46-4.44 2.169l-.004.001-.252.12-.007.004-.08.037-.003.002-.167.08c-.003 0-.005.002-.008.003l-.252.119-.003.002-.255.12h-.003c-.88.416-1.757.822-2.644 1.226zm-16.63 6.876l-.697-1.875c2.776-1.031 5.572-2.128 8.31-3.26l.764 1.848c-2.609 1.078-5.245 2.116-7.896 3.108l-.004.001-.088.033-.003.001-.075.028-.026.01-.056.02-.028.011-.071.027-.04.015-.037.013-.045.017-.009.003zm-17.085 5.655l-.56-1.92c2.844-.828 5.712-1.72 8.524-2.651l.629 1.899c-.71.235-1.42.466-2.133.695l-.005.002-.064.02-.005.002-.124.04-.007.002-.052.016-.029.01-.048.015-.047.015-.052.017-.051.016-.033.01-.057.018-.025.008-.079.025-.02.007-.067.021-.018.006-.174.055-.003.001-.088.028h-.004c-.733.233-1.462.46-2.199.685l-.01.003-.084.026-.004.001-.086.026-.017.006-.066.02-.026.008-.061.018-.04.012-.058.018-.035.01-.047.015-.038.011-.042.013-.078.024-.026.007-.054.017-.018.005-.19.058h-.002c-.74.224-1.483.444-2.227.66zm-17.449 4.405l-.419-1.956c2.897-.62 5.822-1.303 8.693-2.028l.49 1.94c-2.902.732-5.823 1.414-8.764 2.044zm-17.721 3.133l-.277-1.981c2.935-.41 5.901-.88 8.816-1.395l.349 1.969-.274.048-.005.001-.192.034-.02.003-.055.01-.03.005-.091.016-.028.005-.052.009-.032.005-.047.009-.064.01-.05.01-.043.007-.041.007-.053.009-.04.007-.068.011-.034.006-.056.01-.03.005-.082.014-.022.004-.063.01-.03.006-.079.013-.005.001-.087.015-.023.004-.07.011-.02.004-.085.014-.016.003-.075.013-.019.003-.085.014h-.003l-.09.016-.015.002-.077.013-.017.003-.09.015h-.003l-.084.015c-.007 0-.013.002-.02.003l-.083.014h-.005l-.088.015-.022.004-.072.012-.016.002-.09.015-.007.001-.081.014-.021.003-.076.013-.013.002-.087.014-.02.003-.07.012-.022.003-.087.015h-.008c-.025.005-.053.01-.078.013l-.027.005-.068.01-.02.004-.083.014-.027.004-.06.01-.028.004-.083.014c-.007 0-.014.002-.02.003l-.067.01-.03.006-.059.009-.03.005-.079.012-.032.005-.053.009-.037.006-.07.01-.033.006-.06.01-.035.005-.056.009-.03.005-.078.012-.036.006-.05.008-.036.005-.058.01-.056.008-.047.008-.043.006-.04.007-.045.006-.072.012-.045.007-.037.006-.049.007-.031.005-.094.014-.025.004-.055.009-.024.004-.18.027-.023.004-.058.009-.012.001-.12.019-.012.002-.06.009-.016.002c-.062.01-.124.02-.186.028l-.022.004-.06.009h-.004l-.134.02-.003.001-.061.01c-.008 0-.01 0-.019.002l-.188.028-.016.003-.059.008-.02.003-.113.017-.013.002-.059.009-.02.003-.186.027-.018.003-.06.009-.016.002-.118.017-.01.002-.059.009c-.008 0-.014.002-.022.003l-.178.026c-.008 0-.02.003-.029.004l-.05.007-.035.005-.074.011-.048.007-.04.006-.046.006-.04.006-.076.011-.034.005-.052.007-.04.006-.055.008-.027.004-.082.012c-.01 0-.018.002-.027.003l-.068.01-.02.003-.088.012-.012.002-.08.011-.017.003-.184.026h-.008l-.09.013h-.003l-.02.004zm-17.901 1.852l-.135-1.996c2.959-.2 5.951-.455 8.896-.76l.205 1.99c-.945.098-1.883.19-2.831.277h-.011l-.182.017-.023.002-.073.007-.019.002-.081.007-.038.003-.049.005-.039.003-.052.005-.073.007-.03.002-.056.005-.016.002-.194.017h-.01c-1.724.153-3.454.288-5.189.405zM250.5 501v-2c2.678 0 5.39-.043 8.06-.128l.064 1.999c-1.644.052-3.291.089-4.943.11l-.188.001h-.006l-.185.003h-.119l-.017.001-.17.002h-.108l-.04.001h-.043l-.049.001h-.058l-.049.001H252.536l-.036.001h-.087l-.076.001h-.034l-.06.001h-.103l-.037.001h-.101l-.067.001h-.134l-.072.001h-.127l-.086.001h-.22l-.076.001h-.213-.309l-.088.001h-.11z" transform="translate(-183.2 -248)"/>
        </g>
    </g>
</svg>
