<svg width="842" height="373" viewBox="0 0 842 373" fill="none" xmlns="http://www.w3.org/2000/svg">
<g clip-path="url(#clip0_409_681)">
<path d="M0 0H842V333H0V0Z" fill="#EBEFEC"/>
<path d="M449 91H587V333H449V91Z" fill="white"/>
<path d="M590 91H728V333H590V91Z" fill="white"/>
<path d="M215 114H376V266H215V114Z" fill="white"/>
<path d="M34 114H195V266H34V114Z" fill="white"/>
<path d="M568 192H567C564.239 192 562 194.239 562 197V227C562 229.761 564.239 232 567 232H568C570.761 232 573 229.761 573 227V197C573 194.239 570.761 192 568 192Z" fill="#E6E6E6"/>
<path d="M611 192H610C607.239 192 605 194.239 605 197V227C605 229.761 607.239 232 610 232H611C613.761 232 616 229.761 616 227V197C616 194.239 613.761 192 611 192Z" fill="#E6E6E6"/>
<path d="M99 155H133V189H99V155Z" fill="#E4F8E9"/>
<path d="M78.8361 210.101C78.2238 210.106 77.6145 210.015 77.0301 209.833C76.5113 209.673 76.0312 209.407 75.6201 209.053L76.0641 208.141C76.447 208.458 76.884 208.704 77.3541 208.867C77.8369 209.021 78.3414 209.096 78.8481 209.089C79.3605 209.119 79.8704 208.996 80.3121 208.735C80.477 208.627 80.6112 208.478 80.7016 208.303C80.792 208.127 80.8356 207.932 80.8281 207.735C80.835 207.566 80.7934 207.399 80.7084 207.253C80.6233 207.108 80.4983 206.99 80.3481 206.913C79.8611 206.675 79.3445 206.504 78.8121 206.403C78.246 206.291 77.6916 206.126 77.1561 205.911C76.7589 205.753 76.4095 205.494 76.1421 205.161C75.8876 204.811 75.7586 204.386 75.7761 203.955C75.7671 203.489 75.9034 203.032 76.1661 202.647C76.4462 202.255 76.8308 201.949 77.2761 201.765C77.8038 201.543 78.372 201.435 78.9441 201.447C79.5133 201.443 80.079 201.534 80.6181 201.717C81.1018 201.872 81.5432 202.137 81.9081 202.491L81.4761 203.403C81.1154 203.101 80.7081 202.86 80.2701 202.689C79.85 202.531 79.4047 202.452 78.9561 202.455C78.4502 202.426 77.9482 202.558 77.5221 202.833C77.3545 202.95 77.2189 203.107 77.1277 203.29C77.0365 203.473 76.9926 203.676 77.0001 203.881C76.9917 204.053 77.0295 204.225 77.1097 204.378C77.1899 204.531 77.3095 204.659 77.4561 204.751C77.913 205.005 78.407 205.185 78.9201 205.285C79.5016 205.409 80.0732 205.576 80.6301 205.785C81.0305 205.932 81.3889 206.175 81.6741 206.493C81.944 206.821 82.0829 207.238 82.0641 207.663C82.0732 208.121 81.9366 208.571 81.6741 208.947C81.392 209.333 81.0045 209.629 80.5581 209.801C80.0093 210.012 79.4242 210.114 78.8361 210.101ZM86.0121 210.089C85.474 210.101 84.9422 209.971 84.4701 209.713C84.0384 209.469 83.6879 209.104 83.4621 208.663C83.2166 208.169 83.0951 207.624 83.1081 207.073C83.0963 206.515 83.222 205.963 83.4741 205.465C83.7067 205.013 84.0651 204.638 84.5061 204.385C84.9808 204.121 85.5172 203.988 86.0601 204.001C86.4627 203.999 86.8626 204.066 87.2421 204.201C87.588 204.316 87.9051 204.504 88.1721 204.753L87.8001 205.617C87.3459 205.213 86.7635 204.984 86.1561 204.969C85.9102 204.956 85.6645 204.998 85.4372 205.093C85.2098 205.187 85.0064 205.331 84.8421 205.515C84.5014 205.954 84.3328 206.502 84.3681 207.057C84.3326 207.603 84.4992 208.143 84.8361 208.575C85.0028 208.756 85.2077 208.898 85.436 208.99C85.6643 209.083 85.9103 209.123 86.1561 209.109C86.763 209.095 87.3453 208.867 87.8001 208.465L88.1721 209.341C87.8927 209.586 87.566 209.772 87.2121 209.887C86.826 210.02 86.4205 210.087 86.0121 210.087V210.089ZM91.6881 204.001C92.0038 203.975 92.3215 204.014 92.6216 204.115C92.9218 204.216 93.1983 204.377 93.4341 204.589C93.8496 205.088 94.0528 205.73 94.0001 206.377V210.001H92.8401V209.029C92.7028 209.356 92.4655 209.631 92.1621 209.815C91.8437 210 91.4803 210.093 91.1121 210.085C90.7468 210.089 90.3855 210.009 90.0561 209.851C89.75 209.707 89.4903 209.48 89.3061 209.197C89.1267 208.918 89.0329 208.592 89.0361 208.261C89.016 207.898 89.1339 207.54 89.3661 207.261C89.6662 206.976 90.0483 206.794 90.4581 206.739C91.1495 206.62 91.8507 206.568 92.5521 206.583H92.8281V206.235C92.8596 205.887 92.7589 205.54 92.5461 205.263C92.4218 205.152 92.2762 205.069 92.1183 205.017C91.9604 204.966 91.7935 204.947 91.6281 204.963C90.9199 204.976 90.2296 205.188 89.6361 205.575L89.2761 204.723C89.6242 204.49 90.0069 204.314 90.4101 204.201C90.8242 204.073 91.2547 204.005 91.6881 204.001ZM91.3281 209.185C91.5298 209.191 91.7306 209.155 91.917 209.077C92.1033 208.999 92.2708 208.883 92.4081 208.735C92.6943 208.419 92.8451 208.003 92.8281 207.577V207.265H92.6121C92.1307 207.256 91.6492 207.284 91.1721 207.349C90.9106 207.374 90.6612 207.472 90.4521 207.631C90.3774 207.705 90.3194 207.794 90.2822 207.892C90.2449 207.991 90.2292 208.096 90.2361 208.201C90.2337 208.333 90.2598 208.463 90.3127 208.584C90.3655 208.705 90.4437 208.813 90.5421 208.901C90.7573 209.094 91.0392 209.196 91.3281 209.185ZM98.8161 204.001C100.216 204.001 100.916 204.789 100.916 206.365V210.001H99.7001V206.425C99.7318 206.038 99.6279 205.652 99.4061 205.333C99.2889 205.21 99.1455 205.115 98.9867 205.054C98.8278 204.994 98.6574 204.97 98.4881 204.985C98.2712 204.975 98.0547 205.011 97.8522 205.089C97.6498 205.168 97.4658 205.287 97.3121 205.441C97.1603 205.605 97.0429 205.798 96.9666 206.008C96.8904 206.218 96.8569 206.441 96.8681 206.665V210.001H95.6601V204.145H96.8481V205.081C97.0297 204.741 97.3081 204.462 97.6481 204.281C98.0079 204.091 98.4095 203.995 98.8161 204.001ZM107.9 210.001V202.573H105.044V201.541H112.016V202.573H109.148V210.001H107.9ZM114.62 210.085C114.09 210.097 113.565 209.968 113.1 209.713C112.667 209.466 112.317 209.097 112.094 208.651C111.85 208.153 111.728 207.605 111.74 207.051C111.727 206.492 111.849 205.939 112.094 205.437C112.316 204.99 112.666 204.619 113.1 204.373C113.565 204.117 114.09 203.989 114.62 204.001C115.15 203.989 115.674 204.118 116.138 204.373C116.572 204.619 116.923 204.988 117.146 205.435C117.392 205.937 117.513 206.49 117.5 207.049C117.512 207.603 117.39 208.151 117.146 208.649C116.923 209.096 116.572 209.466 116.138 209.713C115.674 209.968 115.15 210.096 114.62 210.085ZM114.62 209.125C114.852 209.139 115.084 209.1 115.297 209.009C115.511 208.918 115.7 208.778 115.85 208.601C116.165 208.147 116.315 207.599 116.276 207.049C116.313 206.5 116.16 205.956 115.844 205.507C115.696 205.328 115.508 205.187 115.296 205.094C115.083 205.002 114.852 204.96 114.62 204.973C114.389 204.961 114.159 205.003 113.947 205.095C113.735 205.188 113.548 205.329 113.4 205.507C113.084 205.956 112.931 206.5 112.968 207.049C112.928 207.599 113.077 208.147 113.39 208.601C113.54 208.778 113.729 208.918 113.943 209.009C114.157 209.1 114.388 209.139 114.62 209.125ZM125.876 210.101C125.132 210.119 124.396 209.936 123.746 209.573C123.142 209.22 122.657 208.694 122.354 208.063C122.015 207.344 121.849 206.557 121.868 205.763C121.849 204.969 122.015 204.181 122.354 203.463C122.657 202.834 123.142 202.311 123.746 201.963C124.397 201.603 125.132 201.423 125.876 201.441C126.424 201.436 126.968 201.527 127.484 201.711C127.955 201.875 128.385 202.139 128.744 202.485L128.312 203.397C127.965 203.096 127.57 202.856 127.142 202.689C126.74 202.542 126.316 202.469 125.888 202.473C125.507 202.45 125.125 202.515 124.772 202.663C124.42 202.811 124.106 203.037 123.854 203.325C123.335 204.028 123.082 204.892 123.14 205.765C123.084 206.637 123.336 207.502 123.854 208.207C124.105 208.496 124.419 208.724 124.771 208.872C125.124 209.021 125.506 209.087 125.888 209.065C126.316 209.068 126.74 208.995 127.142 208.849C127.57 208.681 127.965 208.442 128.312 208.141L128.744 209.053C128.385 209.398 127.955 209.662 127.484 209.827C126.968 210.011 126.424 210.104 125.876 210.101ZM133.7 205.021L132.968 205.093C132.501 205.1 132.055 205.289 131.726 205.621C131.467 205.938 131.332 206.339 131.348 206.749V210.001H130.136V204.145H131.312V205.165C131.488 204.812 131.761 204.518 132.099 204.316C132.438 204.114 132.826 204.013 133.22 204.025L133.62 204.001L133.7 205.021ZM139.424 207.277H135.284C135.372 208.517 135.988 209.137 137.132 209.137C137.799 209.139 138.445 208.905 138.956 208.477L139.328 209.329C139.03 209.575 138.688 209.762 138.32 209.881C137.927 210.014 137.515 210.081 137.1 210.081C136.696 210.104 136.292 210.044 135.911 209.907C135.531 209.769 135.182 209.556 134.886 209.281C134.607 208.985 134.392 208.636 134.252 208.254C134.113 207.872 134.053 207.466 134.076 207.061C134.065 206.507 134.186 205.958 134.43 205.461C134.652 205.012 135 204.637 135.43 204.381C135.87 204.124 136.371 203.992 136.88 204.001C137.229 203.983 137.577 204.042 137.899 204.175C138.222 204.308 138.511 204.511 138.746 204.769C139.228 205.368 139.469 206.125 139.424 206.893V207.277ZM136.9 204.889C136.695 204.879 136.489 204.913 136.298 204.989C136.107 205.064 135.934 205.179 135.79 205.327C135.489 205.678 135.313 206.119 135.29 206.581H138.38C138.388 206.128 138.242 205.686 137.966 205.327C137.833 205.178 137.668 205.062 137.483 204.986C137.299 204.91 137.099 204.877 136.9 204.889ZM143.2 204.001C143.516 203.975 143.833 204.014 144.134 204.115C144.434 204.216 144.71 204.377 144.946 204.589C145.363 205.087 145.568 205.729 145.516 206.377V210.001H144.356V209.029C144.219 209.356 143.981 209.631 143.678 209.815C143.36 210 142.996 210.093 142.628 210.085C142.263 210.089 141.901 210.009 141.572 209.851C141.266 209.707 141.006 209.48 140.822 209.197C140.643 208.918 140.549 208.592 140.552 208.261C140.532 207.898 140.65 207.54 140.882 207.261C141.182 206.976 141.564 206.794 141.974 206.739C142.666 206.62 143.367 206.568 144.068 206.583H144.344V206.235C144.376 205.887 144.275 205.54 144.062 205.263C143.938 205.152 143.792 205.069 143.634 205.017C143.476 204.966 143.31 204.947 143.144 204.963C142.436 204.976 141.746 205.188 141.152 205.575L140.792 204.723C141.14 204.49 141.523 204.314 141.926 204.201C142.339 204.073 142.768 204.006 143.2 204.001ZM142.84 209.185C143.042 209.191 143.243 209.155 143.429 209.077C143.615 208.999 143.783 208.883 143.92 208.735C144.206 208.419 144.357 208.003 144.34 207.577V207.265H144.124C143.643 207.256 143.161 207.284 142.684 207.349C142.423 207.374 142.173 207.472 141.964 207.631C141.889 207.705 141.831 207.794 141.794 207.892C141.757 207.991 141.741 208.096 141.748 208.201C141.746 208.333 141.772 208.463 141.825 208.584C141.877 208.705 141.956 208.813 142.054 208.901C142.27 209.095 142.554 209.197 142.844 209.185H142.84ZM149.94 209.149C150.121 209.149 150.301 209.137 150.48 209.113L150.42 210.037C150.215 210.069 150.008 210.085 149.8 210.085C149.494 210.109 149.186 210.073 148.894 209.977C148.602 209.881 148.332 209.728 148.1 209.527C147.904 209.309 147.753 209.054 147.657 208.776C147.561 208.499 147.522 208.205 147.542 207.913V205.081H146.4V204.145H147.54V202.381H148.76V204.145H150.368V205.081H148.76V207.865C148.76 208.721 149.156 209.149 149.948 209.149H149.94ZM156.42 207.277H152.28C152.368 208.517 152.984 209.137 154.128 209.137C154.795 209.139 155.441 208.905 155.952 208.477L156.324 209.329C156.026 209.575 155.684 209.762 155.316 209.881C154.922 210.014 154.508 210.082 154.092 210.081C153.688 210.104 153.284 210.044 152.903 209.907C152.523 209.769 152.174 209.556 151.878 209.281C151.599 208.985 151.384 208.636 151.244 208.254C151.105 207.872 151.045 207.466 151.068 207.061C151.057 206.507 151.178 205.958 151.422 205.461C151.644 205.012 151.992 204.637 152.422 204.381C152.865 204.122 153.371 203.99 153.884 204.001C154.233 203.983 154.581 204.042 154.903 204.175C155.226 204.308 155.515 204.511 155.75 204.769C156.232 205.368 156.473 206.125 156.428 206.893L156.42 207.277ZM153.9 204.889C153.695 204.879 153.489 204.913 153.298 204.989C153.107 205.064 152.934 205.179 152.79 205.327C152.489 205.678 152.313 206.119 152.29 206.581H155.374C155.382 206.128 155.236 205.686 154.96 205.327C154.828 205.18 154.665 205.065 154.484 204.989C154.302 204.913 154.105 204.879 153.908 204.889H153.9ZM91.4001 224.001H90.0321L88.5921 221.289C88.4653 221.035 88.2672 220.825 88.0221 220.683C87.7503 220.556 87.4519 220.496 87.1521 220.509H85.7601V224.001H84.5361V215.541H88.1361C88.9015 215.488 89.6607 215.709 90.2781 216.165C90.531 216.393 90.7287 216.676 90.8566 216.992C90.9844 217.308 91.0389 217.649 91.0161 217.989C91.0404 218.571 90.8456 219.142 90.4701 219.589C90.0619 220.028 89.5114 220.309 88.9161 220.381C89.1414 220.461 89.3486 220.585 89.5257 220.746C89.7028 220.906 89.8464 221.1 89.9481 221.317L91.4001 224.001ZM87.9921 219.513C88.4822 219.551 88.9708 219.422 89.3781 219.147C89.5353 219.005 89.6576 218.829 89.7357 218.632C89.8137 218.436 89.8454 218.224 89.8281 218.013C89.8463 217.804 89.8156 217.594 89.7386 217.399C89.6615 217.205 89.5401 217.03 89.3841 216.891C88.972 216.622 88.4825 216.498 87.9921 216.537H85.7481V219.513H87.9921ZM97.6921 221.277H93.5521C93.6401 222.517 94.2561 223.137 95.4001 223.137C96.0669 223.139 96.7129 222.905 97.2241 222.477L97.5961 223.329C97.2982 223.575 96.9561 223.762 96.5881 223.881C96.1939 224.014 95.7804 224.082 95.3641 224.081C94.9602 224.104 94.5559 224.044 94.1754 223.907C93.7949 223.769 93.4461 223.556 93.1501 223.281C92.8712 222.985 92.6555 222.636 92.5162 222.254C92.377 221.872 92.317 221.466 92.3401 221.061C92.3288 220.507 92.4501 219.958 92.6941 219.461C92.9165 219.012 93.2637 218.637 93.6941 218.381C94.1336 218.124 94.6351 217.992 95.1441 218.001C95.4926 217.983 95.8407 218.042 96.1633 218.175C96.486 218.308 96.7752 218.511 97.0101 218.769C97.4917 219.368 97.7334 220.125 97.6881 220.893L97.6921 221.277ZM95.1721 218.889C94.9667 218.879 94.7615 218.913 94.5702 218.989C94.3788 219.064 94.2057 219.179 94.0621 219.327C93.7608 219.678 93.5849 220.119 93.5621 220.581H96.6461C96.6536 220.128 96.5077 219.686 96.2321 219.327C96.099 219.179 95.9343 219.062 95.7501 218.986C95.5659 218.911 95.367 218.877 95.1681 218.889H95.1721ZM101.088 224.089C100.214 224.134 99.3519 223.87 98.6521 223.345L99.0241 222.469C99.624 222.934 100.365 223.181 101.124 223.169C101.437 223.187 101.749 223.118 102.024 222.969C102.122 222.912 102.202 222.831 102.257 222.733C102.312 222.634 102.339 222.523 102.336 222.411C102.34 222.318 102.324 222.226 102.288 222.141C102.251 222.055 102.196 221.98 102.126 221.919C101.91 221.765 101.662 221.663 101.4 221.619L100.428 221.403C99.9878 221.324 99.5795 221.12 99.2521 220.815C99.1198 220.678 99.0162 220.516 98.9475 220.339C98.8788 220.162 98.8464 219.973 98.8521 219.783C98.8474 219.533 98.9033 219.286 99.0152 219.063C99.127 218.839 99.2913 218.646 99.4941 218.501C99.9846 218.151 100.578 217.975 101.18 218.001C101.585 217.999 101.986 218.067 102.368 218.201C102.725 218.322 103.055 218.511 103.34 218.759L102.968 219.611C102.469 219.183 101.837 218.942 101.18 218.927C100.875 218.91 100.572 218.985 100.31 219.143C100.211 219.205 100.129 219.291 100.073 219.395C100.017 219.498 99.9895 219.614 99.9921 219.731C99.9889 219.821 100.005 219.911 100.04 219.995C100.074 220.079 100.126 220.155 100.192 220.217C100.374 220.364 100.591 220.461 100.822 220.499L101.822 220.727C102.286 220.803 102.718 221.009 103.07 221.321C103.204 221.46 103.309 221.624 103.377 221.805C103.446 221.985 103.478 222.178 103.47 222.371C103.477 222.617 103.422 222.861 103.31 223.08C103.198 223.299 103.032 223.486 102.828 223.625C102.31 223.959 101.699 224.12 101.084 224.085L101.088 224.089ZM109.824 221.281H105.684C105.772 222.521 106.388 223.141 107.532 223.141C108.199 223.143 108.845 222.909 109.356 222.481L109.728 223.333C109.43 223.579 109.088 223.766 108.72 223.885C108.326 224.018 107.912 224.086 107.496 224.085C107.092 224.108 106.688 224.048 106.307 223.911C105.927 223.773 105.578 223.56 105.282 223.285C105.003 222.989 104.788 222.64 104.648 222.258C104.509 221.876 104.449 221.47 104.472 221.065C104.461 220.511 104.582 219.962 104.826 219.465C105.048 219.016 105.396 218.641 105.826 218.385C106.265 218.126 106.767 217.994 107.276 218.001C107.625 217.983 107.973 218.042 108.295 218.175C108.618 218.308 108.907 218.511 109.142 218.769C109.624 219.368 109.865 220.125 109.82 220.893L109.824 221.281ZM107.3 218.889C107.095 218.879 106.889 218.913 106.698 218.989C106.507 219.064 106.334 219.179 106.19 219.327C105.889 219.678 105.713 220.119 105.69 220.581H108.774C108.782 220.128 108.636 219.686 108.36 219.327C108.227 219.179 108.063 219.063 107.88 218.987C107.696 218.911 107.498 218.878 107.3 218.889ZM114.716 219.021L113.984 219.093C113.517 219.1 113.071 219.289 112.742 219.621C112.483 219.938 112.348 220.339 112.364 220.749V224.001H111.152V218.145H112.328V219.165C112.504 218.812 112.777 218.518 113.115 218.316C113.454 218.114 113.842 218.013 114.236 218.025L114.636 218.001L114.716 219.021ZM120.056 218.157H121.268L118.724 224.001H117.632L115.112 218.157H116.384L118.208 222.633L120.056 218.157ZM124.5 218.001C124.816 217.975 125.133 218.014 125.434 218.115C125.734 218.216 126.01 218.377 126.246 218.589C126.663 219.087 126.868 219.729 126.816 220.377V224.001H125.648V223.029C125.511 223.356 125.273 223.631 124.97 223.815C124.652 224 124.288 224.093 123.92 224.085C123.555 224.089 123.193 224.009 122.864 223.851C122.558 223.707 122.298 223.48 122.114 223.197C121.935 222.918 121.841 222.592 121.844 222.261C121.824 221.898 121.942 221.54 122.174 221.261C122.474 220.976 122.856 220.794 123.266 220.739C123.957 220.619 124.659 220.566 125.36 220.581H125.636V220.233C125.668 219.885 125.567 219.538 125.354 219.261C125.23 219.15 125.084 219.067 124.926 219.015C124.768 218.964 124.602 218.945 124.436 218.961C123.728 218.974 123.038 219.186 122.444 219.573L122.084 218.721C122.432 218.489 122.815 218.313 123.218 218.201C123.633 218.072 124.065 218.005 124.5 218.001ZM124.14 223.185C124.342 223.191 124.543 223.155 124.729 223.077C124.915 222.999 125.083 222.883 125.22 222.735C125.506 222.419 125.657 222.003 125.64 221.577V221.265H125.42C124.939 221.256 124.457 221.284 123.98 221.349C123.719 221.374 123.469 221.472 123.26 221.631C123.185 221.705 123.127 221.794 123.09 221.892C123.053 221.991 123.037 222.096 123.044 222.201C123.042 222.333 123.068 222.463 123.121 222.584C123.173 222.705 123.252 222.813 123.35 222.901C123.565 223.094 123.847 223.196 124.136 223.185H124.14ZM131.24 223.149C131.421 223.149 131.601 223.137 131.78 223.113L131.72 224.037C131.514 224.069 131.305 224.085 131.096 224.085C130.79 224.109 130.482 224.073 130.19 223.977C129.898 223.881 129.628 223.728 129.396 223.527C129.2 223.309 129.049 223.054 128.953 222.776C128.857 222.499 128.818 222.205 128.838 221.913V219.081H127.7V218.145H128.84V216.381H130.052V218.145H131.66V219.081H130.052V221.865C130.052 222.721 130.448 223.149 131.24 223.149ZM132.7 224.001V218.145H133.912V224.001H132.7ZM132.62 215.529H134.012V216.789H132.62V215.529ZM138.152 224.085C137.622 224.096 137.099 223.968 136.634 223.713C136.2 223.467 135.849 223.097 135.626 222.651C135.382 222.153 135.26 221.605 135.272 221.051C135.259 220.492 135.381 219.939 135.626 219.437C135.849 218.99 136.2 218.621 136.634 218.375C137.103 218.13 137.624 218.003 138.152 218.003C138.681 218.003 139.201 218.13 139.67 218.375C140.104 218.621 140.455 218.99 140.678 219.437C140.924 219.939 141.045 220.492 141.032 221.051C141.044 221.605 140.922 222.153 140.678 222.651C140.455 223.097 140.104 223.467 139.67 223.713C139.206 223.968 138.682 224.096 138.152 224.085ZM138.152 223.125C138.384 223.139 138.616 223.098 138.83 223.007C139.043 222.915 139.233 222.775 139.382 222.597C139.696 222.144 139.846 221.598 139.808 221.049C139.845 220.5 139.692 219.956 139.376 219.507C139.22 219.338 139.03 219.204 138.82 219.112C138.609 219.02 138.382 218.973 138.152 218.973C137.922 218.973 137.695 219.02 137.484 219.112C137.274 219.204 137.084 219.338 136.928 219.507C136.612 219.956 136.459 220.5 136.496 221.049C136.458 221.598 136.608 222.144 136.922 222.597C137.072 222.775 137.261 222.915 137.474 223.007C137.688 223.098 137.92 223.139 138.152 223.125ZM145.532 218.001C146.932 218.001 147.632 218.789 147.632 220.365V224.001H146.42V220.425C146.452 220.038 146.348 219.652 146.126 219.333C146.009 219.21 145.866 219.115 145.707 219.054C145.548 218.994 145.377 218.97 145.208 218.985C144.991 218.975 144.775 219.011 144.572 219.089C144.37 219.168 144.186 219.287 144.032 219.441C143.88 219.605 143.763 219.798 143.687 220.008C143.61 220.218 143.577 220.441 143.588 220.665V224.001H142.376V218.145H143.564V219.081C143.746 218.741 144.024 218.462 144.364 218.281C144.724 218.091 145.125 217.995 145.532 218.001Z" fill="#3E5B6A"/>
<path d="M111 161H107C106.47 161 105.961 161.211 105.586 161.586C105.211 161.961 105 162.47 105 163V167C105 167.53 105.211 168.039 105.586 168.414C105.961 168.789 106.47 169 107 169H111C111.53 169 112.039 168.789 112.414 168.414C112.789 168.039 113 167.53 113 167V163C113 162.47 112.789 161.961 112.414 161.586C112.039 161.211 111.53 161 111 161ZM111 167H107V163H111V167ZM110 166H108V164H110V166Z" fill="#23A277"/>
<path d="M111 175H107C106.47 175 105.961 175.211 105.586 175.586C105.211 175.961 105 176.47 105 177V181C105 181.53 105.211 182.039 105.586 182.414C105.961 182.789 106.47 183 107 183H111C111.53 183 112.039 182.789 112.414 182.414C112.789 182.039 113 181.53 113 181V177C113 176.47 112.789 175.961 112.414 175.586C112.039 175.211 111.53 175 111 175ZM111 181H107V177H111V181ZM110 180H108V178H110V180Z" fill="#23A277"/>
<path d="M125 161H121C120.47 161 119.961 161.211 119.586 161.586C119.211 161.961 119 162.47 119 163V167C119 167.53 119.211 168.039 119.586 168.414C119.961 168.789 120.47 169 121 169H125C125.53 169 126.039 168.789 126.414 168.414C126.789 168.039 127 167.53 127 167V163C127 162.47 126.789 161.961 126.414 161.586C126.039 161.211 125.53 161 125 161ZM125 167H121V163H125V167ZM124 166H122V164H124V166Z" fill="#23A277"/>
<path d="M115 163H117V165H115V163Z" fill="#23A277"/>
<path d="M115 167H117V169H115V167Z" fill="#23A277"/>
<path d="M115 171H117V173H115V171Z" fill="#23A277"/>
<path d="M111 171H113V173H111V171Z" fill="#23A277"/>
<path d="M107 171H109V173H107V171Z" fill="#23A277"/>
<path d="M119 171H121V173H119V171Z" fill="#23A277"/>
<path d="M123 171H125V173H123V171Z" fill="#23A277"/>
<path d="M117 173H119V175H117V173Z" fill="#23A277"/>
<path d="M121 173H123V175H121V173Z" fill="#23A277"/>
<path d="M119 175H121V177H119V175Z" fill="#23A277"/>
<path d="M115 175H117V177H115V175Z" fill="#23A277"/>
<path d="M117 177H119V179H117V177Z" fill="#23A277"/>
<path d="M119 179H121V181H119V179Z" fill="#23A277"/>
<path d="M117 181H119V183H117V181Z" fill="#23A277"/>
<path d="M125 173H127V175H125V173Z" fill="#23A277"/>
<path d="M125 177H127V179H125V177Z" fill="#23A277"/>
<path d="M121 177H123V179H121V177Z" fill="#23A277"/>
<path d="M121 181H123V183H121V181Z" fill="#23A277"/>
<path d="M123 179H125V181H123V179Z" fill="#23A277"/>
<path d="M123 175H125V177H123V175Z" fill="#23A277"/>
<path d="M115 179H117V181H115V179Z" fill="#23A277"/>
<path d="M539.444 62.0005V48.6005H548.412V50.5385H541.838V54.2245H548.032V56.1435H541.838V60.0575H548.412V62.0005H539.444ZM559.644 48.6005H561.944V62.0005H560.1L552.915 52.6525V62.0005H550.635V48.6005H552.459L559.641 57.9295L559.644 48.6005ZM567.982 62.0005V50.6195H563.612V48.6005H574.8V50.6145H570.43V62.0005H567.982ZM587.7 62.0005H585.04L582.74 57.7255C582.567 57.3653 582.288 57.0668 581.94 56.8705C581.565 56.6931 581.154 56.6083 580.74 56.6235H578.888V62.0005H576.475V48.6005H582.4C583.64 48.5139 584.87 48.8744 585.867 49.6165C586.273 49.9853 586.59 50.4407 586.796 50.949C587.001 51.4573 587.09 52.0053 587.055 52.5525C587.09 53.4757 586.782 54.3793 586.19 55.0885C585.549 55.7883 584.687 56.2472 583.749 56.3885C584.124 56.503 584.47 56.6959 584.765 56.9545C585.06 57.2131 585.296 57.5315 585.459 57.8885L587.7 62.0005ZM582.061 54.7425C582.778 54.8003 583.494 54.6162 584.094 54.2195C584.318 54.02 584.494 53.7711 584.606 53.4925C584.718 53.2138 584.764 52.9129 584.74 52.6135C584.766 52.3139 584.721 52.0122 584.609 51.7331C584.497 51.454 584.32 51.2054 584.094 51.0075C583.488 50.6252 582.775 50.4498 582.061 50.5075H578.869V54.7445L582.061 54.7425ZM599.769 62.0005L598.42 58.8655H591.9L590.554 62.0005H588.084L594.145 48.6005H596.14L602.2 62.0005H599.769ZM592.7 56.9655H597.6L595.149 51.2655L592.7 56.9655ZM612.632 48.6005H614.932V62.0005H613.088L605.906 52.6525V62.0005H603.626V48.6005H605.45L612.632 57.9295V48.6005ZM623.9 62.1715C622.696 62.2 621.505 61.908 620.451 61.3255C619.475 60.7684 618.688 59.9328 618.19 58.9255C617.643 57.7944 617.372 56.5496 617.4 55.2935C617.371 54.0417 617.641 52.801 618.188 51.6745C618.687 50.6699 619.474 49.8365 620.449 49.2805C621.503 48.6986 622.694 48.407 623.898 48.4355C624.764 48.43 625.625 48.5714 626.444 48.8535C627.19 49.1016 627.876 49.5028 628.458 50.0315L627.641 51.8175C627.1 51.3742 626.492 51.0182 625.841 50.7625C625.233 50.5387 624.589 50.4263 623.941 50.4305C623.379 50.3978 622.818 50.4938 622.299 50.7111C621.781 50.9285 621.318 51.2614 620.948 51.6845C620.18 52.7252 619.806 54.0043 619.893 55.2945C619.805 56.5908 620.179 57.8764 620.948 58.9235C621.318 59.3466 621.781 59.6795 622.299 59.8969C622.818 60.1142 623.379 60.2102 623.941 60.1775C624.589 60.1814 625.233 60.0686 625.841 59.8445C626.492 59.5888 627.1 59.2329 627.641 58.7895L628.458 60.5755C627.876 61.1041 627.191 61.5053 626.445 61.7535C625.626 62.0355 624.766 62.1769 623.9 62.1715ZM630.7 62.0005V48.6005H639.668V50.5385H633.1V54.2245H639.294V56.1435H633.1V60.0575H639.674V62.0005H630.7Z" fill="#D1D1D1"/>
<path d="M483.001 179.006L472.001 195.006V177.006L483.001 179.006Z" fill="#E4F8E9"/>
<path d="M569.5 146H478.5C468.283 146 460 154.283 460 164.5C460 174.717 468.283 183 478.5 183H569.5C579.717 183 588 174.717 588 164.5C588 154.283 579.717 146 569.5 146Z" fill="#E4F8E9"/>
<path d="M481.064 160.54L477.632 165.1V169H476.084V165.1L472.664 160.54H474.404L476.852 163.864L479.312 160.54H481.064ZM483.116 169.1C482.567 169.112 482.024 168.984 481.538 168.728C481.09 168.484 480.724 168.112 480.488 167.66C480.231 167.159 480.104 166.603 480.116 166.04C480.103 165.48 480.231 164.925 480.488 164.426C480.726 163.977 481.091 163.607 481.538 163.364C482.024 163.108 482.567 162.98 483.116 162.992C483.665 162.98 484.208 163.108 484.694 163.364C485.14 163.606 485.504 163.976 485.738 164.426C485.989 164.925 486.113 165.478 486.1 166.036C486.113 166.598 485.987 167.154 485.734 167.656C485.502 168.108 485.14 168.48 484.694 168.724C484.209 168.982 483.665 169.111 483.116 169.1ZM483.1 167.932C483.311 167.945 483.521 167.909 483.715 167.825C483.909 167.742 484.081 167.614 484.216 167.452C484.5 167.037 484.635 166.538 484.6 166.036C484.634 165.536 484.499 165.04 484.216 164.626C484.084 164.464 483.916 164.336 483.724 164.251C483.533 164.167 483.325 164.129 483.116 164.14C482.906 164.128 482.696 164.166 482.503 164.251C482.31 164.335 482.14 164.464 482.006 164.626C481.72 165.038 481.582 165.536 481.616 166.036C481.581 166.538 481.716 167.037 482 167.452C482.133 167.613 482.302 167.74 482.493 167.823C482.684 167.907 482.892 167.944 483.1 167.932ZM492.724 163.132V169H491.26V168.1C491.086 168.411 490.828 168.666 490.516 168.838C490.194 169.014 489.831 169.104 489.464 169.1C488.021 169.1 487.3 168.291 487.3 166.672V163.132H488.8V166.684C488.774 167.012 488.863 167.339 489.052 167.608C489.153 167.714 489.277 167.797 489.414 167.848C489.551 167.9 489.698 167.921 489.844 167.908C490.031 167.916 490.217 167.882 490.389 167.811C490.562 167.739 490.717 167.631 490.844 167.494C491.107 167.19 491.242 166.796 491.222 166.394V163.132H492.724ZM498.148 164.232L497.272 164.316C496.28 164.42 495.784 164.924 495.784 165.828V169H494.284V163.132H495.712V164.164C495.879 163.808 496.147 163.508 496.482 163.303C496.818 163.099 497.207 162.997 497.6 163.012L498.056 162.976L498.148 164.232ZM505.132 167.964C505.317 167.964 505.501 167.952 505.684 167.928L505.616 169.048C505.376 169.072 505.156 169.084 504.956 169.084C504.297 169.139 503.643 168.935 503.132 168.514C502.923 168.286 502.763 168.018 502.662 167.725C502.561 167.433 502.521 167.123 502.544 166.814V164.26H501.416V163.132H502.544V161.38H504.044V163.132H505.592V164.26H504.044V166.792C504.044 167.576 504.408 167.968 505.136 167.968L505.132 167.964ZM506.564 169V163.132H508.064V169H506.564ZM506.48 160.408H508.136V161.884H506.48V160.408ZM516.58 162.988C516.857 162.967 517.135 163.01 517.393 163.113C517.651 163.216 517.882 163.376 518.068 163.582C518.439 164.113 518.616 164.755 518.568 165.4V169H517.068V165.46C517.095 165.118 517.016 164.777 516.84 164.482C516.751 164.375 516.637 164.29 516.508 164.237C516.379 164.184 516.239 164.163 516.1 164.176C515.923 164.167 515.747 164.199 515.584 164.27C515.422 164.341 515.278 164.448 515.164 164.584C514.922 164.913 514.803 165.317 514.828 165.724V169H513.328V165.46C513.355 165.119 513.277 164.778 513.106 164.482C513.018 164.375 512.904 164.29 512.775 164.237C512.647 164.184 512.507 164.163 512.368 164.176C512.193 164.168 512.018 164.201 511.858 164.271C511.698 164.342 511.556 164.449 511.444 164.584C511.202 164.913 511.083 165.317 511.108 165.724V169H509.608V163.132H511.072V163.96C511.238 163.65 511.493 163.397 511.804 163.234C512.135 163.066 512.501 162.981 512.872 162.988C513.246 162.952 513.622 163.04 513.941 163.239C514.26 163.438 514.504 163.736 514.636 164.088C514.816 163.748 515.092 163.466 515.428 163.278C515.781 163.081 516.18 162.981 516.584 162.988H516.58ZM525.236 166.336H521.236C521.245 166.787 521.42 167.219 521.728 167.548C522.061 167.832 522.491 167.976 522.928 167.948C523.576 167.949 524.204 167.727 524.708 167.32L525.14 168.352C524.834 168.594 524.487 168.777 524.114 168.892C523.714 169.028 523.295 169.098 522.872 169.1C522.458 169.122 522.043 169.06 521.653 168.92C521.263 168.779 520.905 168.561 520.6 168.28C520.315 167.986 520.094 167.635 519.95 167.251C519.807 166.867 519.744 166.458 519.766 166.048C519.755 165.494 519.878 164.944 520.126 164.448C520.353 163.998 520.705 163.623 521.14 163.368C521.59 163.11 522.101 162.979 522.62 162.988C522.977 162.971 523.333 163.031 523.664 163.166C523.994 163.301 524.291 163.506 524.534 163.768C525.029 164.371 525.279 165.138 525.234 165.916L525.236 166.336ZM522.656 164.044C522.477 164.037 522.299 164.067 522.132 164.133C521.966 164.199 521.815 164.3 521.69 164.428C521.424 164.736 521.266 165.122 521.24 165.528H523.952C523.966 165.127 523.838 164.735 523.592 164.418C523.473 164.291 523.327 164.192 523.166 164.127C523.004 164.062 522.83 164.034 522.656 164.044ZM529.712 169V163.132H531.212V169H529.712ZM529.628 160.408H531.284V161.884H529.628V160.408ZM534.92 169.1C534.435 169.102 533.952 169.035 533.486 168.9C533.084 168.789 532.707 168.602 532.376 168.348L532.8 167.308C533.423 167.764 534.177 168.004 534.948 167.992C535.22 168.009 535.492 167.951 535.734 167.824C535.818 167.776 535.888 167.706 535.936 167.622C535.983 167.537 536.007 167.441 536.004 167.344C536.008 167.266 535.993 167.188 535.961 167.117C535.929 167.046 535.88 166.984 535.818 166.936C535.615 166.807 535.389 166.718 535.152 166.672L534.192 166.456C533.74 166.382 533.318 166.178 532.98 165.868C532.846 165.728 532.742 165.562 532.673 165.381C532.605 165.199 532.573 165.006 532.58 164.812C532.575 164.469 532.682 164.134 532.886 163.858C533.106 163.57 533.401 163.348 533.738 163.216C534.14 163.058 534.568 162.98 535 162.988C535.41 162.987 535.817 163.052 536.206 163.18C536.577 163.299 536.924 163.482 537.232 163.72L536.812 164.74C536.29 164.331 535.651 164.099 534.988 164.08C534.72 164.065 534.454 164.128 534.22 164.26C534.134 164.312 534.063 164.385 534.015 164.473C533.966 164.561 533.942 164.66 533.944 164.76C533.942 164.836 533.956 164.911 533.986 164.98C534.016 165.049 534.061 165.111 534.118 165.16C534.281 165.285 534.473 165.368 534.676 165.4L535.676 165.628C536.153 165.704 536.599 165.914 536.96 166.234C537.098 166.378 537.205 166.549 537.275 166.736C537.345 166.922 537.377 167.121 537.368 167.32C537.376 167.575 537.319 167.827 537.204 168.054C537.089 168.282 536.918 168.476 536.708 168.62C536.178 168.966 535.552 169.134 534.92 169.1ZM545.7 164.236L544.824 164.32C543.832 164.424 543.336 164.928 543.336 165.832V169H541.836V163.132H543.26V164.164C543.426 163.808 543.694 163.509 544.029 163.305C544.364 163.1 544.752 162.998 545.144 163.012L545.6 162.976L545.7 164.236ZM551.46 166.336H547.46C547.469 166.787 547.644 167.219 547.952 167.548C548.285 167.832 548.715 167.976 549.152 167.948C549.798 167.949 550.425 167.729 550.928 167.324L551.36 168.352C551.054 168.594 550.707 168.777 550.334 168.892C549.933 169.025 549.514 169.092 549.092 169.092C548.678 169.115 548.264 169.055 547.873 168.916C547.483 168.776 547.124 168.56 546.818 168.28C546.533 167.986 546.312 167.635 546.168 167.251C546.025 166.867 545.962 166.458 545.984 166.048C545.973 165.494 546.096 164.944 546.344 164.448C546.571 163.998 546.923 163.623 547.358 163.368C547.808 163.108 548.32 162.976 548.84 162.984C549.197 162.967 549.553 163.027 549.884 163.162C550.214 163.297 550.511 163.502 550.754 163.764C551.249 164.367 551.499 165.134 551.454 165.912L551.46 166.336ZM548.88 164.044C548.701 164.037 548.523 164.067 548.356 164.133C548.19 164.199 548.039 164.3 547.914 164.428C547.648 164.736 547.49 165.122 547.464 165.528H550.176C550.19 165.127 550.062 164.735 549.816 164.418C549.697 164.29 549.55 164.191 549.388 164.126C549.225 164.061 549.051 164.033 548.876 164.044H548.88ZM555.2 162.988C555.531 162.961 555.863 163.001 556.178 163.104C556.494 163.207 556.785 163.371 557.036 163.588C557.254 163.841 557.419 164.135 557.522 164.452C557.625 164.769 557.663 165.104 557.636 165.436V169H556.208V168.1C556.077 168.406 555.852 168.663 555.566 168.832C555.259 169.014 554.908 169.106 554.552 169.1C554.182 169.105 553.816 169.023 553.484 168.86C553.177 168.712 552.916 168.484 552.728 168.2C552.545 167.923 552.449 167.597 552.452 167.264C552.431 166.895 552.549 166.531 552.782 166.244C553.076 165.957 553.451 165.769 553.856 165.704C554.532 165.576 555.22 165.52 555.908 165.536H556.208V165.26C556.236 164.951 556.144 164.643 555.95 164.4C555.832 164.302 555.695 164.228 555.547 164.182C555.4 164.137 555.245 164.121 555.092 164.136C554.76 164.14 554.43 164.194 554.114 164.298C553.765 164.411 553.43 164.562 553.114 164.748L552.694 163.716C553.064 163.49 553.464 163.316 553.882 163.2C554.309 163.067 554.753 162.996 555.2 162.988ZM554.852 168.016C555.034 168.023 555.216 167.991 555.384 167.922C555.553 167.853 555.705 167.749 555.83 167.616C556.088 167.333 556.224 166.96 556.208 166.578V166.326H555.992C555.575 166.319 555.158 166.343 554.744 166.398C554.512 166.419 554.291 166.507 554.108 166.65C554.043 166.714 553.992 166.791 553.959 166.876C553.926 166.96 553.911 167.051 553.916 167.142C553.912 167.26 553.934 167.377 553.98 167.486C554.025 167.595 554.094 167.692 554.18 167.772C554.364 167.938 554.605 168.026 554.852 168.016ZM564.824 160.54V169H563.336V168.052C563.163 168.377 562.898 168.644 562.574 168.82C562.226 169.01 561.836 169.106 561.44 169.1C560.962 169.108 560.493 168.974 560.09 168.716C559.685 168.45 559.364 168.073 559.166 167.63C558.938 167.123 558.825 166.572 558.836 166.016C558.823 165.465 558.936 164.918 559.166 164.416C559.365 163.984 559.684 163.618 560.084 163.36C560.491 163.108 560.962 162.979 561.44 162.988C561.832 162.981 562.22 163.071 562.568 163.252C562.889 163.421 563.152 163.682 563.324 164V160.54H564.824ZM561.836 167.932C562.047 167.944 562.257 167.905 562.45 167.82C562.643 167.734 562.813 167.604 562.946 167.44C563.23 167.031 563.367 166.537 563.336 166.04C563.369 165.543 563.232 165.049 562.946 164.64C562.814 164.478 562.645 164.35 562.454 164.266C562.263 164.181 562.055 164.143 561.846 164.154C561.636 164.143 561.425 164.18 561.232 164.263C561.038 164.347 560.866 164.474 560.73 164.634C560.44 165.034 560.298 165.522 560.33 166.014C560.3 166.518 560.441 167.017 560.73 167.43C560.861 167.596 561.03 167.727 561.222 167.814C561.415 167.901 561.625 167.941 561.836 167.93V167.932ZM570.488 163.144H571.964L568.436 171.16H566.924L567.992 168.772L565.544 163.144H567.128L568.784 167.284L570.488 163.144ZM572.936 166.456L572.468 160.528L574.316 160.54L573.848 166.456H572.936ZM572.552 167.344H574.232V169H572.552V167.344Z" fill="#23A277"/>
<path d="M293.001 179.006L282.001 195.006V177.006L293.001 179.006Z" fill="#E4F8E9"/>
<path d="M379.5 146H288.5C278.283 146 270 154.283 270 164.5C270 174.717 278.283 183 288.5 183H379.5C389.717 183 398 174.717 398 164.5C398 154.283 389.717 146 379.5 146Z" fill="#E4F8E9"/>
<path d="M291.064 160.54L287.632 165.1V169H286.084V165.1L282.664 160.54H284.404L286.852 163.864L289.312 160.54H291.064ZM293.116 169.1C292.567 169.112 292.024 168.984 291.538 168.728C291.09 168.484 290.724 168.112 290.488 167.66C290.231 167.159 290.104 166.603 290.116 166.04C290.103 165.48 290.231 164.925 290.488 164.426C290.726 163.977 291.091 163.607 291.538 163.364C292.024 163.108 292.567 162.98 293.116 162.992C293.665 162.98 294.208 163.108 294.694 163.364C295.14 163.606 295.504 163.976 295.738 164.426C295.989 164.925 296.113 165.478 296.1 166.036C296.113 166.598 295.987 167.154 295.734 167.656C295.502 168.108 295.14 168.48 294.694 168.724C294.209 168.982 293.665 169.111 293.116 169.1ZM293.1 167.932C293.311 167.945 293.521 167.909 293.715 167.825C293.909 167.742 294.081 167.614 294.216 167.452C294.5 167.037 294.635 166.538 294.6 166.036C294.634 165.536 294.499 165.04 294.216 164.626C294.084 164.464 293.916 164.336 293.724 164.251C293.533 164.167 293.325 164.129 293.116 164.14C292.906 164.128 292.696 164.166 292.503 164.251C292.31 164.335 292.14 164.464 292.006 164.626C291.72 165.038 291.582 165.536 291.616 166.036C291.581 166.538 291.716 167.037 292 167.452C292.133 167.613 292.302 167.74 292.493 167.823C292.684 167.907 292.892 167.944 293.1 167.932ZM302.724 163.132V169H301.26V168.1C301.086 168.411 300.828 168.666 300.516 168.838C300.194 169.014 299.831 169.104 299.464 169.1C298.021 169.1 297.3 168.291 297.3 166.672V163.132H298.8V166.684C298.774 167.012 298.863 167.339 299.052 167.608C299.153 167.714 299.277 167.797 299.414 167.848C299.551 167.9 299.698 167.921 299.844 167.908C300.031 167.916 300.217 167.882 300.389 167.811C300.562 167.739 300.717 167.631 300.844 167.494C301.107 167.19 301.242 166.796 301.222 166.394V163.132H302.724ZM308.148 164.232L307.272 164.316C306.28 164.42 305.784 164.924 305.784 165.828V169H304.284V163.132H305.712V164.164C305.879 163.808 306.147 163.508 306.482 163.303C306.818 163.099 307.207 162.997 307.6 163.012L308.056 162.976L308.148 164.232ZM315.132 167.964C315.317 167.964 315.501 167.952 315.684 167.928L315.616 169.048C315.376 169.072 315.156 169.084 314.956 169.084C314.297 169.139 313.643 168.935 313.132 168.514C312.923 168.286 312.763 168.018 312.662 167.725C312.561 167.433 312.521 167.123 312.544 166.814V164.26H311.416V163.132H312.544V161.38H314.044V163.132H315.592V164.26H314.044V166.792C314.044 167.576 314.408 167.968 315.136 167.968L315.132 167.964ZM316.564 169V163.132H318.064V169H316.564ZM316.48 160.408H318.136V161.884H316.48V160.408ZM326.58 162.988C326.857 162.967 327.135 163.01 327.393 163.113C327.651 163.216 327.882 163.376 328.068 163.582C328.439 164.113 328.616 164.755 328.568 165.4V169H327.068V165.46C327.095 165.118 327.016 164.777 326.84 164.482C326.751 164.375 326.637 164.29 326.508 164.237C326.379 164.184 326.239 164.163 326.1 164.176C325.923 164.167 325.747 164.199 325.584 164.27C325.422 164.341 325.278 164.448 325.164 164.584C324.922 164.913 324.803 165.317 324.828 165.724V169H323.328V165.46C323.355 165.119 323.277 164.778 323.106 164.482C323.018 164.375 322.904 164.29 322.775 164.237C322.647 164.184 322.507 164.163 322.368 164.176C322.193 164.168 322.018 164.201 321.858 164.271C321.698 164.342 321.556 164.449 321.444 164.584C321.202 164.913 321.083 165.317 321.108 165.724V169H319.608V163.132H321.072V163.96C321.238 163.65 321.493 163.397 321.804 163.234C322.135 163.066 322.501 162.981 322.872 162.988C323.246 162.952 323.622 163.04 323.941 163.239C324.26 163.438 324.504 163.736 324.636 164.088C324.816 163.748 325.092 163.466 325.428 163.278C325.781 163.081 326.18 162.981 326.584 162.988H326.58ZM335.236 166.336H331.236C331.245 166.787 331.42 167.219 331.728 167.548C332.061 167.832 332.491 167.976 332.928 167.948C333.576 167.949 334.204 167.727 334.708 167.32L335.14 168.352C334.834 168.594 334.487 168.777 334.114 168.892C333.714 169.028 333.295 169.098 332.872 169.1C332.458 169.122 332.043 169.06 331.653 168.92C331.263 168.779 330.905 168.561 330.6 168.28C330.315 167.986 330.094 167.635 329.95 167.251C329.807 166.867 329.744 166.458 329.766 166.048C329.755 165.494 329.878 164.944 330.126 164.448C330.353 163.998 330.705 163.623 331.14 163.368C331.59 163.11 332.101 162.979 332.62 162.988C332.977 162.971 333.333 163.031 333.664 163.166C333.994 163.301 334.291 163.506 334.534 163.768C335.029 164.371 335.279 165.138 335.234 165.916L335.236 166.336ZM332.656 164.044C332.477 164.037 332.299 164.067 332.132 164.133C331.966 164.199 331.815 164.3 331.69 164.428C331.424 164.736 331.266 165.122 331.24 165.528H333.952C333.966 165.127 333.838 164.735 333.592 164.418C333.473 164.291 333.327 164.192 333.166 164.127C333.004 164.062 332.83 164.034 332.656 164.044ZM339.712 169V163.132H341.212V169H339.712ZM339.628 160.408H341.284V161.884H339.628V160.408ZM344.92 169.1C344.435 169.102 343.952 169.035 343.486 168.9C343.084 168.789 342.707 168.602 342.376 168.348L342.8 167.308C343.423 167.764 344.177 168.004 344.948 167.992C345.22 168.009 345.492 167.951 345.734 167.824C345.818 167.776 345.888 167.706 345.936 167.622C345.983 167.537 346.007 167.441 346.004 167.344C346.008 167.266 345.993 167.188 345.961 167.117C345.929 167.046 345.88 166.984 345.818 166.936C345.615 166.807 345.389 166.718 345.152 166.672L344.192 166.456C343.74 166.382 343.318 166.178 342.98 165.868C342.846 165.728 342.742 165.562 342.673 165.381C342.605 165.199 342.573 165.006 342.58 164.812C342.575 164.469 342.682 164.134 342.886 163.858C343.106 163.57 343.401 163.348 343.738 163.216C344.14 163.058 344.568 162.98 345 162.988C345.41 162.987 345.817 163.052 346.206 163.18C346.577 163.299 346.924 163.482 347.232 163.72L346.812 164.74C346.29 164.331 345.651 164.099 344.988 164.08C344.72 164.065 344.454 164.128 344.22 164.26C344.134 164.312 344.063 164.385 344.015 164.473C343.966 164.561 343.942 164.66 343.944 164.76C343.942 164.836 343.956 164.911 343.986 164.98C344.016 165.049 344.061 165.111 344.118 165.16C344.281 165.285 344.473 165.368 344.676 165.4L345.676 165.628C346.153 165.704 346.599 165.914 346.96 166.234C347.098 166.378 347.205 166.549 347.275 166.736C347.345 166.922 347.377 167.121 347.368 167.32C347.376 167.575 347.319 167.827 347.204 168.054C347.089 168.282 346.918 168.476 346.708 168.62C346.178 168.966 345.552 169.134 344.92 169.1ZM355.7 164.236L354.824 164.32C353.832 164.424 353.336 164.928 353.336 165.832V169H351.836V163.132H353.26V164.164C353.426 163.808 353.694 163.509 354.029 163.305C354.364 163.1 354.752 162.998 355.144 163.012L355.6 162.976L355.7 164.236ZM361.46 166.336H357.46C357.469 166.787 357.644 167.219 357.952 167.548C358.285 167.832 358.715 167.976 359.152 167.948C359.798 167.949 360.425 167.729 360.928 167.324L361.36 168.352C361.054 168.594 360.707 168.777 360.334 168.892C359.933 169.025 359.514 169.092 359.092 169.092C358.678 169.115 358.264 169.055 357.873 168.916C357.483 168.776 357.124 168.56 356.818 168.28C356.533 167.986 356.312 167.635 356.168 167.251C356.025 166.867 355.962 166.458 355.984 166.048C355.973 165.494 356.096 164.944 356.344 164.448C356.571 163.998 356.923 163.623 357.358 163.368C357.808 163.108 358.32 162.976 358.84 162.984C359.197 162.967 359.553 163.027 359.884 163.162C360.214 163.297 360.511 163.502 360.754 163.764C361.249 164.367 361.499 165.134 361.454 165.912L361.46 166.336ZM358.88 164.044C358.701 164.037 358.523 164.067 358.356 164.133C358.19 164.199 358.039 164.3 357.914 164.428C357.648 164.736 357.49 165.122 357.464 165.528H360.176C360.19 165.127 360.062 164.735 359.816 164.418C359.697 164.29 359.55 164.191 359.388 164.126C359.225 164.061 359.051 164.033 358.876 164.044H358.88ZM365.2 162.988C365.531 162.961 365.863 163.001 366.178 163.104C366.494 163.207 366.785 163.371 367.036 163.588C367.254 163.841 367.419 164.135 367.522 164.452C367.625 164.769 367.663 165.104 367.636 165.436V169H366.208V168.1C366.077 168.406 365.852 168.663 365.566 168.832C365.259 169.014 364.908 169.106 364.552 169.1C364.182 169.105 363.816 169.023 363.484 168.86C363.177 168.712 362.916 168.484 362.728 168.2C362.545 167.923 362.449 167.597 362.452 167.264C362.431 166.895 362.549 166.531 362.782 166.244C363.076 165.957 363.451 165.769 363.856 165.704C364.532 165.576 365.22 165.52 365.908 165.536H366.208V165.26C366.236 164.951 366.144 164.643 365.95 164.4C365.832 164.302 365.695 164.228 365.547 164.182C365.4 164.137 365.245 164.121 365.092 164.136C364.76 164.14 364.43 164.194 364.114 164.298C363.765 164.411 363.43 164.562 363.114 164.748L362.694 163.716C363.064 163.49 363.464 163.316 363.882 163.2C364.309 163.067 364.753 162.996 365.2 162.988ZM364.852 168.016C365.034 168.023 365.216 167.991 365.384 167.922C365.553 167.853 365.705 167.749 365.83 167.616C366.088 167.333 366.224 166.96 366.208 166.578V166.326H365.992C365.575 166.319 365.158 166.343 364.744 166.398C364.512 166.419 364.291 166.507 364.108 166.65C364.043 166.714 363.992 166.791 363.959 166.876C363.926 166.96 363.911 167.051 363.916 167.142C363.912 167.26 363.934 167.377 363.98 167.486C364.025 167.595 364.094 167.692 364.18 167.772C364.364 167.938 364.605 168.026 364.852 168.016ZM374.824 160.54V169H373.336V168.052C373.163 168.377 372.898 168.644 372.574 168.82C372.226 169.01 371.836 169.106 371.44 169.1C370.962 169.108 370.493 168.974 370.09 168.716C369.685 168.45 369.364 168.073 369.166 167.63C368.938 167.123 368.825 166.572 368.836 166.016C368.823 165.465 368.936 164.918 369.166 164.416C369.365 163.984 369.684 163.618 370.084 163.36C370.491 163.108 370.962 162.979 371.44 162.988C371.832 162.981 372.22 163.071 372.568 163.252C372.889 163.421 373.152 163.682 373.324 164V160.54H374.824ZM371.836 167.932C372.047 167.944 372.257 167.905 372.45 167.82C372.643 167.734 372.813 167.604 372.946 167.44C373.23 167.031 373.367 166.537 373.336 166.04C373.369 165.543 373.232 165.049 372.946 164.64C372.814 164.478 372.645 164.35 372.454 164.266C372.263 164.181 372.055 164.143 371.846 164.154C371.636 164.143 371.425 164.18 371.232 164.263C371.038 164.347 370.866 164.474 370.73 164.634C370.44 165.034 370.298 165.522 370.33 166.014C370.3 166.518 370.441 167.017 370.73 167.43C370.861 167.596 371.03 167.727 371.222 167.814C371.415 167.901 371.625 167.941 371.836 167.93V167.932ZM380.488 163.144H381.964L378.436 171.16H376.924L377.992 168.772L375.544 163.144H377.128L378.784 167.284L380.488 163.144ZM382.936 166.456L382.468 160.528L384.316 160.54L383.848 166.456H382.936ZM382.552 167.344H384.232V169H382.552V167.344Z" fill="#23A277"/>
<path d="M366 349V302H376V349H366ZM196 349V302H206V349H196ZM26 349V302H36V349H26ZM12 302V286H390V302H12Z" fill="#DEDEDE"/>
<path d="M237 373C260.196 373 279 369.194 279 364.5C279 359.806 260.196 356 237 356C213.804 356 195 359.806 195 364.5C195 369.194 213.804 373 237 373Z" fill="#EBEFEC"/>
<path d="M49 373C72.196 373 91 369.194 91 364.5C91 359.806 72.196 356 49 356C25.804 356 7 359.806 7 364.5C7 369.194 25.804 373 49 373Z" fill="#EBEFEC"/>
<path d="M429 373C452.196 373 471 369.194 471 364.5C471 359.806 452.196 356 429 356C405.804 356 387 359.806 387 364.5C387 369.194 405.804 373 429 373Z" fill="#EBEFEC"/>
<path d="M12.1585 221.297C11.7778 221.744 11.4953 222.266 11.3293 222.83C11.1632 223.393 11.1174 223.985 11.1947 224.567C11.272 225.15 11.4707 225.709 11.778 226.21C12.0853 226.71 12.4943 227.14 12.9785 227.473L33.4445 241.524L42.4565 247.532C42.7322 247.724 43.0441 247.858 43.3732 247.925C43.7022 247.993 44.0417 247.993 44.3708 247.926C44.6999 247.858 45.0117 247.724 45.2875 247.532C45.5633 247.34 45.7972 247.094 45.975 246.809C46.1527 246.524 46.2707 246.206 46.3216 245.874C46.3726 245.542 46.3555 245.203 46.2713 244.878C46.1872 244.552 46.0378 244.248 45.8322 243.982C45.6266 243.716 45.3692 243.495 45.0755 243.332L36.3465 238.264L21.1134 223.756L30.9065 213.238L23.6524 207.797L12.1585 221.297Z" fill="#FFB8B8"/>
<path d="M60.2845 353.596H65.2905L68.2635 312.248L55.5635 311.885L60.2845 353.596Z" fill="#FFB8B8"/>
<path d="M59.9214 367.019C61.2564 367.628 62.3745 362.692 63.5005 363.799C66.6495 366.894 71.4724 367.568 75.6764 366.217L74.2054 366.201C74.613 366.07 74.9668 365.81 75.2132 365.46C75.4597 365.11 75.5854 364.689 75.5713 364.261C75.5571 363.833 75.4039 363.422 75.1349 363.089C74.8659 362.756 74.4957 362.519 74.0804 362.416L70.7314 361.579L65.4724 352.33L60.1034 351.967C58.9066 353.493 58.0714 355.27 57.6606 357.165C57.2497 359.061 57.2739 361.024 57.7314 362.909C58.2184 364.898 58.9704 366.585 59.9214 367.019Z" fill="#2F2E41"/>
<path d="M26.9515 353.6H31.9576L34.9305 312.252L21.8735 309.713L26.9515 353.6Z" fill="#FFB8B8"/>
<path d="M26.5885 367.019C27.9235 367.628 29.0415 362.692 30.1675 363.799C33.3165 366.899 38.1395 367.568 42.3435 366.217L40.8725 366.201C41.2801 366.071 41.6339 365.81 41.8804 365.46C42.1268 365.11 42.2525 364.69 42.2384 364.262C42.2243 363.834 42.0711 363.422 41.802 363.089C41.533 362.756 41.1628 362.52 40.7475 362.417L37.3985 361.579L32.1396 352.331L26.4076 351.605L26.2626 351.842C25.1545 353.628 24.44 355.63 24.1669 357.714C23.8937 359.797 24.0682 361.915 24.6786 363.926C25.1556 365.453 25.8045 366.661 26.5885 367.019Z" fill="#2F2E41"/>
<path d="M21.2744 208.73C25.8744 209.371 29.0654 211.891 30.3634 216.92L38.8254 201.297C39.3425 200.273 39.4612 199.094 39.1584 197.988C38.8557 196.883 38.153 195.929 37.1867 195.311C36.2204 194.694 35.0594 194.458 33.9287 194.648C32.798 194.839 31.7783 195.442 31.0674 196.342L21.2744 208.73Z" fill="#3E5B6A"/>
<path d="M12.4075 307.901C32.9825 317.001 54.0395 318.125 75.5175 312.253C67.6745 281.834 58.4175 254.328 58.4705 231.733L37.4335 229.92L34.1945 235.055C26.5099 247.238 21.2055 260.768 18.5625 274.928L12.4075 307.901Z" fill="#3E5B6A"/>
<path d="M46.8644 184.944C52.8738 184.944 57.7454 180.072 57.7454 174.063C57.7454 168.053 52.8738 163.182 46.8644 163.182C40.855 163.182 35.9834 168.053 35.9834 174.063C35.9834 180.072 40.855 184.944 46.8644 184.944Z" fill="#FFB8B8"/>
<path d="M34.8955 193.286L48.3155 194.011L50.4915 182.042L39.6105 180.229L34.8955 193.286Z" fill="#A0616A"/>
<path d="M36.3454 231.731L51.0455 232.145L58.4684 233.182C62.1124 221.146 65.1795 209.138 57.7435 199.088L49.0434 190.388L35.9864 190.025L35.8135 190.125C33.7399 191.314 32.1329 193.173 31.2573 195.396C30.3817 197.62 30.2897 200.075 30.9964 202.358C34.2334 212.881 36.3144 222.825 36.3454 231.731Z" fill="#3E5B6A"/>
<path d="M44.3254 211.421C48.6314 209.67 52.6524 210.256 56.2944 213.96L55.7944 196.198C55.7331 195.05 55.2467 193.966 54.4299 193.157C53.613 192.348 52.5244 191.873 51.376 191.823C50.2276 191.773 49.1017 192.152 48.2178 192.887C47.3338 193.622 46.7552 194.659 46.5945 195.798L44.3254 211.421Z" fill="#3E5B6A"/>
<path d="M58.8336 265.463L59.7456 277.927C59.7976 278.65 60.1304 279.324 60.6729 279.805C61.2153 280.286 61.9244 280.535 62.6485 280.5C63.3726 280.465 64.0543 280.148 64.5479 279.617C65.0414 279.086 65.3076 278.383 65.2896 277.659L64.9996 265.459L55.9316 231.002L55.5686 209.965L45.4126 209.602L46.1376 233.902L58.8336 265.463Z" fill="#FFB8B8"/>
<path d="M49.8749 181.998C49.9202 181.992 49.9631 181.974 49.9993 181.946C50.0355 181.918 50.0637 181.881 50.0811 181.839C50.0985 181.796 50.1044 181.75 50.0983 181.705C50.0922 181.659 50.0743 181.616 50.0464 181.58L47.0405 177.638C47.0203 177.609 46.9944 177.584 46.9644 177.565C46.9344 177.547 46.9009 177.534 46.8659 177.529C46.8309 177.523 46.7951 177.525 46.7607 177.533C46.7264 177.542 46.6942 177.558 46.666 177.579C46.6379 177.601 46.6144 177.628 46.597 177.659C46.5796 177.69 46.5686 177.724 46.5648 177.759C46.5609 177.794 46.5642 177.83 46.5745 177.864C46.5848 177.898 46.6019 177.929 46.6247 177.956L49.6312 181.895C49.6593 181.932 49.6968 181.961 49.7397 181.978C49.7827 181.996 49.8295 182.002 49.8754 181.995L49.8749 181.998Z" fill="#D8EEDD"/>
<path d="M23.8325 222.483H57.2015C49.4175 201.87 46.9075 182.694 57.2015 166.264C57.0245 161.329 50.6955 157.051 45.7805 157.524C39.9805 158.082 32.1745 162.348 31.0875 168.078L23.8325 222.483Z" fill="#2F2E41"/>
<path d="M238.216 237.223L257.891 239.016L282.273 222.848C287.857 222.984 292.958 215.514 290.671 213.31C288.104 210.837 277.137 217.794 277.137 217.794L252.555 228.699L240.522 223.477L238.216 237.223Z" fill="#A0616A"/>
<path d="M240.031 343.459L238.388 356.6L247.915 357.257L248.9 343.457L240.031 343.459Z" fill="#A0616A"/>
<path d="M241.345 354.629C240.493 353.728 239.707 352.767 238.994 351.754C237.629 349.865 236.417 359.554 236.417 359.554C236.417 359.554 235.103 363.496 235.431 365.468C235.759 367.44 243.316 367.439 244.631 367.111C245.946 366.783 252.516 367.111 252.516 367.111H262.372C270.914 363.169 262.372 360.541 262.372 360.541C259.744 360.212 250.872 351.999 250.872 351.999L248.901 348.385C247.587 348.057 246.273 352.985 246.273 352.985L241.345 354.629Z" fill="#2F2E41"/>
<path d="M215.391 343.623L213.748 356.764L223.275 357.421L224.261 343.621L215.391 343.623Z" fill="#A0616A"/>
<path d="M216.705 354.794C215.853 353.893 215.067 352.933 214.354 351.919C212.989 350.03 211.777 359.719 211.777 359.719C211.777 359.719 210.463 363.333 210.792 365.304C211.121 367.275 218.677 367.275 219.992 366.947C221.307 366.619 227.877 367.276 227.877 367.276H237.733C246.275 363.334 237.733 360.705 237.733 360.705C235.105 360.376 226.233 352.163 226.233 352.163L224.262 348.549C222.948 348.22 221.634 353.149 221.634 353.149L216.705 354.794Z" fill="#2F2E41"/>
<path d="M226.233 258.861C224.919 260.504 225.576 266.089 225.576 266.089C225.576 266.089 223.276 284.158 224.262 285.801C225.248 287.444 223.605 288.758 222.619 291.057C221.759 293.631 221.1 296.267 220.648 298.942C215.063 303.542 215.392 324.567 215.392 324.567L213.421 343.293C214.078 345.264 223.277 345.593 224.591 345.264C225.905 344.935 229.847 315.364 229.847 315.364L238.717 298.609C238.717 298.609 238.06 343.289 238.06 345.26C238.06 347.231 246.93 346.246 248.901 346.246C250.872 346.246 250.872 313.393 250.872 313.393L252.843 304.851L263.356 265.751V261.151L261.713 258.851C261.713 258.851 227.547 257.219 226.233 258.861Z" fill="#3E5B6A"/>
<path d="M240.687 184.286C246.311 184.286 250.871 179.726 250.871 174.102C250.871 168.478 246.311 163.918 240.687 163.918C235.062 163.918 230.503 168.478 230.503 174.102C230.503 179.726 235.062 184.286 240.687 184.286Z" fill="#A0616A"/>
<path d="M245.78 178.865C243.716 183.465 244.938 189.883 249.065 196.934L232.31 189.05L234.938 186.75L234.281 180.179L245.78 178.865Z" fill="#A0616A"/>
<path d="M245.78 189.381C247.904 190.837 249.42 193.022 250.04 195.521C251.434 200.036 252.274 204.703 252.54 209.421L253.34 223.546L263.196 260.998C254.654 268.226 249.726 266.583 238.228 260.669C226.73 254.755 225.415 262.64 225.415 262.64C225.415 262.64 224.429 262.311 225.415 261.326C226.401 260.341 225.415 261.326 224.429 260.34C223.443 259.354 224.429 260.34 224.758 259.354C225.087 258.368 224.758 259.025 224.429 258.697C224.1 258.369 225.743 255.412 225.743 255.412L223.115 230.772L219.83 195.948C223.772 191.02 234.942 186.748 234.942 186.748L245.126 193.975C248.411 195.289 245.783 190.033 245.783 190.033L245.78 189.381Z" fill="#EBEFEC"/>
<path d="M214.406 216.811L213.092 236.523L229.842 260.505C229.842 266.09 232.799 267.405 232.799 267.405C233.918 265.617 234.907 263.751 235.756 261.82C236.211 260.739 236.36 259.555 236.186 258.395C236.012 257.236 235.522 256.147 234.77 255.249L223.27 230.938L228.198 218.782L214.406 216.811Z" fill="#A0616A"/>
<path d="M219.991 196.115C214.406 198.086 213.42 219.441 213.42 219.441C219.991 215.827 227.875 221.741 227.875 221.741C227.875 221.741 229.518 216.156 231.489 208.928C232.084 206.895 232.155 204.744 231.696 202.677C231.236 200.609 230.261 198.691 228.861 197.101C228.861 197.101 225.576 194.144 219.991 196.115Z" fill="#EBEFEC"/>
<path d="M282.462 219.283C282.232 219.119 282.077 218.871 282.031 218.593C281.984 218.315 282.05 218.03 282.214 217.8L291.477 204.819C291.64 204.59 291.889 204.435 292.167 204.388C292.445 204.342 292.73 204.408 292.959 204.572L282.462 219.283Z" fill="#D0CDE1"/>
<path d="M282.841 220.58L282.305 220.198C282.213 220.132 282.135 220.049 282.075 219.953C282.015 219.858 281.975 219.751 281.956 219.64C281.938 219.528 281.941 219.414 281.967 219.304C281.992 219.194 282.039 219.09 282.105 218.998L292.651 204.218C292.763 204.062 292.933 203.956 293.122 203.924C293.312 203.893 293.507 203.937 293.664 204.049L294.308 204.509L282.841 220.58Z" fill="#2F2E41"/>
<path d="M231.325 177.223C232.625 176.186 234.39 178.071 234.39 178.071L235.427 168.736C235.427 168.736 241.91 169.514 246.058 168.477C250.206 167.44 250.858 172.237 250.858 172.237C251.072 170.3 251.115 168.348 250.988 166.403C250.729 164.069 247.358 161.735 241.394 160.18C235.43 158.625 232.318 165.366 232.318 165.366C228.167 167.44 230.033 178.266 231.325 177.223Z" fill="#2F2E41"/>
<path d="M420.75 224.322C420.75 224.322 419.033 235.116 426.15 234.135C426.15 234.135 454.362 227.757 455.834 229.229C457.306 230.701 466.457 231.202 465.979 224.996C465.5 218.77 456.324 222.36 456.324 222.36C456.324 222.36 442.095 224.323 439.152 222.851C436.209 221.379 427.867 221.87 427.867 221.87L420.75 224.322Z" fill="#F3AEAE"/>
<path d="M442.279 259.521L438.367 296.637C438.367 296.637 437.14 311.357 433.461 314.546C433.461 314.546 433.461 319.206 432.234 320.678L430.517 340.059C430.517 340.059 432.97 347.173 432.725 348.4C432.48 349.627 433.706 353.551 433.461 354.041C433.216 354.531 421.686 354.041 421.686 354.041L424.139 314.541L431.739 259.589L442.279 259.521Z" fill="#3E5B6A"/>
<path d="M420.786 352.038C420.786 352.038 415.641 365.012 418.325 366.578C421.009 368.144 449.194 367.025 449.194 367.025C449.194 367.025 453.894 364.117 448.523 362.104C448.523 362.104 444.049 361.88 441.141 360.091C438.895 358.578 436.798 356.856 434.878 354.947C434.878 354.947 434.654 350.026 432.865 351.147C432.33 351.499 431.874 351.96 431.527 352.5C431.181 353.039 430.951 353.645 430.852 354.279L420.786 352.038Z" fill="#2F2E41"/>
<path d="M412.853 350.278C412.853 350.278 407.211 364.507 410.153 366.224C413.095 367.941 444.007 366.715 444.007 366.715C444.007 366.715 449.159 363.526 443.271 361.315C443.271 361.315 438.365 361.07 435.171 359.107C432.708 357.447 430.408 355.558 428.302 353.464C428.302 353.464 428.057 348.064 426.094 349.294C425.507 349.68 425.007 350.186 424.627 350.778C424.247 351.369 423.994 352.034 423.886 352.729L412.853 350.278Z" fill="#2F2E41"/>
<path d="M435.668 259.018C435.668 259.018 432.968 284.286 431.743 289.683C430.972 293.237 430.48 296.846 430.271 300.477C430.271 300.477 430.026 308.327 427.818 310.535C427.172 311.174 426.665 311.94 426.327 312.784C425.989 313.628 425.829 314.532 425.855 315.441C425.855 315.441 423.647 340.218 424.874 343.162C426.101 346.106 427.766 349.93 426.539 351.893C425.312 353.856 411.381 352.484 411.381 351.012C411.381 349.54 411.381 348.312 410.645 347.577C409.909 346.842 410.645 342.177 410.645 342.177C410.645 342.177 407.701 320.343 410.4 313.965C413.099 307.587 414.325 290.165 414.325 290.165C414.325 290.165 412.362 270.294 409.909 267.105C407.456 263.916 410.4 252.631 410.4 252.631L435.668 259.018Z" fill="#3E5B6A"/>
<path d="M428.766 180.55C429.135 181.162 429.693 181.637 430.355 181.904C433.955 183.888 436.972 186.765 439.942 189.604C439.201 187.093 439.359 184.401 440.389 181.993C440.866 181.23 441.066 180.325 440.955 179.431C440.705 178.818 440.27 178.298 439.711 177.943C438.499 177.006 437.232 176.142 435.917 175.355C434.998 174.805 433.11 173.342 432.056 173.502C432.106 174.88 431.865 176.253 431.348 177.531C431.195 177.85 428.866 180.799 428.766 180.55Z" fill="#FFB8B8"/>
<path d="M441.31 183.706C446.865 183.706 451.368 179.203 451.368 173.648C451.368 168.093 446.865 163.59 441.31 163.59C435.755 163.59 431.252 168.093 431.252 173.648C431.252 179.203 435.755 183.706 441.31 183.706Z" fill="#FFB8B8"/>
<path d="M441.801 197.443C441.801 197.443 443.518 188.857 438.612 185.913C433.706 182.969 428.063 179.535 428.063 179.535C428.063 179.535 426.346 179.29 425.61 182.97C425.61 182.97 411.627 185.67 410.155 198.916C408.683 212.162 411.136 231.544 411.136 231.544C411.136 231.544 408.928 248.471 406.23 257.544C406.23 257.544 404.022 259.507 413.83 256.563C423.638 253.619 440.819 264.909 440.819 264.909C440.819 264.909 442.536 263.192 442.536 261.965C442.536 260.738 446.216 223.45 446.952 220.015C447.688 216.58 444.008 197.934 441.801 197.443Z" fill="#2BC783"/>
<path d="M438.938 174.683C439.543 174.348 440.22 174.168 440.911 174.158C441.603 174.147 442.278 173.946 442.862 173.577C443.812 172.848 443.882 171.438 444.577 170.462C445.583 169.05 447.591 168.88 449.323 168.95C450.378 169.111 451.457 168.948 452.417 168.483C453.271 167.791 453.852 166.82 454.057 165.742C454.422 164.507 454.657 162.997 453.757 162.081C453.128 161.445 452.136 161.319 451.438 160.761C448.13 159.722 444.771 158.852 441.374 158.154C439.04 157.61 436.588 157.941 434.481 159.084C432.374 160.226 430.759 162.101 429.941 164.354C428.858 167.332 427.93 170.13 428.026 170.734C428.484 173.626 431.042 175.926 431.219 178.849C431.387 178.041 431.753 177.288 432.284 176.657C432.814 176.026 433.494 175.536 434.26 175.233C434.452 175.139 434.67 175.112 434.879 175.158C435.133 175.239 435.279 175.493 435.442 175.706C435.862 176.265 437.182 177.112 437.931 176.716C438.598 176.363 438.098 175.249 438.938 174.678V174.683Z" fill="#3F3D56"/>
<path d="M454.355 221.878C454.244 221.989 454.18 222.139 454.178 222.295C454.176 222.452 454.235 222.604 454.343 222.717L458.112 226.617C458.167 226.674 458.232 226.719 458.305 226.751C458.377 226.782 458.456 226.798 458.534 226.799C458.613 226.8 458.692 226.785 458.765 226.755C458.838 226.725 458.904 226.681 458.96 226.625L470.46 215.173C470.522 215.11 470.569 215.034 470.598 214.95C470.626 214.867 470.636 214.778 470.627 214.69C470.617 214.602 470.588 214.517 470.542 214.442C470.496 214.366 470.434 214.302 470.36 214.253L465.832 211.308C465.719 211.234 465.584 211.201 465.449 211.214C465.314 211.227 465.188 211.286 465.092 211.381L454.355 221.878Z" fill="#3F3D56"/>
<path d="M470.542 214.429C470.519 214.465 470.493 214.498 470.463 214.529L458.987 226.192C458.874 226.303 458.72 226.365 458.561 226.363C458.402 226.362 458.251 226.297 458.139 226.184L454.289 222.121C454.263 222.093 454.24 222.064 454.219 222.032C454.155 222.142 454.132 222.271 454.155 222.397C454.177 222.522 454.244 222.635 454.343 222.716L458.112 226.616C458.167 226.673 458.233 226.718 458.305 226.749C458.378 226.78 458.455 226.797 458.534 226.797C458.613 226.798 458.692 226.783 458.765 226.753C458.838 226.724 458.904 226.679 458.96 226.624L470.46 215.172C470.556 215.075 470.616 214.948 470.631 214.813C470.645 214.677 470.613 214.541 470.539 214.426L470.542 214.429Z" fill="#6C63FF"/>
<path d="M469.476 214.571L469.008 214.271C469.058 214.359 469.076 214.461 469.06 214.561C469.044 214.66 468.995 214.752 468.92 214.82C468.846 214.888 468.75 214.928 468.65 214.935C468.549 214.942 468.449 214.914 468.366 214.857L465.337 212.775C465.268 212.728 465.214 212.662 465.181 212.586C465.148 212.509 465.137 212.425 465.149 212.342C465.162 212.26 465.197 212.182 465.251 212.119C465.305 212.055 465.376 212.008 465.455 211.983L465.214 211.829C465.183 211.81 465.146 211.802 465.11 211.806C465.074 211.81 465.04 211.826 465.014 211.852L454.825 221.865C454.81 221.88 454.797 221.898 454.789 221.918C454.78 221.938 454.776 221.959 454.776 221.981C454.776 222.003 454.78 222.024 454.789 222.044C454.797 222.064 454.81 222.082 454.825 222.097L458.525 225.703C458.555 225.733 458.596 225.749 458.638 225.749C458.68 225.749 458.721 225.733 458.751 225.703L469.502 214.826C469.519 214.809 469.533 214.788 469.541 214.765C469.549 214.742 469.552 214.718 469.549 214.694C469.547 214.669 469.539 214.646 469.526 214.625C469.513 214.605 469.496 214.587 469.475 214.574L469.476 214.571Z" fill="white"/>
<path d="M457.716 219.649L460.842 222.596L468.277 215.251L464.504 212.795L457.716 219.649Z" fill="#E6E6E6"/>
<path d="M467.988 217.068C468.009 217.088 468.036 217.099 468.065 217.099C468.093 217.099 468.12 217.088 468.141 217.068L468.791 216.418C468.801 216.408 468.809 216.396 468.815 216.383C468.82 216.37 468.823 216.356 468.823 216.341C468.823 216.327 468.82 216.313 468.815 216.3C468.809 216.287 468.801 216.275 468.791 216.265C468.77 216.245 468.743 216.234 468.715 216.234C468.686 216.234 468.659 216.245 468.638 216.265L467.988 216.915C467.978 216.925 467.97 216.937 467.965 216.95C467.959 216.963 467.956 216.977 467.956 216.991C467.956 217.006 467.959 217.02 467.965 217.033C467.97 217.046 467.978 217.058 467.988 217.068Z" fill="#3F3D56"/>
<path d="M466.893 218.163C466.903 218.173 466.915 218.181 466.928 218.186C466.941 218.192 466.955 218.195 466.97 218.195C466.984 218.195 466.998 218.192 467.011 218.186C467.024 218.181 467.036 218.173 467.046 218.163L467.696 217.513C467.716 217.493 467.728 217.465 467.728 217.436C467.728 217.408 467.716 217.38 467.696 217.36C467.676 217.34 467.648 217.328 467.62 217.328C467.591 217.328 467.563 217.34 467.543 217.36L466.893 218.01C466.883 218.02 466.875 218.032 466.87 218.045C466.864 218.058 466.861 218.072 466.861 218.086C466.861 218.101 466.864 218.115 466.87 218.128C466.875 218.141 466.883 218.153 466.893 218.163Z" fill="#3F3D56"/>
<path d="M457.788 222.913C458.191 222.913 458.518 222.586 458.518 222.183C458.518 221.78 458.191 221.453 457.788 221.453C457.385 221.453 457.058 221.78 457.058 222.183C457.058 222.586 457.385 222.913 457.788 222.913Z" fill="#6C63FF"/>
<path d="M413.586 220.503C413.586 220.503 411.869 231.297 418.986 230.316C418.986 230.316 447.198 223.939 448.67 225.411C450.142 226.883 459.293 227.384 458.815 221.178C458.336 214.952 449.16 218.541 449.16 218.541C449.16 218.541 434.931 220.504 431.988 219.032C429.045 217.56 420.703 218.052 420.703 218.052L413.586 220.503Z" fill="#FFB8B8"/>
<path d="M423.647 186.408C423.647 186.408 412.608 187.635 412.608 203.58V223.938L426.101 218.296C426.101 218.296 431.743 205.049 431.253 201.369C430.763 197.689 431.007 186.894 423.647 186.408Z" fill="#2BC792"/>
<path d="M259.465 41.2246H265.02V79.9996H258.75V54.3696L248.52 73.7296H243.79L233.505 54.6446L233.56 79.9996H227.29V41.2246H232.9L246.21 66.5796L259.465 41.2246Z" fill="#D1D1D1"/>
<path d="M65.465 41.2246H71.02V79.9996H64.75V54.3696L54.52 73.7296H49.79L39.505 54.6446L39.56 79.9996H33.29V41.2246H38.9L52.21 66.5796L65.465 41.2246Z" fill="#D1D1D1"/>
<path d="M203.44 80.4996C198.123 80.4996 194.09 79.1229 191.34 76.3696C188.59 73.6163 187.215 69.6013 187.215 64.3246V41.2246H194.145V64.7096C194.145 68.0463 194.933 70.5673 196.51 72.2726C198.087 73.9779 200.397 74.8303 203.44 74.8296C206.447 74.8296 208.738 73.9679 210.315 72.2446C211.892 70.5213 212.68 68.0096 212.68 64.7096V41.2246H219.61V64.3246C219.61 69.5679 218.235 73.5739 215.485 76.3426C212.735 79.1113 208.72 80.4969 203.44 80.4996Z" fill="#D1D1D1"/>
<path d="M132.9 80.5002C130.068 80.5204 127.25 80.1125 124.54 79.2902C122.141 78.5899 119.899 77.4319 117.94 75.8802L120.3 70.7002C122.074 72.0815 124.075 73.144 126.213 73.8402C128.394 74.5165 130.667 74.8505 132.95 74.8302C135.103 74.9579 137.249 74.4725 139.138 73.4302C139.818 73.028 140.378 72.4512 140.76 71.7597C141.142 71.0681 141.332 70.287 141.311 69.4972C141.327 68.8048 141.147 68.122 140.791 67.5278C140.435 66.9337 139.918 66.4526 139.3 66.1402C137.184 65.1035 134.935 64.3632 132.617 63.9402C129.918 63.409 127.282 62.5979 124.752 61.5202C122.948 60.7689 121.374 59.5547 120.19 58.0002C119.111 56.3948 118.572 54.4877 118.65 52.5552C118.622 50.3767 119.276 48.244 120.52 46.4552C121.854 44.588 123.682 43.1306 125.8 42.2472C128.286 41.1965 130.966 40.681 133.665 40.7342C136.3 40.7219 138.92 41.1401 141.42 41.9722C143.649 42.6684 145.709 43.8201 147.47 45.3542L145.1 50.5202C141.884 47.8532 137.838 46.394 133.66 46.3952C131.581 46.2836 129.518 46.8113 127.748 47.9072C127.056 48.3639 126.492 48.9907 126.112 49.7275C125.731 50.4643 125.547 51.2864 125.575 52.1152C125.553 52.8128 125.72 53.5034 126.059 54.1136C126.398 54.7237 126.896 55.2306 127.5 55.5802C129.553 56.6641 131.76 57.4247 134.045 57.8352C136.768 58.3979 139.431 59.2172 142 60.2822C143.82 61.0207 145.427 62.2025 146.675 63.7202C147.8 65.245 148.373 67.1069 148.3 69.0002C148.343 71.1695 147.698 73.2968 146.458 75.0772C145.112 76.9095 143.256 78.3057 141.123 79.0922C138.497 80.0817 135.706 80.5596 132.9 80.5002Z" fill="#D1D1D1"/>
<path d="M154.84 79.9996V41.2246H180.8V46.8346H161.77V57.4996H179.7V63.0546H161.77V74.3896H180.8V79.9996H154.84Z" fill="#D1D1D1"/>
<path d="M95.2401 80.4996C89.9235 80.4996 85.8901 79.1246 83.1401 76.3746C80.3901 73.6246 79.0151 69.6096 79.0151 64.3296V41.2296H85.9451V64.7096C85.9451 68.0463 86.7335 70.5673 88.3101 72.2726C89.8868 73.9779 92.1968 74.8306 95.2401 74.8306C98.2468 74.8306 100.538 73.9689 102.115 72.2456C103.692 70.5223 104.48 68.0106 104.48 64.7106V41.2246H111.41V64.3246C111.41 69.5679 110.035 73.5739 107.285 76.3426C104.535 79.1113 100.52 80.4969 95.2401 80.4996Z" fill="#D1D1D1"/>
</g>
<defs>
<clipPath id="clip0_409_681">
<rect width="842" height="373" fill="white"/>
</clipPath>
</defs>
</svg>
