<svg width="481" height="597" viewBox="0 0 481 597" fill="none" xmlns="http://www.w3.org/2000/svg">
<g clip-path="url(#clip0_409_940)">
<path d="M256.869 597C380.305 597 480.369 591.404 480.369 584.5C480.369 577.596 380.305 572 256.869 572C133.433 572 33.369 577.596 33.369 584.5C33.369 591.404 133.433 597 256.869 597Z" fill="#F1F5F2"/>
<path d="M1.92063e-05 204.064V360.999H408.123V204.064C408.127 151.981 388.215 101.867 352.466 63.9901C316.717 26.1129 267.838 3.33937 215.841 0.335137C211.95 0.107803 208.023 -0.00319683 204.062 0.00213651C201.812 0.00213651 199.562 0.0351349 197.335 0.116135C145.558 1.75612 96.358 23.0917 59.775 59.7691C58.675 60.8691 57.59 61.9871 56.501 63.1081C50.9076 68.9648 45.6651 75.1469 40.801 81.6221C14.2524 116.916 -0.0710704 159.9 1.92063e-05 204.064Z" fill="#EBEFEC"/>
<path d="M197.333 0.118043V360.998H215.841V0.337044C211.945 0.109711 208.018 -0.00262029 204.06 4.63776e-05C201.809 4.63776e-05 199.562 0.0340426 197.333 0.118043Z" fill="white"/>
<path d="M40.808 81.6243H367.321C362.46 75.1483 357.22 68.9664 351.627 63.1113H56.501C50.9083 68.9664 45.6681 75.1483 40.808 81.6243Z" fill="white"/>
<path d="M31.066 134.639H175.71V361.001H31.066V134.639Z" fill="white"/>
<path d="M128.61 176.008H150.489V197.887H128.61V176.008Z" fill="#E6E6E6"/>
<path d="M93.36 176.008H115.239V197.887H93.36V176.008Z" fill="#E6E6E6"/>
<path d="M58.11 176.008H79.989V197.887H58.11V176.008Z" fill="#E6E6E6"/>
<path d="M128.002 225.842H149.881V247.721H128.002V225.842Z" fill="#E6E6E6"/>
<path d="M92.752 225.842H114.631V247.721H92.752V225.842Z" fill="#E6E6E6"/>
<path d="M57.5031 225.842H79.3821V247.721H57.5031V225.842Z" fill="#E6E6E6"/>
<path d="M127.395 275.68H149.274V297.559H127.395V275.68Z" fill="#E6E6E6"/>
<path d="M92.144 275.68H114.023V297.559H92.144V275.68Z" fill="#E6E6E6"/>
<path d="M56.896 275.68H78.775V297.559H56.896V275.68Z" fill="#E6E6E6"/>
<path d="M126.787 325.514H148.666V347.393H126.787V325.514Z" fill="#E6E6E6"/>
<path d="M91.537 325.514H113.416V347.393H91.537V325.514Z" fill="#E6E6E6"/>
<path d="M56.287 325.514H78.166V347.393H56.287V325.514Z" fill="#E6E6E6"/>
<path d="M126.787 325.514H148.666V347.393H126.787V325.514Z" fill="#E6E6E6"/>
<path d="M91.537 325.514H113.416V347.393H91.537V325.514Z" fill="#E6E6E6"/>
<path d="M56.287 325.514H78.166V347.393H56.287V325.514Z" fill="#E6E6E6"/>
<path d="M359.612 311.208C376.266 311.208 389.767 297.708 389.767 281.053C389.767 264.399 376.266 250.898 359.612 250.898C342.958 250.898 329.457 264.399 329.457 281.053C329.457 297.708 342.958 311.208 359.612 311.208Z" fill="white"/>
<path d="M358.057 361H360.998L360.08 311.2L359.528 281.053H359.447L358.919 311.2L358.627 328.349L358.594 330.014L358.057 361Z" fill="white"/>
<path d="M359.72 328.926L359.025 330.245L354.041 327.621L354.735 326.302L359.72 328.926Z" fill="white"/>
<path d="M270.958 282.394C296.284 282.394 316.814 261.863 316.814 236.538C316.814 211.212 296.284 190.682 270.958 190.682C245.632 190.682 225.102 211.212 225.102 236.538C225.102 261.863 245.632 282.394 270.958 282.394Z" fill="white"/>
<path d="M268.533 361H273.123L272.172 309.325L271.672 282.386L270.827 236.535H270.697L269.897 282.378L269.442 308.464L269.393 310.999L268.533 361Z" fill="white"/>
<path d="M271.12 309.338L270.063 311.345L262.484 307.354L263.54 305.347L271.12 309.338Z" fill="white"/>
<path d="M365.538 192.75L357.792 186.55C363.81 185.886 366.282 189.168 367.292 191.766C371.992 189.814 377.111 192.372 377.111 192.372L361.611 197.999C362.393 195.91 363.754 194.088 365.535 192.746L365.538 192.75Z" fill="white"/>
<path d="M283.912 142.261L276.166 136.061C282.184 135.397 284.656 138.679 285.666 141.277C290.366 139.325 295.485 141.883 295.485 141.883L279.985 147.51C280.767 145.422 282.128 143.6 283.909 142.257L283.912 142.261Z" fill="white"/>
<path d="M315.048 190.226L307.301 184.026C313.319 183.362 315.792 186.644 316.801 189.242C321.501 187.29 326.621 189.848 326.621 189.848L311.121 195.475C311.903 193.387 313.264 191.565 315.045 190.222L315.048 190.226Z" fill="white"/>
<path d="M76.751 436.076L80.491 439.768L75.522 452.733L68.59 438.36L57.239 373.106L74.701 372.619L76.751 436.076Z" fill="#FBBEBE"/>
<path d="M105.207 572.647H114.664L122.021 489.09H103.63L105.207 572.647Z" fill="#FBBEBE"/>
<path d="M69.472 572.647H78.929L86.286 489.09H67.895L69.472 572.647Z" fill="#FBBEBE"/>
<path d="M76.798 583.548L90.608 583.475C91.8393 582.859 92.7991 581.809 93.3023 580.527C93.8054 579.246 93.8164 577.824 93.333 576.535C92.9898 575.619 92.4118 574.81 91.6571 574.189C90.9023 573.567 89.9973 573.156 89.033 572.995L86.424 572.56L84.151 569.667C83.5046 568.824 82.5694 568.251 81.5255 568.057C80.4817 567.863 79.4029 568.062 78.497 568.616C76.316 570 73.297 570.461 69.563 570.152L66.663 577.239C66.088 581.073 68.713 583.602 72.542 584.207C73.995 584.436 75.4823 584.205 76.798 583.548Z" fill="#2F2E41"/>
<path d="M112.533 583.548L126.343 583.475C127.574 582.859 128.534 581.809 129.037 580.527C129.54 579.246 129.551 577.824 129.068 576.535C128.725 575.619 128.147 574.81 127.392 574.189C126.637 573.567 125.732 573.155 124.768 572.995L122.159 572.56L119.631 569.343C119.018 568.569 118.135 568.055 117.159 567.904C116.183 567.752 115.186 567.975 114.367 568.528C112.177 569.98 109.105 570.467 105.298 570.151L102.398 577.238C101.823 581.072 104.448 583.601 108.277 584.206C109.73 584.435 111.218 584.205 112.533 583.548Z" fill="#2F2E41"/>
<path d="M102.579 328.282C110.415 328.282 116.768 321.93 116.768 314.093C116.768 306.257 110.415 299.904 102.579 299.904C94.7425 299.904 88.3899 306.257 88.3899 314.093C88.3899 321.93 94.7425 328.282 102.579 328.282Z" fill="#FBBEBE"/>
<path d="M82.084 341.421L105.207 342.998C105.125 335.515 105.452 328.738 107.307 324.605L91.0159 319.35C90.8609 325.938 87.405 333.43 82.084 341.421Z" fill="#FBBEBE"/>
<path d="M67.8949 443.896L127.278 439.166C119.355 412.753 121.834 378.166 129.906 352.237C129.906 349.209 128.987 346.252 127.271 343.758C125.555 341.263 123.123 339.347 120.295 338.264L105.207 332.486L86.2879 334.586L70.3359 342.567C67.8752 343.798 65.8132 345.7 64.3888 348.054C62.9643 350.408 62.2356 353.117 62.287 355.867C68.283 379.845 69.0049 410.68 67.8949 443.896Z" fill="#355261"/>
<path d="M112.564 379.257L139.364 374.527L137.057 356.648C136.495 352.297 134.656 348.209 131.77 344.903C128.885 341.597 125.084 339.221 120.848 338.076L115.716 336.689L112.564 379.257Z" fill="#355261"/>
<path d="M128.329 438.641L125.176 442.841L129.906 455.979L136.738 439.688L138.315 373.473L120.973 375.573L128.329 438.641Z" fill="#FBBEBE"/>
<path d="M83.1359 380.309L56.3359 375.579L58.6429 357.701C59.2044 353.349 61.0442 349.262 63.9295 345.956C66.8148 342.65 70.616 340.274 74.8519 339.129L79.9839 337.742L83.1359 380.309Z" fill="#355261"/>
<path d="M66.319 491.718L88.306 492.769L94.697 461.764L102.458 490.664L125.703 491.19L130.349 453.844C130.707 450.961 130.481 448.036 129.682 445.242C128.884 442.449 127.531 439.846 125.703 437.588L67.8959 440.216L66.319 491.718Z" fill="#23A277"/>
<path d="M107.572 321.187C109.023 321.187 110.2 319.775 110.2 318.034C110.2 316.293 109.023 314.881 107.572 314.881C106.121 314.881 104.944 316.293 104.944 318.034C104.944 319.775 106.121 321.187 107.572 321.187Z" fill="#FBBEBE"/>
<path d="M101.266 329.597L90.6559 327.588L84.344 316.805C82.8123 314.188 82.1496 311.153 82.4511 308.137C82.7526 305.12 84.0028 302.276 86.0219 300.015C87.5955 298.252 89.5802 296.906 91.7995 296.096C94.0189 295.286 96.4041 295.037 98.7429 295.371L112.494 297.335C113.68 297.503 114.821 297.905 115.851 298.517C116.881 299.129 117.78 299.939 118.496 300.899C119.212 301.86 119.73 302.953 120.022 304.115C120.313 305.277 120.372 306.486 120.194 307.671L110.932 309.247L101.266 329.597Z" fill="#2F2E41"/>
<mask id="mask0_409_940" style="mask-type:luminance" maskUnits="userSpaceOnUse" x="66" y="437" width="65" height="56">
<path d="M66.319 491.718L88.306 492.769L94.697 461.764L102.458 490.664L125.703 491.19L130.349 453.844C130.707 450.961 130.481 448.036 129.682 445.242C128.884 442.449 127.531 439.846 125.703 437.588L67.8959 440.216L66.319 491.718Z" fill="white"/>
</mask>
<g mask="url(#mask0_409_940)">
<path d="M88.2749 434.232L103.058 495.668C103.058 495.668 138.869 524.251 140.183 492.711C140.913 473.528 137.669 454.401 130.655 436.531H91.8889L88.2749 434.232Z" fill="#2BC783"/>
</g>
</g>
<defs>
<clipPath id="clip0_409_940">
<rect width="480.369" height="597" fill="white"/>
</clipPath>
</defs>
</svg>
