<svg width="618" height="388" viewBox="0 0 618 388" fill="none" xmlns="http://www.w3.org/2000/svg">
<g clip-path="url(#clip0_409_799)">
<path d="M171.385 0H164.303C163.785 0 163.595 0.191 163.595 0.708V4.249C163.595 4.767 163.786 4.95701 164.303 4.95701H165.719V9.91401H170.676V4.95701H171.384C171.902 4.95701 172.8 4.766 172.8 4.249V0.708C172.802 0.191 171.903 0 171.385 0Z" fill="#E6E6E6"/>
<path d="M178.468 28.327C174.127 22.1082 171.893 14.6622 172.094 7.08104C172.102 6.71604 172.45 6.45303 172.094 6.37303V4.95703H164.304V6.37303C164.21 6.36767 164.115 6.38232 164.027 6.416C163.938 6.44968 163.858 6.50164 163.791 6.56848C163.725 6.63533 163.673 6.71555 163.639 6.80388C163.605 6.89221 163.591 6.98666 163.596 7.08104C163.596 7.10004 163.596 7.06204 163.596 7.08104C164.139 14.9231 161.88 22.7033 157.222 29.035C156.96 29.409 157.208 29.995 157.222 30.451L157.93 55.238C157.939 55.7987 158.166 56.3339 158.563 56.7304C158.959 57.1269 159.494 57.3538 160.055 57.363H177.055C177.618 57.362 178.158 57.1378 178.556 56.7395C178.955 56.3412 179.179 55.8013 179.18 55.238V31.16C179.207 30.1682 178.961 29.188 178.468 28.327Z" fill="#EBEFEC"/>
<path d="M176.343 36.8262H161.471C160.931 36.8907 160.43 37.141 160.055 37.5342C159.768 37.8682 159.988 37.8072 160.055 38.2422L162.183 53.1152H174.931L177.764 38.2432C177.847 37.8022 177.343 37.8802 177.056 37.5352C176.769 37.1902 176.792 36.8262 176.343 36.8262Z" fill="white"/>
<path d="M171.385 75.7773H164.303C163.785 75.7773 163.595 75.9683 163.595 76.4853V80.0263C163.595 80.5443 163.786 80.7343 164.303 80.7343H165.719V84.9833H170.676V80.7343H171.384C171.902 80.7343 172.8 80.5433 172.8 80.0263V76.4853C172.802 75.9683 171.903 75.7773 171.385 75.7773Z" fill="#E6E6E6"/>
<path d="M178.468 104.104C174.118 97.6244 171.891 89.9523 172.094 82.1504C172.102 81.7854 172.45 81.5224 172.094 81.4424V80.7344H164.304V81.4424C164.21 81.437 164.115 81.4516 164.027 81.4853C163.938 81.519 163.858 81.571 163.791 81.6378C163.725 81.7047 163.673 81.7849 163.639 81.8732C163.605 81.9615 163.591 82.056 163.596 82.1504V82.8584C164.139 90.7004 161.88 98.4806 157.222 104.812C156.96 105.186 157.208 105.772 157.222 106.228L157.93 131.015C157.939 131.576 158.166 132.111 158.563 132.508C158.959 132.904 159.494 133.131 160.055 133.14H177.055C177.618 133.139 178.158 132.915 178.556 132.517C178.955 132.119 179.179 131.579 179.18 131.015V106.229C179.205 105.459 178.952 104.704 178.468 104.104Z" fill="#EBEFEC"/>
<path d="M176.343 112.604H161.471C160.931 112.668 160.43 112.918 160.055 113.312C159.768 113.646 159.988 113.585 160.055 114.02L162.18 128.892H174.928L177.761 114.02C177.844 113.579 177.339 113.657 177.053 113.312C176.767 112.967 176.792 112.604 176.343 112.604Z" fill="white"/>
<path d="M161.471 182.717H158.638C158.392 182.717 157.93 182.471 157.93 182.717V184.842C157.93 185.088 158.393 184.842 158.638 184.842V186.967H161.471V184.842C161.717 184.842 162.179 185.088 162.179 184.842V182.717C162.179 182.471 161.716 182.717 161.471 182.717Z" fill="#E6E6E6"/>
<path d="M165.012 196.173C163.004 193.005 162.015 189.297 162.179 185.55C162.179 185.377 161.64 185.588 161.471 185.55V184.842H157.93V185.55C157.93 185.35 157.73 185.55 157.93 185.55C157.93 185.559 157.93 185.541 157.93 185.55C158.255 189.313 157.253 193.071 155.097 196.173C154.973 196.35 155.09 196.665 155.097 196.881V208.921C155.116 209.476 155.958 209.621 156.513 209.629H164.303C164.865 209.629 165.003 209.483 165.011 208.921L165.719 197.59C165.599 197.068 165.357 196.582 165.012 196.173Z" fill="#F1F5F2"/>
<path d="M157.001 200H164.001V204H157.001V200Z" fill="white"/>
<path d="M177.051 182.717H174.218C173.972 182.717 173.51 182.472 173.51 182.717V184.842C173.51 185.088 173.973 184.842 174.218 184.842V186.967H177.051V184.842C177.297 184.842 177.759 185.088 177.759 184.842V182.717C177.759 182.471 177.296 182.717 177.051 182.717Z" fill="#E6E6E6"/>
<path d="M180.592 196.173C178.584 193.005 177.595 189.297 177.759 185.55C177.759 185.377 177.22 185.588 177.051 185.55V184.842H173.51V185.55C173.51 185.35 173.31 185.55 173.51 185.55C173.51 185.559 173.51 185.541 173.51 185.55C173.835 189.313 172.833 193.071 170.677 196.173C170.553 196.35 170.67 196.665 170.677 196.881V208.921C170.696 209.476 171.538 209.621 172.093 209.629H179.883C180.445 209.629 180.583 209.483 180.591 208.921L181.299 197.59C181.179 197.068 180.937 196.582 180.592 196.173Z" fill="#F1F5F2"/>
<path d="M172.001 200H179.001V204H172.001V200Z" fill="white"/>
<path d="M192.632 182.717H189.799C189.553 182.717 189.091 182.472 189.091 182.717V184.842C189.091 185.088 189.554 184.842 189.799 184.842V186.967H192.632V184.842C192.878 184.842 193.34 185.088 193.34 184.842V182.717C193.34 182.471 192.878 182.717 192.632 182.717Z" fill="#E6E6E6"/>
<path d="M196.173 196.173C194.165 193.005 193.176 189.297 193.34 185.55C193.509 185.588 193.34 185.377 193.34 185.55V184.842H189.799V185.55H189.091C189.091 185.35 188.891 185.55 189.091 185.55C189.091 185.559 189.091 185.541 189.091 185.55C189.416 189.313 188.414 193.071 186.258 196.173C186.134 196.35 186.251 196.665 186.258 196.881V208.921C186.277 209.476 187.119 209.621 187.674 209.629H195.464C196.026 209.629 196.164 209.483 196.172 208.921L196.88 197.59C196.76 197.068 196.517 196.582 196.173 196.173Z" fill="#EBEFEC"/>
<path d="M188.001 200H195.001V204H188.001V200Z" fill="white"/>
<path d="M237.957 153.68H230.875C230.357 153.68 230.167 153.871 230.167 154.388V157.221C230.167 157.739 230.358 158.637 230.875 158.637H232.291V162.886H236.54V158.637H237.956C238.474 158.637 238.664 157.737 238.664 157.221V154.389C238.665 153.871 238.475 153.68 237.957 153.68Z" fill="#E6E6E6"/>
<path d="M245.038 182.008C240.688 175.528 238.461 167.856 238.664 160.054C238.672 159.689 238.312 159.426 237.956 159.346V157.93H230.874V159.346C230.78 159.34 230.685 159.355 230.597 159.389C230.508 159.422 230.428 159.474 230.361 159.541C230.295 159.608 230.243 159.688 230.209 159.777C230.175 159.865 230.161 159.959 230.166 160.054C230.166 160.035 230.166 160.073 230.166 160.054C230.709 167.896 228.451 175.676 223.792 182.008C223.53 182.382 223.778 182.968 223.792 183.424L224.5 208.924C224.509 209.484 224.736 210.02 225.133 210.416C225.529 210.813 226.064 211.039 226.625 211.049H243.625C244.188 211.048 244.728 210.823 245.126 210.425C245.525 210.027 245.749 209.487 245.75 208.924V184.132C245.775 183.361 245.522 182.608 245.038 182.008Z" fill="#EBEFEC"/>
<path d="M242.205 189.799H228.042C227.502 189.863 227.001 190.114 226.626 190.507C226.339 190.841 225.851 191.488 225.918 191.923L228.751 206.087H241.499L243.624 191.923C243.707 191.482 243.911 190.852 243.624 190.507C243.252 190.107 242.748 189.856 242.205 189.799Z" fill="white"/>
<path d="M242.209 60.905H199.709C202.655 44.976 201.977 25.643 199.709 4.95703H242.209C239.998 25.643 239.339 44.976 242.209 60.905Z" fill="#EBEFEC"/>
<path d="M221.501 42C227.3 42 232.001 37.299 232.001 31.5C232.001 25.701 227.3 21 221.501 21C215.702 21 211.001 25.701 211.001 31.5C211.001 37.299 215.702 42 221.501 42Z" fill="white"/>
<path d="M265.576 64.446H223.792C226.738 48.517 226.06 29.184 223.792 8.49805H265.576C263.368 29.183 262.713 48.514 265.576 64.446Z" fill="#E6E6E6"/>
<path d="M245.001 45C250.524 45 255.001 40.5228 255.001 35C255.001 29.4772 250.524 25 245.001 25C239.478 25 235.001 29.4772 235.001 35C235.001 40.5228 239.478 45 245.001 45Z" fill="white"/>
<path d="M265.576 61.614H223.792C226.738 45.685 226.06 26.352 223.792 5.66602H265.576C263.368 26.351 262.713 45.685 265.576 61.614Z" fill="#E6E6E6"/>
<path d="M245.001 42C250.524 42 255.001 37.5228 255.001 32C255.001 26.4772 250.524 22 245.001 22C239.478 22 235.001 26.4772 235.001 32C235.001 37.5228 239.478 42 245.001 42Z" fill="white"/>
<path d="M265.576 64.446H223.792C226.738 48.517 226.06 29.184 223.792 8.49805H265.576C263.368 29.183 262.713 48.514 265.576 64.446Z" fill="#EBEFEC"/>
<path d="M245.001 45C250.524 45 255.001 40.5228 255.001 35C255.001 29.4772 250.524 25 245.001 25C239.478 25 235.001 29.4772 235.001 35C235.001 40.5228 239.478 45 245.001 45Z" fill="white"/>
<path d="M137.001 58H275.001V73H137.001V58Z" fill="#EBEFEC"/>
<path d="M137.001 133H275.001V149H137.001V133Z" fill="#EBEFEC"/>
<path d="M137.001 209H275.001V225H137.001V209Z" fill="#F1F5F2"/>
<path d="M33.9941 0H26.9121C26.3941 0 26.2041 0.191 26.2041 0.708V4.249C26.2041 4.767 26.3951 4.95701 26.9121 4.95701H28.3281V9.91401H33.2851V4.95701H33.9931C34.5111 4.95701 35.4091 4.766 35.4091 4.249V0.708C35.4101 0.191 34.5111 0 33.9941 0Z" fill="#E6E6E6"/>
<path d="M41.0761 28.327C36.7354 22.1082 34.5015 14.6622 34.702 7.08104C34.71 6.71604 34.3501 6.45303 33.9941 6.37303V4.95703H26.9121V6.37303C26.8177 6.36767 26.7232 6.38232 26.6349 6.416C26.5466 6.44968 26.4663 6.50164 26.3995 6.56848C26.3326 6.63533 26.2807 6.71555 26.247 6.80388C26.2133 6.89221 26.1987 6.98666 26.2041 7.08104C26.2041 7.06204 26.2041 7.10004 26.2041 7.08104C26.7474 14.9231 24.4886 22.7033 19.8301 29.035C19.5681 29.409 19.8161 29.995 19.8301 30.451L20.538 55.238C20.5473 55.7987 20.7742 56.3339 21.1707 56.7304C21.5672 57.1269 22.1024 57.3538 22.663 57.363H39.663C40.2263 57.362 40.7662 57.1378 41.1645 56.7395C41.5628 56.3412 41.787 55.8013 41.788 55.238V31.16C41.8155 30.1682 41.5692 29.188 41.0761 28.327Z" fill="#EBEFEC"/>
<path d="M38.2431 36.8262H24.0791C23.5392 36.8907 23.0386 37.141 22.6631 37.5342C22.3761 37.8682 22.5961 37.8072 22.6631 38.2422L24.7881 53.1142H37.5361L40.3691 38.2422C40.4521 37.8012 39.9481 37.8792 39.6611 37.5342C39.2892 37.1349 38.7856 36.8834 38.2431 36.8262Z" fill="white"/>
<path d="M112.604 75.7773H105.522C105.004 75.7773 104.814 75.9683 104.814 76.4853V80.0263C104.814 80.5443 105.005 80.7343 105.522 80.7343H106.935V84.9833H111.892V80.7343H112.6C113.118 80.7343 114.016 80.5433 114.016 80.0263V76.4853C114.021 75.9683 113.122 75.7773 112.604 75.7773Z" fill="#E6E6E6"/>
<path d="M42.4919 75.7773H35.4099C34.8919 75.7773 34.7019 75.9683 34.7019 76.4853V80.0263C34.7019 80.5443 34.8929 80.7343 35.4099 80.7343H36.8259V84.9833H41.7829V80.7343H42.4909C43.0089 80.7343 43.9069 80.5433 43.9069 80.0263V76.4853C43.9099 75.9683 43.0099 75.7773 42.4919 75.7773Z" fill="#E6E6E6"/>
<path d="M119.687 104.104C115.337 97.6244 113.11 89.9523 113.313 82.1504C113.321 81.7854 113.669 81.5224 113.313 81.4424V80.7344H105.523V81.4424C105.429 81.437 105.334 81.4516 105.246 81.4853C105.157 81.519 105.077 81.571 105.01 81.6378C104.943 81.7047 104.892 81.7849 104.858 81.8732C104.824 81.9615 104.81 82.056 104.815 82.1504V82.8584C105.358 90.7004 103.099 98.4806 98.4409 104.812C98.1789 105.186 98.4269 105.772 98.4409 106.228L99.1489 131.015C99.1582 131.576 99.385 132.111 99.7815 132.508C100.178 132.904 100.713 133.131 101.274 133.14H118.274C118.837 133.139 119.377 132.915 119.775 132.517C120.174 132.119 120.398 131.579 120.399 131.015V106.229C120.424 105.459 120.171 104.704 119.687 104.104Z" fill="#EBEFEC"/>
<path d="M49.575 104.104C45.2252 97.6244 42.9977 89.9523 43.201 82.1504C43.209 81.7854 43.557 81.5224 43.201 81.4424V80.7344H35.406V81.4424C35.3116 81.437 35.2171 81.4516 35.1288 81.4853C35.0405 81.519 34.9603 81.571 34.8934 81.6378C34.8266 81.7047 34.7746 81.7849 34.7409 81.8732C34.7072 81.9615 34.6926 82.056 34.698 82.1504V82.8584C35.2413 90.7004 32.9825 98.4806 28.324 104.812C28.062 105.186 28.31 105.772 28.324 106.228L29.032 131.015C29.0412 131.576 29.2681 132.111 29.6646 132.508C30.0611 132.904 30.5963 133.131 31.157 133.14H48.157C48.7202 133.139 49.2601 132.915 49.6584 132.517C50.0567 132.119 50.2809 131.579 50.282 131.015V106.229C50.3084 105.459 50.0575 104.705 49.575 104.104Z" fill="#EBEFEC"/>
<path d="M117.562 112.604H102.689C102.149 112.668 101.648 112.918 101.273 113.312C100.986 113.646 101.206 113.585 101.273 114.02L103.398 128.892H116.146L118.979 114.02C119.062 113.579 118.557 113.657 118.271 113.312C117.985 112.967 118.011 112.604 117.562 112.604Z" fill="white"/>
<path d="M47.4501 112.604H32.5781C32.0384 112.67 31.5385 112.921 31.1641 113.316C30.8771 113.65 31.0971 113.589 31.1641 114.024L33.2891 128.896H46.0371L48.8641 114.016C48.9471 113.575 48.4421 113.653 48.1561 113.308C47.8701 112.963 47.8991 112.604 47.4501 112.604Z" fill="white"/>
<path d="M24.077 182.717H20.5371C20.5371 182.471 20.2911 182.717 20.5371 182.717V184.842C20.5371 185.088 20.2911 184.842 20.5371 184.842H21.245V186.967H23.37V184.842H24.0781C24.3241 184.842 24.7861 185.088 24.7861 184.842V182.717C24.7871 182.471 24.324 182.717 24.077 182.717Z" fill="#E6E6E6"/>
<path d="M90.6501 30.4473H87.1091C86.8631 30.4473 87.1091 30.9103 87.1091 31.1553V32.5713C87.1091 32.8163 86.8631 32.5713 87.1091 32.5713H87.8171V34.6963H89.9421V32.5773H90.6501C90.8961 32.5773 91.3581 32.8223 91.3581 32.5773V31.1613C91.3111 30.9916 91.2213 30.8368 91.0973 30.7118C90.9734 30.5868 90.8194 30.4957 90.6501 30.4473Z" fill="#E6E6E6"/>
<path d="M27.6201 196.173C25.6118 193.005 24.623 189.297 24.7871 185.55C24.7871 185.377 24.2481 185.588 24.0791 185.55V184.842H20.5381V185.55C20.5381 185.35 20.3381 185.55 20.5381 185.55C20.5381 185.559 20.5381 185.541 20.5381 185.55C20.8631 189.313 19.8608 193.071 17.7051 196.173C17.5811 196.35 16.9901 196.665 16.9971 196.881L17.7051 208.92C17.7241 209.475 17.8581 209.62 18.4131 209.628H26.9131C27.4751 209.628 27.6131 209.482 27.6211 208.92V197.59C27.6251 197.163 27.8601 196.527 27.6201 196.173Z" fill="#EBEFEC"/>
<path d="M94.1909 43.9072C92.1826 40.7391 91.1938 37.0315 91.3579 33.2841C91.3579 33.1111 90.8189 33.3221 90.6499 33.2841V32.5762H87.1089V33.2841C87.1089 33.0841 86.9089 33.2841 87.1089 33.2841V33.9922C87.4318 37.5346 86.4216 41.0701 84.2759 43.9072C84.1519 44.0842 83.5609 44.3991 83.5679 44.6151L84.2759 56.6541C84.2949 57.2091 84.4289 57.3542 84.9839 57.3622H93.4839C94.0459 57.3622 94.1839 57.2161 94.1919 56.6541V45.3232C94.1949 44.8972 94.4299 44.2612 94.1909 43.9072Z" fill="#EBEFEC"/>
<path d="M18 200H26V204H18V200Z" fill="white"/>
<path d="M85 48H93V52H85V48Z" fill="white"/>
<path d="M39.6601 182.717H36.1191C36.1191 182.472 35.8731 182.717 36.1191 182.717V184.842C36.1191 185.088 35.8731 184.842 36.1191 184.842H36.8271V186.967H38.9521V184.842H39.6601C39.9061 184.842 40.3681 185.088 40.3681 184.842V182.717C40.3681 182.471 39.9051 182.717 39.6601 182.717Z" fill="#E6E6E6"/>
<path d="M106.23 30.4473H102.693C102.448 30.4473 102.693 30.9103 102.693 31.1553V32.5713C102.693 32.8163 102.447 32.5713 102.693 32.5713H103.401V34.6963H105.526V32.5773H106.234C106.48 32.5773 106.942 32.8223 106.942 32.5773V31.1613C106.895 30.9911 106.804 30.836 106.68 30.711C106.555 30.5859 106.4 30.4951 106.23 30.4473Z" fill="#E6E6E6"/>
<path d="M43.2 196.173C41.1916 193.005 40.2029 189.297 40.367 185.55C40.367 185.377 39.828 185.588 39.659 185.55V184.842H36.118V185.55C36.118 185.35 35.918 185.55 36.118 185.55C36.118 185.559 36.118 185.541 36.118 185.55C36.4429 189.313 35.4407 193.071 33.285 196.173C33.161 196.35 32.57 196.665 32.577 196.881L33.285 208.92C33.304 209.475 33.438 209.62 33.993 209.628H42.493C43.055 209.628 43.193 209.482 43.201 208.92V197.59C43.205 197.163 43.44 196.527 43.2 196.173Z" fill="#EBEFEC"/>
<path d="M109.771 43.9072C107.763 40.7391 106.774 37.0315 106.938 33.2841C106.938 33.1111 106.399 33.3221 106.23 33.2841V32.5762H102.689V33.2841C102.689 33.0841 102.489 33.2841 102.689 33.2841V33.9922C103.012 37.5346 102.002 41.0701 99.856 43.9072C99.732 44.0842 99.141 44.3991 99.148 44.6151L99.856 56.6541C99.875 57.2091 100.009 57.3542 100.564 57.3622H109.064C109.626 57.3622 109.764 57.2161 109.772 56.6541V45.3232C109.775 44.8972 110.01 44.2612 109.771 43.9072Z" fill="#EBEFEC"/>
<path d="M35 200H42V204H35V200Z" fill="white"/>
<path d="M101 48H108V52H101V48Z" fill="white"/>
<path d="M55.2399 182.717H51.6989C51.6989 182.472 51.4529 182.717 51.6989 182.717V184.842C51.6989 185.088 51.4529 184.842 51.6989 184.842H52.4069V186.967H54.5319V184.842H55.2399C55.4859 184.842 55.9479 185.088 55.9479 184.842V182.717C55.9479 182.471 55.4849 182.717 55.2399 182.717Z" fill="#E6E6E6"/>
<path d="M121.81 30.4473H118.977C118.808 30.4951 118.655 30.5853 118.531 30.7092C118.407 30.8331 118.317 30.9867 118.269 31.1553V32.5713C118.269 32.8163 118.732 32.5713 118.977 32.5713V34.6963H121.102V32.5773H121.81C122.056 32.5773 122.518 32.8223 122.518 32.5773V31.1613C122.471 30.9915 122.381 30.8367 122.257 30.7117C122.133 30.5867 121.979 30.4956 121.81 30.4473Z" fill="#E6E6E6"/>
<path d="M58.781 196.173C56.7727 193.005 55.784 189.297 55.948 185.55C55.948 185.377 55.409 185.588 55.24 185.55V184.842H51.699V185.55C51.699 185.35 51.499 185.55 51.699 185.55C51.699 185.559 51.699 185.541 51.699 185.55C52.0239 189.313 51.0217 193.071 48.866 196.173C48.741 196.35 48.859 196.665 48.866 196.881V208.921C48.885 209.476 49.727 209.621 50.282 209.629H58.072C58.634 209.629 58.772 209.483 58.78 208.921V197.59C58.786 197.163 59.02 196.527 58.781 196.173Z" fill="#EBEFEC"/>
<path d="M125.352 43.9072C123.344 40.7391 122.355 37.0315 122.519 33.2841C122.519 33.1111 121.98 33.3221 121.811 33.2841V32.5762H118.27V33.2841C118.27 33.0841 118.07 33.2841 118.27 33.2841V33.9922C118.593 37.5346 117.583 41.0701 115.437 43.9072C115.313 44.0842 115.43 44.3991 115.437 44.6151V56.6541C115.456 57.2091 116.298 57.3542 116.853 57.3622H124.643C125.205 57.3622 125.343 57.2161 125.351 56.6541L126.059 45.3232C125.939 44.8018 125.697 44.3165 125.352 43.9072Z" fill="#EBEFEC"/>
<path d="M50 200H57V204H50V200Z" fill="white"/>
<path d="M117 48H124V52H117V48Z" fill="white"/>
<path d="M100.561 153.68H93.479C92.961 153.68 92.771 153.871 92.771 154.388V157.221C92.771 157.739 92.962 158.637 93.479 158.637H94.895V162.886H99.144V158.637H100.561C101.079 158.637 101.269 157.737 101.269 157.221V154.389C101.273 153.871 101.082 153.68 100.561 153.68Z" fill="#E6E6E6"/>
<path d="M107.646 182.008C103.296 175.528 101.069 167.856 101.272 160.054C101.28 159.689 100.92 159.426 100.564 159.346V157.93H93.4819V159.346C93.0589 159.346 92.0649 159.631 92.0659 160.054C92.0659 160.073 92.0659 160.035 92.0659 160.054C92.6539 168.254 90.9609 175.502 86.3999 182.008C86.0409 182.407 85.7963 182.897 85.6919 183.424L87.1079 208.924C87.1172 209.484 87.344 210.02 87.7405 210.416C88.1371 210.813 88.6722 211.039 89.2329 211.049H106.233C106.796 211.048 107.336 210.823 107.734 210.425C108.133 210.027 108.357 209.487 108.358 208.924V184.132C108.383 183.361 108.13 182.608 107.646 182.008Z" fill="#F1F5F2"/>
<path d="M104.814 189.799H89.941C89.501 189.799 89.519 190.173 89.233 190.507C88.947 190.841 88.458 191.488 88.525 191.923L90.65 206.087H103.398L106.231 191.923C106.314 191.482 106.518 190.852 106.231 190.507C105.859 190.108 105.356 189.856 104.814 189.799Z" fill="white"/>
<path d="M0 58H138V73H0V58Z" fill="#EBEFEC"/>
<path d="M0 133H138V149H0V133Z" fill="#F1F5F2"/>
<path d="M0 209H138V225H0V209Z" fill="#EBEFEC"/>
<path d="M325.676 5H445.801V125.125H325.676V5Z" fill="#EBEFEC"/>
<path d="M325.676 34.887V37.644C327.507 36.4309 328.985 34.7557 329.96 32.788C331.56 29.517 331.509 25.747 331.46 22.1C331.402 17.765 331.344 13.677 334.094 11.014C337.119 8.09001 341.96 8.503 346.642 8.901C347.192 8.944 347.742 8.99499 348.285 9.03799C352.985 9.39299 358.213 8.206 360.753 5H357.584C355.261 6.563 351.708 7.113 348.444 6.867C347.916 6.831 347.373 6.78 346.83 6.737C341.902 6.317 336.315 5.837 332.589 9.451C329.159 12.765 329.224 17.527 329.289 22.129C329.34 25.523 329.383 29.029 328.008 31.829C327.438 32.9906 326.645 34.0295 325.676 34.887Z" fill="white"/>
<path d="M325.676 53.9559V57.1829C326.203 56.4952 326.795 55.8591 327.442 55.2829C331.176 51.9899 336.542 51.2669 341.72 50.5579C342.393 50.4709 343.052 50.3769 343.71 50.2829C352.11 49.0749 357.322 46.1829 359.63 41.4759C361.23 38.2049 361.179 34.4349 361.13 30.7879C361.072 26.4529 361.014 22.3649 363.764 19.7019C366.789 16.7779 371.63 17.1909 376.312 17.5889C376.862 17.6319 377.412 17.6829 377.955 17.7259C383.99 18.1819 390.916 16.0909 391.863 10.4389C392.103 8.58064 391.798 6.69275 390.987 5.00391H388.613C389.485 6.54456 389.871 8.31296 389.72 10.0769C389.004 14.3899 383.2 15.9389 378.113 15.5549C377.585 15.5189 377.042 15.4679 376.499 15.4249C371.571 15.0049 365.984 14.5249 362.258 18.1389C358.828 21.4529 358.893 26.2149 358.958 30.8169C359.009 34.2109 359.052 37.7169 357.677 40.5169C355.709 44.5409 351.041 47.0299 343.4 48.1299C342.749 48.2239 342.09 48.3179 341.432 48.4049C335.932 49.1499 330.237 49.9249 326.004 53.6509C325.894 53.7456 325.785 53.8472 325.676 53.9559Z" fill="white"/>
<path d="M325.676 108.359V112.817C328.596 109.519 330.799 105.65 332.145 101.456C332.5 100.443 332.84 99.408 333.18 98.373C335.054 92.707 336.994 86.853 341.61 83.111C346.545 79.116 353.615 78.234 360.454 77.38C361.33 77.272 362.205 77.163 363.074 77.047C374.16 75.578 381.028 72.083 384.074 66.366C386.187 62.393 386.122 57.82 386.057 53.398C385.977 48.144 385.898 43.18 389.53 39.953C393.517 36.407 399.907 36.906 406.08 37.391C406.811 37.449 407.535 37.507 408.244 37.557C416.211 38.107 425.351 35.574 426.596 28.721C427.211 25.363 425.641 22.389 424.128 19.509C423.244 17.9823 422.535 16.3607 422.015 14.675C421.617 12.9704 421.65 11.1936 422.11 9.50475C422.57 7.81585 423.442 6.26781 424.649 5H421.103C420.079 6.48639 419.383 8.17318 419.06 9.94878C418.737 11.7244 418.795 13.5483 419.229 15.3C419.8 17.1686 420.58 18.9672 421.552 20.662C422.934 23.282 424.229 25.756 423.774 28.289C422.819 33.514 415.174 35.395 408.462 34.932C407.762 34.881 407.044 34.823 406.327 34.773C399.827 34.259 392.462 33.688 387.541 38.066C383.018 42.082 383.105 47.857 383.192 53.436C383.25 57.554 383.315 61.801 381.506 65.21C378.906 70.08 372.743 73.105 362.662 74.444C361.808 74.56 360.94 74.668 360.071 74.777C352.806 75.677 345.301 76.615 339.722 81.138C334.49 85.379 332.428 91.595 330.445 97.608C330.105 98.636 329.765 99.649 329.417 100.655C328.497 103.369 327.24 105.957 325.676 108.359Z" fill="white"/>
<path d="M445.799 53.5056C442.499 57.5006 435.499 58.9766 429.228 58.5426C428.519 58.4916 427.795 58.4336 427.064 58.3766C420.891 57.8916 414.502 57.3926 410.514 60.9386C406.881 64.1656 406.961 69.1306 407.041 74.3836C407.106 78.8046 407.171 83.3786 405.058 87.3516C402.011 93.0686 395.144 96.5636 384.058 98.0326C383.19 98.1486 382.314 98.2566 381.438 98.3656C374.6 99.2196 367.53 100.103 362.594 104.097C357.977 107.838 356.038 113.697 354.164 119.359C353.824 120.394 353.484 121.429 353.129 122.442C352.803 123.375 352.456 124.266 352.094 125.127H348.999C349.542 123.947 350.005 122.768 350.399 121.639C350.746 120.633 351.086 119.62 351.427 118.592C353.41 112.579 355.472 106.362 360.704 102.122C366.283 97.5986 373.787 96.6656 381.053 95.7606C381.921 95.6516 382.79 95.5436 383.644 95.4276C393.724 94.0886 399.89 91.0636 402.488 86.1936C404.297 82.7856 404.232 78.5376 404.174 74.4196C404.087 68.8406 404 63.0656 408.523 59.0496C413.444 54.6716 420.81 55.2436 427.309 55.7566C428.025 55.8076 428.742 55.8656 429.444 55.9156C436.152 56.3786 443.801 54.4976 444.756 49.2726C445.212 46.7396 443.917 44.2646 442.534 41.6456C441.562 39.9508 440.782 38.1522 440.211 36.2836C439.591 33.656 439.795 30.9014 440.795 28.3936C441.795 25.8858 443.542 23.7464 445.799 22.2656V25.8116C444.537 27.0825 443.619 28.6526 443.129 30.3751C442.639 32.0976 442.595 33.9161 442.999 35.6606C443.519 37.3463 444.228 38.9679 445.112 40.4946C445.344 40.9356 445.575 41.3706 445.799 41.8186V53.5056Z" fill="white"/>
<path d="M392.664 125.125H395.664C395.823 124.655 395.975 124.177 396.134 123.699C398.008 118.033 399.948 112.179 404.564 108.437C409.499 104.442 416.569 103.56 423.408 102.706C424.284 102.598 425.159 102.489 426.028 102.373C435.812 101.073 442.317 98.1981 445.798 93.6101V86.4102C445.574 87.8477 445.122 89.2403 444.459 90.5352C441.859 95.4052 435.696 98.4301 425.615 99.7691C424.761 99.8851 423.893 99.9931 423.024 100.102C415.759 101.002 408.254 101.94 402.675 106.463C397.443 110.704 395.381 116.92 393.398 122.933C393.156 123.67 392.917 124.402 392.664 125.125Z" fill="white"/>
<path d="M325.676 161.396H617.683V281.151H325.676V161.396Z" fill="#EBEFEC"/>
<path d="M395.197 232.945C419.821 232.945 439.782 212.984 439.782 188.36C439.782 163.737 419.821 143.775 395.197 143.775C370.573 143.775 350.612 163.737 350.612 188.36C350.612 212.984 370.573 232.945 395.197 232.945Z" fill="white"/>
<path d="M552.197 259.945C575.716 259.945 594.782 240.879 594.782 217.36C594.782 193.841 575.716 174.775 552.197 174.775C528.678 174.775 509.612 193.841 509.612 217.36C509.612 240.879 528.678 259.945 552.197 259.945Z" fill="white"/>
<path d="M540.698 259.512C549.862 259.512 557.291 252.083 557.291 242.919C557.291 233.755 549.862 226.326 540.698 226.326C531.534 226.326 524.105 233.755 524.105 242.919C524.105 252.083 531.534 259.512 540.698 259.512Z" fill="white"/>
<path d="M325.677 261.53V281.153H349.419C350.427 277.996 350.467 274.61 349.534 271.431C348.601 268.251 346.738 265.424 344.183 263.313C341.629 261.202 338.502 259.904 335.203 259.586C331.905 259.268 328.587 259.945 325.677 261.53Z" fill="white"/>
<path d="M423.841 246.525C426.231 246.525 428.169 244.587 428.169 242.196C428.169 239.805 426.231 237.867 423.841 237.867C421.451 237.867 419.513 239.805 419.513 242.196C419.513 244.587 421.451 246.525 423.841 246.525Z" fill="white"/>
<path d="M497.558 5H617.683V125.125H497.558V5Z" fill="#EBEFEC"/>
<path d="M559.068 5V54.208H617.683V57.103H556.173V5.00301L559.068 5Z" fill="white"/>
<path d="M502.531 125.126L497.558 118.056V113.026L506.068 125.126H502.531ZM522.721 73.3262L549.358 111.209L529.567 125.126H524.538L545.328 110.508L522.019 77.3582L497.558 94.5582V91.0192L522.721 73.3262Z" fill="white"/>
<path d="M567.028 68.5293L582.377 83.8783L567.028 99.2273L551.679 83.8793L567.028 68.5293ZM578.288 83.8783L567.028 72.6183L555.768 83.8783L567.028 95.1383L578.288 83.8783Z" fill="white"/>
<path d="M401.001 279.127C401.075 296.428 406.336 313.308 416.105 327.586C425.875 341.865 439.702 352.884 455.801 359.22C457.044 359.72 457.886 360.471 459.173 360.906C460.611 361.399 461.92 361.338 463.388 361.749C464.408 362.033 465.721 362.343 466.76 362.592C482.346 366.452 498.702 365.868 513.973 360.906C515.173 360.506 516.173 359.666 517.345 359.22C518.928 358.611 520.867 358.235 522.404 357.534C522.52 357.488 522.294 357.586 522.404 357.534C523.004 357.256 523.493 356.987 524.09 356.691C524.907 356.297 525.817 355.43 526.619 355.005C528.463 354.031 530.758 353.577 532.519 352.476C533.435 351.908 534.159 351.401 535.048 350.79C549.037 341.366 559.938 328.028 566.387 312.442C572.837 296.857 574.55 279.716 571.311 263.162C568.072 246.609 560.026 231.377 548.178 219.372C536.33 207.366 521.206 199.119 504.697 195.662C503.184 195.349 501.183 195.047 499.638 194.819C498.67 194.668 498.089 194.086 497.109 193.976C496.409 193.895 495.293 194.034 494.58 193.976C492.673 193.802 490.621 194.019 488.68 193.976C488.413 193.97 488.109 193.982 487.837 193.976C487.988 193.97 487.686 193.976 487.837 193.976C487.605 193.97 487.232 193.976 486.994 193.976C486.02 193.976 484.594 193.941 483.622 193.976C481.489 194.046 479.808 193.752 477.722 193.976C476.516 194.104 475.538 194.645 474.35 194.819C474.217 194.842 473.64 194.796 473.507 194.819C473.113 194.883 473.058 194.749 472.664 194.819C471.829 194.952 470.964 195.494 470.135 195.662C469.358 195.818 468.377 195.488 467.606 195.662C464.754 196.358 461.939 197.202 459.175 198.191C440.305 204.723 424.239 217.516 413.648 234.444C413.348 234.914 413.089 234.806 412.805 235.287C412.585 235.646 413.014 236.608 412.805 236.973C412.73 237.095 412.026 236.851 411.962 236.973C412.003 236.903 411.916 237.043 411.962 236.973C411.579 237.64 411.478 238.824 411.119 239.502C404.5 251.662 401.022 265.283 401.001 279.127Z" fill="#2BC783"/>
<path d="M440.625 248.775C440.625 248.775 420.202 231.475 412.803 243.717C405.404 255.959 433.941 260.368 435.566 259.736C437.191 259.104 440.625 248.775 440.625 248.775Z" fill="#A0616A"/>
<path d="M479.407 261.423C479.407 261.423 455.607 254.423 451.585 251.306C447.563 248.189 443.967 245.931 443.154 246.247C442.341 246.563 437.254 244.561 437.254 244.561L430.509 262.261C430.509 262.261 456.009 269.067 456.645 270.692C457.281 272.317 479.407 261.423 479.407 261.423Z" fill="#355261"/>
<path d="M466.761 362.593C482.347 366.453 498.703 365.869 513.974 360.907L513.131 350.79L512.288 341.516L497.954 319.596L492.895 312.008L473.506 318.756L471.82 331.402L468.448 350.793L466.761 362.593Z" fill="#2F2E41"/>
<path d="M450.742 359.22C452 359.72 452.827 360.471 454.114 360.906C455.552 361.399 456.861 361.338 458.329 361.749C459.349 362.033 460.662 362.343 461.701 362.592C477.287 366.452 493.643 365.868 508.914 360.906C510.114 360.506 511.114 359.666 512.286 359.22C512.303 362.889 512.584 366.552 513.129 370.18C514.753 366.041 516.16 361.82 517.344 357.534C517.431 357.256 517.263 356.969 517.344 356.691C517.75 355.291 517.862 353.734 518.187 352.476C518.558 351.021 519.606 350.338 519.873 349.104C520.505 346.34 520.788 343.508 520.716 340.673L509.754 317.066L507.225 317.909H506.382L500.482 318.752L492.051 319.595L479.405 321.281L466.759 331.398L455.799 340.672C455.799 340.672 454.725 343.879 453.27 349.103C452.483 351.909 451.774 355.393 450.742 359.22Z" fill="#355261"/>
<path d="M475.5 197C486.27 197 495 188.27 495 177.5C495 166.73 486.27 158 475.5 158C464.73 158 456 166.73 456 177.5C456 188.27 464.73 197 475.5 197Z" fill="#A0616A"/>
<path d="M492.053 178.801L503.013 200.721L473.505 220.953C473.505 220.953 476.667 196.753 470.133 190.602C463.599 184.451 492.053 178.801 492.053 178.801Z" fill="#A0616A"/>
<path d="M469.29 223.481C469.29 223.481 483.248 194.816 494.583 194.816C505.918 194.816 535.923 214.906 535.051 219.265C534.425 221.744 534.141 224.297 534.208 226.853C534.208 229.469 540.283 229.325 535.051 231.068C529.819 232.811 528.306 234.44 528.306 234.44L533.365 345.727C533.365 345.727 514.205 353.401 507.229 350.786C500.253 348.171 492.897 330.552 492.897 330.552C492.897 330.552 494.814 354.187 487.838 353.315C480.862 352.443 454.143 350.901 453.271 347.415C452.399 343.929 459.171 266.479 459.171 266.479L469.29 223.481Z" fill="#F1F5F2"/>
<path d="M518.189 370.181C519.082 377.909 521.227 385.381 528.306 387.043C540.33 389.872 536.376 365.281 534.206 355.849C533.696 353.649 533.363 352.477 533.363 352.477H524.089L518.189 353.32C518.297 354.722 518.297 356.132 518.189 357.535C518.137 358.26 517.375 358.363 517.346 359.221C517.363 362.889 517.644 366.552 518.189 370.181Z" fill="#A0616A"/>
<path d="M514.817 215.897L540.11 280.815C540.11 280.815 543.598 287.387 540.11 292.615C536.622 297.843 541.91 329.48 538.424 336.455C534.938 343.43 535.052 355.846 535.052 355.846L514.818 357.532L510.603 280.811L487.84 231.911C487.84 231.911 489.531 211.537 514.817 215.897Z" fill="#355261"/>
<path opacity="0.1" d="M508.073 214.209C508.073 214.209 523.919 218.749 529.15 234.443L508.073 214.209Z" fill="black"/>
<path opacity="0.1" d="M487.839 250.463L508.073 280.814L514.818 350.79L487.839 250.463Z" fill="black"/>
<path d="M433.06 265.391C433.639 264.978 434.03 264.352 434.147 263.65C434.264 262.949 434.098 262.23 433.685 261.651L410.329 228.916C409.916 228.337 409.29 227.946 408.588 227.829C407.887 227.712 407.168 227.878 406.589 228.291L433.06 265.391Z" fill="#D0CDE1"/>
<path d="M432.101 268.662L433.452 267.698C433.921 267.364 434.237 266.857 434.332 266.289C434.427 265.722 434.292 265.139 433.958 264.671L407.365 227.4C407.083 227.004 406.656 226.737 406.177 226.657C405.698 226.577 405.207 226.69 404.811 226.971L403.183 228.133L432.101 268.662Z" fill="#2F2E41"/>
<path d="M488.681 186.388C486.73 186.272 484.717 186.974 482.781 187.231C475.849 188.151 469.136 183.094 467.605 176.271C467.468 175.386 467.183 174.532 466.762 173.742C465.695 172 462.862 171.655 460.862 172.056C458.862 172.457 457 173.635 454.962 173.742C453.435 173.79 451.923 173.423 450.587 172.681C449.251 171.939 448.14 170.849 447.374 169.527C445.695 166.857 445.461 163.399 445.688 160.253L446.531 161.939C447.194 160.638 447.486 159.179 447.374 157.724C449.001 157.291 451.214 157.406 452.433 158.567C453.764 158.709 452.287 156.097 453.276 155.195C453.69 154.817 454.402 155.19 454.962 155.195C457.794 155.222 460.318 152.723 462.55 150.98C466.53 147.997 471.147 145.977 476.039 145.08C479.146 144.447 482.371 144.74 485.313 145.923C487.816 146.873 490.107 148.305 492.058 150.138C496.807 154.704 501.043 159.872 503.018 166.157C504.581 171.382 504.581 176.95 503.018 182.176C502.218 184.863 499.785 193.765 496.273 193.976C491.856 194.245 494.174 186.711 488.681 186.388Z" fill="#2F2E41"/>
<path d="M396.501 212C410.032 212 421.001 201.031 421.001 187.5C421.001 173.969 410.032 163 396.501 163C382.97 163 372.001 173.969 372.001 187.5C372.001 201.031 382.97 212 396.501 212Z" fill="#D8EEDD"/>
<path d="M398.001 208.998L409.001 223.998V205.998L398.001 208.998Z" fill="#D8EEDD"/>
<path d="M404.501 190C405.882 190 407.001 188.881 407.001 187.5C407.001 186.119 405.882 185 404.501 185C403.12 185 402.001 186.119 402.001 187.5C402.001 188.881 403.12 190 404.501 190Z" fill="#2BC783"/>
<path d="M396.501 190C397.882 190 399.001 188.881 399.001 187.5C399.001 186.119 397.882 185 396.501 185C395.12 185 394.001 186.119 394.001 187.5C394.001 188.881 395.12 190 396.501 190Z" fill="#2BC783"/>
<path d="M387.501 190C388.882 190 390.001 188.881 390.001 187.5C390.001 186.119 388.882 185 387.501 185C386.12 185 385.001 186.119 385.001 187.5C385.001 188.881 386.12 190 387.501 190Z" fill="#2BC783"/>
<path d="M36.0001 291.874C35.9669 313.624 44.5367 334.505 59.8399 349.96C75.1432 365.416 95.9378 374.192 117.687 374.374C162.961 374.734 200.314 337.958 200.987 292.687C201.66 247.416 165.374 210.378 120.109 209.387C119.853 209.381 119.562 209.393 119.3 209.387C118.933 209.381 118.864 209.387 118.491 209.387C117.557 209.387 116.185 209.354 115.256 209.387C113.209 209.454 111.597 209.172 109.595 209.387C108.438 209.509 107.495 210.029 106.36 210.196C106.232 210.218 105.679 210.174 105.551 210.196C100.882 210.866 96.2805 211.949 91.8021 213.431C58.4551 224.796 36.0021 256.638 36.0001 291.874Z" fill="#355261"/>
<path d="M183.78 294.456C183.617 294.199 182.929 294.342 182.243 294.777C181.558 295.211 181.133 295.772 181.296 296.029C181.459 296.286 182.147 296.142 182.833 295.708C183.519 295.273 183.943 294.713 183.78 294.456Z" fill="#3F3D56"/>
<path d="M183.702 291.243C183.337 290.666 182.758 290.259 182.092 290.109C181.427 289.96 180.729 290.081 180.153 290.446L147.562 311.084C146.986 311.449 146.578 312.028 146.428 312.693C146.279 313.359 146.4 314.057 146.765 314.633L183.702 291.243Z" fill="#D0CDE1"/>
<path d="M186.786 292.334L185.76 290.714C185.637 290.519 185.476 290.35 185.287 290.217C185.097 290.084 184.884 289.99 184.658 289.94C184.433 289.889 184.199 289.884 183.972 289.924C183.744 289.964 183.527 290.048 183.332 290.173L146.227 313.669C145.76 313.965 145.43 314.433 145.31 314.972C145.189 315.51 145.287 316.075 145.582 316.541L146.434 317.887L186.786 292.334Z" fill="#2F2E41"/>
<path d="M179.17 295.416L178.776 294.795L181.259 293.223L181.653 293.844L179.17 295.416Z" fill="#D0CDE1"/>
<path d="M175.755 297.58L175.362 296.959L177.845 295.387L178.238 296.008L175.755 297.58Z" fill="#D0CDE1"/>
<path d="M129 220C141.703 220 152 209.703 152 197C152 184.297 141.703 174 129 174C116.298 174 106 184.297 106 197C106 209.703 116.298 220 129 220Z" fill="#FFB8B8"/>
<path d="M127.392 213.422C127.392 213.422 115.67 230.983 118.492 236.068C121.314 241.153 130.624 254.668 130.624 254.668C130.624 254.668 91.5702 226.106 96.6552 219.891C96.6552 219.891 108.222 209.93 108.787 203.715L127.392 213.422Z" fill="#FFB8B8"/>
<path d="M95.8502 372.752C114.608 378.126 134.662 376.693 152.465 368.708L150.847 320.991V312.903C150.847 312.903 150.177 312.909 150.038 312.903C149.66 312.875 148.863 312.975 147.612 312.903C146.16 312.82 144.225 312.998 141.951 312.903C141.412 312.881 140.906 312.931 140.333 312.903C128.353 312.458 109.648 311.72 107.173 315.329V317.755L106.364 320.99L105.555 328.269C105.555 328.269 93.6752 351.229 95.8502 372.752Z" fill="#F1F5F2"/>
<path d="M74.821 249.008L95.04 292.682L103.128 312.093L106.363 319.372L153.275 318.559L148.422 286.208C155.202 268.693 138.717 261.945 138.717 261.945L125.775 247.39V249.816C125.775 249.816 112.297 233.784 106.364 224.744C100.431 215.704 92.6151 219.083 92.6151 219.083C78.4881 217.67 74.821 249.008 74.821 249.008Z" fill="#2BC783"/>
<path opacity="0.2" d="M95.041 292.684L103.129 312.095C105.92 306.874 107.982 301.029 107.982 297.537C107.982 287.932 99.082 293.493 99.082 293.493C99.082 293.493 106.361 250.4 106.361 237.687C106.364 229.241 99.77 266.559 95.041 292.684Z" fill="black"/>
<path d="M102.32 295.918L144.376 295.109C144.376 295.109 175.586 298.046 171.066 310.476C166.546 322.906 141.95 310.476 141.95 310.476L92.6152 317.753L102.32 295.918Z" fill="#FFB8B8"/>
<path d="M94.2322 221.509C94.2322 221.509 108.79 222.546 108.79 235.258C108.79 247.97 95.8502 293.49 95.8502 293.49C95.8502 293.49 105.555 287.929 105.555 297.534C105.555 307.139 89.4552 335.59 87.7622 316.945C87.7622 316.945 63.7042 328.745 65.1162 306.431C66.5282 284.117 81.2922 236.876 81.2922 236.876C81.2922 236.876 82.9292 220.662 94.2322 221.509Z" fill="#2BC783"/>
<path d="M128.201 194.011C129.823 192.441 129.32 190.19 130.627 188.35C132.68 185.46 136.827 185.425 140.332 185.924C142.816 186.163 145.26 186.706 147.611 187.542C148.603 188.001 149.48 188.675 150.179 189.514C150.879 190.353 151.383 191.337 151.655 192.395C151.93 193.533 152.655 190.108 153.273 185.925C153.869 181.672 153.092 177.339 151.056 173.557C149.02 169.775 145.829 166.741 141.95 164.897C137.892 162.839 133.518 161.472 129.01 160.853C124.622 160.374 120.32 160.516 116.878 163.279C115.305 164.542 113.712 166.216 112.025 167.323C109.062 169.268 105.031 169.339 101.511 169.749C97.4946 170.287 93.6366 171.665 90.188 173.793C86.751 175.855 83.865 178.793 82.909 182.693C81.794 187.234 84.109 192.854 88.57 194.825C89.35 195.153 89.641 195.797 90.188 196.443C93.854 200.925 87.811 203.056 86.953 206.957C86.237 210.212 89.404 213.34 92.614 214.236C95.6222 215.002 98.8033 214.694 101.609 213.365C104.414 212.036 106.668 209.77 107.981 206.957C108.923 204.358 109.468 201.631 109.599 198.869C109.942 195.704 118.438 189.705 112.834 194.016C111.761 194.868 110.925 195.982 110.408 197.251C108.708 201.332 112.554 203.234 114.452 206.151C115.477 207.862 116.019 209.819 116.019 211.813C116.019 213.807 115.477 215.764 114.452 217.474C119.371 214.904 122.028 208.125 120.113 202.916C119.604 201.531 118.149 200.273 117.687 198.872C116.966 196.686 117.696 192.349 120.922 193.211C123.225 193.817 125.786 196.348 128.201 194.011Z" fill="#2F2E41"/>
<path d="M196.5 262C210.031 262 221 251.031 221 237.5C221 223.969 210.031 213 196.5 213C182.969 213 172 223.969 172 237.5C172 251.031 182.969 262 196.5 262Z" fill="#D8EEDD"/>
<path d="M195 258L184 274V256L195 258Z" fill="#D8EEDD"/>
<path d="M188.5 240.002C189.881 240.002 191 238.883 191 237.502C191 236.121 189.881 235.002 188.5 235.002C187.12 235.002 186 236.121 186 237.502C186 238.883 187.12 240.002 188.5 240.002Z" fill="#2BC783"/>
<path d="M196.5 240.002C197.881 240.002 199 238.883 199 237.502C199 236.121 197.881 235.002 196.5 235.002C195.12 235.002 194 236.121 194 237.502C194 238.883 195.12 240.002 196.5 240.002Z" fill="#2BC783"/>
<path d="M205.5 240.002C206.881 240.002 208 238.883 208 237.502C208 236.121 206.881 235.002 205.5 235.002C204.12 235.002 203 236.121 203 237.502C203 238.883 204.12 240.002 205.5 240.002Z" fill="#2BC783"/>
<path d="M300.5 0.5V387.5" stroke="#EBEFEC" stroke-width="2"/>
</g>
<defs>
<clipPath id="clip0_409_799">
<rect width="617.684" height="387.5" fill="white"/>
</clipPath>
</defs>
</svg>
