<svg width="641" height="302" viewBox="0 0 641 302" fill="none" xmlns="http://www.w3.org/2000/svg">
<g clip-path="url(#clip0_409_591)">
<path d="M366.874 288.555C509.315 288.555 624.787 282.45 624.787 274.919C624.787 267.388 509.315 261.283 366.874 261.283C224.433 261.283 108.961 267.388 108.961 274.919C108.961 282.45 224.433 288.555 366.874 288.555Z" fill="#EBEFEC"/>
<path d="M610.209 241.971L579.439 239.697H174.892V180.438H610.209V241.971Z" fill="#E6E6E6"/>
<path d="M170.701 28.8601H144.128V13.2141C144.128 10.3161 145.279 7.53676 147.328 5.48755C149.378 3.43834 152.157 2.28711 155.055 2.28711H159.773C162.671 2.28711 165.45 3.43834 167.5 5.48755C169.549 7.53676 170.7 10.3161 170.7 13.2141L170.701 28.8601Z" fill="#DEDEDE"/>
<path d="M626.542 151.949V242.357L596.836 241.971C596.836 241.328 596.881 240.685 596.881 240.081C596.881 224.55 590.711 209.654 579.729 198.672C568.746 187.689 553.851 181.52 538.319 181.52C522.787 181.52 507.892 187.689 496.909 198.672C485.927 209.654 479.757 224.55 479.757 240.081V240.46L450.109 240.074H296.442C296.44 237.927 296.32 235.781 296.082 233.646C295.973 232.618 295.837 231.608 295.664 230.606C295.25 228.028 294.661 225.481 293.901 222.982C293.592 221.954 293.257 220.944 292.884 219.942C291.924 217.331 290.78 214.792 289.46 212.342C288.907 211.307 288.315 210.298 287.697 209.302C286.036 206.623 284.162 204.081 282.092 201.702C281.178 200.652 280.232 199.639 279.254 198.662C268.268 187.712 253.389 181.563 237.877 181.563C222.366 181.563 207.487 187.712 196.501 198.662C195.518 199.644 194.572 200.657 193.663 201.702C191.593 204.081 189.719 206.623 188.058 209.302C187.414 210.302 186.848 211.308 186.295 212.342C184.975 214.792 183.831 217.331 182.871 219.942C182.504 220.942 182.163 221.954 181.854 222.982C181.095 225.473 180.506 228.012 180.091 230.582C179.917 231.582 179.782 232.594 179.673 233.622C179.435 235.757 179.315 237.903 179.313 240.05H120.752V40.2715H533.769L574.742 129.509L625.665 151.57L626.542 151.949Z" fill="#EBEFEC"/>
<path d="M130.449 21.2754H517.794C522.056 21.2754 526.143 22.9685 529.157 25.9822C532.171 28.9959 533.864 33.0834 533.864 37.3454V40.2704H121.334V30.3854C121.334 29.1886 121.569 28.0034 122.027 26.8977C122.485 25.792 123.157 24.7874 124.003 23.9413C124.85 23.0952 125.855 22.4243 126.961 21.9669C128.067 21.5094 129.252 21.2745 130.449 21.2754Z" fill="#F5F5F5"/>
<path d="M441.174 21.276H346.967V17.728C346.967 13.0262 348.835 8.51704 352.159 5.1924C355.484 1.86775 359.993 0 364.695 0H419.139L441.174 21.276Z" fill="#DEDEDE"/>
<path d="M449.906 239.698H405.846V39.8926H492.446V178.157L449.906 239.698Z" fill="#DEDEDE"/>
<path opacity="0.1" d="M625.625 208.926H624.417C616.779 208.926 610.587 215.118 610.587 222.756V237.642C610.587 245.28 616.779 251.472 624.417 251.472H625.625C633.263 251.472 639.455 245.28 639.455 237.642V222.756C639.455 215.118 633.263 208.926 625.625 208.926Z" fill="black"/>
<path d="M627.142 209.684H625.934C618.296 209.684 612.104 215.875 612.104 223.514V238.4C612.104 246.038 618.296 252.23 625.934 252.23H627.142C634.78 252.23 640.972 246.038 640.972 238.4V223.514C640.972 215.875 634.78 209.684 627.142 209.684Z" fill="#DEDEDE"/>
<path d="M176.029 60.7812H350V154.981H176.029V60.7812Z" fill="#2BC783"/>
<path d="M258.461 68.7598H350.386V150.047H258.461V68.7598Z" fill="white"/>
<path opacity="0.06" d="M258.461 133.713L324.553 84.7129L333.674 86.9949L258.461 141.311V133.713Z" fill="#3E5B6A"/>
<path d="M466.196 54.707H434.38C425.543 54.707 418.38 61.8705 418.38 70.707V126.833C418.38 135.67 425.543 142.833 434.38 142.833H466.196C475.033 142.833 482.196 135.67 482.196 126.833V70.707C482.196 61.8705 475.033 54.707 466.196 54.707Z" fill="white"/>
<path d="M470.041 150.426H478.397V168.662H470.041V150.426Z" fill="#DEDEDE"/>
<path d="M508.024 67.2368V130.166C508.024 131.107 508.398 132.009 509.063 132.675C509.729 133.34 510.631 133.714 511.572 133.714H550.3C550.931 133.714 551.55 133.545 552.095 133.226C552.639 132.906 553.088 132.447 553.396 131.897C553.703 131.346 553.859 130.723 553.846 130.092C553.833 129.461 553.651 128.845 553.321 128.308L514.593 65.3788C514.188 64.7213 513.58 64.2139 512.86 63.9335C512.141 63.6532 511.349 63.6152 510.606 63.8253C509.863 64.0355 509.209 64.4823 508.743 65.098C508.277 65.7137 508.025 66.4646 508.024 67.2368Z" fill="white"/>
<path opacity="0.1" d="M438.891 54.707L418.38 72.937V82.437L447.627 54.707H438.891Z" fill="#3E5B6A"/>
<path opacity="0.06" d="M418.38 93.442V104.466L467.001 54.707H457.501L418.38 93.442Z" fill="#3E5B6A"/>
<path opacity="0.1" d="M520.88 75.5996L508.024 93.4436V100.29L525.09 82.4396L520.88 75.5996Z" fill="#3E5B6A"/>
<path opacity="0.1" d="M530.939 93.4414L508.024 113.014V118.523L536.075 100.287L530.939 93.4414Z" fill="#3E5B6A"/>
<path d="M238.329 281.099C260.985 281.099 279.352 262.732 279.352 240.076C279.352 217.419 260.985 199.053 238.329 199.053C215.673 199.053 197.306 217.419 197.306 240.076C197.306 262.732 215.673 281.099 238.329 281.099Z" fill="#DEDEDE"/>
<path d="M238.328 262.867C250.916 262.867 261.121 252.662 261.121 240.074C261.121 227.486 250.916 217.281 238.328 217.281C225.74 217.281 215.535 227.486 215.535 240.074C215.535 252.662 225.74 262.867 238.328 262.867Z" fill="white"/>
<path d="M237.95 245.777C241.308 245.777 244.031 243.055 244.031 239.696C244.031 236.338 241.308 233.615 237.95 233.615C234.592 233.615 231.869 236.338 231.869 239.696C231.869 243.055 234.592 245.777 237.95 245.777Z" fill="#DEDEDE"/>
<path d="M538.415 199.053C546.529 199.053 554.46 201.459 561.206 205.966C567.952 210.474 573.21 216.881 576.315 224.377C579.42 231.873 580.233 240.121 578.65 248.079C577.067 256.037 573.16 263.346 567.423 269.083C561.685 274.821 554.376 278.728 546.418 280.31C538.46 281.893 530.212 281.081 522.716 277.976C515.22 274.871 508.813 269.613 504.306 262.867C499.798 256.121 497.392 248.189 497.392 240.076C497.392 229.196 501.714 218.761 509.407 211.068C517.101 203.375 527.535 199.053 538.415 199.053Z" fill="#DEDEDE"/>
<path d="M538.415 262.867C551.003 262.867 561.208 252.662 561.208 240.074C561.208 227.486 551.003 217.281 538.415 217.281C525.827 217.281 515.622 227.486 515.622 240.074C515.622 252.662 525.827 262.867 538.415 262.867Z" fill="white"/>
<path d="M538.794 245.777C542.152 245.777 544.875 243.055 544.875 239.696C544.875 236.338 542.152 233.615 538.794 233.615C535.436 233.615 532.713 236.338 532.713 239.696C532.713 243.055 535.436 245.777 538.794 245.777Z" fill="#DEDEDE"/>
<path opacity="0.1" d="M121 177.5H406V180.5H121V177.5Z" fill="#3E5B6A"/>
<path opacity="0.1" d="M621.227 180.748H490.602L492.121 178.47V177.711H621.227" fill="#3E5B6A"/>
<path opacity="0.1" d="M621.226 167.837H492.12V164.803H621.226" fill="#3E5B6A"/>
<path opacity="0.1" d="M621.226 154.927H492.12V151.889H620.467" fill="#3E5B6A"/>
<path opacity="0.1" d="M211.582 188.035C209.793 188.958 208.053 189.972 206.369 191.075H120.955V188.035H211.582Z" fill="black"/>
<path opacity="0.1" d="M405.544 188.344V191.382H270.363C268.644 190.279 266.87 189.265 265.047 188.344H405.544Z" fill="#3E5B6A"/>
<path opacity="0.1" d="M196.696 198.975C195.715 199.956 195.326 200.967 194.418 202.013H120.752V198.975H196.696Z" fill="black"/>
<path opacity="0.1" d="M405.544 198.975V202.013H282.513C281.6 200.963 280.452 199.952 279.475 198.975H405.544Z" fill="#3E5B6A"/>
<path opacity="0.1" d="M188.342 209.607C187.699 210.607 187.376 211.607 186.823 212.645H120.752V209.607H188.342Z" fill="black"/>
<path opacity="0.1" d="M405.547 209.607V212.645H290.108C289.555 211.61 288.447 210.604 287.83 209.607H405.547Z" fill="#3E5B6A"/>
<path opacity="0.1" d="M183.026 220.24C182.66 221.24 182.575 222.249 182.267 223.278H166.318V220.24H183.026Z" fill="black"/>
<path opacity="0.1" d="M405.544 220.24V223.28H294.665C294.356 222.251 293.519 221.245 293.146 220.242L405.544 220.24Z" fill="#3E5B6A"/>
<path opacity="0.1" d="M180.748 230.869C180.574 231.869 180.098 232.878 179.989 233.907H166.319V230.869H180.748Z" fill="black"/>
<path opacity="0.1" d="M405.544 230.869V233.907H296.183C296.074 232.878 296.357 231.872 296.183 230.869H405.544Z" fill="#3E5B6A"/>
<path d="M342.788 141.991H338.231V131.064L340.159 127.264C340.194 127.194 340.248 127.134 340.315 127.093C340.382 127.051 340.46 127.029 340.538 127.029C340.617 127.029 340.695 127.051 340.762 127.093C340.829 127.134 340.883 127.194 340.918 127.264L342.846 131.064L342.788 141.991Z" fill="#23A277"/>
<path opacity="0.1" d="M338.231 131.078H342.788V131.534H338.231V131.078Z" fill="black"/>
<path d="M349.627 141.991H345.07V131.064L346.998 127.264C347.033 127.194 347.087 127.134 347.154 127.093C347.221 127.051 347.299 127.029 347.377 127.029C347.456 127.029 347.534 127.051 347.601 127.093C347.668 127.134 347.722 127.194 347.757 127.264L349.685 131.064L349.627 141.991Z" fill="#23A277"/>
<path opacity="0.1" d="M345.07 131.078H349.627V131.534H345.07V131.078Z" fill="black"/>
<path d="M234.504 127.584C234.478 127.485 234.445 127.389 234.404 127.295C234.668 124.57 235.439 115.545 234.327 113.385C233.459 111.701 231.113 111.714 228.343 112.292C228.343 112.003 228.382 111.714 228.382 111.418V102.194C228.338 99.3952 227.185 96.7284 225.176 94.7794C223.166 92.8304 220.466 91.7588 217.667 91.8H215.937C213.138 91.7588 210.437 92.8304 208.428 94.7794C206.419 96.7284 205.266 99.3952 205.222 102.194V111.418C205.217 111.688 205.227 111.959 205.254 112.228C202.254 112.434 199.405 114.311 200.067 121.054V128.723H200.667C200.874 128.863 201.089 128.992 201.31 129.109L202.724 142.138H207.337L207.279 142.781H225.341C226.819 142.89 228.291 142.967 229.441 142.961C230.185 142.998 230.931 142.938 231.659 142.781C233.639 142.138 233.639 138.281 233.639 138.281L234.282 128.681C234.399 128.527 234.48 128.348 234.519 128.158C234.557 127.968 234.552 127.772 234.504 127.584ZM208.445 129.937H208.509V130.059L208.445 130.008V129.937ZM225.755 131.544L226.083 136.391H225.755V131.544ZM207.339 135.744L208.445 130.1H208.516L207.983 135.814L207.339 135.744Z" fill="url(#paint0_linear_409_591)"/>
<path d="M216.802 91.9648H216.801C210.66 91.9648 205.681 96.9434 205.681 103.085V110.548C205.681 116.689 210.66 121.668 216.801 121.668H216.802C222.943 121.668 227.922 116.689 227.922 110.548V103.085C227.922 96.9434 222.943 91.9648 216.802 91.9648Z" fill="#2F2E41"/>
<path d="M211.56 113.413C211.56 113.413 199.469 107.628 200.735 120.921V128.493H208.96L207.674 142.409H225.383V128.492C225.383 128.492 232.338 129.135 233.604 127.849C233.604 127.849 234.89 115.829 233.604 113.303C232.318 110.777 227.877 112.12 223.448 113.38C219.019 114.64 211.56 113.413 211.56 113.413Z" fill="#EBEFEC"/>
<path d="M201.87 128.494L203.265 141.787H217.18C217.18 141.787 222.88 137.994 219.713 136.728C216.546 135.462 214.654 136.085 214.654 136.085L207.699 135.442L209.018 128.494H201.87Z" fill="#A0616A"/>
<path opacity="0.1" d="M233.322 127.852L232.679 137.982C232.679 137.982 232.679 141.774 230.751 142.411C228.823 143.048 218.731 141.768 218.731 141.768C218.731 141.768 214.939 141.768 215.568 138.605C216.197 135.442 219.36 134.813 220.627 134.813C221.764 134.999 222.845 135.439 223.79 136.099H225.718L225.223 128.499L233.322 127.852Z" fill="black"/>
<path d="M233.643 127.852L233 137.982C233 137.982 233 141.774 231.072 142.411C229.144 143.048 219.052 141.768 219.052 141.768C219.052 141.768 215.259 141.768 215.889 138.605C216.519 135.442 219.681 134.813 220.948 134.813C222.085 134.999 223.166 135.439 224.111 136.099H226.039L225.539 128.499L233.643 127.852Z" fill="#A0616A"/>
<path opacity="0.1" d="M200.912 128.186C200.912 128.186 203.483 130.757 208.818 129.87C209.39 129.78 201.87 127.074 200.912 128.186Z" fill="black"/>
<path opacity="0.1" d="M224.746 130.724C224.746 130.724 234.594 130.563 233.803 127.388C233.012 124.213 225.382 125.961 225.382 125.961L224.746 130.724Z" fill="black"/>
<path d="M200.912 128.024C200.912 128.024 204.087 131.199 210.599 129.31C217.111 127.421 201.87 126.912 200.912 128.024Z" fill="#EBEFEC"/>
<path d="M224.586 130.569C224.586 130.569 234.434 130.408 233.643 127.233C232.852 124.058 225.222 125.806 225.222 125.806L224.586 130.569Z" fill="#EBEFEC"/>
<path d="M210.856 104.621C210.856 104.621 212.784 111.576 211.499 113.479C210.214 115.382 215.484 119.309 217.766 119.264C219.122 119.264 223.924 115.883 223.519 113.479C223.191 111.506 220.356 105.888 220.986 103.361L210.856 104.621Z" fill="#A0616A"/>
<path opacity="0.1" d="M216.865 113.331C218.992 113.328 221.047 112.556 222.65 111.158C221.744 108.677 220.516 105.431 220.95 103.676L210.833 104.962C211.447 107.209 211.805 109.518 211.9 111.846C213.368 112.827 215.097 113.344 216.862 113.331H216.865Z" fill="black"/>
<path d="M216.866 113.017C221.758 113.017 225.724 109.051 225.724 104.159C225.724 99.2666 221.758 95.3008 216.866 95.3008C211.974 95.3008 208.008 99.2666 208.008 104.159C208.008 109.051 211.974 113.017 216.866 113.017Z" fill="#A0616A"/>
<path opacity="0.1" d="M211.473 108.06C211.254 107.224 210.914 106.427 210.74 105.585C210.457 104.036 210.719 102.437 211.48 101.059C212.242 99.6817 213.456 98.6098 214.918 98.0256C215.35 97.8429 215.821 97.774 216.287 97.8256C218.164 98.1256 218.44 101.04 220.221 101.726C220.575 101.861 220.96 101.887 221.321 102.009C221.792 102.219 222.209 102.531 222.543 102.924C222.877 103.317 223.118 103.779 223.249 104.278C223.619 105.348 223.759 106.485 223.66 107.614C223.56 108.687 223.26 109.735 223.171 110.828C223.096 111.362 223.131 111.905 223.275 112.425C223.419 112.945 223.668 113.429 224.007 113.849C224.387 114.213 224.821 114.516 225.293 114.749C225.621 114.929 226.032 115.109 226.341 114.903C226.481 114.794 226.586 114.647 226.641 114.479C226.971 113.293 227.015 112.046 226.77 110.841C226.646 108.965 226.665 107.082 226.828 105.21C227.036 103.701 226.914 102.166 226.468 100.71C226.057 99.7721 225.501 98.9047 224.822 98.1386C224.244 97.3721 223.572 96.6811 222.822 96.0816C221.394 95.1022 219.695 94.5941 217.963 94.6286C216.245 94.6622 214.536 94.8777 212.863 95.2716C211.89 95.2278 210.936 95.5479 210.186 96.1694C209.436 96.7909 208.945 97.6694 208.807 98.6336L208.299 100.485C207.673 102.444 207.295 104.473 207.174 106.527C207.174 108.027 207.405 111.264 209.102 111.914C211.299 112.772 211.836 109.5 211.473 108.06Z" fill="black"/>
<path d="M211.473 107.745C211.254 106.909 210.914 106.112 210.74 105.27C210.457 103.722 210.719 102.123 211.48 100.745C212.242 99.3673 213.456 98.2953 214.918 97.7111C215.35 97.5284 215.821 97.4595 216.287 97.5112C218.164 97.8112 218.44 100.725 220.221 101.411C220.575 101.546 220.96 101.572 221.321 101.694C221.792 101.904 222.209 102.217 222.543 102.61C222.877 103.002 223.118 103.465 223.249 103.963C223.619 105.034 223.759 106.171 223.66 107.299C223.56 108.372 223.26 109.42 223.171 110.513C223.096 111.047 223.131 111.591 223.275 112.111C223.419 112.63 223.668 113.115 224.007 113.534C224.387 113.898 224.821 114.202 225.293 114.434C225.621 114.614 226.032 114.794 226.341 114.588C226.481 114.48 226.586 114.332 226.641 114.164C226.971 112.979 227.015 111.732 226.77 110.526C226.646 108.65 226.665 106.768 226.828 104.895C227.036 103.387 226.914 101.851 226.468 100.395C226.057 99.4577 225.501 98.5903 224.822 97.8242C224.244 97.0577 223.572 96.3667 222.822 95.7671C221.394 94.7877 219.695 94.2797 217.963 94.3141C216.245 94.3478 214.536 94.5633 212.863 94.9572C211.89 94.9134 210.936 95.2334 210.186 95.8549C209.436 96.4765 208.945 97.355 208.807 98.3192L208.299 100.17C207.673 102.129 207.295 104.159 207.174 106.212C207.174 107.712 207.405 110.949 209.102 111.599C211.299 112.424 211.836 109.21 211.473 107.745Z" fill="#2F2E41"/>
<path d="M170.714 154.988H357.605V168.66H170.714V154.988Z" fill="#DEDEDE"/>
<path d="M157.041 141.311H370.518V159.547H157.041V141.311Z" fill="#DEDEDE"/>
<path opacity="0.1" d="M170.714 159.547H357.605V161.829H170.714V159.547Z" fill="#3E5B6A"/>
<path d="M339.958 88.8947H339.652C321.743 102.771 313.922 91.1947 312.608 88.8947H312.3C294.391 102.771 286.57 91.1947 285.257 88.8947H284.95C267.041 102.771 259.22 91.1947 257.906 88.8947H257.6C239.691 102.771 231.87 91.1947 230.556 88.8947H230.256C212.347 102.771 204.526 91.1947 203.212 88.8947H202.906C184.998 102.771 177.177 91.1947 175.863 88.8947H175.555C155.783 104.213 148.306 88.5157 148.306 88.5157H148.859L165.398 52.4297H362.163L379.634 88.8947H373.55L380.013 89.2737C375.29 98.7257 368.765 90.7837 367.369 88.8947H367.006C360.522 93.9187 355.361 95.6067 351.352 95.6067C349.03 95.5888 346.754 94.9588 344.754 93.7804C342.753 92.6019 341.099 90.9167 339.958 88.8947Z" fill="#DEDEDE"/>
<path d="M32 301.5C49.6731 301.5 64 298.59 64 295C64 291.41 49.6731 288.5 32 288.5C14.3269 288.5 0 291.41 0 295C0 298.59 14.3269 301.5 32 301.5Z" fill="#EBEFEC"/>
<path d="M46.628 284.82C46.628 284.82 48.612 290.772 51.16 291.905C53.708 293.038 57.676 294.171 55.692 295.586C53.708 297.001 47.713 294.735 42.926 294.735C42.075 294.735 37.261 294.166 37.261 294.166C37.261 294.166 37.261 286.517 38.394 285.123C39.527 283.729 46.628 284.82 46.628 284.82Z" fill="#2F2E41"/>
<path d="M16.313 284.82C16.313 284.82 15.18 291.62 12.913 292.469C10.646 293.318 10.078 297.001 13.764 297.001C17.45 297.001 19.429 296.15 20.564 294.453L22.83 293.884C22.83 293.884 24.245 287.368 22.83 285.666L16.313 284.82Z" fill="#2F2E41"/>
<path d="M53.713 172.622C56.0669 174.203 58.3367 175.905 60.513 177.722C61.928 179.142 62.779 180.27 64.194 178.573C65.609 176.876 72.125 167.807 73.237 164.973C74.349 162.139 82.019 156.462 87.402 159.308C92.785 162.154 76.354 168.941 76.354 168.941L67.029 187.356C67.029 187.356 66.747 189.34 61.929 187.356C57.111 185.372 45.78 180.281 45.78 180.281L53.713 172.622Z" fill="#FBBEBE"/>
<path d="M47.2 210.874C47.2 210.874 49.748 228.428 48.615 231.843L46.067 250.258C46.067 250.258 46.349 281.142 47.482 284.541C48.615 287.94 37.282 288.222 37.282 288.222C37.282 288.222 38.697 279.44 37.282 277.174C35.867 274.908 36.149 251.955 36.149 251.955L32.734 228.155L25.649 256.486L23.692 288.221C23.692 288.221 16.043 287.938 15.474 285.672C14.905 283.406 14.059 253.656 15.474 250.821C16.889 247.986 15.474 227.021 15.474 227.021C15.474 227.021 16.6 210.874 20 208.89C23.4 206.906 47.2 210.874 47.2 210.874Z" fill="#2BC783"/>
<path d="M28.7759 150.525C28.7759 150.525 28.2069 164.125 23.3929 161.573L27.6479 174.339L37.2809 173.77L42.9429 166.121L38.6879 163.573C38.6879 163.573 35.5709 164.706 37.8369 154.222L28.7759 150.525Z" fill="#FBBEBE"/>
<path d="M36.984 161.292C36.984 161.292 41.798 165.26 45.495 165.547C48.256 165.76 53.095 170.914 55.336 173.478C55.7416 173.963 56.2503 174.352 56.825 174.616C56.825 174.616 51.16 182.547 50.309 182.547L48.609 181.414L47.194 196.999V206.346L48.327 213.146C48.327 213.146 30.476 213.428 28.779 212.013C27.082 210.598 17.444 213.146 17.444 213.146C17.444 213.146 20.279 194.731 18.295 192.465C16.311 190.199 12.912 174.332 12.912 174.332C12.912 174.332 10.646 167.816 12.912 165.821C12.912 165.821 19.46 163.98 22.646 161.688C23.7338 160.887 25.0458 160.45 26.396 160.438H26.603C26.6813 161.657 27.1586 162.817 27.9614 163.739C28.7641 164.66 29.8476 165.293 31.045 165.538C35.292 166.383 37.984 164.856 36.984 161.292Z" fill="#3E5B6A"/>
<path d="M17.728 182.256C17.728 182.256 9.21703 181.123 8.37703 181.123C7.53703 181.123 11.212 167.24 13.191 165.823C15.17 164.406 17.723 170.923 17.723 170.923L17.728 182.256Z" fill="#3E5B6A"/>
<path d="M9.79798 178.574C9.79798 178.574 6.96298 192.174 8.38298 196.128C8.38298 196.128 8.10098 198.963 9.79798 200.383C9.79798 200.383 19.149 212.851 19.149 213.983C19.149 215.115 21.984 220.499 26.798 215.967C26.798 215.967 29.064 212.85 23.963 210.302C18.862 207.754 14.612 194.716 14.612 194.716C14.612 194.716 18.867 184.232 17.16 180.833C15.453 177.434 9.79798 178.574 9.79798 178.574Z" fill="#FBBEBE"/>
<path d="M18.717 183.532L8.23303 180.979L9.08903 176.303L13.616 175.596L19.568 177.58L18.717 183.532Z" fill="#3E5B6A"/>
<path d="M35.292 158.738C40.1422 158.738 44.074 154.806 44.074 149.956C44.074 145.106 40.1422 141.174 35.292 141.174C30.4418 141.174 26.51 145.106 26.51 149.956C26.51 154.806 30.4418 158.738 35.292 158.738Z" fill="#FBBEBE"/>
<path d="M44.767 144.957C44.7854 144.634 44.8552 144.317 44.974 144.016C45.096 143.755 45.293 143.527 45.4 143.261C45.4919 142.916 45.5127 142.556 45.4611 142.204C45.4096 141.851 45.2867 141.512 45.1 141.208C44.3076 139.208 43.2886 137.306 42.063 135.538C41.8916 135.272 41.6555 135.054 41.377 134.905C41.0582 134.801 40.7218 134.763 40.388 134.793C38.829 134.793 37.388 134.038 35.915 133.543C34.442 133.048 32.723 132.814 31.42 133.703C30.117 134.592 29.67 136.363 28.292 137.07C27.92 137.261 27.505 137.357 27.138 137.565C26.6472 137.885 26.2242 138.299 25.893 138.783C25.127 139.539 24.5434 140.46 24.1866 141.476C23.8298 142.492 23.7092 143.576 23.834 144.645C23.834 146.245 23.999 148.017 25.265 148.945C25.5535 149.156 25.8021 149.417 25.999 149.716C26.2413 150.109 26.3633 150.564 26.35 151.025C26.414 151.903 26.75 152.775 26.818 153.653C26.8105 153.987 26.8972 154.317 27.068 154.605C27.1151 154.673 27.1755 154.732 27.2457 154.776C27.3159 154.821 27.3943 154.85 27.4763 154.864C27.5583 154.877 27.6422 154.874 27.7229 154.854C27.8036 154.835 27.8794 154.799 27.946 154.749L28.834 151.095C28.9544 150.365 29.2359 149.671 29.658 149.063C30.318 148.254 31.493 147.85 31.844 146.863C32.094 146.156 31.876 145.241 32.429 144.735C32.6668 144.552 32.9466 144.431 33.243 144.384C35.7902 143.777 38.4343 143.696 41.014 144.145C41.2917 144.178 41.5607 144.262 41.807 144.395C42.2274 144.728 42.5233 145.192 42.647 145.714C42.833 146.246 43.519 149.219 44.247 149.014C44.57 148.898 44.767 145.435 44.767 144.957Z" fill="#2F2E41"/>
<path d="M29.5762 216.311L19.9346 219.645L18.6375 215.895L28.2791 212.561L29.5762 216.311Z" fill="#2BC783"/>
<path d="M77.8159 161.392C77.7162 161.49 77.6591 161.623 77.657 161.762C77.655 161.902 77.7081 162.037 77.8049 162.137L81.1509 165.6C81.1996 165.651 81.2578 165.691 81.3222 165.718C81.3866 165.746 81.4559 165.761 81.526 165.761C81.5961 165.762 81.6656 165.749 81.7305 165.722C81.7954 165.696 81.8543 165.657 81.9039 165.607L92.1159 155.44C92.1718 155.385 92.2145 155.317 92.241 155.243C92.2675 155.169 92.2771 155.09 92.269 155.012C92.261 154.933 92.2355 154.858 92.1945 154.79C92.1535 154.723 92.0979 154.666 92.0319 154.623L88.0159 152.008C87.9155 151.942 87.7955 151.913 87.6759 151.924C87.5564 151.936 87.4445 151.989 87.3589 152.073L77.8159 161.392Z" fill="#3F3D56"/>
<path d="M92.188 154.777C92.1677 154.808 92.1442 154.837 92.118 154.863L81.929 165.222C81.8794 165.272 81.8204 165.311 81.7555 165.338C81.6906 165.364 81.6211 165.377 81.551 165.377C81.4809 165.376 81.4117 165.361 81.3473 165.334C81.2829 165.306 81.2247 165.266 81.176 165.215L77.758 161.607C77.7349 161.583 77.7141 161.557 77.696 161.528C77.639 161.626 77.6188 161.741 77.6392 161.852C77.6596 161.964 77.7191 162.064 77.807 162.135L81.153 165.599C81.2017 165.65 81.2599 165.69 81.3243 165.718C81.3887 165.745 81.4579 165.76 81.528 165.761C81.5981 165.761 81.6676 165.748 81.7325 165.722C81.7974 165.695 81.8564 165.656 81.906 165.606L92.118 155.44C92.2037 155.355 92.2574 155.242 92.2702 155.122C92.2829 155.001 92.2539 154.88 92.188 154.778V154.777Z" fill="#2BC783"/>
<path d="M91.243 154.904L90.827 154.639C90.8668 154.717 90.8799 154.806 90.8643 154.892C90.8486 154.978 90.8051 155.057 90.7403 155.116C90.6755 155.175 90.5932 155.212 90.5058 155.219C90.4185 155.227 90.3311 155.206 90.257 155.159L87.568 153.31C87.5091 153.267 87.4631 153.209 87.4348 153.142C87.4064 153.075 87.3969 153.002 87.4072 152.93C87.4174 152.858 87.4472 152.79 87.4931 152.734C87.5391 152.677 87.5995 152.634 87.6679 152.61L87.4539 152.474C87.4262 152.456 87.3932 152.448 87.3604 152.452C87.3277 152.456 87.2971 152.47 87.274 152.494L78.2279 161.384C78.2142 161.397 78.2033 161.413 78.1959 161.431C78.1884 161.449 78.1846 161.468 78.1846 161.487C78.1846 161.506 78.1884 161.525 78.1959 161.543C78.2033 161.56 78.2142 161.576 78.2279 161.59L81.5129 164.79C81.5398 164.816 81.5756 164.83 81.6129 164.83C81.6503 164.83 81.6861 164.816 81.713 164.79L91.258 155.133C91.2734 155.118 91.2851 155.099 91.2924 155.079C91.2997 155.058 91.3022 155.037 91.2999 155.015C91.2976 154.994 91.2905 154.973 91.2791 154.954C91.2677 154.936 91.2522 154.921 91.2339 154.909L91.243 154.904Z" fill="white"/>
<path d="M80.802 159.416L83.577 162.033L90.177 155.512L86.827 153.332L80.802 159.416Z" fill="#E6E6E6"/>
<path d="M89.921 157.121C89.9395 157.138 89.9638 157.147 89.989 157.147C90.0142 157.147 90.0385 157.138 90.057 157.121L90.634 156.544C90.6511 156.525 90.6606 156.501 90.6606 156.476C90.6606 156.45 90.6511 156.426 90.634 156.408C90.6155 156.39 90.5912 156.381 90.566 156.381C90.5408 156.381 90.5165 156.39 90.498 156.408L89.921 156.985C89.9038 157.003 89.8943 157.027 89.8943 157.053C89.8943 157.078 89.9038 157.102 89.921 157.121Z" fill="#3F3D56"/>
<path d="M88.949 158.094C88.9675 158.112 88.9918 158.121 89.017 158.121C89.0422 158.121 89.0666 158.112 89.0851 158.094L89.662 157.517C89.6756 157.51 89.6871 157.499 89.6959 157.487C89.7046 157.474 89.7103 157.459 89.7125 157.444C89.7146 157.429 89.7132 157.413 89.7083 157.398C89.7033 157.384 89.6951 157.37 89.6841 157.359C89.6732 157.348 89.6599 157.34 89.6452 157.335C89.6305 157.33 89.6149 157.329 89.5996 157.331C89.5843 157.333 89.5696 157.339 89.5569 157.348C89.5441 157.356 89.5336 157.368 89.526 157.381L88.949 157.958C88.9319 157.977 88.9224 158.001 88.9224 158.026C88.9224 158.052 88.9319 158.076 88.949 158.094Z" fill="#3F3D56"/>
<path d="M80.866 162.31C81.2239 162.31 81.514 162.02 81.514 161.662C81.514 161.304 81.2239 161.014 80.866 161.014C80.5081 161.014 80.218 161.304 80.218 161.662C80.218 162.02 80.5081 162.31 80.866 162.31Z" fill="#2BC783"/>
<path opacity="0.1" d="M155.156 210.443H123.978C117.903 210.443 112.978 215.368 112.978 221.443V235.908C112.978 241.983 117.903 246.908 123.978 246.908H155.156C161.231 246.908 166.156 241.983 166.156 235.908V221.443C166.156 215.368 161.231 210.443 155.156 210.443Z" fill="black"/>
<path d="M154.398 211.967H123.22C117.145 211.967 112.22 216.892 112.22 222.967V237.432C112.22 243.507 117.145 248.432 123.22 248.432H154.398C160.473 248.432 165.398 243.507 165.398 237.432V222.967C165.398 216.892 160.473 211.967 154.398 211.967Z" fill="#DEDEDE"/>
</g>
<defs>
<linearGradient id="paint0_linear_409_591" x1="217.44" y1="142.972" x2="217.44" y2="91.7988" gradientUnits="userSpaceOnUse">
<stop stop-color="#808080" stop-opacity="0.251"/>
<stop offset="0.54" stop-color="#808080" stop-opacity="0.122"/>
<stop offset="1" stop-color="#808080" stop-opacity="0.102"/>
</linearGradient>
<clipPath id="clip0_409_591">
<rect width="640.972" height="301.5" fill="white"/>
</clipPath>
</defs>
</svg>
