<svg xmlns="http://www.w3.org/2000/svg" width="495.8" height="431" viewBox="0 0 495.8 431">
    <defs>
        <clipPath id="prefix__clip-path">
            <path id="prefix__Path_21" fill="#e6952b" d="M495.8 0H0v431h495.8z" data-name="Path 21"/>
        </clipPath>
    </defs>
    <g id="prefix__asset" clip-path="url(#prefix__clip-path)">
        <g id="prefix__photo-1586999768265-24af89630739" fill="none" stroke="none">
            <path d="M250.5 501C112.153 501 0 388.847 0 250.5S112.153 0 250.5 0 501 112.153 501 250.5 388.847 501 250.5 501z" transform="translate(-183.2 -248)"/>
            <path fill="rgba(255,255,255,0.1)" d="M250.5 499c16.862 0 33.712-1.699 50.084-5.049 15.954-3.264 31.647-8.136 46.643-14.479 14.724-6.227 28.926-13.936 42.21-22.91 13.16-8.89 25.533-19.1 36.779-30.346 11.246-11.246 21.455-23.62 30.345-36.779 8.975-13.284 16.684-27.486 22.911-42.21 6.343-14.996 11.215-30.69 14.48-46.643 3.35-16.372 5.048-33.222 5.048-50.084 0-16.862-1.699-33.712-5.049-50.084-3.264-15.954-8.136-31.647-14.479-46.643-6.227-14.724-13.936-28.926-22.91-42.21-8.89-13.16-19.1-25.533-30.346-36.779-11.246-11.246-23.62-21.455-36.779-30.345-13.284-8.975-27.486-16.684-42.21-22.911-14.996-6.343-30.69-11.215-46.643-14.48C284.212 3.699 267.362 2 250.5 2c-16.862 0-33.712 1.699-50.084 5.049-15.954 3.264-31.647 8.136-46.643 14.479-14.724 6.227-28.926 13.936-42.21 22.91-13.16 8.89-25.533 19.1-36.779 30.346-11.246 11.246-21.455 23.62-30.345 36.779-8.975 13.284-16.684 27.486-22.911 42.21-6.343 14.996-11.215 30.69-14.48 46.643C3.699 216.788 2 233.638 2 250.5c0 16.862 1.699 33.712 5.049 50.084 3.264 15.954 8.136 31.647 14.479 46.643 6.227 14.724 13.936 28.926 22.91 42.21 8.89 13.16 19.1 25.533 30.346 36.779 11.246 11.246 23.62 21.455 36.779 30.345 13.284 8.975 27.486 16.684 42.21 22.911 14.996 6.343 30.69 11.215 46.643 14.48 16.372 3.35 33.222 5.048 50.084 5.048m0 2C112.153 501 0 388.847 0 250.5 0 112.153 112.153 0 250.5 0 388.847 0 501 112.153 501 250.5 501 388.847 388.847 501 250.5 501z" transform="translate(-183.2 -248)"/>
        </g>
    </g>
</svg>
