<svg xmlns="http://www.w3.org/2000/svg" width="495.8" height="431.9" viewBox="0 0 495.8 431.9">
    <defs>
        <clipPath id="prefix__clip-path">
            <path id="prefix__Path_1443" fill="#e6952b" d="M495.8 431.9H0V0h495.8z" data-name="Path 1443"/>
        </clipPath>
    </defs>
    <g id="prefix__asset2" clip-path="url(#prefix__clip-path)">
        <g id="prefix__photo-1586999768265-24af89630739" fill="none" stroke="none" stroke-dasharray="9" opacity="0.5">
            <path d="M294.15 0C131.7 0 0 131.7 0 294.15S131.7 588.3 294.15 588.3 588.3 456.6 588.3 294.15 456.6 0 294.15 0z" transform="translate(-183.2 91.6)"/>
            <path fill="rgba(0,0,0,0.18)" d="M294.15 0H294.86l.128.001h.187l.074.001h.193l.07.001h.147l.1.001h.064l.072.001h.129l.058.001h.074l.05.001h.108l.213.002.093.001h.035l.089.001h.038l.089.001h.034l.094.001h.017l.336.004h.008l.103.001h.022l.102.002h.02l.105.001h.009l.463.006h.007l.11.002h.013l.111.001h.003l.583.01h.014l.108.001h.01l.576.01h.017l.101.003h.025l.1.002h.016l.34.007h.005l.09.002.04.001.08.002.05.001.076.002h.059c.03.002.037.002.067.002l.076.002.057.001.122.003.04.001.093.002.042.001.097.002.032.001.114.003h.016c.56.014 1.12.03 1.678.046l-.06 2c-2.963-.09-5.971-.135-8.942-.135V0zm17.994.541c.938.057 1.876.118 2.812.183.01.001-.009 0 0 0l.137.01h.007l.137.01.416.03h.013l.123.01.016.001.13.01h.005l.28.02.132.01.019.002.119.009h.017l.129.01.006.001.413.032h.014l.124.01.013.001.555.044c1.121.089 2.24.184 3.356.286l-.18 1.991c-2.952-.268-5.95-.495-8.913-.673l.12-1.997zm17.92 1.63c1.479.18 2.948.37 4.42.571h.001l.107.015.016.003.104.014.01.001.325.045.013.002.092.013.035.005.083.011.044.006.083.012.027.004.296.042.034.004.086.013.037.005.086.012.035.005.419.06.022.003.1.015.016.002c.81.117 1.618.237 2.427.36l-.303 1.978c-2.93-.448-5.91-.858-8.856-1.216l.241-1.986zm17.793 2.72c1.412.261 2.82.532 4.225.812h.003l.11.023h.004l.426.086.031.006.083.017.043.009.078.016.05.01.072.014.114.024.056.011.073.015.053.01.078.017c.019.003.028.005.047.01.032.006.065.012.097.02l.028.005.264.054.013.003.12.025.018.003.127.026h.002c.871.181 1.74.365 2.609.553l-.423 1.955c-2.898-.627-5.846-1.218-8.764-1.756l.363-1.967zM365.444 8.7l.273.068h.002c.955.24 1.91.483 2.861.731l.008.002.12.032.02.005.123.032.006.002.26.068.033.009.09.023.045.012.085.022.04.011.1.026.073.02.069.018.069.018.049.013.077.02.04.011.083.022.01.003.314.084.01.002.106.029h.002c1.244.333 2.496.677 3.733 1.026l-.543 1.925c-2.855-.805-5.762-1.576-8.64-2.293l.482-1.94zm17.325 4.885l.401.127c.01.003-.006-.002.003 0l.13.042.004.001.397.127.01.003.12.038.014.005.394.126.007.002.121.04c.01.002.005 0 .014.004l.394.127.005.002.126.04.009.003c2.14.694 4.27 1.412 6.39 2.153l-.661 1.888c-2.8-.98-5.652-1.928-8.48-2.82l.602-1.908zm16.986 5.942l.044.017.03.011.087.034h.002l.305.118.011.005.095.036.015.006.408.158.002.002.52.202.003.002.102.04.005.001c.139.055.266.104.405.16l.016.006.093.036.017.007.285.112.02.008.08.032.036.014.076.03.041.017.075.029.02.008.152.06.047.019.065.026.054.021.063.025.059.024.057.023.11.043.042.017.08.032.044.018.077.03.045.019.09.036.027.01.123.05.01.004.111.045.03.011.093.038.032.013.113.045.006.003.128.051.005.002.118.048.021.009.106.042.019.008.378.154.013.005.113.046.016.006.379.155.013.005.11.045.02.009.249.101.016.007.103.043.033.013.088.036.038.016.098.04.02.009.115.047.05.02.067.028.059.025.052.021.068.028.036.015.275.114.01.004.1.042c.372.154.741.309 1.11.464l-.775 1.844c-2.734-1.15-5.524-2.273-8.292-3.338l.718-1.867zm16.59 6.978c.68.31 1.357.623 2.033.938l.03.014.086.04c.008.005.03.015.04.019l.075.035.066.031.08.038.074.035.036.016.082.039.02.009c1.75.822 3.48 1.654 5.213 2.51h.001l.087.043.029.014.076.038.04.02.058.028-.887 1.793c-2.659-1.316-5.374-2.608-8.07-3.841l.832-1.82zm16.13 7.984c1.324.706 2.641 1.423 3.952 2.149l.01.005.106.059.02.011.102.056.016.01.118.065h.001l.11.061.037.02c.024.015.05.029.074.042l.043.024.07.039.045.025.101.057.06.033.047.026.065.037.044.024.067.038.03.017.26.145.012.007.09.05.007.005c.8.448 1.592.898 2.387 1.354l-.996 1.735c-2.573-1.477-5.204-2.934-7.82-4.33l.942-1.764zm15.61 8.957c.836.515 1.67 1.035 2.502 1.558l.011.007.112.07.003.002.228.144.024.015.09.057.023.014.107.068.003.002.115.073.016.01c.03.02.062.039.093.058l.033.021.078.05.032.02.088.056.026.017.101.064.041.026.066.042.046.03.065.041.044.028.086.055.052.032.07.045.047.03.06.038.05.033.058.037.048.03.098.063.049.032.059.037.054.035.048.031.06.038.044.029.119.076.034.022.066.042.038.025.065.042.038.024.068.044.026.017.143.092.023.015.07.045.034.022.069.045.03.02.236.152.03.02.067.043.037.024.065.043.037.023c.077.05.15.097.226.148l.035.022.067.044.037.024.067.044.025.016.146.096.021.013.064.042.043.028.061.04.043.028.061.04.037.024.115.076.046.03.057.037.049.032.056.037.053.035.051.034.097.064.01.006-1.1 1.67c-2.478-1.631-5.015-3.246-7.54-4.8l1.047-1.704zm15.033 9.896c.708.499 1.417 1.002 2.121 1.506l.358.257.003.001.085.062.01.007.342.246.018.013.077.056.016.011.247.179.014.01.074.053.025.019.072.052.022.016.236.17.023.018.068.05.033.023.067.05.021.015.137.1.027.019.062.045.04.03c.016.01.046.033.061.044l.038.027.063.046.018.013.134.099.034.024.065.048.035.025.062.046.04.03.107.078.043.031.058.043.04.03.06.044.042.03.06.044.042.031.1.074.046.034.056.041.046.034.055.04.052.039.046.034.092.068c.015.01.03.022.044.033l.062.045.045.034.058.043.045.033.067.05.035.025.098.073.035.026.07.051.036.027.07.053.035.026c.069.05.138.102.206.153l.022.016.088.066.02.015.097.073.008.005.221.166.005.004.108.08.003.002.111.084-1.2 1.6c-2.373-1.78-4.807-3.546-7.233-5.251l1.15-1.637zm14.4 10.794c2.344 1.872 4.663 3.781 6.948 5.722l-1.295 1.524c-2.26-1.92-4.582-3.832-6.9-5.683l1.248-1.563zm13.718 11.651l.01.01.089.08.007.007.203.183.01.009.091.083.012.01.306.278.003.003.413.376.002.002.31.284h.001l.104.095.724.666c1.448 1.335 2.881 2.684 4.302 4.047l-1.385 1.443c-2.14-2.054-4.341-4.103-6.543-6.091l1.341-1.485zM504.22 88.25l.019.019.017.018.094.096.054.054.035.037.06.061.027.028.08.082.009.008.192.197.006.007c.849.87 1.692 1.747 2.53 2.628l.004.004.284.299.012.013.078.082.02.02.083.089.006.006.09.095.023.024.064.068.034.036.051.055.04.04.057.062.057.06.051.055.046.048.038.04.05.054.03.031c.069.074.133.143.203.216l.004.006c.026.026.046.049.071.075l.007.008c.56.596 1.12 1.2 1.675 1.8l-1.47 1.357c-2.01-2.18-4.083-4.36-6.16-6.478l1.429-1.4zm12.202 13.23c.275.316.549.633.823.952l.01.012.075.087.017.02.082.095.004.005.08.093.038.045.043.05.044.05.035.041.047.056.017.02.126.147.003.004.068.079.007.008c1.444 1.692 2.867 3.397 4.274 5.122l-1.55 1.264c-1.874-2.298-3.81-4.6-5.754-6.84l1.51-1.31zm11.375 13.946c.454.594.907 1.189 1.357 1.786l.01.012.074.1.007.009.165.219.006.007.07.095.021.027.062.082.017.023.078.104.005.006.072.097.026.035.049.065.032.043.046.062.032.042.069.092.04.054.033.045.045.06.027.036.05.067.013.018.18.242.012.015.06.08.005.008c.9 1.212 1.784 2.421 2.666 3.648l.007.01.028.038-1.624 1.167c-1.731-2.408-3.524-4.823-5.328-7.178l1.588-1.216zM538.3 130.04l.47.699.001.002.076.115.002.001.152.229.01.015.063.093.017.026.057.086.017.025.07.106.02.03.05.075.03.046.038.057.036.053.032.05.144.216.022.033.046.07.02.03.049.073.008.013.169.256.011.017.054.082.008.011c1.096 1.664 2.178 3.344 3.24 5.031l-1.691 1.066c-1.581-2.509-3.223-5.028-4.88-7.489l1.659-1.117zm9.593 15.228l.013.021.049.084.016.029.057.095.01.018.135.23.011.02.06.101.008.014.206.353.007.012.065.112.002.004c.07.118.138.237.207.355l.01.016c.02.037.042.073.063.11l.003.005.138.24.005.007.062.107.01.018.204.353.005.01.063.108.007.013.137.238v.001l.065.113.012.02.055.096.013.023.132.231.01.016.056.099.014.025.052.091.014.026.13.227.017.03.047.083.02.035.048.084.016.03.065.113.005.008.057.102.02.036.045.079.02.036.05.087.014.025.063.112.015.026.049.087.02.036.046.08.018.033.055.098.009.016.064.113.013.025.05.089.019.032.05.089.014.025.129.23.011.021.054.096.014.026.056.1.008.014.132.236.008.015.059.106.007.013c.318.572.635 1.145.95 1.72l-1.755.96c-1.424-2.6-2.908-5.216-4.412-7.773l1.724-1.014zm8.642 15.786c.181.355.359.707.538 1.063l.007.014.043.085.014.03.072.141.018.037.024.047.035.07.022.043.04.08.017.034.056.112.124.25.003.005c.794 1.592 1.574 3.193 2.34 4.801v.001l.058.122.004.008.175.369.01.023.046.096.014.028.049.105.007.014.055.117.016.034.038.08.022.047.033.07.022.048.035.073.018.038-1.81.85c-1.262-2.683-2.583-5.384-3.928-8.029l1.783-.906zm7.658 16.287c1.19 2.746 2.342 5.523 3.45 8.312l-1.86.738c-1.094-2.756-2.246-5.533-3.425-8.255l1.835-.795zm6.641 16.727l.284.786.005.015.04.11.007.021.044.122v.004c.015.04.03.08.043.119l.017.047.025.07.022.06.02.056.023.065.015.045.06.17.003.006.032.09.008.023.032.09.007.02c.375 1.06.74 2.11 1.104 3.177 0 .003.002.005.003.007l.139.41.006.019.03.089.01.029c.01.026.02.056.028.082l.012.036.054.16.01.027.023.07.017.05.022.065.02.062.02.057.025.075.015.045.04.118.01.033.032.093.012.036.032.096.009.026.13.39.001.004c.148.445.295.89.44 1.336l-1.9.622c-.922-2.82-1.902-5.663-2.911-8.453l1.88-.68zm5.599 17.104c.842 2.87 1.644 5.767 2.4 8.673l-1.935.504c-.747-2.87-1.55-5.768-2.385-8.614l1.92-.563zm4.533 17.418c.664 2.919 1.285 5.854 1.862 8.805l-1.963.384c-.569-2.912-1.191-5.854-1.85-8.745l1.951-.444zm3.452 17.662c.37 2.26.715 4.53 1.034 6.808l.018.132.002.012.056.402c0 .01.003.029.005.038l.012.088.007.053.01.072.008.06.008.06.04.286.001.014.014.103.002.015.102.76-1.983.262c-.39-2.942-.83-5.917-1.31-8.842l1.974-.323zm2.364 17.843l.008.076c0 .01.002.018.003.028l.009.087c0 .013.002.027.004.04l.008.084.004.041.009.084.003.036.015.152.006.053.006.067.006.062.007.065.006.065.006.063.007.066.006.063.008.083.008.08.008.086.006.057.007.072.005.059.007.071.006.059.007.077.005.05.01.108.006.06.008.085.005.059.007.068.006.064.006.065.006.064.006.065.006.064.006.068.01.115.007.063.006.069.005.058.007.072.005.052.007.078.003.042c.01.097.018.197.027.294l.002.028.008.088.004.037.007.085.004.041.008.088c0 .007 0 .015.002.022l.029.33v.002l.01.11v.01l.01.11v.007c.132 1.523.251 3.04.36 4.57l-1.995.14c-.21-2.96-.468-5.956-.768-8.905l1.99-.202zm1.272 17.95c.121 2.985.198 5.99.229 8.996l-2 .021c-.03-2.969-.107-5.976-.227-8.936l1.998-.081zm-1.813 17.965l2 .04c-.013.657-.028 1.315-.045 1.972v.001l-.004.136v.007l-.004.137v.001l-.012.419v.01l-.004.124v.02l-.004.123v.011l-.013.413v.017l-.004.119v.021l-.004.117v.02l-.014.411v.011l-.005.122v.025l-.004.113-.001.023-.004.124v.01l-.01.276v.007l-.005.128-.001.019-.004.117-.001.021-.005.126v.007l-.016.414v.015l-.005.122v.017l-.006.125v.01l-.017.414v.012l-.005.123v.019l-.006.12v.016l-.006.133v.002l-.012.276v.014l-.006.12-.001.025-.005.11-.001.026-.005.117v.017l-.013.268-.002.033-.004.096-.002.048-.004.082-.002.052-.004.079-.003.053-.004.089-.002.041-.005.12-.004.077c0 .017-.002.034-.003.05l-.003.08-.003.044-.004.086-.002.036-.004.094v.007l-.006.101-1.997-.1c.147-2.958.252-5.963.31-8.93zm-.89 17.855l1.993.16c-.03.375-.061.75-.093 1.124l-.011.137v.007l-.012.137-.036.418-.001.01-.01.125-.002.016-.012.131v.003l-.037.414v.016l-.011.118-.002.021-.011.122-.001.013-.025.273-.002.016-.01.116-.003.028-.01.107-.002.029-.01.115-.002.018-.025.27-.003.022-.01.108-.003.035-.01.1-.003.034-.01.107-.002.025-.013.134v.004l-.012.124-.004.044-.008.086-.005.05-.008.082-.005.048-.009.093-.003.037-.013.126-.004.043-.008.086-.006.056-.007.07-.006.064-.006.064-.007.066-.006.06-.016.164-.002.02-.008.076-.005.05-.008.077-.004.05-.008.078-.005.044-.008.084-.003.03-.032.31-.002.017-.01.1-.002.02-.011.105v.007c-.076.724-.154 1.453-.234 2.176l-1.988-.221c.327-2.946.614-5.94.851-8.9zm-1.974 17.765l1.98.282-.17 1.181-.006.04-.011.076-.008.052-.01.071-.01.065-.009.06-.018.122-.005.034-.014.097-.006.04-.014.093-.006.039-.016.108-.003.018-.061.409-.001.008-.02.134v.001c-.19 1.251-.388 2.5-.593 3.746v.005l-.069.413-.021.129-.005.025-.017.105-.005.03-.018.106-.004.027-.022.13-.004.02-.017.104-.009.053-.012.073c-.003.018-.008.043-.01.062l-.01.058-.013.071-.008.046-.048.286-.004.023-.016.095-.004.023-.105.61-1.971-.343c.507-2.92.975-5.89 1.393-8.827zm-3.057 17.612l1.96.402-.189.907v.003l-.023.11v.002l-.094.443v.006l-.022.101-.004.019-.092.434-.001.005-.022.103-.003.014-.022.103-.002.007-.092.432-.004.017-.021.1-.004.016-.091.42-.005.023-.02.09-.007.033-.019.089-.005.023-.065.295-.006.028-.019.087-.008.035-.018.084-.008.037-.062.278-.008.036-.017.078-.01.047-.017.074-.011.051-.016.071-.013.06-.023.103-.017.076-.013.056-.016.072-.011.052-.018.079-.011.048-.02.093-.008.032-.028.125-.007.029-.023.103-.007.03-.023.103-.006.027-.028.124v.002c-.219.96-.441 1.917-.668 2.872l-1.946-.462c.686-2.885 1.336-5.821 1.933-8.727zm-4.134 17.389l1.931.522-.002.009-.07.257-.005.019-.031.114-.005.017-.033.123-.002.007c-.74 2.717-1.52 5.418-2.335 8.104l-1.914-.582c.862-2.837 1.692-5.728 2.466-8.59zm-5.197 17.102l1.895.64-.09.264-.002.008c-.842 2.485-1.717 4.955-2.624 7.41l-.009.024-.036.1c-.004.008-.01.022-.012.031l-.033.09-.014.037-.042.113-.02.054-.024.063-.025.068-.016.044-.03.078c-.002.009-.006.017-.009.025l-.026.072-1.874-.698c1.035-2.78 2.042-5.614 2.991-8.423zm-6.24 16.748l1.851.755-.053.13v.003l-.05.12-.006.015-.05.121-.001.003-.105.256-.005.011-.046.113-.008.018-.05.122-.104.254-.008.019-.043.103-.01.025-.047.113-.004.009-.053.127c-.003.009.003-.005-.001.003l-.05.12-.008.02-.043.103-.01.026-.047.11-.004.01-.051.124-.01.021-.04.1-.014.033-.038.09-.014.032-.045.11-.005.01-.052.123-.008.02-.042.1-.013.033-.039.091-.013.032-.102.24-.01.027-.041.096-.013.03-.04.097-.011.025-.104.244-.01.025-.041.097-.013.03-.041.096-.011.026-.104.243-.01.025-.042.098-.012.028-.043.101-.009.02-.106.248-.007.016-.046.108-.008.02-.05.114-.003.007-.108.253-.005.01-.05.118-.004.009c-.427.988-.858 1.974-1.295 2.956l-1.828-.812c1.205-2.71 2.385-5.478 3.505-8.223zm-7.262 16.334l1.802.868c-.258.536-.513 1.06-.774 1.595l-.003.005-.046.094-.005.011-.142.288-.003.006-.039.08-.016.033-.035.072-.022.044-.033.066-.044.09-.026.053-.038.076-.021.044-.039.078-.018.036-.048.097-.008.018-.12.242-.008.015-.057.115c-.004.008.003-.005-.002.003-.708 1.426-1.428 2.845-2.158 4.258l-.004.007-.06.117-.004.006c-.02.041-.042.081-.063.122l-.004.009-.053.101-.024.047-.032.061-.03.06-.023.041-.029.056-1.774-.923c1.37-2.631 2.716-5.32 4.003-7.99zm-8.25 15.856l1.745.977c-.746 1.333-1.497 2.65-2.263 3.97l-.005.009-.051.088-.009.014-.142.246-.026.044-.034.059-.034.057-.029.05-.044.076-.02.032-.062.108-.019.032-.047.081-.02.035-.054.09-.01.02-.21.355-.003.005c-.474.807-.952 1.612-1.435 2.414l-1.714-1.03c1.528-2.543 3.037-5.144 4.486-7.732zm-9.206 15.322l1.682 1.082c-.405.63-.813 1.259-1.223 1.885l-.005.009-.072.11-.003.004-.153.234-.072.109-.011.017-.068.103-.005.009-.148.223-.016.025-.054.082-.023.034-.054.083-.017.025-.07.105-.022.034-.047.072-.03.045-.04.06-.032.049-.04.06-.06.09-.033.05-.042.063-.025.039-.044.066c-.008.01-.015.022-.022.033l-.048.072-.123.184-.053.08-.015.022-.054.08-.004.007c-.747 1.12-1.493 2.222-2.256 3.33l-1.648-1.132c1.68-2.445 3.346-4.949 4.95-7.443zm-10.126 14.732l1.613 1.182c-1.181 1.612-2.372 3.202-3.586 4.789l-.005.007-.063.082-.006.007-.193.252-.006.008-.058.076-.016.02-.057.075-.009.012-.183.237-.018.024-.053.068-.022.03-.052.066-.016.021-.107.14-.016.02-.05.065c-.01.011-.018.022-.026.033l-.048.062-.03.038-.046.06-.01.013-.105.136-.028.035-.044.057-.034.044-.043.056-.032.04-.108.14-.003.004-.048.061-.03.038c-.01.015-.035.045-.046.06l-.028.036-.049.062-.02.026-.1.129-.021.027-.016.02-1.576-1.231c1.826-2.338 3.641-4.736 5.394-7.127zm-11.004 14.086l1.538 1.279c-.711.855-1.42 1.698-2.14 2.545l-.006.007-.064.075-.013.016-.063.073-.01.012-.125.146-.011.013-.053.062-.028.033-.049.057-.035.042-.045.052-.064.075-.038.044-.055.064-.036.043-.048.055-.036.043-.057.066-.024.027-.083.097-.016.02-.07.08-.021.026-.07.08-.016.018-.175.205-.008.009-.081.093-.01.012c-.765.885-1.534 1.766-2.308 2.642l-1.499-1.325c1.965-2.222 3.923-4.505 5.82-6.786zm-11.841 13.392l1.457 1.37c-.866.92-1.738 1.836-2.616 2.747l-.006.006-.086.09-.013.012-.184.191-.022.023-.067.069-.032.033-.055.057-.037.038-.07.072-.049.05-.05.052-.046.048-.038.04-.052.053-.027.027-.203.209-.012.012-.068.07-.013.013c-.834.855-1.673 1.705-2.517 2.55l-1.415-1.413c2.096-2.098 4.19-4.258 6.22-6.42zm-12.634 12.646l1.372 1.456-.017.016-.073.069-.025.023-.08.075-.015.014-.196.185-.011.01-.091.086-.008.007c-2.016 1.89-4.06 3.752-6.129 5.586l-1.326-1.497c2.22-1.967 4.44-3.996 6.6-6.03zm-13.379 11.856l1.28 1.536-.013.011-.079.066-.026.022-.076.064-.026.021-.093.077-.04.034c-.02.015-.037.03-.056.046l-.05.041-.044.037-.053.044-.034.028-.123.102-.022.018c-.02.018-.046.039-.068.056l-.023.02-.07.058-.017.013-.24.199c-.002 0-.003.002-.005.004l-.08.065-.008.007c-.398.328-.787.647-1.186.972l-.01.01-.331.268-.01.008-.078.063-.012.01-.235.19-.018.015-.066.054-.03.023c-.02.018-.043.036-.064.053l-.03.024-.208.168-.039.032-.054.043-.048.039-.048.039-.075.06-.02.017-.097.078-.034.027-.07.055c-.013.012-.018.016-.033.027l-.076.062-.023.018-.104.083v.001l-.101.081-.021.017-.088.07-.015.012-.321.257-.006.004c-.732.584-1.466 1.165-2.203 1.742l-1.233-1.574c2.335-1.828 4.674-3.718 6.953-5.617zm-14.075 11.02l1.185 1.61c-2.412 1.773-4.866 3.52-7.333 5.219l-1.135-1.647c2.442-1.682 4.893-3.426 7.283-5.183zm-14.72 10.14l1.083 1.68c-2.52 1.625-5.065 3.213-7.637 4.761l-1.032-1.713c2.54-1.53 5.093-3.12 7.586-4.728zm-15.312 9.222l.979 1.744c-.49.275-.979.548-1.47.82l-.007.004-.357.197-.022.012-.093.052-.027.014-.1.056-.016.008-.111.062-.038.02-.072.04-.049.027-.063.034-.052.03-.058.03-.102.057-.05.027-.065.035-.043.024-.07.039-.03.016-.365.199-.013.007-.092.05-.002.001c-1.505.82-3.027 1.63-4.548 2.424l-.925-1.773c2.629-1.372 5.274-2.803 7.86-4.256zm-15.848 8.267l.87 1.801c-2.167 1.047-4.36 2.073-6.555 3.068h-.002l-.373.17-.05.022-.058.026-.064.03-.049.021-.108.049-.005.002-.126.057-.005.002c-.256.115-.512.23-.768.343l-.814-1.826c2.708-1.208 5.436-2.474 8.107-3.765zm-16.327 7.279l.758 1.85c-1.755.719-3.513 1.419-5.284 2.104l-.018.007-.089.034-.028.01-.24.093c-.023.01-.046.018-.07.027l-.048.02-.08.03-.036.014-.114.043-.004.002c-.788.302-1.577.601-2.368.897l-.7-1.873c2.776-1.039 5.576-2.135 8.321-3.258zm-16.74 6.258l.642 1.894c-.205.07-.391.133-.596.201l-.014.005-.097.033-.009.003-.298.1-.02.007-.085.028-.035.012-.077.026-.044.014-.075.025-.04.014-.128.042-.057.02-.063.02-.063.021-.056.019-.07.023-.05.017-.117.038-.032.01-.09.03-.047.016-.078.026-.044.014-.087.03c-.01.002-.028.008-.036.011l-.248.082-.028.009-.1.033-.028.009-.106.035-.02.006-.256.084-.018.006-.11.036-.022.007-.115.037-.012.004-.261.085-.009.003-.119.038-.018.006-.116.037-.012.004-.261.085-.01.003-.117.037-.02.007-.115.037-.013.004-.262.084-.006.002-.122.039-.017.005-.115.037-.015.005-.26.083-.01.002-.116.037-.024.008-.106.034-.024.007-.255.081-.017.005-.109.035-.03.01-.097.03-.031.01c-.036.01-.072.022-.107.033l-.02.006-.123.039-.036.011-.086.027-.046.015-.08.025-.046.014-.084.026-.04.013-.117.036-.05.015-.073.023-.056.018-.062.02-.065.02-.052.015-.263.082-.03.009-.084.026-.031.01-.089.027-.018.006-.752.23-.584-1.913c2.837-.865 5.7-1.787 8.51-2.74zm-17.098 5.216l.524 1.93c-2.885.784-5.799 1.527-8.718 2.225l-.465-1.945c2.884-.69 5.798-1.433 8.659-2.21zm-17.384 4.152l.405 1.959c-2.925.603-5.887 1.168-8.843 1.684l-.344-1.97c2.923-.51 5.878-1.073 8.782-1.673zm-17.608 3.075l.283 1.98c-.555.08-1.11.158-1.667.234l-.139.02-.413.055-.014.002-.12.016-.021.003-.112.015-.024.004-.27.036h-.006l-.122.017-.033.004-.095.013-.044.006-.09.012c-.01 0-.03.004-.04.005l-.1.013-.043.006-.111.014-.054.007-.073.01-.06.008-.069.009-.062.008-.06.008-.07.009-.047.006-.15.02c-.014 0-.028.003-.041.004l-.083.011-.042.005-.084.011-.036.005-.09.011-.022.003-.328.042-.108.013-.012.002-.106.013-.011.002c-1.285.16-2.564.313-3.854.457l-.223-1.987c2.949-.33 5.932-.711 8.866-1.132zm-17.763 1.992l.162 1.994c-2.982.243-5.977.44-8.983.594l-.102-1.998c2.966-.15 5.968-.349 8.923-.59zm-17.855.91l.041 2c-1.588.032-3.185.053-4.78.06h-.007l-.107.001h-.127l-.232.001h-.136l-.09.001H293.36c-.425-.001-.85-.003-1.274-.006h-.092l-.642-.006.019-2c.921.009 1.857.013 2.779.013 2.048 0 4.123-.022 6.168-.064zm-26.808-.654c2.956.206 5.958.37 8.924.487l-.079 1.999-.03-.001-.053-.003c-.03 0-.05-.002-.08-.003h-.022l-.323-.014h-.014l-.107-.005h-.014c-2.797-.117-5.565-.27-8.341-.465l.139-1.995zm-17.787-1.786c2.94.386 5.928.732 8.881 1.029l-.2 1.99c-1.824-.184-3.643-.384-5.458-.6h-.002l-.131-.016-.012-.001-.546-.066-.015-.002-.127-.015-.007-.001-.413-.051-.008-.001-.13-.016-.009-.001-.133-.017h-.002c-.65-.081-1.3-.164-1.949-.25l.26-1.982zm-17.642-2.87c2.91.565 5.87 1.093 8.798 1.57l-.321 1.974c-1.005-.164-1.995-.33-2.997-.504l-.012-.002-.097-.017-.03-.005c-.027-.005-.063-.01-.091-.016l-.023-.004-.28-.049-.055-.01-.068-.011-.059-.01-.065-.012-.067-.012-.058-.01-.108-.02-.03-.005-.112-.02-.041-.007-.088-.015-.045-.008-.089-.016-.039-.007-.113-.02-.014-.003-.135-.024-.007-.001-.123-.022-.026-.005-.106-.02-.03-.005-.112-.02-.017-.003-.268-.049-.013-.002-.117-.021-.026-.005-.111-.02-.02-.004-.4-.073-.022-.004-.111-.021-.023-.004-.119-.022-.013-.003-.265-.05c-.01 0-.015-.002-.024-.004l-.107-.02-.03-.005-.104-.02-.028-.005-.263-.05-.016-.002-.112-.021-.036-.007-.092-.018-.042-.007-.091-.018-.038-.007-.125-.024-.024-.004-.102-.02-.05-.01-.077-.014-.053-.01-.076-.015-.054-.01-.067-.013-.154-.03-.02-.003-.077-.015-.046-.01-.081-.015-.038-.007-.087-.017-.026-.005-.073-.014.381-1.964zm-17.433-3.95c2.87.744 5.794 1.454 8.687 2.11l-.442 1.95c-2.93-.664-5.846-1.372-8.743-2.123h-.004l.502-1.937zm-17.154-5.014c2.819.92 5.691 1.807 8.537 2.64l-.56 1.919c-.676-.197-1.35-.397-2.022-.599l-.009-.003-.122-.036-.012-.004-.265-.08h-.001l-.123-.037-.025-.008-.102-.03-.03-.01c-.037-.01-.074-.022-.11-.033l-.016-.005-.127-.038-.024-.008-.1-.03-.04-.013-.081-.024-.049-.015-.08-.024-.044-.014-.117-.036-.044-.013-.078-.024-.056-.017-.064-.02-.062-.019-.06-.018-.06-.019-.065-.02-.118-.036-.048-.015-.073-.022-.045-.014-.075-.023-.042-.013-.08-.025H207l-.194-.061-.023-.007-.083-.026-.036-.011-.085-.026-.024-.008-.412-.129c-.002 0-.004 0-.006-.002-.036-.01-.068-.021-.104-.032l-.004-.001c-1.051-.33-2.11-.669-3.155-1.01l.62-1.901zm-16.816-6.064c2.758 1.092 5.57 2.156 8.36 3.162l-.678 1.881c-.732-.264-1.462-.53-2.191-.8l-.003-.001-.102-.038-.006-.002-.306-.113-.008-.003-.085-.032-.033-.012-.076-.029-.045-.016-.071-.027-.062-.023-.096-.036-.068-.025-.056-.021-.067-.025-.052-.02-.075-.028-.044-.016-.118-.044-.016-.006-.106-.04-.035-.013-.091-.035-.031-.011-.105-.04-.018-.007-.251-.094-.02-.008-.109-.041-.019-.007-.122-.047-.262-.099-.004-.002-.124-.047-.009-.003-.386-.148-.011-.004-.117-.044-.013-.006-.382-.146-.017-.007-.107-.04-.023-.01-.109-.042-.016-.006-.126-.049-.009-.003-.11-.043-.036-.014c-.03-.01-.058-.022-.086-.033l-.04-.015-.083-.033-.04-.015-.113-.044-.054-.021-.062-.024-.067-.026-.046-.018-.073-.029-.035-.013-.393-.154h-.002l-.976-.385.736-1.86zm-16.409-7.086c2.686 1.26 5.428 2.494 8.15 3.67l-.793 1.836c-.282-.122-.568-.246-.85-.37h-.002l-.099-.043-.01-.004-.255-.112-.056-.024-.054-.024-.067-.03-.048-.02-.08-.035-.037-.017-.24-.105-.021-.01-.107-.046-.016-.007c-1.327-.585-2.649-1.179-3.965-1.782l-.008-.004-.372-.171-.019-.009-.102-.047-.024-.01-.115-.054c-.008-.004.005.003-.003-.001l-.122-.057-.023-.01-.095-.044-.035-.016-.085-.04-.036-.016-.095-.044-.023-.01-.113-.053-.045-.021-.07-.033-.05-.023-.066-.03-.054-.026-.065-.03-.084-.04-.069-.031-.06-.029-.055-.025-.063-.03-.047-.021-.068-.032-.036-.017-.156-.073-.018-.008-.023-.011.85-1.811zm-15.943-8.082c2.603 1.422 5.264 2.822 7.909 4.163l-.904 1.784c-2.45-1.242-4.882-2.518-7.292-3.826h-.001l-.097-.053-.002-.001-.388-.212h-.002l-.182-.1.959-1.755zm-15.419-9.044c2.512 1.579 5.083 3.14 7.641 4.64l-1.012 1.725-.056-.032-.052-.03-.059-.036-.047-.027-.064-.038-.042-.025-.066-.039-.032-.018-.148-.088-.019-.01-.07-.042-.037-.022-.069-.04-.037-.023-.07-.04-.016-.01-.162-.096-.018-.01-.076-.046-.029-.017-.074-.044-.029-.017-.249-.148-.022-.013-.075-.045-.03-.018-.077-.045-.014-.01c-.088-.051-.17-.1-.256-.152-.01-.005-.02-.01-.028-.016l-.075-.045-.027-.016-.078-.047-.009-.005-.161-.097-.025-.014-.071-.043-.034-.02-.07-.043-.033-.02-.245-.147-.024-.014-.073-.044-.034-.02c-.023-.015-.046-.028-.07-.042l-.033-.02-.236-.143-.033-.02-.07-.043-.034-.02-.07-.043-.03-.017-.161-.098-.005-.003-.074-.045-.032-.02-.07-.042-.034-.02-.252-.154-.014-.008-.077-.047-.026-.017-.08-.048-.012-.007-.272-.167c-.002 0-.003-.002-.005-.003l-.091-.055-.005-.003c-.977-.598-1.955-1.206-2.925-1.815l1.064-1.693zm-14.836-9.97c2.41 1.73 4.88 3.445 7.342 5.098l-1.116 1.66c-1.002-.673-1.989-1.345-2.983-2.03 0-.002-.002-.002-.003-.003l-.082-.057-.018-.012-.077-.054-.019-.012-.15-.104-.02-.013-.061-.043-.043-.03-.056-.039-.053-.036-.05-.035-.078-.054-.054-.038-.07-.048-.04-.029-.069-.047-.037-.026-.082-.057-.022-.016-.107-.074-.018-.012-.091-.064-.024-.017-.088-.061-.02-.015-.221-.154-.01-.007-.1-.07-.016-.01c-.035-.026-.07-.05-.106-.075l-.002-.002-.229-.16v-.001l-.114-.08-.003-.002-.34-.24c-.008-.005.001.002-.006-.004l-.454-.32-.005-.004-.34-.242h-.002l-.107-.077-.013-.01c-.036-.024-.07-.05-.106-.075l-.003-.002-.22-.156-.023-.017-.08-.057-.033-.023-.08-.058-.026-.018-.1-.072-.043-.03-.056-.041-.054-.039c-.015-.01-.03-.02-.045-.032l-.04-.028 1.166-1.626zm-14.202-10.856c2.3 1.873 4.662 3.736 7.018 5.537l-1.214 1.588c-2.196-1.678-4.368-3.387-6.514-5.125l-.02-.016-.078-.063-.033-.027-.067-.054-.035-.03-.074-.059-.08-.065-.028-.023-.072-.058-.014-.012-.051-.041 1.262-1.552zm-13.515-11.7c2.183 2.01 4.427 4.012 6.669 5.953l-1.31 1.512c-.175-.152-.35-.305-.527-.457l-.006-.006-.103-.09-.104-.09-.014-.012-.079-.069-.036-.031-.06-.053-.04-.034-.059-.052-.077-.068-.044-.038-.058-.051-.032-.028-.065-.057-.02-.017c-1.23-1.079-2.464-2.178-3.677-3.276l-.022-.021-.061-.055-.036-.033-.051-.046-.073-.066-.021-.02-.095-.085-.013-.013-.09-.08-.01-.01c-.414-.377-.828-.756-1.24-1.135l1.354-1.472zm-12.778-12.5c2.056 2.138 4.174 4.273 6.294 6.347l-1.398 1.43c-.503-.492-1.004-.985-1.503-1.48l-.29-.289-.023-.022-.07-.07-.026-.026-.073-.073-.02-.02-.085-.084-.042-.042-.045-.045-.05-.05-.035-.035-.053-.053-.019-.019-.135-.135-.005-.006-.071-.07-.011-.012-.073-.072-.001-.002c-1.246-1.25-2.484-2.514-3.708-3.785l1.442-1.387zM71.58 483.406c1.922 2.259 3.906 4.519 5.896 6.718l-1.482 1.342c-2.011-2.221-3.994-4.48-5.937-6.763l1.523-1.297zm-11.167-13.959c1.781 2.372 3.624 4.748 5.477 7.065l-1.562 1.25c-.396-.496-.787-.988-1.18-1.487h-.001l-.262-.333-.017-.021-.053-.067-.025-.032-.049-.062-.033-.043-.073-.093-.04-.05-.038-.05-.042-.053-.035-.044-.05-.063c-.01-.015-.017-.023-.029-.038l-.075-.097-.02-.024-.06-.077-.025-.033-.06-.076-.02-.025-.165-.212-.001-.002-.081-.104-.009-.011c-1.035-1.33-2.059-2.669-3.071-4.016l1.6-1.202zM50.12 454.835c1.633 2.475 3.328 4.96 5.036 7.385l-1.635 1.152c-.764-1.085-1.53-2.187-2.279-3.282l-.018-.026-.05-.073-.015-.023-.159-.232-.023-.035-.044-.064c-.01-.013-.018-.026-.027-.04l-.042-.06-.032-.048-.057-.083-.045-.068-.033-.048-.038-.056-.035-.05-.04-.06-.03-.044-.065-.096-.017-.025-.058-.086-.026-.038-.047-.07-.026-.038-.059-.087-.011-.017-.074-.11c-.006-.007-.006-.007-.01-.015-.022-.03-.042-.062-.063-.093l-.02-.029-.054-.08-.02-.03-.065-.096-.008-.011-.073-.11-.015-.022-.058-.087-.019-.028-.056-.083-.019-.028-.144-.216-.018-.026-.057-.085-.018-.027-.06-.09-.013-.02-.074-.11-.003-.004-.07-.105-.016-.025c-.02-.028-.038-.057-.057-.085l-.018-.027c-.02-.032-.042-.063-.063-.094l-.01-.015-.073-.11-.012-.018-.06-.09-.019-.03-.056-.084-.017-.025-.145-.22-.015-.022-.057-.087-.02-.029-.059-.09-.012-.018-.074-.112 1.669-1.102zm-9.383-15.214c1.478 2.57 3.017 5.153 4.575 7.678l-1.703 1.05-.27-.44-.002-.002-.05-.083-.016-.026-.046-.075-.018-.029-.07-.114-.034-.055-.03-.05-.038-.062-.03-.047-.042-.07-.022-.036-.138-.226-.006-.01-.065-.107-.007-.01c-1.07-1.758-2.122-3.527-3.156-5.309l-.01-.016-.056-.098-.013-.023-.058-.1-.01-.015-.065-.114-.016-.028-.046-.079-.03-.05-.031-.057-.034-.057-.025-.043-.142-.248-.007-.012-.023-.04 1.734-.997zM32.3 423.86c1.318 2.656 2.697 5.329 4.097 7.945l-1.764.943c-1.016-1.9-2.013-3.81-2.988-5.735l-.189-.372-.006-.013-.054-.107-.01-.017-.059-.12-.061-.12-.01-.021-.048-.094-.018-.036-.04-.08-.02-.04-.043-.085-.015-.03-.054-.108-.026-.051-.032-.064-.027-.055-.028-.055-.03-.06-.024-.048-.064-.128-.017-.035-.036-.073-.019-.037-.037-.074-.015-.03-.155-.312 1.792-.889zm-7.45-16.247c1.152 2.732 2.363 5.484 3.6 8.18l-1.818.834-.349-.763-.003-.007-.172-.378-.003-.007-.052-.115-.007-.015-.167-.37-.008-.019-.048-.105-.009-.02-.052-.116-.002-.005-.113-.25-.005-.012-.052-.115-.004-.01c-.88-1.966-1.74-3.942-2.579-5.93l1.843-.777zm-6.437-16.676c.982 2.798 2.021 5.62 3.09 8.387l-1.866.72c-.448-1.16-.887-2.32-1.32-3.487l-.003-.006-.038-.102v-.002l-.155-.417-.003-.007-.037-.1-.002-.007-.149-.404-.008-.023-.033-.088-.008-.024-.103-.28-.009-.025-.029-.079-.014-.04-.027-.074-.015-.04c-.03-.08-.062-.17-.09-.249l-.02-.052-.022-.061-.022-.063-.02-.056-.025-.067-.02-.053-.04-.114-.011-.03-.034-.094-.014-.038-.032-.089-.012-.033-.037-.104-.007-.019-.093-.259-.001-.003c-.222-.618-.441-1.236-.659-1.856l1.888-.662zm-5.397-17.039c.808 2.854 1.672 5.734 2.567 8.562l-1.907.604c-.002-.01.002.005 0-.004-.58-1.827-1.14-3.663-1.685-5.505v-.002l-.159-.539c-.25-.856-.497-1.712-.74-2.571l1.924-.545zM8.68 356.56c.631 2.898 1.315 5.826 2.035 8.702l-1.94.485c-.725-2.899-1.41-5.83-2.049-8.762l1.954-.425zM5.42 338.985c.451 2.932.955 5.898 1.496 8.813l-1.967.365c-.102-.552-.203-1.103-.302-1.656v-.003l-.025-.136-.072-.404-.005-.03-.018-.1-.006-.034-.018-.1-.006-.033-.022-.128-.004-.018-.018-.106-.01-.053-.013-.074-.01-.06-.011-.064-.011-.064-.01-.06c-.016-.084-.033-.183-.047-.268l-.006-.033-.015-.085-.006-.038-.015-.086-.006-.03-.072-.424-.003-.014-.017-.101-.003-.018-.094-.552-.001-.01-.019-.108v-.004c-.026-.151-.05-.293-.074-.444l-.002-.011-.018-.104-.002-.014-.017-.104-.002-.01-.052-.319-.003-.018-.015-.09-.006-.036-.014-.085-.007-.04-.013-.081-.007-.044-.021-.13-.011-.068-.01-.057-.011-.071-.01-.057-.012-.08-.007-.045-.019-.114-.002-.01-.043-.274-.002-.008c-.088-.555-.175-1.11-.261-1.666l1.977-.304zm-2.18-17.742c.272 2.955.593 5.944.954 8.885l-1.985.244-.045-.368v-.003l-.013-.103-.003-.025-.01-.092-.006-.038-.01-.084-.006-.051-.013-.115-.01-.08-.006-.047-.01-.087-.005-.043-.012-.099-.003-.028c-.302-2.55-.572-5.112-.808-7.682l1.991-.184zm-1.095-17.842c.092 2.968.23 5.972.412 8.93l-1.996.123-.02-.337-.002-.03L.533 312l-.003-.045-.005-.078-.005-.091-.002-.033-.008-.132-.001-.023-.007-.114-.001-.02-.007-.122v-.012c-.11-1.911-.203-3.828-.276-5.749v-.007l-.005-.129v-.012l-.01-.273-.002-.031-.003-.097-.003-.058-.002-.066-.003-.073-.001-.048-.003-.086-.001-.022c-.014-.403-.028-.811-.04-1.215l1.999-.062zM.126 285.459l2 .058c-.084 2.86-.126 5.765-.126 8.633v.31l-2 .001v-.05-.173-.088-.128-.043-.085-.053-.076-.053-.076-.055-.075-.053l.001-.08v-.05-.125-.029-.097l.001-.06v-.067-.063-.064l.001-.065v-.064-.065l.001-.058v-.07-.054l.001-.075v-.017l.002-.191v-.033-.087V292l.001-.087v-.038l.001-.086v-.037l.001-.09v-.028l.001-.099v-.006l.005-.466v-.005l.001-.112v-.01l.001-.111v-.007c.02-1.79.056-3.578.108-5.36zm1.066-17.967l1.992.178c-.265 2.952-.489 5.951-.665 8.914l-1.996-.118c.12-2.017.26-4.029.42-6.034v-.01l.01-.122.002-.024.009-.114.002-.02.01-.128v-.007l.011-.132.003-.038.008-.087.004-.06.006-.068.006-.066.004-.053.006-.08.003-.026c.052-.63.108-1.276.165-1.905zm2.156-17.866l1.977.3c-.445 2.93-.85 5.91-1.206 8.857l-1.986-.24c.15-1.238.305-2.46.47-3.693v-.005l.076-.564.002-.013.014-.105.002-.011.06-.441.002-.015.014-.1.003-.02.013-.1.003-.018c.02-.153.039-.28.06-.433l.003-.02.014-.1.002-.017.015-.104v-.002l.065-.455v-.002c.127-.897.261-1.805.397-2.7zm3.247-17.704l1.955.421c-.624 2.899-1.212 5.848-1.747 8.766l-1.968-.361c.175-.951.353-1.897.537-2.844l.021-.11.002-.01.061-.316.004-.017.015-.079.01-.05.013-.067.013-.066.011-.056.018-.093.007-.032.025-.127.005-.027.02-.105.006-.03.022-.106.004-.024c.31-1.56.632-3.116.966-4.667zm4.329-17.468l1.925.54c-.801 2.856-1.57 5.764-2.283 8.644l-1.942-.482.154-.618.01-.036.017-.07.015-.06.015-.06.02-.08.01-.041.032-.126.003-.01.03-.123.005-.016.03-.12.003-.011c.621-2.456 1.273-4.9 1.956-7.33zm5.398-17.169l1.888.659c-.976 2.8-1.922 5.654-2.812 8.483l-1.907-.6.065-.207.009-.028.024-.076.016-.052.02-.062.024-.077.014-.043.038-.123.006-.016.035-.112.007-.021.037-.116.003-.01c.34-1.07.687-2.138 1.04-3.203l.003-.011.041-.124.002-.005.085-.258.01-.028.03-.093.014-.04.028-.084.014-.043.033-.098.02-.06.025-.076c.01-.026.013-.037.022-.064l.018-.055.024-.071.013-.038.028-.084v-.002l.107-.316.001-.004c.322-.953.644-1.893.975-2.842zm6.445-16.804l1.844.774c-1.147 2.736-2.267 5.527-3.33 8.296l-1.867-.716c.185-.482.371-.963.559-1.444v-.002l.05-.128.002-.003.099-.254.01-.026.036-.093.016-.04.03-.078.019-.046.033-.086.03-.077c.01-.022.018-.044.026-.065l.026-.066.02-.05.027-.068.017-.044.152-.385.003-.008c.716-1.808 1.447-3.6 2.198-5.39zm7.467-16.374l1.793.886c-1.313 2.66-2.602 5.376-3.833 8.073l-1.82-.83c1.11-2.432 2.251-4.847 3.424-7.243l.006-.01.05-.103.015-.031.042-.086.017-.035.042-.084.049-.1.014-.03.042-.084.01-.02c.048-.1.1-.203.149-.303zm8.459-15.886l1.735.993c-1.473 2.575-2.928 5.207-4.321 7.825l-1.766-.94c.872-1.636 1.759-3.264 2.66-4.882l.002-.005.208-.371.01-.02.045-.08.014-.025.045-.08.011-.02.14-.249.02-.037.039-.068.022-.04.039-.069.023-.04.063-.112.029-.052.034-.06.028-.05.034-.06.029-.05.032-.059.039-.068.043-.076.038-.067.028-.05.036-.063.027-.047.037-.067.027-.047.058-.102.026-.046.036-.063.03-.052.035-.062.028-.05.034-.06c.01-.015.02-.036.03-.052l.057-.1.03-.052.032-.057.033-.057.029-.051.034-.06.025-.044.033-.056zm9.415-15.338l1.672 1.098c-1.629 2.48-3.241 5.018-4.793 7.545l-1.704-1.046c.483-.787.965-1.564 1.455-2.346l.002-.002.055-.089.007-.012.223-.354.015-.023.049-.078.013-.021.155-.245.017-.028.043-.068.024-.037.041-.066.026-.04.09-.141c.002-.006.006-.011.01-.017l.04-.064.026-.04.04-.064.026-.04.042-.067.019-.03.08-.126.026-.04.037-.059.031-.048.037-.059.03-.046.038-.06.034-.053.06-.093c.01-.018.022-.036.034-.054l.036-.057.031-.049.037-.057.031-.049.038-.058.06-.095.037-.057.03-.046.039-.061.028-.045.04-.061.024-.038.148-.23.02-.03.046-.072.018-.028.048-.075.006-.008.17-.263.01-.015.054-.084.006-.01.237-.365c.266-.41.537-.825.806-1.234zm10.334-14.735l1.602 1.198c-1.777 2.376-3.54 4.811-5.244 7.239l-1.637-1.149.013-.019.056-.079.013-.019.077-.109.01-.013.07-.101.007-.01c1.266-1.8 2.552-3.585 3.858-5.355l.007-.01.071-.096.014-.018.068-.093.013-.017.078-.105.012-.017.062-.084.03-.04.046-.062.033-.045.04-.054.06-.08.043-.06.042-.055c.01-.015.022-.03.033-.044l.045-.06.026-.036.048-.065.014-.02.181-.242.01-.012c.021-.03.038-.051.06-.08l.006-.01.133-.178zm11.214-14.077l1.525 1.293c-1.918 2.263-3.827 4.587-5.675 6.906l-1.564-1.246c1.868-2.346 3.776-4.666 5.714-6.953zM81.704 90.7l1.445 1.384c-2.052 2.142-4.1 4.345-6.085 6.548l-1.486-1.339c.44-.487.88-.973 1.323-1.457v-.001l.188-.205.013-.014.071-.078.034-.037.05-.054.04-.044.043-.046.18-.196.017-.02.063-.068.013-.014c1.35-1.468 2.712-2.918 4.091-4.358zm12.84-12.612l1.357 1.469c-2.178 2.013-4.356 4.088-6.472 6.166l-1.401-1.426c1.757-1.726 3.535-3.43 5.335-5.112l.01-.01.07-.064.022-.021.189-.176.048-.045.04-.038.061-.056.03-.029.082-.076.012-.01.2-.187.007-.006.41-.379zm13.581-11.808l1.266 1.548c-2.296 1.877-4.596 3.816-6.834 5.762l-1.312-1.51c.67-.582 1.342-1.161 2.017-1.737l.018-.016.08-.068.027-.023.078-.066.022-.02.094-.08.038-.032.057-.049.048-.04.043-.037.056-.047.03-.026.133-.113.012-.01.071-.06.018-.016.074-.062.01-.008c1.312-1.111 2.622-2.202 3.954-3.29zm14.276-10.96l1.169 1.622c-2.406 1.734-4.82 3.529-7.173 5.336l-1.218-1.587c.409-.313.818-.626 1.228-.937l.005-.004.096-.073.027-.02.08-.062.025-.018.104-.079.008-.006.092-.07.04-.03.057-.043c.015-.01.038-.029.053-.04.015-.01.03-.022.044-.033l.056-.042.031-.024.12-.091.035-.026.064-.048.032-.024.067-.05.026-.02.234-.176.015-.011.077-.058.017-.012.333-.25c.006-.005.012-.01.018-.013l.08-.06.005-.004.349-.26.003-.003.352-.261.001-.001.086-.064.006-.005.34-.252.02-.014.075-.056.019-.014.233-.172.027-.02.065-.048.036-.026.06-.045.048-.034.08-.06.065-.047.047-.035.058-.042.042-.031.07-.051.033-.025c.07-.05.139-.102.208-.153l.023-.016.091-.067.014-.01c.566-.414 1.133-.826 1.702-1.235zm14.917-10.07l1.067 1.692c-2.507 1.583-5.025 3.227-7.484 4.887l-1.119-1.658c2.484-1.676 4.998-3.318 7.536-4.92zm15.504-9.138l.963 1.753c-2.6 1.427-5.213 2.914-7.77 4.42L145 40.563l.837-.49.033-.02.073-.043.047-.027.061-.036.059-.034.088-.052.073-.042.03-.018.08-.046.018-.011c2.127-1.238 4.264-2.446 6.423-3.631zm16.036-8.171l.853 1.809c-2.683 1.264-5.383 2.588-8.026 3.935l-.908-1.782c.667-.34 1.335-.677 2.005-1.012.009-.004-.005.003.003-.001l.372-.186.01-.005.111-.055.015-.007.241-.12.019-.01.097-.048.033-.017.084-.04.036-.019.099-.049.02-.01.108-.053.048-.024.064-.031.054-.027.058-.028.06-.03.04-.02.146-.072.022-.01.079-.04.03-.014.081-.04.02-.01.385-.188.004-.002c1.243-.608 2.483-1.204 3.737-1.794zm16.506-7.17l.74 1.857c-2.754 1.097-5.53 2.253-8.25 3.434l-.797-1.834.899-.389.006-.002.125-.054h.001l.252-.11.017-.006.104-.045.027-.011.097-.042.026-.011.12-.051.018-.008.1-.042.043-.019.072-.03.051-.022.063-.027.058-.025.09-.038.08-.034.048-.02.071-.03.041-.018.076-.032.03-.012.285-.121.004-.002.1-.042.004-.002c1.789-.754 3.593-1.494 5.4-2.213zm16.92-6.142l.623 1.9c-2.818.925-5.66 1.908-8.449 2.92l-.682-1.88c.943-.342 1.887-.68 2.834-1.012l.005-.002.416-.146.01-.003.094-.033.02-.007.094-.033.008-.002.294-.103.027-.01.082-.028.036-.012.082-.029.025-.008.183-.064.01-.003.072-.025.05-.017.068-.024.05-.017.067-.023.06-.02.088-.031.082-.028.058-.02.063-.022.057-.02.069-.023.05-.017.094-.032.026-.01.12-.04.037-.013.089-.03.037-.013c.03-.01.062-.02.093-.032l.03-.01.254-.086.008-.003.12-.04.015-.005.121-.041.007-.003c.8-.27 1.6-.537 2.402-.8zm17.26-5.086l.507 1.935c-2.87.75-5.767 1.555-8.611 2.393l-.566-1.918c2.873-.846 5.763-1.65 8.67-2.41zm17.547-4.014l.386 1.963c-2.911.572-5.853 1.197-8.744 1.859l-.446-1.95.204-.047.015-.003.095-.022.028-.006.092-.021h.003l.183-.042.044-.01.064-.015.065-.014.058-.014.072-.016.051-.011.096-.022.03-.006.128-.03.017-.003.112-.025.028-.006.11-.025.018-.004.404-.09c1.462-.324 2.928-.637 4.397-.94h.006l.401-.082.03-.007.096-.02.042-.008.09-.018.04-.008.104-.021.068-.014.073-.015.07-.014.05-.01.08-.016.038-.008.09-.018h.001c.403-.081.808-.162 1.211-.24zm17.755-2.927l.265 1.982c-2.941.393-5.916.837-8.84 1.319l-.326-1.973.052-.009.067-.01.057-.01.074-.013.052-.008.084-.014.042-.007.117-.019.01-.001.135-.022.01-.002.121-.02.024-.003.112-.019.021-.003.13-.02.415-.067h.002c2.449-.391 4.908-.751 7.376-1.081zM272.752.766l.144 1.995c-2.961.213-5.958.474-8.907.777l-.204-1.99c1.113-.114 2.226-.222 3.342-.323l.03-.003.102-.01.034-.002.104-.01.03-.002.131-.012h.007l.12-.012.054-.004.075-.007.06-.005.064-.006.07-.006.051-.005.079-.007h.01l.324-.029.024-.002.099-.008.02-.002.103-.009h.009c1.086-.094 2.163-.18 3.253-.261h.009l.112-.01h.002l.45-.032.022-.002.09-.006.039-.003.048-.004zM290.731.02l.022 2c-2.968.034-5.975.114-8.935.236l-.083-1.998c.814-.034 1.635-.064 2.45-.091l.018-.001.1-.003.027-.001.096-.003.028-.001.2-.007h.014l.066-.002.065-.002.061-.002.073-.002.055-.002.08-.002.05-.002.102-.003h.025c.09-.004.182-.006.272-.009h.016l.12-.004h.02l.122-.004h.013c1.215-.034 2.432-.06 3.65-.08h.007c.044 0 .088 0 .132-.002h.008l.412-.006h.028l.102-.001h.042l.09-.002h.046l.085-.002h.05l.085-.001.12-.002h.066z" transform="translate(-183.2 91.6)"/>
        </g>
    </g>
</svg>
